<svg xmlns="http://www.w3.org/2000/svg" xmlns:xlink="http://www.w3.org/1999/xlink" width="53" height="66" viewBox="0 0 53 66">
  <defs>
    <linearGradient id="linear-gradient" y1="0.493" x2="1" y2="0.507" gradientUnits="objectBoundingBox">
      <stop offset="0" stop-color="#76c209"/>
      <stop offset="1" stop-color="#76c209"/>
    </linearGradient>
  </defs>
  <g id="deer-green-icon" transform="translate(-632 -1588)">
    <path id="Gradient_Overlay" data-name="Gradient Overlay" d="M646.656,1661c-.538,0-.859-.064-.986-.193-.257-.245-.3-.9-.552-7.439-.075-2.137-.113-3.555-.118-4.475v-.36a5.532,5.532,0,0,1,.067-1.07,4.6,4.6,0,0,1,1.064-1.573c1.372-1.535,1.615-1.9,1.756-2.669.065-.374.129-2.32.129-4.319,0-4.217,0-4.2,1.282-5.557l.781-.812-.461-.658a5.436,5.436,0,0,1-.961-3.184c0-.851.038-1.006.32-1.277a1.041,1.041,0,0,1,.448-.322c.282,0,.718.31,1.345.941a12.3,12.3,0,0,0,3,2.089l.563.245,10.587-.748c5.819-.412,11.074-.825,11.677-.915a9.212,9.212,0,0,0,7.305-5.415,19.286,19.286,0,0,0,1.756-7.981l.076-1.792-.372.09c-1.73.387-2.742.348-3.627-.116a4.562,4.562,0,0,1-1.563-1.637c-.462-.9-.552-.877,2.448-.877h2.691l-.269-.528c-.628-1.264-1.768-2.14-3.9-3.03-2.294-.954-3.487-1.959-4.332-3.661-.4-.813-.41-.877-.41-2.579a7.606,7.606,0,0,1,.282-2.643c.384-1.238.961-2.127,1.372-2.127a.613.613,0,0,1,.423.155,13.338,13.338,0,0,1,.115,2.037,13.181,13.181,0,0,0,.179,2.515,6.207,6.207,0,0,0,3.051,3.92,7.011,7.011,0,0,0,.871.4,3.594,3.594,0,0,0-.641-.774,5.279,5.279,0,0,1-1.589-3.6,8.312,8.312,0,0,1,1.768-5.467c.326-.372.558-.562.76-.588h.092a.591.591,0,0,1,.353.227c.218.232.205.31-.1,1.573a9.662,9.662,0,0,0-.192,4.1c.371,1.663,1.5,3,3.511,4.19a9.428,9.428,0,0,1,4.5,5.35,8.226,8.226,0,0,0,2.14,3.21,6.973,6.973,0,0,0,3.012,1.883c1.435.516,1.692.851,1.692,2.192,0,1.057-.283,1.677-.872,1.9a28.366,28.366,0,0,1-2.947.5c-1.436.193-2.641.4-2.679.438a7.754,7.754,0,0,0-.179,1.392c-.563,6.8-3.089,12.481-7.369,16.594l-1.282,1.238-.385,9.244c-.436,10.6-.294,9.774-1.589,9.774a1.585,1.585,0,0,1-1.026-.232c-.269-.22-.282-.336-.577-8.2-.167-4.384-.32-7.981-.346-8.006a6.131,6.131,0,0,0-1.461.618c-.051.052-.449,4.036-.885,8.871-.7,7.93-.807,8.806-1.025,8.961a2.49,2.49,0,0,1-1.18.18c-1.2,0-1.448-.206-1.448-1.2.013-1.522-.294-14.854-.333-14.9a9.649,9.649,0,0,0-1.423.606,15.592,15.592,0,0,1-7.882,1.767H660.73l-.205.335a9.728,9.728,0,0,1-1.936,2.154,9.217,9.217,0,0,1-2.345,1.315.288.288,0,0,0-.205.1c-.025.051-.243,1.663-.474,3.571a23.478,23.478,0,0,1-.589,3.765c-.14.258-.282.3-.935.3a1.589,1.589,0,0,1-.936-.181c-.218-.219-.257-.734-.551-5.815-.115-2.128-.23-3.881-.257-3.907a2.167,2.167,0,0,0-.589.245c-.294.155-1.128.5-1.832.774l-1.282.49-.346,5.042c-.359,5.294-.32,5.547-1.257,5.547Zm42.731-47.307a1.185,1.185,0,0,0-.679,2.011,1.126,1.126,0,0,0,1.717-1.406,1.375,1.375,0,0,0-.563-.438,2.841,2.841,0,0,0-.469-.168Z" transform="translate(-13 -7)" fill="url(#linear-gradient)"/>
  </g>
</svg>
