<svg id="leaf-icon" xmlns="http://www.w3.org/2000/svg" width="83.56" height="47.656" viewBox="0 0 83.56 47.656">
  <path id="Path_589" data-name="Path 589" d="M407.683,479.909c14.914,14.332,36.858,19.353,42.478,20.255A47.675,47.675,0,0,0,393.414,460.4c-3.663,31.7,27.964,55.39,57.146,43.582,0-.023,0-.045,0-.067C419.595,500.139,407.683,479.909,407.683,479.909Z" transform="translate(-393.124 -459.414)" fill="#08a227"/>
  <path id="Path_590" data-name="Path 590" d="M645.761,460.47a47.7,47.7,0,0,0-38.945,9.152,51.18,51.18,0,0,1,10.258,13.109c6.366-3.609,16.237-9.7,19.711-14.665-4.352,7.926-9.51,11.557-18.238,17.583a50.593,50.593,0,0,1,4.561,16.952,41.68,41.68,0,0,0,22.652-42.13Z" transform="translate(-562.49 -459.483)" fill="#8bc53f"/>
</svg>
