<svg xmlns="http://www.w3.org/2000/svg" width="75.569" height="56.332" viewBox="0 0 75.569 56.332">
  <g id="phd-hat-green-icon" transform="translate(-1723.152 -72.878)">
    <path id="Path_912" data-name="Path 912" d="M1764.975,120.341l25.016-11.5v18.807c0,5.637-11.191,10.212-25.016,10.212s-25.016-4.575-25.016-10.212V108.845Z" transform="translate(-4.043 -8.653)" fill="#76c208"/>
    <path id="Path_913" data-name="Path 913" d="M1760.932,72.878l-37.779,17.358,4.441,2.042,8.322,3.829,25.016,11.5,25.016-11.5,4.34-1.991,3.747-1.725.245-.113,4.442-2.042Z" fill="#76c208"/>
    <path id="Path_914" data-name="Path 914" d="M1811.557,105.676l3.746-1.726v13.069a4.254,4.254,0,0,0-1.868-.418,4.3,4.3,0,0,0-1.878.418Z" transform="translate(-21.269 -7.476)" fill="#76c208"/>
    <path id="Path_915" data-name="Path 915" d="M1815.945,125.547a2.808,2.808,0,1,1-2.808-2.808A2.809,2.809,0,0,1,1815.945,125.547Z" transform="translate(-20.974 -11.996)" fill="#76c208"/>
  </g>
</svg>
