<svg xmlns="http://www.w3.org/2000/svg" xmlns:xlink="http://www.w3.org/1999/xlink" width="62" height="66" viewBox="0 0 62 66">
  <defs>
    <linearGradient id="linear-gradient" y1="0.492" x2="1" y2="0.508" gradientUnits="objectBoundingBox">
      <stop offset="0" stop-color="#76c209"/>
      <stop offset="1" stop-color="#76c209"/>
    </linearGradient>
  </defs>
  <g id="whale-green-icon" transform="translate(-652 -498)">
    <path id="Gradient_Overlay" data-name="Gradient Overlay" d="M706.046,559.827c0-.168.694-2.94,1.556-6.151,1.2-4.488,1.531-5.958,1.466-6.294a2.33,2.33,0,0,0-1.183-1.445,33.141,33.141,0,0,0-4.026-.193c-4.129-.065-5.351-.232-7.744-1.071a17.4,17.4,0,0,1-7.177-4.565,18.063,18.063,0,0,1-5.171-9.453,30.2,30.2,0,0,1-.065-8.15,35.13,35.13,0,0,1,2.457-8.357c.772-1.767.811-1.986.489-2.708s-.527-.851-2.135-1.432A10.787,10.787,0,0,1,678,504.336c-.849-1.832-1.247-4.063-.849-4.823a1.791,1.791,0,0,1,.425-.542,3.715,3.715,0,0,1,1.4-.077,10.537,10.537,0,0,1,7.357,3.856,14.009,14.009,0,0,1,2.007,3.663,1.992,1.992,0,0,0,2.367,1.534c.861-.129,1.17-.49,1.775-2.076A10.809,10.809,0,0,1,697.813,500a9.892,9.892,0,0,1,3.884-1.121l1.119-.077.412.412.411.413-.077,1.121a10.388,10.388,0,0,1-6.187,8.731,18.261,18.261,0,0,1-2.02.76,2.649,2.649,0,0,0-1.9,1.328c-.245.477-.167,1.1.437,3.508a43.023,43.023,0,0,0,2.3,6.912l.681,1.586-.72.077c-.4.039-1.582.142-2.65.207a8.6,8.6,0,0,0-2.38.361,1.989,1.989,0,0,0-.065,3.456c.464.284,1.531.284,4.824-.013a123.653,123.653,0,0,0,27.012-5.61c3.7-1.148,4.747-1.354,6.225-1.226a10.818,10.818,0,0,1,8.824,6.062A8.775,8.775,0,0,1,739,531.469c0,2.334-.72,4.758-2.392,8.1l-.707,1.418-1.3.4a101.193,101.193,0,0,1-13.185,3.044c-2.907.477-3.2.581-3.691,1.238a25.67,25.67,0,0,0-1.055,3.4c-.991,3.688-1.21,4.321-1.891,5.6a13.8,13.8,0,0,1-4.258,4.8A10.8,10.8,0,0,1,707.293,561,1.654,1.654,0,0,1,706.046,559.827ZM722.9,531.4c-1.273.245-1.621.4-2.02.929a1.91,1.91,0,0,0,1.363,3.1,8.239,8.239,0,0,0,3.228-.581,1.95,1.95,0,0,0-.025-3.289,2.033,2.033,0,0,0-1.222-.3A7.187,7.187,0,0,0,722.9,531.4Zm-2.7,19.834.733-2.683,1.711-.284c2.122-.348,5.621-1.07,7.589-1.561a10.58,10.58,0,0,1,1.531-.322c.206.155-2.907,2.8-4.682,3.972a30.8,30.8,0,0,1-7.28,3.482l-.335.077ZM702.906,553.7a28.985,28.985,0,0,1-9.12-4.926c-.5-.426-1.029-.878-1.157-1.019-.18-.206.077-.142,1.171.3a25.815,25.815,0,0,0,5.557,1.471c.6.077,2.006.167,3.126.219,1.775.065,2.032.1,1.981.284-.026.116-.271,1.031-.541,2.024l-.475,1.819Zm17.8-43.162c0-7.673-.013-8.047-.257-8.576a1.383,1.383,0,0,0-.849-.825,1.716,1.716,0,0,0-1.852.155c-.591.426-.695.723-.771,2.282s-.193,1.844-.94,2.412a2.191,2.191,0,0,1-2.11,0c-.733-.554-.874-.877-.913-2.231a11.844,11.844,0,0,1,.09-2.025,5.941,5.941,0,0,1,4.514-4.642,5.262,5.262,0,0,1,3.808.528,5.986,5.986,0,0,1,3.138,4.179,19.5,19.5,0,0,1,.129,2.347,7.669,7.669,0,0,0,.09,1.663c.039,0,.45-.064.9-.141a5.858,5.858,0,0,1,5.609,2.488,6,6,0,0,1,.99,3.792c0,1.792-.219,2.334-1.094,2.759a1.658,1.658,0,0,1-1.787-.039c-.8-.438-1.03-.954-1.081-2.411-.051-1.419-.167-1.819-.695-2.257a1.786,1.786,0,0,0-2.495.206l-.373.387-.064,3.366-.065,3.379-1.929.619c-1.055.336-1.943.619-1.956.619S720.708,514.962,720.708,510.539Zm-7.717.813a2.314,2.314,0,0,1,.939-2.064,2,2,0,0,1,1.055-.258c1.261,0,1.994.851,1.994,2.322,0,1.444-.76,2.321-1.994,2.321S712.991,512.795,712.991,511.351Zm19.192-5.881a2.208,2.208,0,0,1-.926-2.115c0-1.148.27-1.715,1.029-2.09a1.95,1.95,0,0,1,2.624.8,3.41,3.41,0,0,1,.013,2.682,2.179,2.179,0,0,1-1.826.994A1.552,1.552,0,0,1,732.182,505.471Zm-5.48-5.52c-.707-.529-.849-.929-.849-2.27,0-1.431.193-1.934.952-2.4a1.575,1.575,0,0,1,1.145-.271,1.883,1.883,0,0,1,1.569,1.006,2.99,2.99,0,0,1,.257,1.663,2.911,2.911,0,0,1-.257,1.651,2.03,2.03,0,0,1-1.724.989A1.761,1.761,0,0,1,726.7,499.951Z" transform="translate(-25 3)" fill="url(#linear-gradient)"/>
  </g>
</svg>
