<svg id="sm-in-icon" xmlns="http://www.w3.org/2000/svg" width="16.981" height="16.981" viewBox="0 0 16.981 16.981">
  <path id="LinkedIn__x28_alt_x29_" d="M15.729,0H1.257A1.236,1.236,0,0,0,0,1.217V15.764a1.237,1.237,0,0,0,1.255,1.217H15.729a1.236,1.236,0,0,0,1.254-1.217V1.217A1.236,1.236,0,0,0,15.729,0ZM5.15,14.215H2.584V6.548H5.15ZM3.868,5.5H3.85a1.329,1.329,0,1,1,.033-2.649A1.329,1.329,0,1,1,3.868,5.5ZM14.4,14.215H11.834v-4.1c0-1.031-.372-1.734-1.3-1.734a1.4,1.4,0,0,0-1.316.933,1.713,1.713,0,0,0-.086.621v4.282H6.569s.034-6.948,0-7.667H9.134V7.635a2.547,2.547,0,0,1,2.311-1.267c1.688,0,2.954,1.1,2.954,3.451ZM9.117,7.659l.017-.024v.024Z" transform="translate(-0.002)" fill="#0077b5"/>
</svg>
