<svg xmlns="http://www.w3.org/2000/svg" width="23.446" height="16.119" viewBox="0 0 23.446 16.119">
  <path id="Path_14" data-name="Path 14" d="M22.45,81.553c-.636-1.131-1.326-1.339-2.731-1.418-1.4-.1-4.934-.135-7.992-.135s-6.6.04-8,.133-2.094.287-2.736,1.42S0,84.629,0,88.055v.012c0,3.411.337,5.372.992,6.49s1.332,1.336,2.734,1.432,4.935.13,8,.13,6.588-.048,7.994-.129,2.1-.3,2.731-1.432c.661-1.118.995-3.079.995-6.49v-.012C23.446,84.629,23.112,82.683,22.45,81.553ZM8.792,92.456V83.663l7.327,4.4Z" transform="translate(0 -80)"/>
</svg>
