<svg id="instagram-logo" xmlns="http://www.w3.org/2000/svg" width="21.109" height="21.109" viewBox="0 0 21.109 21.109">
  <path id="Path_15" data-name="Path 15" d="M15.284,0H5.825A5.832,5.832,0,0,0,0,5.825v9.458a5.832,5.832,0,0,0,5.825,5.825h9.458a5.832,5.832,0,0,0,5.825-5.825V5.825A5.832,5.832,0,0,0,15.284,0Zm3.953,15.284a3.957,3.957,0,0,1-3.953,3.952H5.825a3.957,3.957,0,0,1-3.952-3.952V5.825A3.957,3.957,0,0,1,5.825,1.873h9.458a3.957,3.957,0,0,1,3.953,3.952v9.458Z" fill="#222"/>
  <path id="Path_16" data-name="Path 16" d="M46.407,40.97a5.439,5.439,0,1,0,5.439,5.439A5.445,5.445,0,0,0,46.407,40.97Zm0,9.005a3.566,3.566,0,1,1,3.566-3.566A3.57,3.57,0,0,1,46.407,49.975Z" transform="translate(-35.853 -35.855)" fill="#222"/>
  <path id="Path_17" data-name="Path 17" d="M120.294,28.251a1.373,1.373,0,1,0,.971.4A1.379,1.379,0,0,0,120.294,28.251Z" transform="translate(-104.073 -24.724)" fill="#222"/>
</svg>
