<svg xmlns="http://www.w3.org/2000/svg" width="114.515" height="36.844" viewBox="0 0 114.515 36.844">
  <g id="top-social-icons" transform="translate(2077.633 -2642)">
    <g id="linkedin-logo" transform="translate(-2014.256 2642.015)">
      <path id="LinkedIn__x28_alt_x29_" d="M12.81,0H1.024A1.007,1.007,0,0,0,0,.991V12.838a1.007,1.007,0,0,0,1.022.991H12.81a1.007,1.007,0,0,0,1.021-.991V.991A1.006,1.006,0,0,0,12.81,0ZM4.195,11.576H2.105V5.332H4.195ZM3.15,4.479H3.136a1.082,1.082,0,1,1,.027-2.157A1.083,1.083,0,1,1,3.15,4.479Zm8.576,7.1H9.638V8.235c0-.839-.3-1.412-1.058-1.412a1.141,1.141,0,0,0-1.072.759,1.4,1.4,0,0,0-.07.506v3.487H5.35s.027-5.658,0-6.244H7.439v.885A2.074,2.074,0,0,1,9.321,5.185c1.375,0,2.406.892,2.406,2.811Zm-4.3-5.339.014-.02v.02Z" transform="translate(-0.002)" fill="#fccf00"/>
    </g>
    <g id="linkedin-logo-2" data-name="linkedin-logo" transform="translate(-2014.256 2665.015)">
      <path id="LinkedIn__x28_alt_x29_2" data-name="LinkedIn__x28_alt_x29_" d="M12.81,0H1.024A1.007,1.007,0,0,0,0,.991V12.838a1.007,1.007,0,0,0,1.022.991H12.81a1.007,1.007,0,0,0,1.021-.991V.991A1.006,1.006,0,0,0,12.81,0ZM4.195,11.576H2.105V5.332H4.195ZM3.15,4.479H3.136a1.082,1.082,0,1,1,.027-2.157A1.083,1.083,0,1,1,3.15,4.479Zm8.576,7.1H9.638V8.235c0-.839-.3-1.412-1.058-1.412a1.141,1.141,0,0,0-1.072.759,1.4,1.4,0,0,0-.07.506v3.487H5.35s.027-5.658,0-6.244H7.439v.885A2.074,2.074,0,0,1,9.321,5.185c1.375,0,2.406.892,2.406,2.811Zm-4.3-5.339.014-.02v.02Z" transform="translate(-0.002)" fill="#006cb2"/>
    </g>
    <g id="youtube" transform="translate(-1978.495 2643.644)">
      <g id="Group_26" data-name="Group 26" transform="translate(0 0)">
        <path id="Path_14" data-name="Path 14" d="M14.724,81.019c-.417-.742-.87-.878-1.791-.93S9.7,80,7.69,80s-4.326.026-5.246.087-1.373.188-1.794.931S0,83.036,0,85.283v.008c0,2.237.221,3.523.651,4.257s.874.876,1.793.939,3.237.086,5.246.086,4.321-.032,5.243-.085,1.374-.2,1.791-.939c.433-.733.653-2.019.653-4.257v-.008C15.377,83.036,15.158,81.76,14.724,81.019Zm-8.957,7.15V82.4l4.805,2.883Z" transform="translate(0 -80)" fill="#fccf00"/>
      </g>
    </g>
    <g id="youtube-2" data-name="youtube" transform="translate(-1978.495 2666.644)">
      <g id="Group_26-2" data-name="Group 26" transform="translate(0 0)">
        <path id="Path_14-2" data-name="Path 14" d="M14.724,81.019c-.417-.742-.87-.878-1.791-.93S9.7,80,7.69,80s-4.326.026-5.246.087-1.373.188-1.794.931S0,83.036,0,85.283v.008c0,2.237.221,3.523.651,4.257s.874.876,1.793.939,3.237.086,5.246.086,4.321-.032,5.243-.085,1.374-.2,1.791-.939c.433-.733.653-2.019.653-4.257v-.008C15.377,83.036,15.158,81.76,14.724,81.019Zm-8.957,7.15V82.4l4.805,2.883Z" transform="translate(0 -80)" fill="#e32c26"/>
      </g>
    </g>
    <g id="yellow-facebook-logo" transform="translate(-2077.633 2642)">
      <g id="Group_19" data-name="Group 19" transform="translate(0)">
        <path id="Path_11" data-name="Path 11" d="M152.29,0h-1.442a3.1,3.1,0,0,0-2.377.785,3.308,3.308,0,0,0-.722,2.314v.972a.465.465,0,0,1-.465.465h-.5A.465.465,0,0,0,146.32,5V6.457a.465.465,0,0,0,.465.465h.5a.465.465,0,0,1,.465.465v5.992a.465.465,0,0,0,.465.465h1.935a.465.465,0,0,0,.465-.465V7.387a.465.465,0,0,1,.465-.465h.977a.528.528,0,0,0,.514-.462L152.723,5a.409.409,0,0,0-.416-.462h-1.229a.465.465,0,0,1-.465-.465V3.344a2.611,2.611,0,0,1,.025-.416.81.81,0,0,1,.113-.29.463.463,0,0,1,.286-.2,2.035,2.035,0,0,1,.525-.055h.728a.465.465,0,0,0,.465-.465V.465A.465.465,0,0,0,152.29,0Z" transform="translate(-146.32)" fill="#fccf00"/>
      </g>
    </g>
    <g id="facebook-letter-logo" transform="translate(-2077.633 2665)">
      <g id="Group_19-2" data-name="Group 19" transform="translate(0)">
        <path id="Path_11-2" data-name="Path 11" d="M152.29,0h-1.442a3.1,3.1,0,0,0-2.377.785,3.308,3.308,0,0,0-.722,2.314v.972a.465.465,0,0,1-.465.465h-.5A.465.465,0,0,0,146.32,5V6.457a.465.465,0,0,0,.465.465h.5a.465.465,0,0,1,.465.465v5.992a.465.465,0,0,0,.465.465h1.935a.465.465,0,0,0,.465-.465V7.387a.465.465,0,0,1,.465-.465h.977a.528.528,0,0,0,.514-.462L152.723,5a.409.409,0,0,0-.416-.462h-1.229a.465.465,0,0,1-.465-.465V3.344a2.611,2.611,0,0,1,.025-.416.81.81,0,0,1,.113-.29.463.463,0,0,1,.286-.2,2.035,2.035,0,0,1,.525-.055h.728a.465.465,0,0,0,.465-.465V.465A.465.465,0,0,0,152.29,0Z" transform="translate(-146.32)" fill="#335497"/>
      </g>
    </g>
    <g id="yellow-instagram-logo" transform="translate(-2049.202 2642)">
      <path id="Path_15" data-name="Path 15" d="M10.024,0H3.82A3.825,3.825,0,0,0,0,3.821v6.2a3.825,3.825,0,0,0,3.82,3.821h6.2a3.825,3.825,0,0,0,3.821-3.821v-6.2A3.825,3.825,0,0,0,10.024,0Zm2.592,10.024a2.6,2.6,0,0,1-2.592,2.592H3.82a2.6,2.6,0,0,1-2.592-2.592v-6.2A2.6,2.6,0,0,1,3.82,1.228h6.2a2.6,2.6,0,0,1,2.592,2.592v6.2Z" fill="#fccf00"/>
      <path id="Path_16" data-name="Path 16" d="M44.535,40.97A3.567,3.567,0,1,0,48.1,44.537,3.571,3.571,0,0,0,44.535,40.97Zm0,5.906a2.339,2.339,0,1,1,2.339-2.339A2.342,2.342,0,0,1,44.535,46.876Z" transform="translate(-37.613 -37.615)" fill="#fccf00"/>
      <path id="Path_17" data-name="Path 17" d="M119.822,28.251a.9.9,0,1,0,.637.264A.9.9,0,0,0,119.822,28.251Z" transform="translate(-109.183 -25.938)" fill="#fccf00"/>
    </g>
    <g id="instagram-logo" transform="translate(-2049.202 2665)">
      <path id="Path_15-2" data-name="Path 15" d="M10.024,0H3.82A3.825,3.825,0,0,0,0,3.821v6.2a3.825,3.825,0,0,0,3.82,3.821h6.2a3.825,3.825,0,0,0,3.821-3.821v-6.2A3.825,3.825,0,0,0,10.024,0Zm2.592,10.024a2.6,2.6,0,0,1-2.592,2.592H3.82a2.6,2.6,0,0,1-2.592-2.592v-6.2A2.6,2.6,0,0,1,3.82,1.228h6.2a2.6,2.6,0,0,1,2.592,2.592v6.2Z" fill="#fd5d4b"/>
      <path id="Path_16-2" data-name="Path 16" d="M44.535,40.97A3.567,3.567,0,1,0,48.1,44.537,3.571,3.571,0,0,0,44.535,40.97Zm0,5.906a2.339,2.339,0,1,1,2.339-2.339A2.342,2.342,0,0,1,44.535,46.876Z" transform="translate(-37.613 -37.615)" fill="#fd5d4b"/>
      <path id="Path_17-2" data-name="Path 17" d="M119.822,28.251a.9.9,0,1,0,.637.264A.9.9,0,0,0,119.822,28.251Z" transform="translate(-109.183 -25.938)" fill="#fd5d4b"/>
    </g>
  </g>
</svg>
