<svg id="linkedin-logo" xmlns="http://www.w3.org/2000/svg" width="13.829" height="13.829" viewBox="0 0 13.829 13.829">
  <path id="LinkedIn__x28_alt_x29_" d="M12.81,0H1.024A1.007,1.007,0,0,0,0,.991V12.838a1.007,1.007,0,0,0,1.022.991H12.81a1.007,1.007,0,0,0,1.021-.991V.991A1.006,1.006,0,0,0,12.81,0ZM4.195,11.576H2.105V5.332H4.195ZM3.15,4.479H3.136a1.082,1.082,0,1,1,.027-2.157A1.083,1.083,0,1,1,3.15,4.479Zm8.576,7.1H9.638V8.235c0-.839-.3-1.412-1.058-1.412a1.141,1.141,0,0,0-1.072.759,1.4,1.4,0,0,0-.07.506v3.487H5.35s.027-5.658,0-6.244H7.439v.885A2.074,2.074,0,0,1,9.321,5.185c1.375,0,2.406.892,2.406,2.811Zm-4.3-5.339.014-.02v.02Z" transform="translate(-0.002)" fill="#fff"/>
</svg>
