<svg id="facebook-letter-logo" xmlns="http://www.w3.org/2000/svg" width="6.435" height="13.844" viewBox="0 0 6.435 13.844">
  <g id="Group_19" data-name="Group 19" transform="translate(0)">
    <path id="Path_11" data-name="Path 11" d="M152.29,0h-1.442a3.1,3.1,0,0,0-2.377.785,3.308,3.308,0,0,0-.722,2.314v.972a.465.465,0,0,1-.465.465h-.5A.465.465,0,0,0,146.32,5V6.457a.465.465,0,0,0,.465.465h.5a.465.465,0,0,1,.465.465v5.992a.465.465,0,0,0,.465.465h1.935a.465.465,0,0,0,.465-.465V7.387a.465.465,0,0,1,.465-.465h.977a.528.528,0,0,0,.514-.462L152.723,5a.409.409,0,0,0-.416-.462h-1.229a.465.465,0,0,1-.465-.465V3.344a2.611,2.611,0,0,1,.025-.416.81.81,0,0,1,.113-.29.463.463,0,0,1,.286-.2,2.035,2.035,0,0,1,.525-.055h.728a.465.465,0,0,0,.465-.465V.465A.465.465,0,0,0,152.29,0Z" transform="translate(-146.32)" fill="#fff"/>
  </g>
</svg>
