<svg id="instagram-logo" xmlns="http://www.w3.org/2000/svg" width="13.844" height="13.844" viewBox="0 0 13.844 13.844">
  <path id="Path_15" data-name="Path 15" d="M10.024,0H3.82A3.825,3.825,0,0,0,0,3.821v6.2a3.825,3.825,0,0,0,3.82,3.821h6.2a3.825,3.825,0,0,0,3.821-3.821v-6.2A3.825,3.825,0,0,0,10.024,0Zm2.592,10.024a2.6,2.6,0,0,1-2.592,2.592H3.82a2.6,2.6,0,0,1-2.592-2.592v-6.2A2.6,2.6,0,0,1,3.82,1.228h6.2a2.6,2.6,0,0,1,2.592,2.592v6.2Z" fill="#fff"/>
  <path id="Path_16" data-name="Path 16" d="M44.535,40.97A3.567,3.567,0,1,0,48.1,44.537,3.571,3.571,0,0,0,44.535,40.97Zm0,5.906a2.339,2.339,0,1,1,2.339-2.339A2.342,2.342,0,0,1,44.535,46.876Z" transform="translate(-37.613 -37.615)" fill="#fff"/>
  <path id="Path_17" data-name="Path 17" d="M119.822,28.251a.9.9,0,1,0,.637.264A.9.9,0,0,0,119.822,28.251Z" transform="translate(-109.183 -25.938)" fill="#fff"/>
</svg>
