<svg id="_13" data-name="13" xmlns="http://www.w3.org/2000/svg" width="130" height="130" viewBox="0 0 130 130">
  <path id="Path_630" data-name="Path 630" d="M83.8,541.9h130v130H83.8Z" transform="translate(-83.8 -541.9)" fill="#3f7e44"/>
  <path id="Path_631" data-name="Path 631" d="M102.295,555.342V581.6H97.851V561.483l-3.07,3.232H94.7v-4.605l4.04-4.767Zm14.543,5.737v2.262a4.326,4.326,0,0,1-2.989,4.282c2.181.485,3.232,2.02,3.232,4.444v3.878c0,3.636-1.939,5.979-6.383,5.979s-6.06-2.586-6.06-6.544v-3.474h4.04v3.717c0,1.535.566,2.585,2.02,2.585,1.374,0,1.939-.97,1.939-2.343V571.5c0-1.374-.646-2.1-2.181-2.1H108.6v-3.393h1.7c1.454,0,2.343-.727,2.343-2.1v-2.828c0-1.454-.485-2.343-1.858-2.343s-1.858.889-1.858,2.586v2.666h-4.04v-2.343c0-3.878,1.616-6.544,6.14-6.544,4.04,0,5.817,2.262,5.817,5.979m81.765,64.8a59.507,59.507,0,0,0-95.5,0,3.421,3.421,0,0,1-.4.565c.081.162.242.323.4.566a59.507,59.507,0,0,0,95.5,0,3.424,3.424,0,0,1,.4-.566c-.162-.162-.242-.4-.4-.565M134.775,614c.242-.4,1.131-1.454,1.212-1.616.242-.323.646-.323.97-.4s.727.081.727.323a2.325,2.325,0,0,1-.242,1.293,3.608,3.608,0,0,1-2.1.97c-.4-.081-.646-.4-.566-.566m-.97,2.02c.081-.081.081-.081.081-.162a2.6,2.6,0,0,1,1.616-.566c.485-.081,1.131.162,1.212.485s-1.212.969-1.535,1.131c-.727.646-1.777,1.939-2.424,2.1a.453.453,0,0,1-.485-.081c.4-.889.97-1.939,1.535-2.909m10.746,22.138a5.812,5.812,0,0,1-1.212,2.586,4.226,4.226,0,0,1-2.747,1.05c-.889-.081-1.05-2.5-1.05-3.717,0-.4-.646.889-.97-1.777-.242-1.7-1.293.162-1.374-.97s-.646-.889-1.212-1.616-1.293.081-2.02.4c-.808.323-.485.565-1.535.162h-.081a19.427,19.427,0,0,1-1.616-7.837,16.887,16.887,0,0,1,.081-2.02.174.174,0,0,1,.162-.162c1.05-1.293,1.05-1.535,1.05-1.535l1.212-.4a27.246,27.246,0,0,1,3.313.808c1.131.4,2.989,1.454,4.04.97.808-.323,1.374-.727,1.293-1.374-.081-.808-.727-.97-1.454-.485-.323.162-.889-1.212-1.374-1.131s.566,1.7.162,1.7c-.4.081-1.212-1.7-1.374-1.939s-.727-.97-1.293-.4c-1.212,1.131-3.07,1.05-3.474,1.373-1.212.889-1.454-.323-1.454-.97.081-.162.081-.323.162-.485a2.5,2.5,0,0,1,2.262-.242c.485.323.889-.081,1.131-.323a.614.614,0,0,0,0-.808c-.162-.242.242-.485.566-.566.242-.081,1.131-.727,1.535-.889a4.893,4.893,0,0,1,3.07,0,1.658,1.658,0,0,0,2.02-.4,4.365,4.365,0,0,1,1.454-1.212c.323-.162-.727-1.05-1.535-.081-.808,1.05-1.212,1.131-1.616,1.131s-2.666-.566-2.989-1.293c-.242-.727.727-1.293,1.616-1.7s3.232-.4,3.8-.566c1.212-.242,2.747-.889,3.555-.323.808.485-3.232,1.454-1.939,2.182.485.242,2.585-1.212,3.313-1.616,1.7-.889-1.7-1.212-1.212-2.99.485-2.02-4.2-1.293-6.464-1.05a19.775,19.775,0,0,1,10.827-3.151,20.019,20.019,0,0,1,19.472,15.351c0,.4-.081.727-.081.889a1.29,1.29,0,0,1-2.343.162c-.242-.323-1.05-1.131-1.05.323,0,1.374,1.374,1.535.081,2.343a4.556,4.556,0,0,1-2.1.808,2.983,2.983,0,0,0-1.05,2.424c.162.727,1.939,2.828.646,2.747a7.886,7.886,0,0,1-3.151-2.747c-.4-1.131-.889-2.181-1.212-3.07a1.194,1.194,0,0,0-1.858-.566c-.727.485.162.97-.323,2.02s-.889,1.939-1.616,1.131c-1.939-2.262-4.767-1.131-5.252-3.636-.242-1.373-1.374-1.212-2.343-2.02-.97-.727-1.535-1.212-1.7-.646-.162.485,3.07,3.07,3.313,3.717.323.97-.97,1.858-1.939,2.02-.97.242-1.374-.566-2.343-1.535s-1.374-1.7-1.374-.889a4.255,4.255,0,0,0,1.858,3.313c.808.485,1.7.727,1.454,1.616-.242.808,0,.323-.889,1.293a2.641,2.641,0,0,0-1.05,2.424c.081,1.293-.242,1.293-.485,2.343-.4,1.212-.889.323-1.293,1.858m21.572-8c.646-.081,1.7.889,1.293,1.212a1.9,1.9,0,0,1-1.939-.162c-.485-.4.323-1.05.646-1.05m-.889-.646c-.242-.081-.4-.323-.566-.808s.242-.808.646-.566.97.808.97,1.131c0,.4-.808.4-1.05.242m-8.888,0a1.9,1.9,0,0,1-1.939-.162c-.485-.4.323-1.05.646-1.05.727-.081,1.7.889,1.293,1.212m-8.16,3.959c-.242.485-1.05,3.8-1.535,3.393s.242-3.878.323-4.2c.808-1.374,2.5-1.293,1.212.808m2.747,13.089a21.733,21.733,0,0,1-5.656-.808.852.852,0,0,1-.242-.97c.646-1.616,2.5-2.262,3.959-2.424,3.232-.323,7.514,2.1,8.241,1.7.646-.4,2.02-2.182,4.04-2.1a3.7,3.7,0,0,1,1.858.485,20.183,20.183,0,0,1-12.2,4.121m14.139-5.817a5.556,5.556,0,0,0-.646-.242c-1.131-.566-.97.323-1.535.162s.646-1.454-1.05-.4c-1.616,1.05-1.212-.162-1.858-1.939-.727-1.778.808-3.8,2.1-4.282a32.2,32.2,0,0,1,3.636-.97c2.424-.565,2.909-2.02,3.393-1.131l.242.485a2.754,2.754,0,0,1,.323,1.293,20.421,20.421,0,0,1-4.605,7.029m5.494-10.1c-.566-.162-2.828-3.232-.97-5.332.323-.323-.566-1.293-.323-1.374.97-.081,1.454.566,1.777,1.374v1.131a35.142,35.142,0,0,1-.485,4.2M127.341,563.26v-5.171c0-1.7.808-2.828,2.666-2.828,1.939,0,2.5,1.131,2.5,2.666v1.293H130.9v-1.373c0-.646-.242-1.05-.889-1.05s-.889.485-.889,1.131v5.737c0,.646.242,1.131.889,1.131s.889-.4.889-1.05v-1.939h1.616v1.858c0,1.535-.646,2.666-2.5,2.666A2.823,2.823,0,0,1,127.341,563.26Zm6.3-7.918h1.777v9.13h2.1v1.454h-3.878Zm4.929,0h1.778v10.584h-1.778Zm8,3.717-1.293,6.868h-.808l-1.293-6.868v6.868h-1.454V555.342h2.1l1.131,5.979,1.05-5.979h2.262v10.584h-1.616l-.081-6.868Zm2.585,6.948,2.02-10.584h2.02l2.02,10.584h-1.858l-.323-1.939h-1.858l-.323,1.939Zm2.181-3.393h1.454l-.727-4.282Zm3.636-7.272h4.767V556.8h-1.454v9.13h-1.777V556.8h-1.454l-.081-1.454Zm5.736,0h4.282V556.8h-2.5v3.07h1.778v1.454h-1.778v3.232h2.5v1.454H160.71Zm-33.692,26.016,2.02-10.584h2.02l2.02,10.584H131.3l-.323-1.939h-1.858l-.323,1.939h-1.778Zm2.262-3.393h1.454l-.727-4.282-.727,4.282Zm4.363.646v-5.171c0-1.7.808-2.828,2.666-2.828,1.939,0,2.5,1.131,2.5,2.666v1.293H137.2V573.2c0-.646-.242-1.05-.889-1.05s-.889.485-.889,1.131v5.736c0,.646.242,1.131.889,1.131s.889-.4.889-1.05v-1.939h1.616v1.858c0,1.535-.646,2.666-2.5,2.666a2.732,2.732,0,0,1-2.666-3.07Zm5.817-7.837h4.767v1.454h-1.454v9.13H141v-9.13h-1.454l-.081-1.454Zm5.736,0h1.777v10.584H145.2Zm2.989,7.837v-5.171c0-1.7.808-2.828,2.666-2.828a2.567,2.567,0,0,1,2.747,2.828v5.171a2.529,2.529,0,0,1-2.747,2.828C148.995,581.52,148.187,580.227,148.187,578.612Zm3.555.323V573.2c0-.646-.242-1.131-.889-1.131s-.889.485-.889,1.131v5.736c0,.646.242,1.131.889,1.131C151.5,579.985,151.742,579.581,151.742,578.935Zm4.525-4.282v6.706h-1.535V570.774h1.778l1.939,6.06v-6.06H159.9v10.584h-1.535Z" transform="translate(-85.893 -544.435)" fill="#fff"/>
</svg>
