<svg xmlns="http://www.w3.org/2000/svg" width="130" height="130" viewBox="0 0 130 130">
  <g id="_14" data-name="14" transform="translate(0)">
    <path id="Path_632" data-name="Path 632" d="M262.1,541.9h130v130h-130Z" transform="translate(-262.1 -541.9)" fill="#0a97d9"/>
    <path id="Path_633" data-name="Path 633" d="M281.295,555.462v26.178h-4.444V561.6l-3.07,3.232H273.7v-4.605l4.04-4.767Zm13.412,26.178v-4.282h1.778v-3.474h-1.778v-18.5h-4.363l-7.595,19.229v2.747h7.756v4.282h4.2Zm-8.08-7.676,3.959-10.827v10.827Zm77.806,65.444c-1.616-2.182-12.2-15.674-26.986-15.674-12.847,0-26.663,11.635-26.663,11.635s-5.171-10.584-15.755-11.635h-.242a.433.433,0,0,0-.4.4.994.994,0,0,0,.162.4c1.374,2.262,4.848,8.726,4.848,15.109,0,6.464-3.474,12.927-4.848,15.19l-.081.162c0,.081-.081.162-.081.242a.382.382,0,0,0,.4.4h.162c10.584-.969,15.836-11.635,15.836-11.635s13.735,11.635,26.663,11.635c14.786,0,25.37-13.493,26.986-15.674.081-.081.081-.081.081-.162v-.323l-.081-.081m-18.825,2.02a4.345,4.345,0,0,1-4.363-4.363,4.277,4.277,0,0,1,4.363-4.282,4.323,4.323,0,1,1,0,8.645m-50.982-43.064h-.081a.382.382,0,0,0-.4.4v2.99a.42.42,0,0,0,.162.323c7.191,6.221,13.9.4,15.513-1.131a.079.079,0,0,1,.081-.081.3.3,0,0,1,.242-.081c.081,0,.242.081.323.081,8.08,7.676,16.563,1.454,18.341,0l.162-.162h.323l.162.162c1.777,1.454,10.261,7.676,18.341,0,.081-.081.162-.081.323-.081a.3.3,0,0,1,.242.081.079.079,0,0,1,.081.081c1.535,1.535,8.322,7.352,15.513,1.131a.42.42,0,0,0,.162-.323v-2.99a.382.382,0,0,0-.4-.4h-.081c-.081,0-.162.081-.242.081a12.977,12.977,0,0,1-15.19-2.1l-.162-.162h-.323c-.081,0-.162.081-.242.162-1.858,1.374-10.342,7.11-17.856.081l-.081-.081a.42.42,0,0,0-.323-.162.612.612,0,0,0-.323.162l-.081.081c-7.514,7.029-16,1.293-17.856-.081-.081-.081-.081-.162-.242-.162h-.323l-.162.162a12.845,12.845,0,0,1-15.19,2.1,1.645,1.645,0,0,1-.4-.081m15.109,13.251a.079.079,0,0,1,.081-.081.3.3,0,0,1,.242-.081c.081,0,.242.081.323.081,8.08,7.675,16.563,1.454,18.341,0l.162-.162h.323l.162.162c1.778,1.454,10.261,7.675,18.341,0,.081-.081.162-.081.323-.081a.3.3,0,0,1,.242.081.079.079,0,0,1,.081.081c1.535,1.535,8.322,7.352,15.513,1.131a.42.42,0,0,0,.162-.323v-2.989a.382.382,0,0,0-.4-.4h-.081c-.081,0-.162.081-.242.081a12.977,12.977,0,0,1-15.19-2.1l-.162-.162c-.081,0-.081-.081-.162-.081h-.162c-.081,0-.162.081-.242.162-1.858,1.374-10.342,7.11-17.856.081l-.081-.081c-.081-.081-.162-.081-.323-.081-.081,0-.242.081-.323.081l-.081.081c-7.514,7.029-16,1.293-17.856-.081-.081-.081-.081-.162-.242-.162h-.162c-.081,0-.081,0-.162.081l-.162.162a12.977,12.977,0,0,1-15.19,2.1c-.081,0-.162-.081-.242-.081h-.081a.382.382,0,0,0-.4.4v2.989a.42.42,0,0,0,.162.323c7.029,6.221,13.816.4,15.351-1.131m-3.878-56.234h1.777v9.13h2.1v1.454h-3.878V555.381Zm4.767,0H312.4v10.584h-1.778Zm2.909,0h4.2v1.454H315.31v3.07h1.778v1.454H315.31v4.686h-1.778V555.381Zm5.009,0h4.282v1.454h-2.5v3.07H322.1v1.454h-1.777v3.232h2.5v1.454h-4.282V555.381Zm7.595,0h2.585c1.778,0,2.343.808,2.343,2.343v1.05a1.56,1.56,0,0,1-1.05,1.7,1.619,1.619,0,0,1,1.293,1.778v1.374c0,1.535-.646,2.343-2.424,2.343h-2.747V555.381Zm1.777,4.525h.646c.566,0,.808-.323.808-.889v-1.293a.775.775,0,0,0-.889-.889h-.646v3.07h.081Zm0,1.373v3.313h.808a.808.808,0,0,0,.889-.889v-1.616a.775.775,0,0,0-.889-.889Zm4.2-5.9H336.4v1.454h-2.5v3.07h1.777v1.454h-1.777v3.232h2.5v1.454h-4.282V555.381Zm5.413,0h1.778v9.13h2.1v1.454h-3.878V555.381Zm4.605,7.918v-5.171c0-1.7.808-2.828,2.666-2.828a2.567,2.567,0,0,1,2.747,2.828V563.3a2.709,2.709,0,1,1-5.413,0Zm3.555.242V557.8c0-.646-.242-1.131-.889-1.131s-.889.485-.889,1.131v5.736c0,.646.242,1.131.889,1.131S345.689,564.188,345.689,563.541Zm6.544-4.121-.97,6.544h-1.7l-1.454-10.584h1.7l.808,6.706.889-6.706h1.454l.97,6.706.808-6.706h1.535L354.9,565.965h-1.7l-.97-6.544Z" transform="translate(-264.328 -544.473)" fill="#fff"/>
    <g id="Group_409" data-name="Group 409" transform="translate(41.287 26.501)">
      <path id="Path_634" data-name="Path 634" d="M317.321,578.74l-.97,6.544h-1.7L313.2,574.7h1.7l.808,6.706.889-6.706h1.454l.97,6.706.808-6.706h1.535l-1.374,10.584h-1.7Zm3.959,6.625,2.02-10.584h2.02l2.02,10.584h-1.858l-.323-1.939H323.3l-.323,1.939h-1.7Zm2.181-3.393h1.454l-.727-4.282Zm3.474-7.272H331.7v1.454h-1.454v9.13H328.47v-9.13h-1.454V574.7Zm5.575,0h4.282v1.454h-2.5v3.07h1.778v1.454h-1.778v3.232h2.5v1.454H332.51V574.7Zm7.029,5.736v4.848h-1.777V574.7h2.585c1.778,0,2.424.889,2.424,2.343v1.374a1.762,1.762,0,0,1-1.454,2.02l1.7,4.848h-1.858l-1.616-4.848Zm0-4.282v3.313h.566a.775.775,0,0,0,.889-.889v-1.535a.775.775,0,0,0-.889-.889Z" transform="translate(-313.2 -574.7)" fill="#fff"/>
    </g>
  </g>
</svg>
