<svg xmlns="http://www.w3.org/2000/svg" width="130" height="130" viewBox="0 0 130 130">
  <g id="_15" data-name="15" transform="translate(0)">
    <path id="Path_635" data-name="Path 635" d="M440.5,541.9h130v130h-130Z" transform="translate(-440.5 -541.9)" fill="#56c02b"/>
    <path id="Path_636" data-name="Path 636" d="M452.3,560.167v4.605l3.07-3.232h.081v20.118h4.363V555.4H456.34Zm18.017,3.555A4.092,4.092,0,0,0,466.6,565.5v-6.544H474.2V555.4H462.561v14.786h4.04v-.566c0-1.535.727-2.424,1.939-2.424,1.374,0,1.858.889,1.858,2.343v6.3c0,1.374-.485,2.343-1.858,2.343-1.535,0-2.02-.969-2.02-2.585v-3.313h-4.04v2.99c0,3.959,1.616,6.544,6.06,6.544s6.3-2.343,6.3-5.979v-6.383c0-4.04-2.182-5.736-4.525-5.736" transform="translate(-442.766 -544.493)" fill="#fff"/>
    <g id="Group_410" data-name="Group 410" transform="translate(33.126 51.548)">
      <path id="Path_637" data-name="Path 637" d="M502.83,642.058a.348.348,0,0,1,.323.323v9.453a.348.348,0,0,1-.323.323h-3.8a.348.348,0,0,1-.323-.323v-9.453a.348.348,0,0,1,.323-.323ZM544.925,656.2h-63.1a.348.348,0,0,0-.323.323V660.4a.348.348,0,0,0,.323.323h63.1a.348.348,0,0,0,.323-.323v-3.878a.348.348,0,0,0-.323-.323m0,7.676h-63.1a.348.348,0,0,0-.323.323v3.878a.348.348,0,0,0,.323.323h63.1a.348.348,0,0,0,.323-.323V664.2a.348.348,0,0,0-.323-.323m-12.039-32.237a9.286,9.286,0,0,0-5.494-2.02,7.248,7.248,0,0,0-5.09,2.182.617.617,0,0,0-.162.4v.323a.618.618,0,0,0,.162.4.5.5,0,0,0,.485.081h.081c.081-.081.242-.081.323-.162a4.65,4.65,0,0,1,2.5-.566,9.423,9.423,0,0,1,6.544,2.747l.081.081a.734.734,0,0,0,.566.242.872.872,0,0,0,.566-.242l.081-.081a9.82,9.82,0,0,1,6.544-2.747,4.649,4.649,0,0,1,2.5.566,1.115,1.115,0,0,0,.323.242c.081,0,.242.081.4,0a.512.512,0,0,0,.4-.485v-.323a.617.617,0,0,0-.162-.4,7.29,7.29,0,0,0-5.171-2.181,8.355,8.355,0,0,0-5.494,1.939m-3.878-25.208c-.162.081-.242.162-.242.323l-.081.242a.534.534,0,0,0,.081.485.444.444,0,0,0,.4.242h.081a.486.486,0,0,0,.323-.081,1.644,1.644,0,0,1,.4-.081,5.56,5.56,0,0,1,4.525,2.909v.081a.806.806,0,0,0,.4.323h.162a.486.486,0,0,0,.323-.081h.081a5.9,5.9,0,0,1,2.828-.727,4.555,4.555,0,0,1,2.909.889l.242.242c.081,0,.162.081.242.081h.162a.3.3,0,0,0,.242-.081c.162-.081.242-.162.242-.323l.081-.162v-.162a.3.3,0,0,0-.081-.242,4.788,4.788,0,0,0-4.282-2.586,7.1,7.1,0,0,0-2.262.4,5.406,5.406,0,0,0-4.282-2.424,8.932,8.932,0,0,0-2.5.727M515.677,616.2v.323a.444.444,0,0,0,.242.4.879.879,0,0,0,.4.081h.081c.081-.081.162-.081.242-.162a4.843,4.843,0,0,1,2.424-.566,8.023,8.023,0,0,1,5.009,1.858l.081.081a1.149,1.149,0,0,0,.485.162h.081a.576.576,0,0,0,.485-.242l.081-.081a7.5,7.5,0,0,1,5.575-2.585,3,3,0,0,1,1.616.323.42.42,0,0,0,.323.162h.4a.459.459,0,0,0,.323-.566v-.242c0-.162-.081-.242-.162-.4a6.28,6.28,0,0,0-4.04-1.616,7.466,7.466,0,0,0-4.686,1.939,7.471,7.471,0,0,0-4.2-1.373A5.953,5.953,0,0,0,516,615.8c-.323.081-.323.242-.323.4m-31.995,5.009a6.862,6.862,0,0,1,6.868-6.868h.4a9.264,9.264,0,0,1,18.5.727,8.525,8.525,0,0,1-.97,4.04,10.346,10.346,0,0,1-2.262,20.441c-.4,0-13.816-.081-13.816-.081a7.379,7.379,0,0,1-7.352-7.352,7.019,7.019,0,0,1,2.02-5.009,6.86,6.86,0,0,1-3.393-5.9Z" transform="translate(-481.5 -605.7)" fill="#fff"/>
    </g>
    <g id="Group_411" data-name="Group 411" transform="translate(41.529 10.907)">
      <path id="Path_638" data-name="Path 638" d="M491.9,555.4h1.777v9.13h2.1v1.454H491.9V555.4Zm4.929,0h1.778v10.584h-1.778Zm3.07,0h4.2v1.454h-2.424v3.07h1.777v1.454h-1.777v4.686H499.9Zm5.171,0h4.282v1.454h-2.5v3.07h1.778v1.454h-1.778v3.232h2.5v1.454H505.07V555.4Z" transform="translate(-491.9 -555.4)" fill="#fff"/>
    </g>
    <g id="Group_412" data-name="Group 412" transform="translate(41.529 26.42)">
      <path id="Path_639" data-name="Path 639" d="M491.9,582.6v-5.171c0-1.7.808-2.828,2.666-2.828a2.567,2.567,0,0,1,2.747,2.828V582.6a2.709,2.709,0,1,1-5.413,0Zm3.636.242V577.1c0-.646-.242-1.131-.889-1.131s-.889.485-.889,1.131v5.736c0,.646.242,1.131.889,1.131C495.213,583.972,495.536,583.488,495.536,582.841Zm4.282-4.2v6.706h-1.535V574.762h1.777l1.939,6.06v-6.06h1.454v10.584h-1.535Zm7.514-3.959h1.777v9.13h2.1v1.454h-3.878Zm4.363,10.665,2.02-10.584h2.02l2.02,10.584H515.9l-.323-1.939h-1.858l-.323,1.939Zm2.262-3.393h1.454l-.727-4.282-.727,4.282Zm6.06-3.313v6.706h-1.535V574.762h1.777l1.939,6.06v-6.06h1.454v10.584h-1.535Zm10.18-1.05v4.929c0,1.616-.646,2.828-2.586,2.828h-2.747V574.762h2.747C529.47,574.681,530.2,575.893,530.2,577.589Zm-2.828,6.3a.939.939,0,0,0,1.05-1.05v-5.575c0-.646-.242-1.05-1.05-1.05h-.727v7.676Z" transform="translate(-491.9 -574.6)" fill="#fff"/>
    </g>
  </g>
</svg>
