<svg xmlns="http://www.w3.org/2000/svg" width="130" height="130" viewBox="0 0 130 130">
  <g id="_3" data-name="3" transform="translate(0)">
    <path id="Path_679" data-name="Path 679" d="M440.5,185h130V315h-130Z" transform="translate(-440.5 -185)" fill="#4c9f38"/>
    <path id="Path_680" data-name="Path 680" d="M461.96,225.024c4.444,0,6.383-2.343,6.383-5.979v-3.878c0-2.424-1.05-3.959-3.232-4.444a4.19,4.19,0,0,0,2.989-4.282v-2.262c0-3.717-1.777-5.979-5.817-5.979-4.525,0-6.14,2.666-6.14,6.544v2.343h4.04v-2.666c0-1.616.485-2.585,1.858-2.585s1.858.889,1.858,2.343v2.828c0,1.374-.889,2.1-2.343,2.1h-1.7V212.5h1.858c1.535,0,2.182.727,2.182,2.1v4.363c0,1.374-.646,2.343-1.939,2.343-1.535,0-2.02-.97-2.02-2.585v-3.717H455.9v3.474c0,3.959,1.616,6.544,6.06,6.544" transform="translate(-443.458 -187.535)" fill="#fff"/>
    <g id="Group_434" data-name="Group 434" transform="translate(21.411 48.871)">
      <path id="Path_681" data-name="Path 681" d="M569.676,284.025c0-3.636-2.343-6.625-5.9-6.625-1.778,0-3.959,1.939-5.09,3.151-1.131-1.212-3.151-3.151-4.928-3.151-3.555,0-6.06,2.989-6.06,6.625a6.805,6.805,0,0,0,1.858,4.686l9.13,9.13,9.13-9.13A6.805,6.805,0,0,0,569.676,284.025Z" transform="translate(-482.498 -251.616)" fill="#fff"/>
      <path id="Path_682" data-name="Path 682" d="M515.4,306.579a1.49,1.49,0,0,1-1.454-1.212l-4.605-26.986-7.029,13.008a1.524,1.524,0,0,1-2.828-.566l-2.989-20.845-5.413,12.2a1.493,1.493,0,0,1-1.374.889H468.535a1.535,1.535,0,0,1,0-3.07h20.2l7.191-16.078a1.417,1.417,0,0,1,1.535-.889,1.543,1.543,0,0,1,1.293,1.293l3.07,21.492,6.948-12.846a1.358,1.358,0,0,1,1.535-.727,1.374,1.374,0,0,1,1.212,1.212l4.282,24.966,15.594-51.871a1.486,1.486,0,0,1,2.747-.242l8.241,17.048a1.518,1.518,0,0,1-2.747,1.293l-6.544-13.574L516.77,305.367a1.376,1.376,0,0,1-1.374,1.212Z" transform="translate(-467 -245.487)" fill="#fff"/>
    </g>
    <g id="Group_435" data-name="Group 435" transform="translate(37.085 10.827)">
      <path id="Path_683" data-name="Path 683" d="M489.147,203.409h2.5v5.656h-1.293v-1.131a1.6,1.6,0,0,1-1.7,1.293c-1.535,0-2.262-1.212-2.262-2.828v-5.171c0-1.7.808-2.828,2.666-2.828,1.939,0,2.586,1.131,2.586,2.666v.97h-1.616v-1.05c0-.646-.242-1.05-.889-1.05s-.889.485-.889,1.131V206.8c0,.646.242,1.131.889,1.131.566,0,.889-.323.889-1.05v-1.858h-.808v-1.616Zm3.717,2.989v-5.171c0-1.7.808-2.828,2.666-2.828a2.567,2.567,0,0,1,2.747,2.828V206.4a2.709,2.709,0,1,1-5.413,0Zm3.636.242V200.9c0-.646-.242-1.131-.889-1.131s-.889.485-.889,1.131v5.736c0,.646.242,1.131.889,1.131C496.176,207.772,496.5,207.288,496.5,206.641Zm2.909-.242v-5.171c0-1.7.808-2.828,2.666-2.828a2.567,2.567,0,0,1,2.747,2.828V206.4a2.709,2.709,0,1,1-5.413,0Zm3.636.242V200.9c0-.646-.242-1.131-.889-1.131s-.889.485-.889,1.131v5.736c0,.646.242,1.131.889,1.131S503.044,207.288,503.044,206.641Zm8.322-5.333v4.929c0,1.616-.646,2.828-2.586,2.828h-2.747V198.481h2.747C510.639,198.481,511.366,199.693,511.366,201.309Zm-2.828,6.3a.939.939,0,0,0,1.05-1.05v-5.575c0-.646-.242-1.05-1.05-1.05h-.727v7.676Zm9.938-3.151h-1.7v4.686H515V198.562h1.777v4.525h1.7v-4.525h1.778v10.584h-1.778Zm3.07-5.979h4.282v1.454h-2.5v3.07H525.1v1.454h-1.778v3.232h2.5v1.454h-4.282V198.481Zm5.09,10.665,2.02-10.584h2.02l2.02,10.584h-1.858l-.323-1.939h-1.858l-.323,1.939Zm2.262-3.393h1.454l-.727-4.282-.727,4.282Zm4.686-7.272h1.778v9.13h2.1v1.454h-3.878Zm3.636,0h4.767v1.454h-1.454v9.13h-1.778v-9.13H537.3v-1.454h-.081Zm9.292,5.979h-1.7v4.686h-1.777V198.562h1.777v4.525h1.7v-4.525h1.778v10.584h-1.778Z" transform="translate(-486.4 -198.4)" fill="#fff"/>
    </g>
    <g id="Group_436" data-name="Group 436" transform="translate(36.843 26.42)">
      <path id="Path_684" data-name="Path 684" d="M486.1,228.365l2.02-10.584h2.02l2.02,10.584H490.3l-.323-1.939H488.12l-.323,1.939h-1.7Zm2.262-3.313h1.454l-.727-4.282Zm6.06-3.313v6.706h-1.535V217.862h1.777l1.939,6.06v-6.06h1.454v10.584h-1.535Zm10.261-1.131v4.929c0,1.616-.646,2.828-2.585,2.828H499.35V217.781H502.1C504.037,217.781,504.683,218.993,504.683,220.609Zm-2.828,6.3a.939.939,0,0,0,1.05-1.05v-5.575c0-.646-.242-1.05-1.05-1.05h-.727v7.676Zm9.7-5.09-.97,6.544h-1.7l-1.454-10.584h1.7l.808,6.706.889-6.706h1.454l.97,6.706.808-6.706h1.535l-1.374,10.584h-1.7Zm5.009-4.04h4.282v1.454h-2.5v3.07h1.778v1.454h-1.778v3.232h2.5v1.454H516.56V217.781Zm5.413,0h1.778v9.13h2.1v1.454h-3.878Zm4.848,0H528.6v9.13h2.1v1.454h-3.878Zm3.717,4.363h2.5V223.6h-2.5Zm3.555-4.363h2.585c1.778,0,2.343.808,2.343,2.343v1.05a1.56,1.56,0,0,1-1.05,1.7,1.619,1.619,0,0,1,1.293,1.778v1.374c0,1.535-.646,2.343-2.424,2.343h-2.747Zm1.777,4.444h.646c.566,0,.808-.323.808-.889v-1.293a.775.775,0,0,0-.889-.889h-.646Zm0,1.374v3.313h.808a.808.808,0,0,0,.889-.889v-1.616a.775.775,0,0,0-.889-.889h-.808Zm4.525-5.817h4.282v1.454h-2.5v3.07h1.778v1.454h-1.778v3.232h2.5v1.454h-4.282V217.781Zm5.333,0H547.5v10.584h-1.777Zm4.605,3.959v6.706H548.8V217.862h1.778l1.939,6.06v-6.06h1.454v10.584h-1.535Zm7.595.97h2.5v5.656h-1.293v-1.131a1.6,1.6,0,0,1-1.7,1.293c-1.535,0-2.262-1.212-2.262-2.828v-5.171c0-1.7.808-2.828,2.666-2.828,1.939,0,2.585,1.131,2.585,2.666v.97h-1.616v-1.05c0-.646-.242-1.05-.889-1.05s-.889.485-.889,1.131V226.1c0,.646.242,1.131.889,1.131.566,0,.889-.323.889-1.05v-1.858h-.808v-1.616h-.081Z" transform="translate(-486.1 -217.7)" fill="#fff"/>
    </g>
  </g>
</svg>
