<svg xmlns="http://www.w3.org/2000/svg" width="130" height="130" viewBox="0 0 130 130">
  <g id="_3" data-name="3" transform="translate(0)">
    <path id="Path_679" data-name="Path 679" d="M440.5,185h130V315h-130Z" transform="translate(-440.5 -185)" fill="#4c9f38"/>
    <path id="Path_680" data-name="Path 680" d="M461.96,225.024c4.444,0,6.383-2.343,6.383-5.979v-3.878c0-2.424-1.05-3.959-3.232-4.444a4.19,4.19,0,0,0,2.989-4.282v-2.262c0-3.717-1.777-5.979-5.817-5.979-4.525,0-6.14,2.666-6.14,6.544v2.343h4.04v-2.666c0-1.616.485-2.585,1.858-2.585s1.858.889,1.858,2.343v2.828c0,1.374-.889,2.1-2.343,2.1h-1.7V212.5h1.858c1.535,0,2.182.727,2.182,2.1v4.363c0,1.374-.646,2.343-1.939,2.343-1.535,0-2.02-.97-2.02-2.585v-3.717H455.9v3.474c0,3.959,1.616,6.544,6.06,6.544" transform="translate(-443.458 -187.535)" fill="#fff"/>
    <g id="Group_434" data-name="Group 434" transform="translate(21.411 48.871)">
      <path id="Path_681" data-name="Path 681" d="M569.676,284.025c0-3.636-2.343-6.625-5.9-6.625-1.778,0-3.959,1.939-5.09,3.151-1.131-1.212-3.151-3.151-4.928-3.151-3.555,0-6.06,2.989-6.06,6.625a6.805,6.805,0,0,0,1.858,4.686l9.13,9.13,9.13-9.13A6.805,6.805,0,0,0,569.676,284.025Z" transform="translate(-482.498 -251.616)" fill="#fff"/>
      <path id="Path_682" data-name="Path 682" d="M515.4,306.579a1.49,1.49,0,0,1-1.454-1.212l-4.605-26.986-7.029,13.008a1.524,1.524,0,0,1-2.828-.566l-2.989-20.845-5.413,12.2a1.493,1.493,0,0,1-1.374.889H468.535a1.535,1.535,0,0,1,0-3.07h20.2l7.191-16.078a1.417,1.417,0,0,1,1.535-.889,1.543,1.543,0,0,1,1.293,1.293l3.07,21.492,6.948-12.846a1.358,1.358,0,0,1,1.535-.727,1.374,1.374,0,0,1,1.212,1.212l4.282,24.966,15.594-51.871a1.486,1.486,0,0,1,2.747-.242l8.241,17.048a1.518,1.518,0,0,1-2.747,1.293l-6.544-13.574L516.77,305.367a1.376,1.376,0,0,1-1.374,1.212Z" transform="translate(-467 -245.487)" fill="#fff"/>
    </g>
    <g id="Group_435" data-name="Group 435" transform="translate(37.085 10.827)">
      <path id="Path_683" data-name="Path 683" d="M489.147,203.409h2.5v5.656h-1.293v-1.131a1.6,1.6,0,0,1-1.7,1.293c-1.535,0-2.262-1.212-2.262-2.828v-5.171c0-1.7.808-2.828,2.666-2.828,1.939,0,2.586,1.131,2.586,2.666v.97h-1.616v-1.05c0-.646-.242-1.05-.889-1.05s-.889.485-.889,1.131V206.8c0,.646.242,1.131.889,1.131.566,0,.889-.323.889-1.05v-1.858h-.808v-1.616Zm3.717,2.989v-5.171c0-1.7.808-2.828,2.666-2.828a2.567,2.567,0,0,1,2.747,2.828V206.4a2.709,2.709,0,1,1-5.413,0Zm3.636.242V200.9c0-.646-.242-1.131-.889-1.131s-.889.485-.889,1.131v5.736c0,.646.242,1.131.889,1.131C496.176,207.772,496.5,207.288,496.5,206.641Zm2.909-.242v-5.171c0-1.7.808-2.828,2.666-2.828a2.567,2.567,0,0,1,2.747,2.828V206.4a2.709,2.709,0,1,1-5.413,0Zm3.636.242V200.9c0-.646-.242-1.131-.889-1.131s-.889.485-.889,1.131v5.736c0,.646.242,1.131.889,1.131S503.044,207.288,503.044,206.641Zm8.322-5.333v4.929c0,1.616-.646,2.828-2.586,2.828h-2.747V198.481h2.747C510.639,198.481,511.366,199.693,511.366,201.309Zm-2.828,6.3a.939.939,0,0,0,1.05-1.05v-5.575c0-.646-.242-1.05-1.05-1.05h-.727v7.676Zm9.938-3.151h-1.7v4.686H515V198.562h1.777v4.525h1.7v-4.525h1.778v10.584h-1.778Zm3.07-5.979h4.282v1.454h-2.5v3.07H525.1v1.454h-1.778v3.232h2.5v1.454h-4.282V198.481Zm5.09,10.665,2.02-10.584h2.02l2.02,10.584h-1.858l-.323-1.939h-1.858l-.323,1.939Zm2.262-3.393h1.454l-.727-4.282-.727,4.282Zm4.686-7.272h1.778v9.13h2.1v1.454h-3.878Zm3.636,0h4.767v1.454h-1.454v9.13h-1.778v-9.13H537.3v-1.454h-.081Zm9.292,5.979h-1.7v4.686h-1.777V198.562h1.777v4.525h1.7v-4.525h1.778v10.584h-1.778Z" transform="translate(-486.4 -198.4)" fill="#fff"/>
    </g>
    <g id="Group_436" data-name="Group 436" transform="translate(36.843 26.42)">
      <path id="Path_684" data-name="Path 684" d="M486.1,228.365l2.02-10.584h2.02l2.02,10.584H490.3l-.323-1.939H488.12l-.323,1.939h-1.7Zm2.262-3.313h1.454l-.727-4.282Zm6.06-3.313v6.706h-1.535V217.862h1.777l1.939,6.06v-6.06h1.454v10.584h-1.535Zm10.261-1.131v4.929c0,1.616-.646,2.828-2.585,2.828H499.35V217.781H502.1C504.037,217.781,504.683,218.993,504.683,220.609Zm-2.828,6.3a.939.939,0,0,0,1.05-1.05v-5.575c0-.646-.242-1.05-1.05-1.05h-.727v7.676Zm9.7-5.09-.97,6.544h-1.7l-1.454-10.584h1.7l.808,6.706.889-6.706h1.454l.97,6.706.808-6.706h1.535l-1.374,10.584h-1.7Zm5.009-4.04h4.282v1.454h-2.5v3.07h1.778v1.454h-1.778v3.232h2.5v1.454H516.56V217.781Zm5.413,0h1.778v9.13h2.1v1.454h-3.878Zm4.848,0H528.6v9.13h2.1v1.454h-3.878Zm3.717,4.363h2.5V223.6h-2.5Zm3.555-4.363h2.585c1.778,0,2.343.808,2.343,2.343v1.05a1.56,1.56,0,0,1-1.05,1.7,1.619,1.619,0,0,1,1.293,1.778v1.374c0,1.535-.646,2.343-2.424,2.343h-2.747Zm1.777,4.444h.646c.566,0,.808-.323.808-.889v-1.293a.775.775,0,0,0-.889-.889h-.646Zm0,1.374v3.313h.808a.808.808,0,0,0,.889-.889v-1.616a.775.775,0,0,0-.889-.889h-.808Zm4.525-5.817h4.282v1.454h-2.5v3.07h1.778v1.454h-1.778v3.232h2.5v1.454h-4.282V217.781Zm5.333,0H547.5v10.584h-1.777Zm4.605,3.959v6.706H548.8V217.862h1.778l1.939,6.06v-6.06h1.454v10.584h-1.535Zm7.595.97h2.5v5.656h-1.293v-1.131a1.6,1.6,0,0,1-1.7,1.293c-1.535,0-2.262-1.212-2.262-2.828v-5.171c0-1.7.808-2.828,2.666-2.828,1.939,0,2.585,1.131,2.585,2.666v.97h-1.616v-1.05c0-.646-.242-1.05-.889-1.05s-.889.485-.889,1.131V226.1c0,.646.242,1.131.889,1.131.566,0,.889-.323.889-1.05v-1.858h-.808v-1.616h-.081Z" transform="translate(-486.1 -217.7)" fill="#fff"/>
    </g>
  </g>
</svg>
    <g>
      <path id="_Path_3" data-name="&lt;Path&gt;" class="cls-2" d="M835.26,625c0-28.14-18-51-45.4-51-13.67,0-30.17,15-39.13,24.19-9-9.23-24.36-24.21-38-24.21-27.34,0-46.51,22.81-46.51,51a51.51,51.51,0,0,0,14.51,36h0l70.1,70.23,70-70.15-.06-.05A51.55,51.55,0,0,0,835.26,625Z"/>
      <g id="_Group_" data-name="&lt;Group&gt;">
        <path id="_Path_4" data-name="&lt;Path&gt;" class="cls-2" d="M536.81,845.88l-.72,0a11.48,11.48,0,0,1-10.63-9.54L489.85,628.93l-53.94,100a11.51,11.51,0,0,1-21.52-3.83l-22.9-160.05-41.89,94.1A11.54,11.54,0,0,1,339.08,666H176.25a11.52,11.52,0,0,1,0-23H331.6l55.11-123.77a11.51,11.51,0,0,1,21.91,3l23.61,165,53.19-98.63a11.52,11.52,0,0,1,21.48,3.52l33,192.07L660.05,385a11.52,11.52,0,0,1,21.4-1.68l63.23,131.09a11.51,11.51,0,1,1-20.73,10L673.57,420,547.82,837.68A11.5,11.5,0,0,1,536.81,845.88Z"/>
      </g>
    </g>
    <g id="_Group_2" data-name="&lt;Group&gt;">
      <path id="_Compound_Path_" data-name="&lt;Compound Path&gt;" class="cls-2" d="M306.23,121.79h19.54v43.65h-9.89v-8.93c-1.81,6.15-5.67,9.89-13.14,9.89-11.82,0-17.24-9.4-17.24-22.06V104.79c0-12.78,6.15-22.06,20.61-22.06,15.19,0,19.66,8.44,19.66,20.5v7.23H313.23v-8.32c0-5.06-1.93-8-6.87-8s-7.12,3.5-7.12,8.44v43.89c0,4.94,2.05,8.44,6.75,8.44,4.46,0,6.76-2.53,6.76-7.84V132.64h-6.52Z"/>
      <path id="_Compound_Path_2" data-name="&lt;Compound Path&gt;" class="cls-2" d="M334.8,144.34V104.79c0-12.78,6.27-22.06,20.74-22.06S376.4,92,376.4,104.79v39.55c0,12.66-6.27,22.06-20.86,22.06S334.8,157,334.8,144.34Zm27.85,2.17V102.62c0-4.94-2.17-8.44-7.11-8.44s-7,3.5-7,8.44v43.89c0,4.94,2.17,8.44,7,8.44S362.65,151.45,362.65,146.51Z"/>
      <path id="_Compound_Path_3" data-name="&lt;Compound Path&gt;" class="cls-2" d="M385.44,144.34V104.79c0-12.78,6.27-22.06,20.74-22.06S427,92,427,104.79v39.55c0,12.66-6.27,22.06-20.85,22.06S385.44,157,385.44,144.34Zm27.85,2.17V102.62c0-4.94-2.17-8.44-7.11-8.44s-7,3.5-7,8.44v43.89c0,4.94,2.17,8.44,7,8.44S413.29,151.45,413.29,146.51Z"/>
      <path id="_Compound_Path_4" data-name="&lt;Compound Path&gt;" class="cls-2" d="M477.18,105.64v37.85c0,12.54-5.18,21.95-19.89,21.95H436.07V83.7h21.22C472,83.7,477.18,93,477.18,105.64ZM455.6,154.22c5.67,0,7.84-3.37,7.84-8.32V103.11c0-4.83-2.17-8.2-7.84-8.2h-5.78v59.31Z"/>
      <path id="_Compound_Path_5" data-name="&lt;Compound Path&gt;" class="cls-2" d="M531.92,129.39H518.66v36.05H504.91V83.7h13.75v34.6h13.26V83.7h13.86v81.74H531.92Z"/>
      <path id="_Compound_Path_6" data-name="&lt;Compound Path&gt;" class="cls-2" d="M554.82,83.7h32.8V94.91h-19V118.3h13.62v11.09H568.57v24.83h19v11.22h-32.8Z"/>
      <path id="_Compound_Path_7" data-name="&lt;Compound Path&gt;" class="cls-2" d="M594,165.44,609.44,83.7h15.67l15.55,81.74H626.55L624,150.49H609.44L607,165.44Zm17.24-25.92h11l-5.42-32.8h-.12Z"/>
      <path id="_Compound_Path_8" data-name="&lt;Compound Path&gt;" class="cls-2" d="M647.53,83.7h13.74v70.52h16.4v11.22H647.53Z"/>
      <path id="_Compound_Path_9" data-name="&lt;Compound Path&gt;" class="cls-2" d="M675.74,83.7h36.53V94.91H700.94v70.53H687.07V94.91H675.74Z"/>
      <path id="_Compound_Path_10" data-name="&lt;Compound Path&gt;" class="cls-2" d="M746.87,129.39H733.61v36.05H719.87V83.7h13.74v34.6h13.26V83.7h13.86v81.74H746.87Z"/>
    </g>
    <g id="_Group_3" data-name="&lt;Group&gt;">
      <path id="_Compound_Path_11" data-name="&lt;Compound Path&gt;" class="cls-2" d="M283.43,285.29l15.43-81.74h15.67l15.55,81.74H316l-2.53-15H298.86l-2.41,15Zm17.24-25.92h11l-5.43-32.79h-.12Z"/>
      <path id="_Compound_Path_12" data-name="&lt;Compound Path&gt;" class="cls-2" d="M348.53,233.93v51.36H337V203.55h13.51l14.82,46.9v-46.9h11.46v81.74H364.68Z"/>
      <path id="_Compound_Path_13" data-name="&lt;Compound Path&gt;" class="cls-2" d="M426.89,225.5v37.85c0,12.54-5.18,21.94-19.89,21.94H385.78V203.55H407C421.71,203.55,426.89,212.84,426.89,225.5Zm-21.58,48.58c5.67,0,7.84-3.37,7.84-8.32V223c0-4.82-2.17-8.19-7.84-8.19h-5.79v59.31Z"/>
      <path id="_Compound_Path_14" data-name="&lt;Compound Path&gt;" class="cls-2" d="M479.45,234.78l-7.71,50.51h-12.9l-11-81.74h13.26l6.39,51.84h.12l6.87-51.84h11.21l7.6,51.84h.12l6.27-51.84h11.57l-10.61,81.74h-13l-8.08-50.51Z"/>
      <path id="_Compound_Path_15" data-name="&lt;Compound Path&gt;" class="cls-2" d="M518.39,203.55h32.79v11.22h-19v23.38h13.62v11.1H532.14v24.83h19v11.21H518.39Z"/>
      <path id="_Compound_Path_16" data-name="&lt;Compound Path&gt;" class="cls-2" d="M559.74,203.55h13.75v70.53h16.39v11.21H559.74Z"/>
      <path id="_Compound_Path_17" data-name="&lt;Compound Path&gt;" class="cls-2" d="M597.36,203.55H611.1v70.53h16.4v11.21H597.36Z"/>
      <path id="_Compound_Path_18" data-name="&lt;Compound Path&gt;" class="cls-2" d="M625.69,237H645V248H625.69Z"/>
      <path id="_Compound_Path_19" data-name="&lt;Compound Path&gt;" class="cls-2" d="M653.18,203.55h19.89c13.74,0,18.32,6.39,18.32,18v8.32c0,6.87-2.53,11.21-8.19,13,6.87,1.56,10.24,6.14,10.24,13.62v10.85c0,11.57-5.18,18-18.92,18H653.18ZM666.92,238h4.82c4.46,0,6.51-2.29,6.51-6.63v-10c0-4.46-2-6.63-6.63-6.63h-4.7Zm0,10.49v25.56h6c4.58,0,6.75-2.29,6.75-6.63v-12.3c0-4.34-2.05-6.63-6.87-6.63Z"/>
      <path id="_Compound_Path_20" data-name="&lt;Compound Path&gt;" class="cls-2" d="M701.52,203.55h32.79v11.22h-19v23.38h13.63v11.1H715.26v24.83h19v11.21H701.52Z"/>
      <path id="_Compound_Path_21" data-name="&lt;Compound Path&gt;" class="cls-2" d="M742.87,203.55h13.74v81.74H742.87Z"/>
      <path id="_Compound_Path_22" data-name="&lt;Compound Path&gt;" class="cls-2" d="M777.35,233.93v51.36H765.78V203.55h13.5l14.83,46.9v-46.9h11.45v81.74h-12Z"/>
      <path id="_Compound_Path_23" data-name="&lt;Compound Path&gt;" class="cls-2" d="M835.34,241.65h19.53v43.64H845v-8.92c-1.81,6.15-5.66,9.89-13.14,9.89-11.81,0-17.24-9.41-17.24-22.07V224.65c0-12.78,6.15-22.06,20.62-22.06,15.19,0,19.65,8.44,19.65,20.49v7.24H842.33V222c0-5.06-1.93-8-6.87-8s-7.12,3.5-7.12,8.44v43.89c0,4.94,2,8.43,6.76,8.43,4.46,0,6.75-2.53,6.75-7.83V252.5h-6.51Z"/>
    </g>
  </g>
</svg>
