<svg xmlns="http://www.w3.org/2000/svg" width="130" height="130" viewBox="0 0 130 130">
  <g id="_4" data-name="4" transform="translate(0)">
    <path id="Path_685" data-name="Path 685" d="M618.8,185h130V315h-130Z" transform="translate(-618.8 -185)" fill="#c5192d"/>
    <path id="Path_686" data-name="Path 686" d="M642.156,224.759h4.2v-4.282h1.778V217h-1.778V198.5h-4.363L634.4,217.729V220.4h7.756v4.363ZM638.278,217l3.959-10.827V217Z" transform="translate(-621.796 -187.593)" fill="#fff"/>
    <g id="Group_437" data-name="Group 437" transform="translate(28.682 52.436)">
      <path id="Path_687" data-name="Path 687" d="M683.85,267.19,660.5,253.7v43.63l23.35,7.029Zm2.5.081v37.085l23.511-7.11V253.7Zm41.771-14.624a2.747,2.747,0,0,0-5.494,0v2.989h5.494Zm-4.767,43.872h-.727l2.747,9.615,2.747-9.615h0V257.737h-5.494v38.782Z" transform="translate(-655.491 -249.9)" fill="#fff"/>
      <path id="Path_688" data-name="Path 688" d="M713.685,256.52l-2.5-2.02v44.842l-25.935,8.4h-2.586L656.8,300.554V254.5l-2.5,2.02v45.73l28.2,7.837h2.909l25.935-8.241,2.343-.727Z" transform="translate(-654.3 -250.783)" fill="#fff"/>
    </g>
    <g id="Group_438" data-name="Group 438" transform="translate(37.166 26.339)">
      <path id="Path_689" data-name="Path 689" d="M664.8,217.762h4.282v1.454h-2.5v3.07h1.777v1.454h-1.777v3.232h2.5v1.454H664.8V217.762Zm10.665,2.828v4.929c0,1.616-.646,2.828-2.586,2.828h-2.747V217.762h2.747C674.819,217.762,675.465,218.974,675.465,220.589Zm-2.828,6.3a.939.939,0,0,0,1.05-1.05v-5.575c0-.646-.242-1.05-1.05-1.05h-.727v7.676Zm9.211-9.13v8c0,1.616-.727,2.747-2.5,2.747-1.858,0-2.666-1.05-2.666-2.747v-8h1.778V226c0,.646.242,1.05.889,1.05s.889-.4.889-1.05v-8.241Zm1.131,7.837v-5.171c0-1.7.808-2.828,2.666-2.828,1.939,0,2.5,1.131,2.5,2.666v1.293h-1.616v-1.374c0-.646-.242-1.05-.889-1.05s-.889.485-.889,1.131V226c0,.646.242,1.131.889,1.131s.889-.4.889-1.05v-1.939h1.616V226c0,1.535-.646,2.666-2.5,2.666a2.739,2.739,0,0,1-2.666-3.07Zm5.817,2.747,2.02-10.584h2.02l2.02,10.584H693l-.323-1.939h-1.858l-.323,1.939Zm2.182-3.313h1.454l-.727-4.282-.727,4.282Zm3.636-7.272h4.767v1.454h-1.454v9.13h-1.778v-9.13h-1.454v-1.454h-.081Zm5.736,0h1.778v10.584H700.35Zm2.99,7.837v-5.171c0-1.7.808-2.828,2.666-2.828a2.567,2.567,0,0,1,2.747,2.828V225.6a2.529,2.529,0,0,1-2.747,2.828C704.147,228.507,703.34,227.3,703.34,225.6Zm3.636.323v-5.736c0-.646-.242-1.131-.889-1.131s-.889.485-.889,1.131v5.736c0,.646.242,1.131.889,1.131A1.016,1.016,0,0,0,706.975,225.922Zm4.444-4.2v6.706h-1.535V217.842h1.777l1.939,6.06v-6.06h1.454v10.584H713.52Z" transform="translate(-664.8 -217.6)" fill="#fff"/>
    </g>
    <g id="Group_439" data-name="Group 439" transform="translate(37.166 10.746)">
      <path id="Path_690" data-name="Path 690" d="M666.82,209.773v-.727c-1.454-.242-2.02-1.293-2.02-2.747v-5.171c0-1.7.808-2.828,2.666-2.828a2.567,2.567,0,0,1,2.747,2.828V206.3a2.56,2.56,0,0,1-1.293,2.5l1.293.242v1.293l-3.393-.566Zm1.616-3.07v-5.817c0-.646-.242-1.131-.889-1.131s-.889.485-.889,1.131V206.7c0,.646.242,1.131.889,1.131C668.113,207.834,668.436,207.349,668.436,206.7Zm8.08-8.241v8c0,1.616-.727,2.747-2.5,2.747-1.858,0-2.666-1.05-2.666-2.747v-8h1.778V206.7c0,.646.242,1.05.889,1.05s.889-.4.889-1.05v-8.241Zm.727,10.584,2.02-10.584h2.02l2.02,10.584h-1.858l-.323-1.939h-1.858l-.323,1.939Zm2.181-3.313h1.454l-.727-4.282-.727,4.282Zm4.686-7.272h1.778v9.13h2.1v1.454H684.11Zm4.767,0h1.778v10.584h-1.778Zm2.666,0h4.767v1.454h-1.454v9.13h-1.778v-9.13h-1.454Zm9.049,6.544v4.04h-1.778v-4.04l-2.02-6.544h1.858l1.05,4.04,1.05-4.04h1.7l-1.858,6.544Z" transform="translate(-664.8 -198.3)" fill="#fff"/>
    </g>
  </g>
</svg>
