<svg xmlns="http://www.w3.org/2000/svg" width="130" height="130" viewBox="0 0 130 130">
  <g id="_4" data-name="4" transform="translate(0)">
    <path id="Path_685" data-name="Path 685" d="M618.8,185h130V315h-130Z" transform="translate(-618.8 -185)" fill="#c5192d"/>
    <path id="Path_686" data-name="Path 686" d="M642.156,224.759h4.2v-4.282h1.778V217h-1.778V198.5h-4.363L634.4,217.729V220.4h7.756v4.363ZM638.278,217l3.959-10.827V217Z" transform="translate(-621.796 -187.593)" fill="#fff"/>
    <g id="Group_437" data-name="Group 437" transform="translate(28.682 52.436)">
      <path id="Path_687" data-name="Path 687" d="M683.85,267.19,660.5,253.7v43.63l23.35,7.029Zm2.5.081v37.085l23.511-7.11V253.7Zm41.771-14.624a2.747,2.747,0,0,0-5.494,0v2.989h5.494Zm-4.767,43.872h-.727l2.747,9.615,2.747-9.615h0V257.737h-5.494v38.782Z" transform="translate(-655.491 -249.9)" fill="#fff"/>
      <path id="Path_688" data-name="Path 688" d="M713.685,256.52l-2.5-2.02v44.842l-25.935,8.4h-2.586L656.8,300.554V254.5l-2.5,2.02v45.73l28.2,7.837h2.909l25.935-8.241,2.343-.727Z" transform="translate(-654.3 -250.783)" fill="#fff"/>
    </g>
    <g id="Group_438" data-name="Group 438" transform="translate(37.166 26.339)">
      <path id="Path_689" data-name="Path 689" d="M664.8,217.762h4.282v1.454h-2.5v3.07h1.777v1.454h-1.777v3.232h2.5v1.454H664.8V217.762Zm10.665,2.828v4.929c0,1.616-.646,2.828-2.586,2.828h-2.747V217.762h2.747C674.819,217.762,675.465,218.974,675.465,220.589Zm-2.828,6.3a.939.939,0,0,0,1.05-1.05v-5.575c0-.646-.242-1.05-1.05-1.05h-.727v7.676Zm9.211-9.13v8c0,1.616-.727,2.747-2.5,2.747-1.858,0-2.666-1.05-2.666-2.747v-8h1.778V226c0,.646.242,1.05.889,1.05s.889-.4.889-1.05v-8.241Zm1.131,7.837v-5.171c0-1.7.808-2.828,2.666-2.828,1.939,0,2.5,1.131,2.5,2.666v1.293h-1.616v-1.374c0-.646-.242-1.05-.889-1.05s-.889.485-.889,1.131V226c0,.646.242,1.131.889,1.131s.889-.4.889-1.05v-1.939h1.616V226c0,1.535-.646,2.666-2.5,2.666a2.739,2.739,0,0,1-2.666-3.07Zm5.817,2.747,2.02-10.584h2.02l2.02,10.584H693l-.323-1.939h-1.858l-.323,1.939Zm2.182-3.313h1.454l-.727-4.282-.727,4.282Zm3.636-7.272h4.767v1.454h-1.454v9.13h-1.778v-9.13h-1.454v-1.454h-.081Zm5.736,0h1.778v10.584H700.35Zm2.99,7.837v-5.171c0-1.7.808-2.828,2.666-2.828a2.567,2.567,0,0,1,2.747,2.828V225.6a2.529,2.529,0,0,1-2.747,2.828C704.147,228.507,703.34,227.3,703.34,225.6Zm3.636.323v-5.736c0-.646-.242-1.131-.889-1.131s-.889.485-.889,1.131v5.736c0,.646.242,1.131.889,1.131A1.016,1.016,0,0,0,706.975,225.922Zm4.444-4.2v6.706h-1.535V217.842h1.777l1.939,6.06v-6.06h1.454v10.584H713.52Z" transform="translate(-664.8 -217.6)" fill="#fff"/>
    </g>
    <g id="Group_439" data-name="Group 439" transform="translate(37.166 10.746)">
      <path id="Path_690" data-name="Path 690" d="M666.82,209.773v-.727c-1.454-.242-2.02-1.293-2.02-2.747v-5.171c0-1.7.808-2.828,2.666-2.828a2.567,2.567,0,0,1,2.747,2.828V206.3a2.56,2.56,0,0,1-1.293,2.5l1.293.242v1.293l-3.393-.566Zm1.616-3.07v-5.817c0-.646-.242-1.131-.889-1.131s-.889.485-.889,1.131V206.7c0,.646.242,1.131.889,1.131C668.113,207.834,668.436,207.349,668.436,206.7Zm8.08-8.241v8c0,1.616-.727,2.747-2.5,2.747-1.858,0-2.666-1.05-2.666-2.747v-8h1.778V206.7c0,.646.242,1.05.889,1.05s.889-.4.889-1.05v-8.241Zm.727,10.584,2.02-10.584h2.02l2.02,10.584h-1.858l-.323-1.939h-1.858l-.323,1.939Zm2.181-3.313h1.454l-.727-4.282-.727,4.282Zm4.686-7.272h1.778v9.13h2.1v1.454H684.11Zm4.767,0h1.778v10.584h-1.778Zm2.666,0h4.767v1.454h-1.454v9.13h-1.778v-9.13h-1.454Zm9.049,6.544v4.04h-1.778v-4.04l-2.02-6.544h1.858l1.05,4.04,1.05-4.04h1.7l-1.858,6.544Z" transform="translate(-664.8 -198.3)" fill="#fff"/>
    </g>
  </g>
</svg>
  <path class="cls-2" d="M396.46,150.49H411l2.54,15h14.11L412.13,83.68H396.46L381,165.45h13Zm7.22-43.77h.14l5.42,32.8h-11Z"/>
  <polygon class="cls-2" points="464.69 154.23 448.31 154.23 448.31 83.68 434.56 83.68 434.56 165.45 464.69 165.45 464.69 154.23"/>
  <rect class="cls-2" x="471.07" y="83.68" width="13.74" height="81.76"/>
  <polygon class="cls-2" points="502.61 165.45 516.46 165.45 516.46 94.9 527.8 94.9 527.8 83.68 491.29 83.68 491.29 94.9 502.61 94.9 502.61 165.45"/>
  <polygon class="cls-2" points="547.31 165.45 561.06 165.45 561.06 134.33 576.24 83.68 563.1 83.68 554.78 114.68 554.66 114.68 546.35 83.68 532 83.68 547.31 134.33 547.31 165.45"/>
  <polygon class="cls-2" points="318.31 274.13 299.27 274.13 299.27 249.27 312.88 249.27 312.88 238.19 299.27 238.19 299.27 214.79 318.31 214.79 318.31 203.57 285.53 203.57 285.53 285.33 318.31 285.33 318.31 274.13"/>
  <path class="cls-2" d="M367.85,263.38V225.52c0-12.66-5.17-22-19.88-22H326.74v81.77H348c14.71,0,19.88-9.41,19.88-22m-27.36,10.74V214.78h5.79c5.66,0,7.82,3.38,7.82,8.2V265.8c0,4.94-2.16,8.32-7.82,8.32Z"/>
  <path class="cls-2" d="M376.9,203.57v61.87c0,12.67,6,20.86,20.49,20.86,14,0,19.41-8.19,19.41-20.86V203.57H404.15v63.19c0,4.83-1.94,8.08-6.76,8.08s-6.75-3.25-6.75-8.08V203.57Z"/>
  <path class="cls-2" d="M425.84,264.23c0,12.66,6,22.07,20.5,22.07s19.4-8.68,19.4-20.39v-14.1H453.21v15.07c0,4.83-1.69,8-6.63,8s-7-3.49-7-8.45V222.51c0-4.95,2-8.45,7-8.45s6.63,2.89,6.63,8v10.73h12.53V223.1c0-12-4.22-20.5-19.4-20.5-14.47,0-20.5,9.29-20.5,22.07Z"/>
  <path class="cls-2" d="M485.38,270.37H500l2.53,15H516.6l-15.55-81.76H485.38l-15.44,81.76h13Zm7.22-43.77h.12l5.43,32.8h-11Z"/>
  <polygon class="cls-2" points="514.89 214.79 526.21 214.79 526.21 285.33 540.08 285.33 540.08 214.79 551.4 214.79 551.4 203.57 514.89 203.57 514.89 214.79"/>
  <rect class="cls-2" x="559" y="203.57" width="13.75" height="81.77"/>
  <path class="cls-2" d="M602.65,286.3c14.57,0,20.83-9.4,20.83-22.08V224.67c0-12.78-6.26-22.06-20.83-22.06s-20.73,9.28-20.73,22.06v39.55c0,12.68,6.26,22.08,20.73,22.08m-7-63.8c0-4.94,2.17-8.43,7-8.43s7.11,3.49,7.11,8.43v43.89c0,5-2.17,8.45-7.11,8.45s-7-3.49-7-8.45Z"/>
  <polygon class="cls-2" points="644.12 233.95 660.28 285.35 672.34 285.35 672.34 203.56 660.88 203.56 660.88 250.48 646.05 203.56 632.56 203.56 632.56 285.35 644.12 285.35 644.12 233.95"/>
  <path class="cls-2" d="M156.65,285.43h32.11V252.72h13.69V226.26H188.76V83.8H155.45L96.87,231.9v20.82h59.78Zm-30-59.17,30.33-83h.3v83Z"/>
  <g>
    <polygon class="cls-2" points="438.3 536.19 258.96 432.63 258.96 767.63 438.3 821.74 438.3 536.19"/>
    <polygon class="cls-2" points="458.03 536.87 458.03 821.86 638.53 767.59 638.53 432.64 458.03 536.87"/>
    <path class="cls-2" d="M779.32,424.15a21.22,21.22,0,1,0-42.43,0V447h42.43Z"/>
    <polygon class="cls-2" points="742.16 761.69 736.89 761.69 758.12 835.85 779.31 761.69 774.04 761.69 779.31 761.69 779.31 463.64 774.04 463.64 768.77 463.64 763.19 463.64 752.63 463.64 747.42 463.64 742.16 463.64 736.88 463.64 736.88 761.69 742.16 761.69"/>
    <polygon class="cls-2" points="677.06 447.02 657.83 431.83 657.83 776.72 458.56 841.11 449.34 841.11 447.51 841.11 438.3 841.11 239.92 785.68 239.92 431.83 220.68 447.02 220.68 799.17 437.39 859.17 447.51 859.17 449.34 859.17 459.46 859.17 659.4 795.69 677.06 790.49 677.06 447.02"/>
  </g>
</svg>
