<svg xmlns="http://www.w3.org/2000/svg" width="130" height="130" viewBox="0 0 130 130">
  <g id="_5" data-name="5" transform="translate(0)">
    <path id="Path_691" data-name="Path 691" d="M797.2,185h130V315h-130Z" transform="translate(-797.2 -185)" fill="#ff3a21"/>
    <path id="Path_692" data-name="Path 692" d="M820.937,206.8a4.092,4.092,0,0,0-3.717,1.778v-6.544h7.595V198.4H813.181v14.786h4.04v-.566c0-1.535.727-2.424,1.939-2.424,1.374,0,1.858.97,1.858,2.343v6.3c0,1.374-.485,2.343-1.858,2.343-1.535,0-2.02-.97-2.02-2.585v-3.313H813.1v2.989c0,3.959,1.616,6.544,6.06,6.544s6.3-2.343,6.3-5.979V212.62c0-4.2-2.1-5.817-4.525-5.817" transform="translate(-800.254 -187.573)" fill="#fff"/>
    <g id="Group_440" data-name="Group 440" transform="translate(43.629 49.204)">
      <path id="Path_693" data-name="Path 693" d="M902.263,245.9H886.1a.258.258,0,0,0-.242.242v5.333a.258.258,0,0,0,.242.242h6.464l-7.11,7.11a21.177,21.177,0,1,0-15.836,37.651V302.7h-6.383a.258.258,0,0,0-.242.242v5.736a.258.258,0,0,0,.242.242h6.383v6.06a.258.258,0,0,0,.242.242H875.6a.258.258,0,0,0,.242-.242v-6.06h6.383a.258.258,0,0,0,.242-.242v-5.736a.258.258,0,0,0-.242-.242h-6.383v-6.3a21.127,21.127,0,0,0,13.816-33.045l7.029-7.029V262.3a.258.258,0,0,0,.242.242h5.332a.258.258,0,0,0,.242-.242V246.142a.258.258,0,0,0-.242-.242m-29.894,45.165a15.594,15.594,0,1,1,15.594-15.594,15.655,15.655,0,0,1-15.594,15.594" transform="translate(-851.2 -245.9)" fill="#fff"/>
      <path id="Path_694" data-name="Path 694" d="M884.768,274.6H865.942c-.081,0-.242.081-.242.162v4.605c0,.081.081.162.242.162h18.906c.081,0,.242-.081.242-.162v-4.605a.42.42,0,0,0-.323-.162m0,8.16H865.942c-.081,0-.242.081-.242.162v4.605c0,.081.081.162.242.162h18.906c.081,0,.242-.081.242-.162v-4.605a.42.42,0,0,0-.323-.162" transform="translate(-853.985 -251.412)" fill="#fff"/>
    </g>
    <g id="Group_441" data-name="Group 441" transform="translate(37.085 26.339)">
      <path id="Path_695" data-name="Path 695" d="M843.1,217.762h4.282v1.454h-2.5v3.07h1.778v1.454h-1.778v3.232h2.5v1.454H843.1V217.762Zm7.11,11.311v-.727c-1.454-.242-2.02-1.293-2.02-2.747v-5.171c0-1.7.808-2.828,2.666-2.828a2.567,2.567,0,0,1,2.747,2.828V225.6a2.56,2.56,0,0,1-1.293,2.5l1.293.242v1.293l-3.393-.566Zm1.616-3.07v-5.817c0-.646-.242-1.131-.889-1.131s-.889.485-.889,1.131V226c0,.646.242,1.131.889,1.131S851.826,226.649,851.826,226Zm8.16-8.241v8c0,1.616-.727,2.747-2.5,2.747-1.858,0-2.666-1.05-2.666-2.747v-8h1.777V226c0,.646.242,1.05.889,1.05s.889-.4.889-1.05v-8.241Zm.889,10.584,2.02-10.584h2.02l2.02,10.584h-1.858l-.323-1.939h-1.858l-.323,1.939Zm2.262-3.313h1.454l-.727-4.282Zm4.686-7.272H869.6v9.13h2.1v1.454h-3.878Zm4.848,0h1.778v10.584h-1.778Zm2.747,0h4.767v1.454h-1.454v9.13h-1.777v-9.13H875.5v-1.454Zm9.211,6.544v4.04h-1.777v-4.04l-2.02-6.544h1.858l1.05,4.04,1.05-4.04h1.7Z" transform="translate(-843.1 -217.6)" fill="#fff"/>
    </g>
    <g id="Group_442" data-name="Group 442" transform="translate(37.085 10.827)">
      <path id="Path_696" data-name="Path 696" d="M845.847,203.409h2.5v5.656h-1.293v-1.131a1.6,1.6,0,0,1-1.7,1.293c-1.535,0-2.262-1.212-2.262-2.828v-5.171c0-1.7.808-2.828,2.666-2.828,1.939,0,2.585,1.131,2.585,2.666v.97h-1.616v-1.05c0-.646-.242-1.05-.889-1.05s-.889.485-.889,1.131V206.8c0,.646.242,1.131.889,1.131.566,0,.889-.323.889-1.05v-1.858h-.808v-1.616h-.081Zm3.717-4.929h4.282v1.454h-2.5v3.07h1.777v1.454h-1.777v3.232h2.5v1.454h-4.282Zm6.868,3.959v6.706H854.9V198.562h1.778l1.939,6.06v-6.06h1.454v10.584h-1.535Zm10.18-1.131v4.929c0,1.616-.646,2.828-2.586,2.828h-2.747V198.481h2.747C865.965,198.481,866.612,199.693,866.612,201.309Zm-2.828,6.3a.939.939,0,0,0,1.05-1.05v-5.575c0-.646-.242-1.05-1.05-1.05h-.727v7.676Zm4.04-9.13h4.282v1.454h-2.5v3.07h1.777v1.454H869.6v3.232h2.5v1.454h-4.282Zm7.11,5.736v4.848h-1.778V198.481h2.586c1.777,0,2.424.889,2.424,2.343V202.2a1.762,1.762,0,0,1-1.454,2.02l1.7,4.848h-1.858Zm0-4.282v3.313h.566a.775.775,0,0,0,.889-.889v-1.535a.775.775,0,0,0-.889-.889Z" transform="translate(-843.1 -198.4)" fill="#fff"/>
    </g>
  </g>
</svg>
  <polygon class="cls-2" points="387.78 114.07 403.92 165.45 415.98 165.45 415.98 83.67 404.54 83.67 404.54 130.59 389.7 83.67 376.21 83.67 376.21 165.45 387.78 165.45 387.78 114.07"/>
  <path class="cls-2" d="M466.13,143.49V105.63c0-12.66-5.18-22-19.89-22H425v81.78h21.2c14.71,0,19.89-9.41,19.89-22m-27.35,10.74V94.89h5.79c5.66,0,7.82,3.38,7.82,8.2v42.82c0,4.94-2.16,8.32-7.82,8.32Z"/>
  <polygon class="cls-2" points="507.97 154.23 488.94 154.23 488.94 129.38 502.56 129.38 502.56 118.28 488.94 118.28 488.94 94.9 507.97 94.9 507.97 83.67 475.19 83.67 475.19 165.45 507.97 165.45 507.97 154.23"/>
  <path class="cls-2" d="M530.17,127.93,543,165.45h14.47L544.38,128.3c7.83-1.81,11-7,11-15.8V102c0-11.46-5.06-18.34-18.92-18.34h-20v81.78h13.75Zm0-33h4.56c4.71,0,6.75,2.16,6.75,6.62v12c0,4.36-2,6.76-6.75,6.76h-4.56Z"/>
  <polygon class="cls-2" points="318.33 274.11 299.29 274.11 299.29 249.27 312.91 249.27 312.91 238.18 299.29 238.18 299.29 214.78 318.33 214.78 318.33 203.56 285.55 203.56 285.55 285.33 318.33 285.33 318.33 274.11"/>
  <path class="cls-2" d="M342.46,285.32v5.56l25.9,4.82V285.45l-10.12-1.94c7-3.37,10.12-10.36,10.12-19.29V224.66c0-12.78-6.26-22.07-20.85-22.07s-20.72,9.29-20.72,22.07v39.56c0,11.1,4.7,19.18,15.67,21.1m-1.94-62.82c0-4.94,2.17-8.45,7-8.45s7.11,3.51,7.11,8.45v44.63c0,4.82-2.16,8.43-7.11,8.43s-7-3.61-7-8.43Z"/>
  <path class="cls-2" d="M377.29,203.56v61.87c0,12.66,6,20.86,20.49,20.86,14,0,19.41-8.2,19.41-20.86V203.56H404.54v63.19c0,4.83-1.93,8.08-6.76,8.08s-6.75-3.25-6.75-8.08V203.56Z"/>
  <path class="cls-2" d="M439.38,270.37H454l2.53,15h14.1l-15.55-81.77H439.38L424,285.33h13Zm7.22-43.77h.14l5.41,32.8h-11Z"/>
  <polygon class="cls-2" points="477.36 203.56 477.36 285.33 507.49 285.33 507.49 274.12 491.11 274.12 491.11 203.56 477.36 203.56"/>
  <rect class="cls-2" x="514.85" y="203.56" width="13.75" height="81.77"/>
  <polygon class="cls-2" points="561.26 285.33 561.26 214.78 572.58 214.78 572.58 203.57 536.08 203.57 536.08 214.78 547.4 214.78 547.4 285.33 561.26 285.33"/>
  <polygon class="cls-2" points="593.08 285.33 606.83 285.33 606.83 254.22 622 203.57 608.88 203.57 600.56 234.55 600.44 234.55 592.13 203.57 577.78 203.57 593.08 254.22 593.08 285.33"/>
  <path class="cls-2" d="M159.44,147.64c-13.38,0-23.19,4.75-28.55,14h-.3V111.36h58.29V83.7H99.68V197.31h30.91v-4.48c0-11.89,5.36-18.44,14.87-18.44,10.41,0,14.59,7.15,14.59,18.16v48.77c0,10.71-3.88,18.13-14.29,18.13-11.6,0-15.75-7.73-15.75-19.61V214.55H99.06v22.9c0,30.63,12.2,50.26,46.7,50.26,34.2,0,48.17-18.14,48.17-46.1V192.25c0-31.82-16.35-44.61-34.49-44.61"/>
  <g>
    <path class="cls-2" d="M728.35,378.38H604.07a1.6,1.6,0,0,0-1.58,1.59v41.29a1.59,1.59,0,0,0,1.58,1.59h49.48l-54.95,55a161.9,161.9,0,0,0-100.35-34.76c-89.75,0-162.78,73-162.78,162.78,0,82.64,61.91,151,141.77,161.37v47.59h-49a1.57,1.57,0,0,0-1.6,1.57v44.27a1.57,1.57,0,0,0,1.6,1.58h49V909a1.57,1.57,0,0,0,1.58,1.58h44.24a1.59,1.59,0,0,0,1.6-1.58V862.21h49a1.57,1.57,0,0,0,1.57-1.58V816.36a1.57,1.57,0,0,0-1.57-1.57h-49V766.43C601.89,753.76,661,686.59,661,605.83a161.84,161.84,0,0,0-29.73-93.62L685.45,458v46.22a1.6,1.6,0,0,0,1.61,1.58h41.29a1.6,1.6,0,0,0,1.61-1.58V380a1.6,1.6,0,0,0-1.61-1.59M498.25,725.65A119.82,119.82,0,1,1,618.07,605.83,119.94,119.94,0,0,1,498.25,725.65"/>
    <path class="cls-2" d="M572.65,556.65H427.32a1.52,1.52,0,0,0-1.58,1.42v35.18a1.5,1.5,0,0,0,1.58,1.44H572.65a1.51,1.51,0,0,0,1.61-1.44V558.07a1.53,1.53,0,0,0-1.61-1.42"/>
    <path class="cls-2" d="M572.65,619.47H427.32a1.54,1.54,0,0,0-1.58,1.47v35.18a1.5,1.5,0,0,0,1.58,1.42H572.65a1.51,1.51,0,0,0,1.61-1.42V620.94a1.55,1.55,0,0,0-1.61-1.47"/>
  </g>
</svg>
