<svg xmlns="http://www.w3.org/2000/svg" width="130" height="130" viewBox="0 0 130 130">
  <g id="_5" data-name="5" transform="translate(0)">
    <path id="Path_691" data-name="Path 691" d="M797.2,185h130V315h-130Z" transform="translate(-797.2 -185)" fill="#ff3a21"/>
    <path id="Path_692" data-name="Path 692" d="M820.937,206.8a4.092,4.092,0,0,0-3.717,1.778v-6.544h7.595V198.4H813.181v14.786h4.04v-.566c0-1.535.727-2.424,1.939-2.424,1.374,0,1.858.97,1.858,2.343v6.3c0,1.374-.485,2.343-1.858,2.343-1.535,0-2.02-.97-2.02-2.585v-3.313H813.1v2.989c0,3.959,1.616,6.544,6.06,6.544s6.3-2.343,6.3-5.979V212.62c0-4.2-2.1-5.817-4.525-5.817" transform="translate(-800.254 -187.573)" fill="#fff"/>
    <g id="Group_440" data-name="Group 440" transform="translate(43.629 49.204)">
      <path id="Path_693" data-name="Path 693" d="M902.263,245.9H886.1a.258.258,0,0,0-.242.242v5.333a.258.258,0,0,0,.242.242h6.464l-7.11,7.11a21.177,21.177,0,1,0-15.836,37.651V302.7h-6.383a.258.258,0,0,0-.242.242v5.736a.258.258,0,0,0,.242.242h6.383v6.06a.258.258,0,0,0,.242.242H875.6a.258.258,0,0,0,.242-.242v-6.06h6.383a.258.258,0,0,0,.242-.242v-5.736a.258.258,0,0,0-.242-.242h-6.383v-6.3a21.127,21.127,0,0,0,13.816-33.045l7.029-7.029V262.3a.258.258,0,0,0,.242.242h5.332a.258.258,0,0,0,.242-.242V246.142a.258.258,0,0,0-.242-.242m-29.894,45.165a15.594,15.594,0,1,1,15.594-15.594,15.655,15.655,0,0,1-15.594,15.594" transform="translate(-851.2 -245.9)" fill="#fff"/>
      <path id="Path_694" data-name="Path 694" d="M884.768,274.6H865.942c-.081,0-.242.081-.242.162v4.605c0,.081.081.162.242.162h18.906c.081,0,.242-.081.242-.162v-4.605a.42.42,0,0,0-.323-.162m0,8.16H865.942c-.081,0-.242.081-.242.162v4.605c0,.081.081.162.242.162h18.906c.081,0,.242-.081.242-.162v-4.605a.42.42,0,0,0-.323-.162" transform="translate(-853.985 -251.412)" fill="#fff"/>
    </g>
    <g id="Group_441" data-name="Group 441" transform="translate(37.085 26.339)">
      <path id="Path_695" data-name="Path 695" d="M843.1,217.762h4.282v1.454h-2.5v3.07h1.778v1.454h-1.778v3.232h2.5v1.454H843.1V217.762Zm7.11,11.311v-.727c-1.454-.242-2.02-1.293-2.02-2.747v-5.171c0-1.7.808-2.828,2.666-2.828a2.567,2.567,0,0,1,2.747,2.828V225.6a2.56,2.56,0,0,1-1.293,2.5l1.293.242v1.293l-3.393-.566Zm1.616-3.07v-5.817c0-.646-.242-1.131-.889-1.131s-.889.485-.889,1.131V226c0,.646.242,1.131.889,1.131S851.826,226.649,851.826,226Zm8.16-8.241v8c0,1.616-.727,2.747-2.5,2.747-1.858,0-2.666-1.05-2.666-2.747v-8h1.777V226c0,.646.242,1.05.889,1.05s.889-.4.889-1.05v-8.241Zm.889,10.584,2.02-10.584h2.02l2.02,10.584h-1.858l-.323-1.939h-1.858l-.323,1.939Zm2.262-3.313h1.454l-.727-4.282Zm4.686-7.272H869.6v9.13h2.1v1.454h-3.878Zm4.848,0h1.778v10.584h-1.778Zm2.747,0h4.767v1.454h-1.454v9.13h-1.777v-9.13H875.5v-1.454Zm9.211,6.544v4.04h-1.777v-4.04l-2.02-6.544h1.858l1.05,4.04,1.05-4.04h1.7Z" transform="translate(-843.1 -217.6)" fill="#fff"/>
    </g>
    <g id="Group_442" data-name="Group 442" transform="translate(37.085 10.827)">
      <path id="Path_696" data-name="Path 696" d="M845.847,203.409h2.5v5.656h-1.293v-1.131a1.6,1.6,0,0,1-1.7,1.293c-1.535,0-2.262-1.212-2.262-2.828v-5.171c0-1.7.808-2.828,2.666-2.828,1.939,0,2.585,1.131,2.585,2.666v.97h-1.616v-1.05c0-.646-.242-1.05-.889-1.05s-.889.485-.889,1.131V206.8c0,.646.242,1.131.889,1.131.566,0,.889-.323.889-1.05v-1.858h-.808v-1.616h-.081Zm3.717-4.929h4.282v1.454h-2.5v3.07h1.777v1.454h-1.777v3.232h2.5v1.454h-4.282Zm6.868,3.959v6.706H854.9V198.562h1.778l1.939,6.06v-6.06h1.454v10.584h-1.535Zm10.18-1.131v4.929c0,1.616-.646,2.828-2.586,2.828h-2.747V198.481h2.747C865.965,198.481,866.612,199.693,866.612,201.309Zm-2.828,6.3a.939.939,0,0,0,1.05-1.05v-5.575c0-.646-.242-1.05-1.05-1.05h-.727v7.676Zm4.04-9.13h4.282v1.454h-2.5v3.07h1.777v1.454H869.6v3.232h2.5v1.454h-4.282Zm7.11,5.736v4.848h-1.778V198.481h2.586c1.777,0,2.424.889,2.424,2.343V202.2a1.762,1.762,0,0,1-1.454,2.02l1.7,4.848h-1.858Zm0-4.282v3.313h.566a.775.775,0,0,0,.889-.889v-1.535a.775.775,0,0,0-.889-.889Z" transform="translate(-843.1 -198.4)" fill="#fff"/>
    </g>
  </g>
</svg>
