<svg id="_6" data-name="6" xmlns="http://www.w3.org/2000/svg" width="130" height="130" viewBox="0 0 130 130">
  <path id="Path_697" data-name="Path 697" d="M975.5,185h130V315h-130Z" transform="translate(-975.5 -185)" fill="#26bde2"/>
  <path id="Path_698" data-name="Path 698" d="M998.564,224.87c4.819,0,6.648-2.571,6.648-6.587v-3.856c0-4.258-1.745-6.427-4.986-6.427a3.971,3.971,0,0,0-3.739,2.089v-5.623c0-1.607.5-2.731,2.161-2.731s2.077.964,2.077,2.571v1.767h4.155v-1.366c0-3.856-1.329-6.507-6.315-6.507-4.736,0-6.565,2.972-6.565,7.069v12.692c-.083,3.936,1.745,6.909,6.565,6.909m-2.077-11.005c.083-1.446.748-2.41,2.161-2.41,1.579,0,2.16.884,2.16,2.651v4.5c0,1.687-.665,2.651-2.16,2.651s-2.077-.964-2.077-2.651l-.083-4.74Zm73.373,26.028a.646.646,0,0,0-.415-.161h-48.528a.647.647,0,0,0-.416.161c-.083.161-.166.321-.083.482l8.143,47.637a.616.616,0,0,0,.582.482h9.971l.665,7.792h-4.238l9.805,9.479,9.805-9.479h-4.238l.665-7.712h10.137a.6.6,0,0,0,.582-.482l7.645-47.637c.083-.321,0-.482-.083-.562Zm-18.7,38.158a9.739,9.739,0,0,1-11.633,0c-3.656-3.535-2.327-7.872-1.08-10.122.748-1.446,6.4-9.559,6.814-10.2v0c.5.723,6.066,8.837,6.814,10.2,1.413,2.249,2.659,6.587-.914,10.122Zm15.373-28.116a6.483,6.483,0,0,0-4.57.241c-5.983,2.33-10.138,3.213-16.453,1.285-3.989-1.2-7.728-3.7-12.132-2.169-2.908,1.044-5.651,2.008-8.974,1.928l-1.911-9.479h45.37l-1.329,8.194Z" transform="translate(-978.289 -187.231)" fill="#fff"/>
  <g id="Group_443" data-name="Group 443" transform="translate(34.357 26.27)">
    <path id="Path_699" data-name="Path 699" d="M1021.3,228.652l2.077-10.885h2.078l2.077,10.885h-1.911l-.332-1.994h-1.911l-.332,1.994Zm2.327-3.407h1.5l-.748-4.4Zm6.232-3.407v6.9h-1.579V217.849h1.828l1.994,6.232v-6.232h1.5v10.885h-1.579Zm10.553-1.163v5.069c0,1.662-.665,2.908-2.659,2.908h-2.825V217.766h2.825C1039.747,217.766,1040.412,219.013,1040.412,220.675Zm-2.825,6.481a.966.966,0,0,0,1.08-1.08v-5.734c0-.665-.249-1.08-1.08-1.08h-.748v7.894Zm6.98-.831v-1.5h1.745v1.5c0,.582.249,1,.914,1,.582,0,.831-.415.831-1v-.415a2.009,2.009,0,0,0-.831-1.579l-1.08-1.08a3.507,3.507,0,0,1-1.5-2.908v-.332a2.315,2.315,0,0,1,2.576-2.41c1.828,0,2.576.914,2.576,2.493v.914h-1.662v-.914c0-.665-.249-.914-.831-.914-.5,0-.831.249-.831.914v.249a2.128,2.128,0,0,0,.831,1.5l1.163,1.163c1,1,1.5,1.662,1.5,2.825v.5a2.383,2.383,0,0,1-2.659,2.576c-2.077-.083-2.742-1.163-2.742-2.576Zm5.817,2.327,2.077-10.885h2.077l2.077,10.885H1054.7l-.332-1.994h-1.911l-.332,1.994h-1.745Zm2.244-3.407h1.5l-.748-4.4Zm6.4-3.407v6.9h-1.579V217.849h1.828l1.994,6.232v-6.232h1.5v10.885h-1.579Zm5.235-4.072h1.828v10.885h-1.828Zm2.742,0h4.9v1.5h-1.5v9.39h-1.828v-9.39h-1.5Zm4.4,10.885,2.077-10.885h2.077l2.077,10.885h-1.911l-.332-1.994h-1.911l-.332,1.994h-1.745Zm2.327-3.407h1.5l-.748-4.4Zm3.324-7.479h4.9v1.5h-1.5v9.39h-1.828v-9.39h-1.5Zm5.9,0h1.828v10.885h-1.828Zm2.991,8.06v-5.318c0-1.745.831-2.908,2.742-2.908a2.64,2.64,0,0,1,2.825,2.908v5.318a2.6,2.6,0,0,1-2.825,2.908C1086.862,228.818,1085.948,227.571,1085.948,225.826Zm3.739.332v-5.9c0-.665-.249-1.163-.914-1.163s-.914.5-.914,1.163v5.9c0,.665.249,1.163.914,1.163C1089.438,227.239,1089.687,226.824,1089.687,226.159Zm4.653-4.321v6.9h-1.579V217.849h1.828l1.994,6.232v-6.232h1.5v10.885H1096.5Z" transform="translate(-1021.3 -217.6)" fill="#fff"/>
  </g>
  <g id="Group_444" data-name="Group 444" transform="translate(36.279 10.969)">
    <path id="Path_700" data-name="Path 700" d="M1021.6,206.426v-5.318c0-1.745.831-2.908,2.742-2.908,1.994,0,2.576,1.163,2.576,2.742v1.33h-1.662v-1.413c0-.665-.249-1.08-.914-1.08s-.914.5-.914,1.163v5.9c0,.665.249,1.163.914,1.163s.914-.415.914-1.08v-1.994h1.662v1.911c0,1.579-.665,2.742-2.576,2.742C1022.348,209.418,1021.6,208.171,1021.6,206.426Zm6.481-8.06h1.828v9.39h2.161v1.5h-3.989V198.366Zm4.986,0h4.4v1.5H1034.9v3.158h1.828v1.5H1034.9v3.324h2.576v1.5h-4.4V198.366Zm5.235,10.885,2.077-10.885h2.077l2.077,10.885h-1.911l-.332-1.994h-1.911l-.332,1.994H1038.3Zm2.327-3.407h1.5l-.748-4.4Zm6.4-3.407v6.9h-1.579V198.449h1.828l1.994,6.232v-6.232h1.5v10.885h-1.579Zm11.633.083-1,6.731h-1.745l-1.5-10.885h1.745l.831,6.9.914-6.9h1.5l1,6.9.831-6.9h1.579l-1.413,10.885h-1.745l-1-6.731Zm4.238,6.731,2.077-10.885h2.077l2.077,10.885h-1.911l-.332-1.994h-1.911l-.332,1.994H1062.9Zm2.244-3.407h1.5l-.748-4.4Zm3.739-7.479h4.9v1.5h-1.5v9.39h-1.828v-9.39h-1.5Zm5.734,0h4.4v1.5h-2.576v3.158h1.828v1.5h-1.828v3.324h2.576v1.5h-4.4V198.366Zm7.229,5.9v4.986h-1.828V198.366h2.659c1.828,0,2.493.914,2.493,2.41v1.413a1.812,1.812,0,0,1-1.5,2.077l1.745,4.986h-1.911Zm0-4.4v3.407h.582a.8.8,0,0,0,.914-.914v-1.579a.8.8,0,0,0-.914-.914Z" transform="translate(-1021.6 -198.2)" fill="#fff"/>
  </g>
</svg>
