<svg xmlns="http://www.w3.org/2000/svg" width="130" height="130" viewBox="0 0 130 130">
  <g id="_7" data-name="7" transform="translate(0)">
    <path id="Path_705" data-name="Path 705" d="M83.8,362.6h130v130H83.8Z" transform="translate(-83.8 -362.6)" fill="#fcc30b"/>
    <path id="Path_706" data-name="Path 706" d="M100.3,379.756h6.98l-6.066,23.267H105.7l5.983-22.768V376.1H100.3Z" transform="translate(-86.589 -364.882)" fill="#fff"/>
    <g id="Group_447" data-name="Group 447" transform="translate(34.191 11.052)">
      <path id="Path_707" data-name="Path 707" d="M129.4,386.952l2.077-10.885h2.077l2.077,10.885h-1.911l-.332-1.994h-1.911l-.332,1.994Zm2.327-3.49h1.5l-.748-4.4-.748,4.4Zm4.57-7.4h4.321v1.5h-2.493v3.158h1.828v1.5h-1.828v4.819H136.3V376.066Zm5.069,0h4.321v1.5h-2.493v3.158h1.828v1.5h-1.828v4.819h-1.828V376.066Zm4.82,8.06v-5.318c0-1.745.831-2.908,2.742-2.908a2.64,2.64,0,0,1,2.825,2.908v5.318a2.6,2.6,0,0,1-2.825,2.908C147.016,387.118,146.185,385.788,146.185,384.126Zm3.739.332v-5.9c0-.665-.249-1.163-.914-1.163s-.914.5-.914,1.163v5.9c0,.665.249,1.163.914,1.163C149.675,385.539,149.924,385.124,149.924,384.459Zm4.653-2.493v4.986H152.75V376.066h2.659c1.828,0,2.493.914,2.493,2.41v1.413a1.812,1.812,0,0,1-1.5,2.077l1.745,4.986H156.24Zm0-4.4v3.407h.582a.8.8,0,0,0,.914-.914v-1.579a.8.8,0,0,0-.914-.914h-.582Zm9.805,1.413v5.069c0,1.662-.665,2.908-2.659,2.908H158.9V376.066h2.825C163.635,376.066,164.383,377.313,164.383,378.975Zm-2.908,6.481a.966.966,0,0,0,1.08-1.08v-5.734c0-.665-.249-1.08-1.08-1.08h-.748v7.894h.748Zm3.324,1.5,2.077-10.885h2.077l2.077,10.885h-1.911l-.332-1.994h-1.911l-.332,1.994Zm2.327-3.49h1.5l-.748-4.4-.748,4.4Zm4.57-7.4h2.659c1.828,0,2.41.831,2.41,2.41v1.08a1.6,1.6,0,0,1-1.08,1.745,1.665,1.665,0,0,1,1.33,1.828v1.413c0,1.579-.665,2.41-2.493,2.41H171.7Zm1.828,4.57h.665c.582,0,.831-.332.831-.914v-1.33a.8.8,0,0,0-.914-.914h-.665v3.158h.083Zm0,1.413v3.407h.831a.831.831,0,0,0,.914-.914V382.88a.8.8,0,0,0-.914-.914h-.831Zm4.4-5.983h1.828v9.39h2.16v1.5h-3.989V376.066Zm4.82,0h4.4v1.5h-2.576v3.158H186.4v1.5h-1.828v3.324h2.576v1.5h-4.4V376.066Zm6.565,10.885,2.077-10.885h2.077l2.077,10.885h-1.911l-.332-1.994h-1.911l-.332,1.994Zm2.327-3.49h1.5l-.748-4.4-.748,4.4Zm6.149-3.407v6.9h-1.579V376.066h1.828l1.994,6.232v-6.232h1.5v10.885h-1.579Zm10.221-1.08v5.069c0,1.662-.665,2.908-2.659,2.908h-2.825V376.066h2.825C207.343,376.066,208.008,377.313,208.008,378.975Zm-2.825,6.481a.966.966,0,0,0,1.08-1.08v-5.734c0-.665-.249-1.08-1.08-1.08h-.748v7.894h.748Z" transform="translate(-129.4 -375.9)" fill="#fff"/>
    </g>
    <g id="Group_448" data-name="Group 448" transform="translate(35.935 26.351)">
      <path id="Path_708" data-name="Path 708" d="M129.7,403.443v-5.235c0-1.662.831-2.908,2.742-2.908,1.994,0,2.576,1.163,2.576,2.742v1.246h-1.662v-1.413c0-.665-.249-1.08-.914-1.08s-.914.5-.914,1.163v5.817c0,.665.249,1.163.914,1.163s.914-.415.914-1.08v-1.994h1.662v1.911c0,1.579-.665,2.742-2.576,2.742-1.911-.083-2.742-1.33-2.742-3.075Zm6.481-8.06h1.828v9.39h2.16v1.5h-3.989V395.383Zm4.986,0h4.321v1.5H143v3.075h1.828v1.5H143v3.324h2.493v1.5h-4.321V395.383Zm5.235,10.885,2.077-10.885h2.077l2.077,10.885h-1.911l-.332-1.994h-1.911l-.332,1.994Zm2.327-3.407h1.5l-.748-4.4Zm6.315-3.407v6.814h-1.579V395.383h1.828l1.994,6.232v-6.232h1.5v10.885H157.2Zm8.642-4.072h4.321v1.5h-2.493v3.075h1.828v1.5h-1.828v3.324h2.493v1.5h-4.321V395.383Zm6.98,4.072v6.814h-1.579V395.383h1.828l1.994,6.232v-6.232h1.5v10.885h-1.579Zm4.986-4.072h4.321v1.5H177.48v3.075h1.828v1.5H177.48v3.324h2.493v1.5h-4.321V395.383Zm7.312,5.9v4.986h-1.828V395.383h2.659c1.828,0,2.493.914,2.493,2.41v1.413a1.812,1.812,0,0,1-1.5,2.077l1.745,4.9h-1.911Zm0-4.4v3.407h.582a.8.8,0,0,0,.914-.914v-1.579a.8.8,0,0,0-.914-.914Zm7.229,3.573h2.576v5.817h-1.33v-1.163a1.648,1.648,0,0,1-1.745,1.33c-1.579,0-2.327-1.246-2.327-2.908v-5.235c0-1.662.831-2.908,2.742-2.908,1.994,0,2.576,1.163,2.576,2.742v1h-1.662v-1.08c0-.665-.249-1.08-.914-1.08s-.914.5-.914,1.163v5.817c0,.665.249,1.163.914,1.163.582,0,.914-.332.914-1.08v-1.911h-.831v-1.662Zm7.312,1.662v4.155h-1.828v-4.155l-2.077-6.731h1.911l1.08,4.155,1.08-4.155h1.745l-1.911,6.731Z" transform="translate(-129.7 -395.3)" fill="#fff"/>
    </g>
    <g id="Group_449" data-name="Group 449" transform="translate(30.889 46.489)">
      <path id="Path_709" data-name="Path 709" d="M157.435,491.138a1.563,1.563,0,0,0,1.579-1.5v-8.559a1.581,1.581,0,0,0-3.158,0v8.559a1.69,1.69,0,0,0,1.579,1.5m-.166-53.513a19.61,19.61,0,1,0,19.61,19.61,19.647,19.647,0,0,0-19.61-19.61m-1.413,7.728a1.465,1.465,0,0,1,1.5-1.33,1.443,1.443,0,0,1,1.413,1.33v6.731a1.444,1.444,0,0,1-1.413,1.33,1.53,1.53,0,0,1-1.5-1.33Zm1.413,21.854a10.206,10.206,0,0,1-3.075-19.943v3.822a6.634,6.634,0,1,0,9.639,5.9A6.835,6.835,0,0,0,160.177,451v-3.822a10.124,10.124,0,0,1,7.146,9.722,9.99,9.99,0,0,1-10.055,10.3m-22.436-10.221a1.563,1.563,0,0,0-1.5-1.579H124.7a1.581,1.581,0,0,0,0,3.158h8.559a1.575,1.575,0,0,0,1.579-1.579m56.588,0a1.563,1.563,0,0,0-1.5-1.579h-8.559a1.581,1.581,0,0,0,0,3.158h8.559a1.56,1.56,0,0,0,1.5-1.579M157.269,434.55a1.563,1.563,0,0,0,1.579-1.5V424.5a1.581,1.581,0,0,0-3.158,0v8.476a1.7,1.7,0,0,0,1.579,1.579m-19.527,11.3a1.734,1.734,0,0,0-.5-2.16l-7.479-4.238a1.56,1.56,0,0,0-2.077.665,1.734,1.734,0,0,0,.5,2.16l7.479,4.238a1.668,1.668,0,0,0,2.077-.665m49.192,28.086a1.734,1.734,0,0,0-.5-2.16l-7.479-4.238a1.56,1.56,0,0,0-2.077.665,1.734,1.734,0,0,0,.5,2.16l7.479,4.238a1.6,1.6,0,0,0,2.077-.665m-18.447-36.479a1.761,1.761,0,0,0,2.16-.5l4.238-7.479a1.56,1.56,0,0,0-.665-2.077,1.734,1.734,0,0,0-2.16.5l-4.238,7.479a1.641,1.641,0,0,0,.665,2.077m-28.169,49.192a1.761,1.761,0,0,0,2.16-.5l4.238-7.479a1.56,1.56,0,0,0-.665-2.077,1.734,1.734,0,0,0-2.16.5l-4.238,7.479a1.693,1.693,0,0,0,.665,2.077m5.734-49.109a1.668,1.668,0,0,0,.665-2.077l-4.238-7.479a1.563,1.563,0,0,0-2.16-.5,1.747,1.747,0,0,0-.665,2.16l4.238,7.479a1.856,1.856,0,0,0,2.16.415M174.3,486.568a1.668,1.668,0,0,0,.665-2.077l-4.238-7.479a1.563,1.563,0,0,0-2.16-.5,1.747,1.747,0,0,0-.665,2.16l4.238,7.479a1.625,1.625,0,0,0,2.16.415m2.493-40.8a1.668,1.668,0,0,0,2.077.665l7.479-4.238a1.563,1.563,0,0,0,.5-2.16,1.747,1.747,0,0,0-2.16-.665l-7.479,4.238a1.856,1.856,0,0,0-.415,2.16M127.77,474.02a1.668,1.668,0,0,0,2.077.665l7.479-4.238a1.563,1.563,0,0,0,.5-2.16,1.747,1.747,0,0,0-2.16-.665l-7.479,4.238a1.625,1.625,0,0,0-.415,2.16" transform="translate(-123.2 -423)" fill="#fff"/>
    </g>
  </g>
</svg>
