<svg xmlns="http://www.w3.org/2000/svg" width="130" height="130" viewBox="0 0 130 130">
  <g id="_8" data-name="8" transform="translate(0 0)">
    <path id="Path_649" data-name="Path 649" d="M262.1,362.6h130v130h-130Z" transform="translate(-262.1 -362.6)" fill="#a21942"/>
    <path id="Path_650" data-name="Path 650" d="M290.289,395.837v-2.909c0-2.5-.889-4.363-2.909-5.252a4.621,4.621,0,0,0,2.585-4.525V382.1c0-4.121-2.1-6.3-6.221-6.3-4.04,0-6.141,2.181-6.141,6.3v1.05a4.613,4.613,0,0,0,2.5,4.525c-2.02.889-2.909,2.747-2.909,5.252v2.828c0,3.959,1.858,6.787,6.544,6.787,4.605.081,6.544-2.747,6.544-6.706m-8.564-14.058c0-1.616.566-2.5,1.939-2.5,1.454,0,2.02.889,2.02,2.5v1.778c0,1.616-.566,2.5-2.02,2.5s-1.939-.97-1.939-2.5Zm4.121,14.543c0,1.616-.566,2.747-2.181,2.747-1.535,0-2.1-1.131-2.1-2.747V392.04c0-1.616.566-2.666,2.1-2.666,1.616,0,2.181,1.131,2.181,2.666Z" transform="translate(-265 -365.135)" fill="#fff"/>
    <g id="Group_418" data-name="Group 418" transform="translate(33.954 48.316)">
      <path id="Path_651" data-name="Path 651" d="M361.432,441.7l-13.25,12.6a2.211,2.211,0,0,0-.727,1.858V491.39a.724.724,0,0,0,.727.727h13.654a.724.724,0,0,0,.727-.727V442.024c.081-.485-.242-1.212-1.131-.323m-38.055,16.321-13.25,12.6a2.211,2.211,0,0,0-.727,1.858v18.825a.724.724,0,0,0,.727.727h13.654a.724.724,0,0,0,.727-.727V458.344c.081-.4-.242-1.131-1.131-.323" transform="translate(-305.138 -426.026)" fill="#fff"/>
      <path id="Path_652" data-name="Path 652" d="M366.479,422.8a.486.486,0,0,0-.081-.323.3.3,0,0,0-.242-.081h-.162l-10.1,2.262h-.162a.282.282,0,0,0-.162.081.39.39,0,0,0,0,.566l.081.081L358,427.733l-22.946,22.946-10.584-10.584a.367.367,0,0,0-.4,0L321.153,443,304.186,459.97a.367.367,0,0,0,0,.4l2.909,2.909a.367.367,0,0,0,.4,0L324.3,446.558l7.676,7.676,2.909,2.909a.367.367,0,0,0,.4,0l26.016-26.016,2.424,2.424a.39.39,0,0,0,.566,0,.3.3,0,0,0,.081-.242l2.262-10.342-.162-.162Z" transform="translate(-304.125 -422.4)" fill="#fff"/>
      <path id="Path_653" data-name="Path 653" d="M347.1,464.687l-6.383,6.464a.361.361,0,0,1-.4,0l-5.817-5.9c-1.05-1.05-1.293-.162-1.293.242v30.379a.724.724,0,0,0,.727.727h13.654a.724.724,0,0,0,.727-.727V465.01c0-.566-.323-1.293-1.212-.323" transform="translate(-309.709 -430.43)" fill="#fff"/>
    </g>
    <g id="Group_419" data-name="Group 419" transform="translate(34.984 10.746)">
      <path id="Path_654" data-name="Path 654" d="M310.733,378.889v4.929c0,1.616-.646,2.828-2.585,2.828H305.4V376.062h2.747C310.086,376.062,310.733,377.274,310.733,378.889Zm-2.828,6.3a.939.939,0,0,0,1.05-1.05v-5.575c0-.646-.242-1.05-1.05-1.05h-.727v7.676Zm3.959-9.13h4.282v1.454h-2.5v3.07h1.778v1.454h-1.778v3.232h2.5v1.454h-4.282V376.062Zm5.171,7.837v-5.171c0-1.7.808-2.828,2.666-2.828,1.939,0,2.5,1.131,2.5,2.666v1.293H320.59V378.4c0-.646-.242-1.05-.889-1.05s-.889.485-.889,1.131v5.737c0,.646.242,1.131.889,1.131s.889-.4.889-1.05v-1.939h1.616v1.858c0,1.535-.646,2.666-2.5,2.666A2.672,2.672,0,0,1,317.035,383.9Zm6.3-7.837h4.282v1.454h-2.5v3.07h1.778v1.454h-1.778v3.232h2.5v1.454h-4.282V376.062Zm6.787,3.878v6.706h-1.535V376.062h1.777l1.939,6.06v-6.06h1.454v10.584h-1.535Zm4.605-3.878H339.5v1.454h-1.454v9.13h-1.778v-9.13H334.81v-1.454Zm11.311,4.04-.97,6.544h-1.7l-1.454-10.584h1.7l.808,6.706.889-6.706h1.454l.97,6.706.808-6.706h1.535l-1.374,10.584h-1.616Zm4.767,3.8v-5.171c0-1.7.808-2.828,2.666-2.828a2.567,2.567,0,0,1,2.747,2.828V383.9a2.529,2.529,0,0,1-2.747,2.828C351.615,386.807,350.807,385.515,350.807,383.9Zm3.555.323v-5.736c0-.646-.242-1.131-.889-1.131s-.889.485-.889,1.131v5.736c0,.646.242,1.131.889,1.131C354.12,385.272,354.362,384.868,354.362,384.222Zm4.767-2.424v4.848h-1.777V376.062h2.585c1.778,0,2.424.889,2.424,2.343v1.374a1.761,1.761,0,0,1-1.454,2.02l1.7,4.848h-1.858l-1.616-4.848Zm0-4.282v3.313h.566a.775.775,0,0,0,.889-.889V378.4a.775.775,0,0,0-.889-.889h-.566Zm6.141,3.959v5.171h-1.778V376.062h1.778v4.686l1.939-4.686h1.778l-2.1,4.767,2.1,5.817h-1.858Zm6.221,5.171,2.02-10.584h2.02l2.02,10.584h-1.858l-.323-1.939h-1.858l-.323,1.939h-1.7Zm2.262-3.393h1.454l-.727-4.282Zm5.9-3.313v6.706h-1.535V376.062h1.778l1.939,6.06v-6.06h1.454v10.584h-1.535Zm10.18-1.05v4.929c0,1.616-.646,2.828-2.586,2.828H384.5V376.062h2.747C389.185,376.062,389.831,377.274,389.831,378.889Zm-2.828,6.3a.939.939,0,0,0,1.05-1.05v-5.575c0-.646-.242-1.05-1.05-1.05h-.727v7.676Z" transform="translate(-305.4 -375.9)" fill="#fff"/>
    </g>
    <g id="Group_420" data-name="Group 420" transform="translate(34.984 26.339)">
      <path id="Path_655" data-name="Path 655" d="M305.4,395.362h4.282v1.454h-2.5v3.07h1.778v1.454h-1.778v3.232h2.5v1.454H305.4V395.362Zm5.009,7.837v-5.171c0-1.7.808-2.828,2.666-2.828,1.939,0,2.5,1.131,2.5,2.666v1.293h-1.616v-1.374c0-.646-.242-1.05-.889-1.05s-.889.485-.889,1.131V403.6c0,.646.242,1.131.889,1.131s.889-.4.889-1.05v-1.939h1.616V403.6c0,1.535-.646,2.666-2.5,2.666A2.739,2.739,0,0,1,310.409,403.2Zm6.14,0v-5.171c0-1.7.808-2.828,2.666-2.828a2.567,2.567,0,0,1,2.747,2.828V403.2a2.529,2.529,0,0,1-2.747,2.828C317.439,406.107,316.55,404.9,316.55,403.2Zm3.636.323v-5.736c0-.646-.242-1.131-.889-1.131s-.889.485-.889,1.131v5.736c0,.646.242,1.131.889,1.131C319.943,404.572,320.186,404.168,320.186,403.522Zm4.363-4.2v6.706h-1.535V395.442h1.777l1.939,6.06v-6.06h1.454v10.584h-1.535Zm4.686,3.878v-5.171c0-1.7.808-2.828,2.666-2.828a2.567,2.567,0,0,1,2.747,2.828V403.2a2.529,2.529,0,0,1-2.747,2.828C330.043,406.107,329.235,404.9,329.235,403.2Zm3.555.323v-5.736c0-.646-.242-1.131-.889-1.131s-.889.485-.889,1.131v5.736c0,.646.242,1.131.889,1.131C332.547,404.572,332.79,404.168,332.79,403.522Zm7.756-4.444-1.293,6.868h-.808l-1.293-6.868v6.868H335.7V395.362h2.1l1.131,5.979,1.05-5.979h2.262v10.584h-1.616Zm2.666-3.717h1.777v10.584h-1.777Zm2.747,7.837v-5.171c0-1.7.808-2.828,2.666-2.828,1.939,0,2.5,1.131,2.5,2.666v1.293h-1.616v-1.374c0-.646-.242-1.05-.889-1.05s-.889.485-.889,1.131V403.6c0,.646.242,1.131.889,1.131s.889-.4.889-1.05v-1.939h1.616V403.6c0,1.535-.646,2.666-2.5,2.666A2.739,2.739,0,0,1,345.959,403.2Zm10.988-2.909h2.5v5.656H358.16v-1.131a1.6,1.6,0,0,1-1.7,1.293c-1.535,0-2.262-1.212-2.262-2.828v-5.171c0-1.7.808-2.828,2.666-2.828,1.939,0,2.586,1.131,2.586,2.666v.97h-1.616v-1.05c0-.646-.242-1.05-.889-1.05s-.889.485-.889,1.131v5.737c0,.646.242,1.131.889,1.131.566,0,.889-.323.889-1.05v-1.858h-.808V400.29h-.081Zm5.494.808v4.848h-1.777V395.362h2.585c1.778,0,2.424.889,2.424,2.343v1.374a1.762,1.762,0,0,1-1.454,2.02l1.7,4.848h-1.858Zm0-4.282v3.313h.566a.775.775,0,0,0,.889-.889V397.7a.775.775,0,0,0-.889-.889Zm4.04,6.383v-5.171c0-1.7.808-2.828,2.666-2.828a2.567,2.567,0,0,1,2.747,2.828V403.2a2.529,2.529,0,0,1-2.747,2.828C367.289,406.107,366.482,404.9,366.482,403.2Zm3.636.323v-5.736c0-.646-.242-1.131-.889-1.131s-.889.485-.889,1.131v5.736c0,.646.242,1.131.889,1.131C369.875,404.572,370.117,404.168,370.117,403.522ZM376.5,399.4l-.97,6.544h-1.7l-1.454-10.584h1.7l.808,6.706.889-6.706h1.454l.97,6.706.808-6.706h1.535l-1.374,10.584h-1.7l-.97-6.544Zm4.686-4.04h4.767v1.454H384.5v9.13h-1.858v-9.13h-1.454Zm8.807,5.9h-1.7v4.686h-1.777V395.362H388.3v4.525h1.7v-4.525h1.778v10.584h-1.778Z" transform="translate(-305.4 -395.2)" fill="#fff"/>
    </g>
  </g>
</svg>
