<svg xmlns="http://www.w3.org/2000/svg" width="130" height="130" viewBox="0 0 130 130">
  <g id="_8" data-name="8" transform="translate(0 0)">
    <path id="Path_649" data-name="Path 649" d="M262.1,362.6h130v130h-130Z" transform="translate(-262.1 -362.6)" fill="#a21942"/>
    <path id="Path_650" data-name="Path 650" d="M290.289,395.837v-2.909c0-2.5-.889-4.363-2.909-5.252a4.621,4.621,0,0,0,2.585-4.525V382.1c0-4.121-2.1-6.3-6.221-6.3-4.04,0-6.141,2.181-6.141,6.3v1.05a4.613,4.613,0,0,0,2.5,4.525c-2.02.889-2.909,2.747-2.909,5.252v2.828c0,3.959,1.858,6.787,6.544,6.787,4.605.081,6.544-2.747,6.544-6.706m-8.564-14.058c0-1.616.566-2.5,1.939-2.5,1.454,0,2.02.889,2.02,2.5v1.778c0,1.616-.566,2.5-2.02,2.5s-1.939-.97-1.939-2.5Zm4.121,14.543c0,1.616-.566,2.747-2.181,2.747-1.535,0-2.1-1.131-2.1-2.747V392.04c0-1.616.566-2.666,2.1-2.666,1.616,0,2.181,1.131,2.181,2.666Z" transform="translate(-265 -365.135)" fill="#fff"/>
    <g id="Group_418" data-name="Group 418" transform="translate(33.954 48.316)">
      <path id="Path_651" data-name="Path 651" d="M361.432,441.7l-13.25,12.6a2.211,2.211,0,0,0-.727,1.858V491.39a.724.724,0,0,0,.727.727h13.654a.724.724,0,0,0,.727-.727V442.024c.081-.485-.242-1.212-1.131-.323m-38.055,16.321-13.25,12.6a2.211,2.211,0,0,0-.727,1.858v18.825a.724.724,0,0,0,.727.727h13.654a.724.724,0,0,0,.727-.727V458.344c.081-.4-.242-1.131-1.131-.323" transform="translate(-305.138 -426.026)" fill="#fff"/>
      <path id="Path_652" data-name="Path 652" d="M366.479,422.8a.486.486,0,0,0-.081-.323.3.3,0,0,0-.242-.081h-.162l-10.1,2.262h-.162a.282.282,0,0,0-.162.081.39.39,0,0,0,0,.566l.081.081L358,427.733l-22.946,22.946-10.584-10.584a.367.367,0,0,0-.4,0L321.153,443,304.186,459.97a.367.367,0,0,0,0,.4l2.909,2.909a.367.367,0,0,0,.4,0L324.3,446.558l7.676,7.676,2.909,2.909a.367.367,0,0,0,.4,0l26.016-26.016,2.424,2.424a.39.39,0,0,0,.566,0,.3.3,0,0,0,.081-.242l2.262-10.342-.162-.162Z" transform="translate(-304.125 -422.4)" fill="#fff"/>
      <path id="Path_653" data-name="Path 653" d="M347.1,464.687l-6.383,6.464a.361.361,0,0,1-.4,0l-5.817-5.9c-1.05-1.05-1.293-.162-1.293.242v30.379a.724.724,0,0,0,.727.727h13.654a.724.724,0,0,0,.727-.727V465.01c0-.566-.323-1.293-1.212-.323" transform="translate(-309.709 -430.43)" fill="#fff"/>
    </g>
    <g id="Group_419" data-name="Group 419" transform="translate(34.984 10.746)">
      <path id="Path_654" data-name="Path 654" d="M310.733,378.889v4.929c0,1.616-.646,2.828-2.585,2.828H305.4V376.062h2.747C310.086,376.062,310.733,377.274,310.733,378.889Zm-2.828,6.3a.939.939,0,0,0,1.05-1.05v-5.575c0-.646-.242-1.05-1.05-1.05h-.727v7.676Zm3.959-9.13h4.282v1.454h-2.5v3.07h1.778v1.454h-1.778v3.232h2.5v1.454h-4.282V376.062Zm5.171,7.837v-5.171c0-1.7.808-2.828,2.666-2.828,1.939,0,2.5,1.131,2.5,2.666v1.293H320.59V378.4c0-.646-.242-1.05-.889-1.05s-.889.485-.889,1.131v5.737c0,.646.242,1.131.889,1.131s.889-.4.889-1.05v-1.939h1.616v1.858c0,1.535-.646,2.666-2.5,2.666A2.672,2.672,0,0,1,317.035,383.9Zm6.3-7.837h4.282v1.454h-2.5v3.07h1.778v1.454h-1.778v3.232h2.5v1.454h-4.282V376.062Zm6.787,3.878v6.706h-1.535V376.062h1.777l1.939,6.06v-6.06h1.454v10.584h-1.535Zm4.605-3.878H339.5v1.454h-1.454v9.13h-1.778v-9.13H334.81v-1.454Zm11.311,4.04-.97,6.544h-1.7l-1.454-10.584h1.7l.808,6.706.889-6.706h1.454l.97,6.706.808-6.706h1.535l-1.374,10.584h-1.616Zm4.767,3.8v-5.171c0-1.7.808-2.828,2.666-2.828a2.567,2.567,0,0,1,2.747,2.828V383.9a2.529,2.529,0,0,1-2.747,2.828C351.615,386.807,350.807,385.515,350.807,383.9Zm3.555.323v-5.736c0-.646-.242-1.131-.889-1.131s-.889.485-.889,1.131v5.736c0,.646.242,1.131.889,1.131C354.12,385.272,354.362,384.868,354.362,384.222Zm4.767-2.424v4.848h-1.777V376.062h2.585c1.778,0,2.424.889,2.424,2.343v1.374a1.761,1.761,0,0,1-1.454,2.02l1.7,4.848h-1.858l-1.616-4.848Zm0-4.282v3.313h.566a.775.775,0,0,0,.889-.889V378.4a.775.775,0,0,0-.889-.889h-.566Zm6.141,3.959v5.171h-1.778V376.062h1.778v4.686l1.939-4.686h1.778l-2.1,4.767,2.1,5.817h-1.858Zm6.221,5.171,2.02-10.584h2.02l2.02,10.584h-1.858l-.323-1.939h-1.858l-.323,1.939h-1.7Zm2.262-3.393h1.454l-.727-4.282Zm5.9-3.313v6.706h-1.535V376.062h1.778l1.939,6.06v-6.06h1.454v10.584h-1.535Zm10.18-1.05v4.929c0,1.616-.646,2.828-2.586,2.828H384.5V376.062h2.747C389.185,376.062,389.831,377.274,389.831,378.889Zm-2.828,6.3a.939.939,0,0,0,1.05-1.05v-5.575c0-.646-.242-1.05-1.05-1.05h-.727v7.676Z" transform="translate(-305.4 -375.9)" fill="#fff"/>
    </g>
    <g id="Group_420" data-name="Group 420" transform="translate(34.984 26.339)">
      <path id="Path_655" data-name="Path 655" d="M305.4,395.362h4.282v1.454h-2.5v3.07h1.778v1.454h-1.778v3.232h2.5v1.454H305.4V395.362Zm5.009,7.837v-5.171c0-1.7.808-2.828,2.666-2.828,1.939,0,2.5,1.131,2.5,2.666v1.293h-1.616v-1.374c0-.646-.242-1.05-.889-1.05s-.889.485-.889,1.131V403.6c0,.646.242,1.131.889,1.131s.889-.4.889-1.05v-1.939h1.616V403.6c0,1.535-.646,2.666-2.5,2.666A2.739,2.739,0,0,1,310.409,403.2Zm6.14,0v-5.171c0-1.7.808-2.828,2.666-2.828a2.567,2.567,0,0,1,2.747,2.828V403.2a2.529,2.529,0,0,1-2.747,2.828C317.439,406.107,316.55,404.9,316.55,403.2Zm3.636.323v-5.736c0-.646-.242-1.131-.889-1.131s-.889.485-.889,1.131v5.736c0,.646.242,1.131.889,1.131C319.943,404.572,320.186,404.168,320.186,403.522Zm4.363-4.2v6.706h-1.535V395.442h1.777l1.939,6.06v-6.06h1.454v10.584h-1.535Zm4.686,3.878v-5.171c0-1.7.808-2.828,2.666-2.828a2.567,2.567,0,0,1,2.747,2.828V403.2a2.529,2.529,0,0,1-2.747,2.828C330.043,406.107,329.235,404.9,329.235,403.2Zm3.555.323v-5.736c0-.646-.242-1.131-.889-1.131s-.889.485-.889,1.131v5.736c0,.646.242,1.131.889,1.131C332.547,404.572,332.79,404.168,332.79,403.522Zm7.756-4.444-1.293,6.868h-.808l-1.293-6.868v6.868H335.7V395.362h2.1l1.131,5.979,1.05-5.979h2.262v10.584h-1.616Zm2.666-3.717h1.777v10.584h-1.777Zm2.747,7.837v-5.171c0-1.7.808-2.828,2.666-2.828,1.939,0,2.5,1.131,2.5,2.666v1.293h-1.616v-1.374c0-.646-.242-1.05-.889-1.05s-.889.485-.889,1.131V403.6c0,.646.242,1.131.889,1.131s.889-.4.889-1.05v-1.939h1.616V403.6c0,1.535-.646,2.666-2.5,2.666A2.739,2.739,0,0,1,345.959,403.2Zm10.988-2.909h2.5v5.656H358.16v-1.131a1.6,1.6,0,0,1-1.7,1.293c-1.535,0-2.262-1.212-2.262-2.828v-5.171c0-1.7.808-2.828,2.666-2.828,1.939,0,2.586,1.131,2.586,2.666v.97h-1.616v-1.05c0-.646-.242-1.05-.889-1.05s-.889.485-.889,1.131v5.737c0,.646.242,1.131.889,1.131.566,0,.889-.323.889-1.05v-1.858h-.808V400.29h-.081Zm5.494.808v4.848h-1.777V395.362h2.585c1.778,0,2.424.889,2.424,2.343v1.374a1.762,1.762,0,0,1-1.454,2.02l1.7,4.848h-1.858Zm0-4.282v3.313h.566a.775.775,0,0,0,.889-.889V397.7a.775.775,0,0,0-.889-.889Zm4.04,6.383v-5.171c0-1.7.808-2.828,2.666-2.828a2.567,2.567,0,0,1,2.747,2.828V403.2a2.529,2.529,0,0,1-2.747,2.828C367.289,406.107,366.482,404.9,366.482,403.2Zm3.636.323v-5.736c0-.646-.242-1.131-.889-1.131s-.889.485-.889,1.131v5.736c0,.646.242,1.131.889,1.131C369.875,404.572,370.117,404.168,370.117,403.522ZM376.5,399.4l-.97,6.544h-1.7l-1.454-10.584h1.7l.808,6.706.889-6.706h1.454l.97,6.706.808-6.706h1.535l-1.374,10.584h-1.7l-.97-6.544Zm4.686-4.04h4.767v1.454H384.5v9.13h-1.858v-9.13h-1.454Zm8.807,5.9h-1.7v4.686h-1.777V395.362H388.3v4.525h1.7v-4.525h1.778v10.584h-1.778Z" transform="translate(-305.4 -395.2)" fill="#fff"/>
    </g>
  </g>
</svg>
      <path id="_Path_2" data-name="&lt;Path&gt;" class="cls-2" d="M694.16,492,592.52,588.67c-3.83,3.81-5.8,6.62-5.8,14.52v271a5.8,5.8,0,0,0,5.8,5.78h105a5.79,5.79,0,0,0,5.79-5.78V494.42c0-3.2-2.5-9-9.14-2.44"/>
      <path id="_Path_3" data-name="&lt;Path&gt;" class="cls-2" d="M401.34,618,299.69,714.63c-3.82,3.82-5.8,6.62-5.8,14.51v145a5.8,5.8,0,0,0,5.8,5.77h105a5.79,5.79,0,0,0,5.79-5.77V620.38c0-3.21-2.53-9.06-9.14-2.43"/>
      <path id="_Path_4" data-name="&lt;Path&gt;" class="cls-2" d="M740.36,374.72a2.84,2.84,0,0,0-.86-2.2,3.06,3.06,0,0,0-1.88-.83l-.56,0-.83,0L658.4,389.33l-1.41.15a3.14,3.14,0,0,0-1.52.79,3,3,0,0,0,0,4.19l.88.88,17.78,17.77L497.77,589.47,416.32,508a2.32,2.32,0,0,0-3.32,0l-22.1,22.11a0,0,0,0,0,0,0L260.31,660.69a2.38,2.38,0,0,0,0,3.32l22.13,22.12a2.32,2.32,0,0,0,3.29,0l129-128.92,59.1,59.12a2.31,2.31,0,0,0,.19.28l22.11,22.08a2.31,2.31,0,0,0,3.31,0L699.55,438.54l18.66,18.65a2.91,2.91,0,0,0,4.15,0,2.8,2.8,0,0,0,.85-1.92l0-.24,17.09-79.45Z"/>
      <path id="_Path_5" data-name="&lt;Path&gt;" class="cls-2" d="M548.33,634.92,499.15,684.5a2.35,2.35,0,0,1-3.17-.12L451.43,639c-8.16-8.12-9.92-1.53-9.92,1.66V874.17a5.77,5.77,0,0,0,5.76,5.78h105a5.79,5.79,0,0,0,5.77-5.78V636.75c0-3.19-2.51-9.06-9.73-1.83"/>
    </g>
    <g id="_Group_2" data-name="&lt;Group&gt;">
      <path id="_Compound_Path_2" data-name="&lt;Compound Path&gt;" class="cls-2" d="M309.8,105.61v37.85c0,12.54-5.19,21.94-19.89,21.94H268.69V83.67h21.22C304.61,83.67,309.8,93,309.8,105.61Zm-21.58,48.58c5.67,0,7.84-3.37,7.84-8.32V103.08c0-4.83-2.17-8.2-7.84-8.2h-5.79v59.31Z"/>
      <path id="_Compound_Path_3" data-name="&lt;Compound Path&gt;" class="cls-2" d="M318.48,83.67h32.79V94.88h-19v23.39h13.62v11.09H332.22v24.83h19V165.4H318.48Z"/>
      <path id="_Compound_Path_4" data-name="&lt;Compound Path&gt;" class="cls-2" d="M358.26,144.31V104.76c0-12.78,6-22.06,20.49-22.06,15.19,0,19.41,8.44,19.41,20.5v9.64H385.63V102.11c0-5.06-1.69-8-6.63-8s-7,3.5-7,8.44v43.89c0,4.94,2.05,8.44,7,8.44s6.63-3.14,6.63-8V131.89h12.53V146c0,11.7-4.82,20.38-19.41,20.38S358.26,157,358.26,144.31Z"/>
      <path id="_Compound_Path_5" data-name="&lt;Compound Path&gt;" class="cls-2" d="M406.48,83.67h32.79V94.88h-19v23.39h13.63v11.09H420.22v24.83h19V165.4H406.48Z"/>
      <path id="_Compound_Path_6" data-name="&lt;Compound Path&gt;" class="cls-2" d="M459,114.05V165.4H447.47V83.67H461l14.83,46.89V83.67h11.45V165.4H475.2Z"/>
      <path id="_Compound_Path_7" data-name="&lt;Compound Path&gt;" class="cls-2" d="M494.36,83.67h36.53V94.88H519.56V165.4H505.69V94.88H494.36Z"/>
      <path id="_Compound_Path_8" data-name="&lt;Compound Path&gt;" class="cls-2" d="M581.28,114.89l-7.71,50.51h-12.9l-11-81.73H563l6.39,51.84h.12l6.87-51.84h11.21l7.59,51.84h.12l6.27-51.84h11.58L602.5,165.4h-13l-8.08-50.51Z"/>
      <path id="_Compound_Path_9" data-name="&lt;Compound Path&gt;" class="cls-2" d="M618.65,144.31V104.76c0-12.78,6.27-22.06,20.74-22.06s20.85,9.28,20.85,22.06v39.55c0,12.66-6.27,22.06-20.85,22.06S618.65,157,618.65,144.31Zm27.85,2.17V102.59c0-4.94-2.17-8.44-7.11-8.44s-7,3.5-7,8.44v43.89c0,4.94,2.17,8.44,7,8.44S646.5,151.42,646.5,146.48Z"/>
      <path id="_Compound_Path_10" data-name="&lt;Compound Path&gt;" class="cls-2" d="M682.66,127.91V165.4H668.92V83.67h20c13.87,0,18.93,6.87,18.93,18.32v10.49c0,8.8-3.13,14-11,15.79L710,165.4H695.56Zm0-33v25.44h4.58c4.71,0,6.76-2.42,6.76-6.76v-12c0-4.46-2-6.63-6.76-6.63Z"/>
      <path id="_Compound_Path_11" data-name="&lt;Compound Path&gt;" class="cls-2" d="M729.92,125.62V165.4H716.18V83.67h13.74v35.92l15-35.92h13.5l-15.91,36.77,16.27,45H744.27Z"/>
      <path id="_Compound_Path_12" data-name="&lt;Compound Path&gt;" class="cls-2" d="M777.9,165.4l15.43-81.73H809l15.56,81.73H810.45l-2.53-14.94H793.33l-2.41,14.94Zm17.24-25.92h11l-5.42-32.79h-.13Z"/>
      <path id="_Compound_Path_13" data-name="&lt;Compound Path&gt;" class="cls-2" d="M840.71,114.05V165.4H829.13V83.67h13.51l14.83,46.89V83.67h11.45V165.4H856.86Z"/>
      <path id="_Compound_Path_14" data-name="&lt;Compound Path&gt;" class="cls-2" d="M919.07,105.61v37.85c0,12.54-5.19,21.94-19.9,21.94H878V83.67h21.21C913.88,83.67,919.07,93,919.07,105.61Zm-21.58,48.58c5.66,0,7.83-3.37,7.83-8.32V103.08c0-4.83-2.17-8.2-7.83-8.2H891.7v59.31Z"/>
    </g>
    <g id="_Group_3" data-name="&lt;Group&gt;">
      <path id="_Compound_Path_15" data-name="&lt;Compound Path&gt;" class="cls-2" d="M268.69,203.71h32.79v11.21H282.43v23.39h13.63V249.4H282.43v24.84h19.05v11.21H268.69Z"/>
      <path id="_Compound_Path_16" data-name="&lt;Compound Path&gt;" class="cls-2" d="M307.51,264.35V224.81c0-12.78,6-22.06,20.49-22.06,15.19,0,19.41,8.43,19.41,20.49v9.65H334.87V222.16c0-5.07-1.68-8-6.63-8s-7,3.49-7,8.44v43.88c0,4.94,2.05,8.44,7,8.44s6.63-3.13,6.63-8V251.93h12.54V266c0,11.69-4.82,20.37-19.41,20.37S307.51,277,307.51,264.35Z"/>
      <path id="_Compound_Path_17" data-name="&lt;Compound Path&gt;" class="cls-2" d="M354.88,264.35V224.81c0-12.78,6.27-22.06,20.74-22.06s20.86,9.28,20.86,22.06v39.54c0,12.66-6.27,22.06-20.86,22.06S354.88,277,354.88,264.35Zm27.85,2.17V222.64c0-4.95-2.17-8.44-7.11-8.44s-7,3.49-7,8.44v43.88c0,4.94,2.17,8.44,7,8.44S382.73,271.46,382.73,266.52Z"/>
      <path id="_Compound_Path_18" data-name="&lt;Compound Path&gt;" class="cls-2" d="M415.88,234.09v51.36H404.31V203.71h13.5l14.83,46.9v-46.9h11.45v81.74H432Z"/>
      <path id="_Compound_Path_19" data-name="&lt;Compound Path&gt;" class="cls-2" d="M451.93,264.35V224.81c0-12.78,6.27-22.06,20.73-22.06s20.86,9.28,20.86,22.06v39.54c0,12.66-6.27,22.06-20.86,22.06S451.93,277,451.93,264.35Zm27.85,2.17V222.64c0-4.95-2.17-8.44-7.12-8.44s-7,3.49-7,8.44v43.88c0,4.94,2.17,8.44,7,8.44S479.78,271.46,479.78,266.52Z"/>
      <path id="_Compound_Path_20" data-name="&lt;Compound Path&gt;" class="cls-2" d="M539.21,232.4h-.36l-9.29,53h-6.39l-10.24-53h-.25v53H501.35V203.71h16l8.92,46h.12l8-46h17.37v81.74H539.21Z"/>
      <path id="_Compound_Path_21" data-name="&lt;Compound Path&gt;" class="cls-2" d="M559.58,203.71h13.74v81.74H559.58Z"/>
      <path id="_Compound_Path_22" data-name="&lt;Compound Path&gt;" class="cls-2" d="M581,264.35V224.81c0-12.78,6-22.06,20.49-22.06,15.19,0,19.41,8.43,19.41,20.49v9.65H608.4V222.16c0-5.07-1.69-8-6.63-8s-7,3.49-7,8.44v43.88c0,4.94,2.05,8.44,7,8.44s6.63-3.13,6.63-8V251.93h12.54V266c0,11.69-4.82,20.37-19.41,20.37S581,277,581,264.35Z"/>
      <path id="_Compound_Path_23" data-name="&lt;Compound Path&gt;" class="cls-2" d="M665.06,241.81h19.53v43.64h-9.88v-8.92c-1.81,6.15-5.67,9.88-13.14,9.88-11.82,0-17.24-9.4-17.24-22.06V224.81c0-12.78,6.14-22.06,20.61-22.06,15.19,0,19.65,8.43,19.65,20.49v7.23H672.05v-8.31c0-5.07-1.93-8-6.87-8s-7.11,3.49-7.11,8.44v43.88c0,4.94,2,8.44,6.75,8.44,4.46,0,6.75-2.53,6.75-7.84V252.66h-6.51Z"/>
      <path id="_Compound_Path_24" data-name="&lt;Compound Path&gt;" class="cls-2" d="M706.17,248v37.49H692.42V203.71h20c13.86,0,18.93,6.87,18.93,18.32v10.49c0,8.8-3.14,14-11,15.8l13.15,37.13H719.07Zm0-33v25.44h4.58c4.7,0,6.75-2.41,6.75-6.75V221.55c0-4.46-2-6.63-6.75-6.63Z"/>
      <path id="_Compound_Path_25" data-name="&lt;Compound Path&gt;" class="cls-2" d="M737.63,264.35V224.81c0-12.78,6.27-22.06,20.74-22.06s20.85,9.28,20.85,22.06v39.54c0,12.66-6.26,22.06-20.85,22.06S737.63,277,737.63,264.35Zm27.85,2.17V222.64c0-4.95-2.17-8.44-7.11-8.44s-7,3.49-7,8.44v43.88c0,4.94,2.17,8.44,7,8.44S765.48,271.46,765.48,266.52Z"/>
      <path id="_Compound_Path_26" data-name="&lt;Compound Path&gt;" class="cls-2" d="M814.42,234.93l-7.71,50.52h-12.9l-11-81.74H796.1l6.39,51.84h.12l6.87-51.84h11.21l7.6,51.84h.12l6.27-51.84h11.57l-10.61,81.74h-13l-8.08-50.52Z"/>
      <path id="_Compound_Path_27" data-name="&lt;Compound Path&gt;" class="cls-2" d="M850.47,203.71H887v11.21H875.67v70.53H861.8V214.92H850.47Z"/>
      <path id="_Compound_Path_28" data-name="&lt;Compound Path&gt;" class="cls-2" d="M918.22,249.4H905v36H891.21V203.71H905v34.6h13.26v-34.6h13.86v81.74H918.22Z"/>
    </g>
  </g>
</svg>
