<svg xmlns="http://www.w3.org/2000/svg" width="130" height="130" viewBox="0 0 130 130">
  <g id="_9" data-name="9" transform="translate(0 0)">
    <path id="Path_656" data-name="Path 656" d="M440.1,362.2h130v130h-130Z" transform="translate(-440.1 -362.2)" fill="#fd6925"/>
    <path id="Path_657" data-name="Path 657" d="M466.912,382.081c0-4.012-1.828-6.981-6.565-6.981-4.819,0-6.648,2.568-6.648,6.579v3.851c0,4.253,1.745,6.419,4.986,6.419a3.972,3.972,0,0,0,3.739-2.086v5.617c0,1.6-.665,2.648-2.244,2.648-1.662,0-2.244-.883-2.244-2.568V393.8h-4.155v1.364c0,3.851,1.413,6.5,6.481,6.5,4.736,0,6.648-2.969,6.648-7.061V382.081Zm-4.487,4.012c-.083,1.444-.748,2.407-2.16,2.407-1.579,0-2.16-.883-2.16-2.648v-4.493c0-1.685.665-2.648,2.16-2.648s2.077.963,2.077,2.648v4.734Zm80.27,63.548-15.871-8.826V423.082a.867.867,0,0,0-.582-.883l-16.453-9.147a1.272,1.272,0,0,0-1.08,0L492.256,422.2a1.086,1.086,0,0,0-.582.883v17.733L475.8,449.641a1.086,1.086,0,0,0-.582.883v18.294a.867.867,0,0,0,.582.883l16.453,9.147a1.232,1.232,0,0,0,.582.16,1.582,1.582,0,0,0,.582-.16l15.871-8.826,15.871,8.826a1.134,1.134,0,0,0,1.163,0l16.453-9.147a1.086,1.086,0,0,0,.582-.883V450.524A1.513,1.513,0,0,0,542.695,449.641Zm-34.568,17.412-13.212-7.382,13.212-7.382ZM523.5,441.377l-13.212,7.382V434.075l13.212,7.3Zm-15.373,7.3L494.915,441.3l13.212-7.382Zm3.324,1.845,14.292-7.944,14.292,7.944-14.292,7.944Zm13.129-10.993-13.212-7.382,13.212-7.382Zm-17.533-7.3-13.212,7.382V424.928l13.212,7.3ZM491.758,476.2l-14.292-7.944V452.369l14.292,7.944Zm2.16,0V461.516L507.13,468.9l-13.212,7.3Zm47.115-7.944L526.741,476.2V460.313l14.292-7.944Z" transform="translate(-442.399 -364.381)" fill="#fff"/>
    <g id="Group_421" data-name="Group 421" transform="translate(27.876 11.301)">
      <path id="Path_658" data-name="Path 658" d="M478.1,375.883h1.745v10.138H478.1Zm4.155,3.822v6.4h-1.413V375.966H482.5l1.828,5.817v-5.817h1.413V386.1h-1.5Zm9.639-1.08v4.736c0,1.579-.665,2.742-2.493,2.742h-2.659V375.966H489.4C491.312,375.883,491.894,377.046,491.894,378.625Zm-2.659,6.066a.917.917,0,0,0,1-1v-5.318a.88.88,0,0,0-1-1h-.748v7.4l.748-.083Zm8.725-8.808v7.645c0,1.579-.665,2.576-2.41,2.576a2.287,2.287,0,0,1-2.576-2.576v-7.645h1.745v7.811c0,.582.249,1,.831,1s.831-.415.831-1v-7.811Zm.914,7.977v-1.33h1.579v1.413c0,.582.249.914.831.914.5,0,.748-.332.748-.914v-.415a1.857,1.857,0,0,0-.748-1.413l-1-1c-1-1-1.413-1.579-1.413-2.742v-.332a2.143,2.143,0,0,1,2.41-2.244c1.745,0,2.41.831,2.41,2.327v.831h-1.579v-.914c0-.582-.249-.831-.831-.831a.745.745,0,0,0-.831.831v.249c0,.582.332.914.831,1.413l1.08,1.08a3.435,3.435,0,0,1,1.413,2.659v.5a2.212,2.212,0,0,1-2.493,2.41,2.32,2.32,0,0,1-2.41-2.493Zm5.318-7.977h4.57V377.3h-1.413v8.725H505.6V377.3h-1.413Zm7.063,5.484v4.653h-1.662V375.883h2.493c1.745,0,2.327.831,2.327,2.244v1.33a1.793,1.793,0,0,1-1.329,1.994l1.662,4.57h-1.828Zm0-4.072v3.158h.582a.745.745,0,0,0,.831-.831v-1.5c0-.582-.249-.831-.831-.831Zm7.146,4.9v3.822h-1.745V382.2l-1.911-6.315h1.745l1,3.822,1-3.822h1.662L518.4,382.2Zm3.573,2.327-.831,2.327h-1l.249-2.41h1.579Zm2.742-8.642h1.745v10.138h-1.745Zm4.155,3.822v6.4h-1.413V375.966h1.662l1.828,5.817v-5.817h1.413V386.1h-1.5Zm5.983,0v6.4h-1.413V375.966H535.1l1.828,5.817v-5.817h1.413V386.1h-1.5Zm4.57,3.739v-4.9c0-1.579.748-2.742,2.576-2.742s2.576,1.163,2.576,2.742v4.9c0,1.579-.748,2.742-2.576,2.742S539.424,385.024,539.424,383.445Zm3.49.249V378.21c0-.582-.249-1.08-.914-1.08-.582,0-.831.415-.831,1.08v5.484c0,.582.249,1.08.831,1.08S542.914,384.359,542.914,383.694Zm8.226-7.811-1.911,10.138H547.4l-1.911-10.138h1.745l1.163,7.063,1.163-7.063h1.579Zm-.249,10.138,1.911-10.138h1.911l1.911,10.138H554.88l-.332-1.828H552.8l-.332,1.828h-1.579Zm2.077-3.158h1.33l-.665-4.072Zm3.49-6.98h4.57V377.3h-1.413v8.725h-1.745V377.3h-1.413Zm5.4,0H563.6v10.138H561.86Zm2.825,7.562v-4.9c0-1.579.748-2.742,2.576-2.742s2.576,1.163,2.576,2.742v4.9c0,1.579-.748,2.742-2.576,2.742S564.685,385.024,564.685,383.445Zm3.407.249V378.21c0-.582-.249-1.08-.914-1.08-.582,0-.831.415-.831,1.08v5.484c0,.582.249,1.08.831,1.08C567.843,384.774,568.092,384.359,568.092,383.694Zm4.238-3.989v6.4h-1.413V375.966h1.662l1.828,5.817v-5.817h1.413V386.1h-1.5Z" transform="translate(-478.1 -375.8)" fill="#fff"/>
    </g>
    <g id="Group_422" data-name="Group 422" transform="translate(27.544 26.517)">
      <path id="Path_659" data-name="Path 659" d="M477.7,405.4l1.911-10.138h1.911l1.911,10.138h-1.745l-.332-1.828h-1.745l-.332,1.828Zm2.16-3.241h1.33l-.665-4.072Zm5.734-3.158v6.4h-1.413V395.266h1.662l1.828,5.817v-5.817h1.413V405.4h-1.5l-1.994-6.4Zm9.639-1.08v4.736c0,1.579-.665,2.742-2.493,2.742h-2.659V395.266h2.659C494.568,395.266,495.233,396.43,495.233,397.925Zm-2.659,6.066a.917.917,0,0,0,1-1v-5.318a.88.88,0,0,0-1-1h-.748v7.4Zm5.318-8.725h1.745V405.4h-1.745Zm4.238,3.739v6.4h-1.413V395.266h1.662l1.828,5.817v-5.817h1.413V405.4h-1.5l-1.994-6.4Zm4.57-3.739h3.989v1.413h-2.327v2.908h1.745V401h-1.745v4.487h-1.745l.083-10.221Zm6.481,5.484V405.4h-1.745V395.266h2.493c1.745,0,2.327.831,2.327,2.244v1.329a1.793,1.793,0,0,1-1.33,1.994l1.662,4.57H514.76Zm0-4.155v3.158h.582a.745.745,0,0,0,.831-.831v-1.5c0-.582-.249-.831-.831-.831Zm3.905,8.808L519,395.266h1.911l1.911,10.138h-1.745l-.332-1.828h-1.828l-.332,1.828h-1.5Zm2.077-3.241h1.33l-.665-4.072Zm4.238,1v-1.33h1.579v1.413c0,.582.249.914.831.914.5,0,.748-.332.748-.914v-.415a1.857,1.857,0,0,0-.748-1.413l-1-1c-1-1-1.413-1.579-1.413-2.742v-.332a2.143,2.143,0,0,1,2.41-2.244c1.745,0,2.41.831,2.41,2.327v.831h-1.579v-.914c0-.582-.249-.831-.831-.831a.745.745,0,0,0-.831.831v.249c0,.582.332.914.831,1.413l1.08,1.08a3.435,3.435,0,0,1,1.413,2.659v.5a2.212,2.212,0,0,1-2.493,2.41,2.244,2.244,0,0,1-2.41-2.493Zm5.4-7.894h4.57v1.413h-1.413V405.4h-1.745v-8.725H528.8Zm7.146,5.484V405.4H534.2V395.266H536.7c1.745,0,2.327.831,2.327,2.244v1.329a1.793,1.793,0,0,1-1.329,1.994l1.662,4.57h-1.828Zm0-4.155v3.158h.582a.745.745,0,0,0,.831-.831v-1.5c0-.582-.249-.831-.831-.831Zm9.057-1.33v7.645c0,1.579-.665,2.576-2.41,2.576a2.286,2.286,0,0,1-2.576-2.576v-7.645h1.745v7.811c0,.582.249,1,.831,1s.831-.415.831-1v-7.811Zm1.08,7.479v-4.9c0-1.579.748-2.742,2.576-2.742,1.911,0,2.41,1.08,2.41,2.576v1.163h-1.579V397.51c0-.665-.249-1-.831-1s-.831.415-.831,1.08v5.484c0,.582.249,1.08.831,1.08s.831-.415.831-1v-1.911h1.579v1.745a2.172,2.172,0,0,1-2.41,2.493C546.835,405.487,546.087,404.324,546.087,402.745Zm5.318-7.479h4.57v1.413h-1.413V405.4h-1.745v-8.725h-1.413Zm10.387,0v7.645c0,1.579-.665,2.576-2.41,2.576a2.286,2.286,0,0,1-2.576-2.576v-7.645h1.745v7.811c0,.582.249,1,.831,1s.831-.415.831-1v-7.811Zm2.742,5.484V405.4h-1.745V395.266h2.493c1.745,0,2.327.831,2.327,2.244v1.329a1.793,1.793,0,0,1-1.33,1.994l1.662,4.57h-1.828Zm0-4.155v3.158h.582a.745.745,0,0,0,.831-.831v-1.5c0-.582-.249-.831-.831-.831Zm4.155-1.33h4.072v1.413h-2.327v2.908H572.1V401h-1.662v3.075h2.327v1.413h-4.072V395.266Z" transform="translate(-477.7 -395.1)" fill="#fff"/>
    </g>
  </g>
</svg>
