<svg id="eu" xmlns="http://www.w3.org/2000/svg" width="33" height="22" viewBox="0 0 33 22">
  <rect id="Rectangle_1" data-name="Rectangle 1" width="33" height="22" fill="#039"/>
  <g id="Group_74" data-name="Group 74" transform="translate(8.1 2.374)">
    <g id="Group_6" data-name="Group 6" transform="translate(7.121 0)">
      <g id="c" transform="translate(0.739)">
        <path id="t" d="M0,0V1.187H.593Z" transform="translate(0.564 0) rotate(18)" fill="#fc0"/>
        <path id="Path_1" data-name="Path 1" d="M0,1.187V0H.593Z" transform="translate(0.931 1.129) rotate(162)" fill="#fc0"/>
      </g>
      <g id="a" transform="translate(0.773 0.283)">
        <g id="Group_1" data-name="Group 1" transform="translate(1.485 0) rotate(72)">
          <path id="t-2" data-name="t" d="M0,0V1.187H.593Z" transform="translate(0.564 0) rotate(18)" fill="#fc0"/>
          <path id="Path_2" data-name="Path 2" d="M0,1.187V0H.593Z" transform="translate(0.931 1.129) rotate(162)" fill="#fc0"/>
        </g>
        <g id="Group_2" data-name="Group 2" transform="matrix(-0.809, 0.588, -0.588, -0.809, 1.685, 1.532)">
          <path id="t-3" data-name="t" d="M0,0V1.187H.593Z" transform="translate(0.564 0) rotate(18)" fill="#fc0"/>
          <path id="Path_3" data-name="Path 3" d="M0,1.187V0H.593Z" transform="translate(0.931 1.129) rotate(162)" fill="#fc0"/>
        </g>
      </g>
      <g id="Group_5" data-name="Group 5" transform="translate(1.833 2.479) rotate(180)">
        <g id="Group_3" data-name="Group 3" transform="translate(0.237 1.79) rotate(-72)">
          <path id="t-4" data-name="t" d="M0,1.187V0H.593Z" transform="translate(0.198 0.183) rotate(-18)" fill="#fc0"/>
          <path id="Path_4" data-name="Path 4" d="M0,0V1.187H.593Z" transform="translate(0.564 1.312) rotate(-162)" fill="#fc0"/>
        </g>
        <g id="Group_4" data-name="Group 4" transform="matrix(-0.809, -0.588, 0.588, -0.809, 0.913, 1.725)">
          <path id="t-5" data-name="t" d="M0,1.187V0H.593Z" transform="translate(0.198 0.183) rotate(-18)" fill="#fc0"/>
          <path id="Path_5" data-name="Path 5" d="M0,0V1.187H.593Z" transform="translate(0.564 1.312) rotate(-162)" fill="#fc0"/>
        </g>
      </g>
    </g>
    <g id="Group_12" data-name="Group 12" transform="translate(7.121 14.243)">
      <g id="c-2" data-name="c" transform="translate(0.739 0)">
        <path id="t-6" data-name="t" d="M0,0V1.187H.593Z" transform="translate(0.564 0) rotate(18)" fill="#fc0"/>
        <path id="Path_6" data-name="Path 6" d="M0,1.187V0H.593Z" transform="translate(0.931 1.129) rotate(162)" fill="#fc0"/>
      </g>
      <g id="a-2" data-name="a" transform="translate(0.773 0.283)">
        <g id="Group_7" data-name="Group 7" transform="translate(1.485 0) rotate(72)">
          <path id="t-7" data-name="t" d="M0,0V1.187H.593Z" transform="translate(0.564 0) rotate(18)" fill="#fc0"/>
          <path id="Path_7" data-name="Path 7" d="M0,1.187V0H.593Z" transform="translate(0.931 1.129) rotate(162)" fill="#fc0"/>
        </g>
        <g id="Group_8" data-name="Group 8" transform="matrix(-0.809, 0.588, -0.588, -0.809, 1.685, 1.532)">
          <path id="t-8" data-name="t" d="M0,0V1.187H.593Z" transform="translate(0.564 0) rotate(18)" fill="#fc0"/>
          <path id="Path_8" data-name="Path 8" d="M0,1.187V0H.593Z" transform="translate(0.931 1.129) rotate(162)" fill="#fc0"/>
        </g>
      </g>
      <g id="Group_11" data-name="Group 11" transform="translate(1.833 2.479) rotate(180)">
        <g id="Group_9" data-name="Group 9" transform="translate(0.237 1.79) rotate(-72)">
          <path id="t-9" data-name="t" d="M0,1.187V0H.593Z" transform="translate(0.198 0.183) rotate(-18)" fill="#fc0"/>
          <path id="Path_9" data-name="Path 9" d="M0,0V1.187H.593Z" transform="translate(0.564 1.312) rotate(-162)" fill="#fc0"/>
        </g>
        <g id="Group_10" data-name="Group 10" transform="matrix(-0.809, -0.588, 0.588, -0.809, 0.913, 1.725)">
          <path id="t-10" data-name="t" d="M0,1.187V0H.593Z" transform="translate(0.198 0.183) rotate(-18)" fill="#fc0"/>
          <path id="Path_10" data-name="Path 10" d="M0,0V1.187H.593Z" transform="translate(0.564 1.312) rotate(-162)" fill="#fc0"/>
        </g>
      </g>
    </g>
    <g id="l" transform="translate(0 0.33)">
      <g id="Group_18" data-name="Group 18" transform="translate(0 6.792)">
        <g id="c-3" data-name="c" transform="translate(0.739 0)">
          <path id="t-11" data-name="t" d="M0,0V1.187H.593Z" transform="translate(0.564 0) rotate(18)" fill="#fc0"/>
          <path id="Path_11" data-name="Path 11" d="M0,1.187V0H.593Z" transform="translate(0.931 1.129) rotate(162)" fill="#fc0"/>
        </g>
        <g id="a-3" data-name="a" transform="translate(0.773 0.283)">
          <g id="Group_13" data-name="Group 13" transform="translate(1.485 0) rotate(72)">
            <path id="t-12" data-name="t" d="M0,0V1.187H.593Z" transform="translate(0.564 0) rotate(18)" fill="#fc0"/>
            <path id="Path_12" data-name="Path 12" d="M0,1.187V0H.593Z" transform="translate(0.931 1.129) rotate(162)" fill="#fc0"/>
          </g>
          <g id="Group_14" data-name="Group 14" transform="matrix(-0.809, 0.588, -0.588, -0.809, 1.685, 1.532)">
            <path id="t-13" data-name="t" d="M0,0V1.187H.593Z" transform="translate(0.564 0) rotate(18)" fill="#fc0"/>
            <path id="Path_13" data-name="Path 13" d="M0,1.187V0H.593Z" transform="translate(0.931 1.129) rotate(162)" fill="#fc0"/>
          </g>
        </g>
        <g id="Group_17" data-name="Group 17" transform="translate(1.833 2.479) rotate(180)">
          <g id="Group_15" data-name="Group 15" transform="translate(0.237 1.79) rotate(-72)">
            <path id="t-14" data-name="t" d="M0,1.187V0H.593Z" transform="translate(0.198 0.183) rotate(-18)" fill="#fc0"/>
            <path id="Path_14" data-name="Path 14" d="M0,0V1.187H.593Z" transform="translate(0.564 1.312) rotate(-162)" fill="#fc0"/>
          </g>
          <g id="Group_16" data-name="Group 16" transform="matrix(-0.809, -0.588, 0.588, -0.809, 0.913, 1.725)">
            <path id="t-15" data-name="t" d="M0,1.187V0H.593Z" transform="translate(0.198 0.183) rotate(-18)" fill="#fc0"/>
            <path id="Path_15" data-name="Path 15" d="M0,0V1.187H.593Z" transform="translate(0.564 1.312) rotate(-162)" fill="#fc0"/>
          </g>
        </g>
      </g>
      <g id="Group_24" data-name="Group 24" transform="matrix(-0.809, -0.588, 0.588, -0.809, 5.221, 3.538)">
        <g id="c-4" data-name="c" transform="translate(0.739 0)">
          <path id="t-16" data-name="t" d="M0,0V1.187H.593Z" transform="translate(0.564 0) rotate(18)" fill="#fc0"/>
          <path id="Path_16" data-name="Path 16" d="M0,1.187V0H.593Z" transform="translate(0.931 1.129) rotate(162)" fill="#fc0"/>
        </g>
        <g id="a-4" data-name="a" transform="translate(0.773 0.283)">
          <g id="Group_19" data-name="Group 19" transform="translate(1.485 0) rotate(72)">
            <path id="t-17" data-name="t" d="M0,0V1.187H.593Z" transform="translate(0.564 0) rotate(18)" fill="#fc0"/>
            <path id="Path_17" data-name="Path 17" d="M0,1.187V0H.593Z" transform="translate(0.931 1.129) rotate(162)" fill="#fc0"/>
          </g>
          <g id="Group_20" data-name="Group 20" transform="matrix(-0.809, 0.588, -0.588, -0.809, 1.685, 1.532)">
            <path id="t-18" data-name="t" d="M0,0V1.187H.593Z" transform="translate(0.564 0) rotate(18)" fill="#fc0"/>
            <path id="Path_18" data-name="Path 18" d="M0,1.187V0H.593Z" transform="translate(0.931 1.129) rotate(162)" fill="#fc0"/>
          </g>
        </g>
        <g id="Group_23" data-name="Group 23" transform="translate(1.834 2.479) rotate(180)">
          <g id="Group_21" data-name="Group 21" transform="translate(0.237 1.79) rotate(-72)">
            <path id="t-19" data-name="t" d="M0,1.187V0H.593Z" transform="translate(0.198 0.183) rotate(-18)" fill="#fc0"/>
            <path id="Path_19" data-name="Path 19" d="M0,0V1.187H.593Z" transform="translate(0.564 1.312) rotate(-162)" fill="#fc0"/>
          </g>
          <g id="Group_22" data-name="Group 22" transform="matrix(-0.809, -0.588, 0.588, -0.809, 0.913, 1.725)">
            <path id="t-20" data-name="t" d="M0,1.187V0H.593Z" transform="translate(0.198 0.183) rotate(-18)" fill="#fc0"/>
            <path id="Path_20" data-name="Path 20" d="M0,0V1.187H.593Z" transform="translate(0.564 1.312) rotate(-162)" fill="#fc0"/>
          </g>
        </g>
      </g>
      <g id="Group_30" data-name="Group 30" transform="matrix(-0.809, 0.588, -0.588, -0.809, 4.009, 4.612)">
        <g id="c-5" data-name="c" transform="translate(0.739 0)">
          <path id="t-21" data-name="t" d="M0,0V1.187H.593Z" transform="translate(0.564 0) rotate(18)" fill="#fc0"/>
          <path id="Path_21" data-name="Path 21" d="M0,1.187V0H.593Z" transform="translate(0.931 1.129) rotate(162)" fill="#fc0"/>
        </g>
        <g id="a-5" data-name="a" transform="translate(0.773 0.283)">
          <g id="Group_25" data-name="Group 25" transform="translate(1.485 0) rotate(72)">
            <path id="t-22" data-name="t" d="M0,0V1.187H.593Z" transform="translate(0.564 0) rotate(18)" fill="#fc0"/>
            <path id="Path_22" data-name="Path 22" d="M0,1.187V0H.593Z" transform="translate(0.931 1.129) rotate(162)" fill="#fc0"/>
          </g>
          <g id="Group_26" data-name="Group 26" transform="matrix(-0.809, 0.588, -0.588, -0.809, 1.685, 1.532)">
            <path id="t-23" data-name="t" d="M0,0V1.187H.593Z" transform="translate(0.564 0) rotate(18)" fill="#fc0"/>
            <path id="Path_23" data-name="Path 23" d="M0,1.187V0H.593Z" transform="translate(0.931 1.129) rotate(162)" fill="#fc0"/>
          </g>
        </g>
        <g id="Group_29" data-name="Group 29" transform="translate(1.834 2.479) rotate(180)">
          <g id="Group_27" data-name="Group 27" transform="translate(0.237 1.79) rotate(-72)">
            <path id="t-24" data-name="t" d="M0,1.187V0H.593Z" transform="translate(0.198 0.183) rotate(-18)" fill="#fc0"/>
            <path id="Path_24" data-name="Path 24" d="M0,0V1.187H.593Z" transform="translate(0.564 1.312) rotate(-162)" fill="#fc0"/>
          </g>
          <g id="Group_28" data-name="Group 28" transform="matrix(-0.809, -0.588, 0.588, -0.809, 0.913, 1.725)">
            <path id="t-25" data-name="t" d="M0,1.187V0H.593Z" transform="translate(0.198 0.183) rotate(-18)" fill="#fc0"/>
            <path id="Path_25" data-name="Path 25" d="M0,0V1.187H.593Z" transform="translate(0.564 1.312) rotate(-162)" fill="#fc0"/>
          </g>
        </g>
      </g>
      <g id="Group_36" data-name="Group 36" transform="translate(2.983 9.933) rotate(72)">
        <g id="c-6" data-name="c" transform="translate(0.739 0)">
          <path id="t-26" data-name="t" d="M0,0V1.187H.593Z" transform="translate(0.564 0) rotate(18)" fill="#fc0"/>
          <path id="Path_26" data-name="Path 26" d="M0,1.187V0H.593Z" transform="translate(0.931 1.129) rotate(162)" fill="#fc0"/>
        </g>
        <g id="a-6" data-name="a" transform="translate(0.773 0.283)">
          <g id="Group_31" data-name="Group 31" transform="translate(1.485 0) rotate(72)">
            <path id="t-27" data-name="t" d="M0,0V1.187H.593Z" transform="translate(0.564 0) rotate(18)" fill="#fc0"/>
            <path id="Path_27" data-name="Path 27" d="M0,1.187V0H.593Z" transform="translate(0.931 1.129) rotate(162)" fill="#fc0"/>
          </g>
          <g id="Group_32" data-name="Group 32" transform="matrix(-0.809, 0.588, -0.588, -0.809, 1.685, 1.532)">
            <path id="t-28" data-name="t" d="M0,0V1.187H.593Z" transform="translate(0.564 0) rotate(18)" fill="#fc0"/>
            <path id="Path_28" data-name="Path 28" d="M0,1.187V0H.593Z" transform="translate(0.931 1.129) rotate(162)" fill="#fc0"/>
          </g>
        </g>
        <g id="Group_35" data-name="Group 35" transform="translate(1.834 2.479) rotate(180)">
          <g id="Group_33" data-name="Group 33" transform="translate(0.237 1.79) rotate(-72)">
            <path id="t-29" data-name="t" d="M0,1.187V0H.593Z" transform="translate(0.198 0.183) rotate(-18)" fill="#fc0"/>
            <path id="Path_29" data-name="Path 29" d="M0,0V1.187H.593Z" transform="translate(0.564 1.312) rotate(-162)" fill="#fc0"/>
          </g>
          <g id="Group_34" data-name="Group 34" transform="matrix(-0.809, -0.588, 0.588, -0.809, 0.913, 1.725)">
            <path id="t-30" data-name="t" d="M0,1.187V0H.593Z" transform="translate(0.198 0.183) rotate(-18)" fill="#fc0"/>
            <path id="Path_30" data-name="Path 30" d="M0,0V1.187H.593Z" transform="translate(0.564 1.312) rotate(-162)" fill="#fc0"/>
          </g>
        </g>
      </g>
      <g id="Group_42" data-name="Group 42" transform="translate(5.59 12.54) rotate(72)">
        <g id="c-7" data-name="c" transform="translate(0.739 0)">
          <path id="t-31" data-name="t" d="M0,0V1.187H.593Z" transform="translate(0.564 0) rotate(18)" fill="#fc0"/>
          <path id="Path_31" data-name="Path 31" d="M0,1.187V0H.593Z" transform="translate(0.931 1.129) rotate(162)" fill="#fc0"/>
        </g>
        <g id="a-7" data-name="a" transform="translate(0.773 0.283)">
          <g id="Group_37" data-name="Group 37" transform="translate(1.485 0) rotate(72)">
            <path id="t-32" data-name="t" d="M0,0V1.187H.593Z" transform="translate(0.564 0) rotate(18)" fill="#fc0"/>
            <path id="Path_32" data-name="Path 32" d="M0,1.187V0H.593Z" transform="translate(0.931 1.129) rotate(162)" fill="#fc0"/>
          </g>
          <g id="Group_38" data-name="Group 38" transform="matrix(-0.809, 0.588, -0.588, -0.809, 1.685, 1.532)">
            <path id="t-33" data-name="t" d="M0,0V1.187H.593Z" transform="translate(0.564 0) rotate(18)" fill="#fc0"/>
            <path id="Path_33" data-name="Path 33" d="M0,1.187V0H.593Z" transform="translate(0.931 1.129) rotate(162)" fill="#fc0"/>
          </g>
        </g>
        <g id="Group_41" data-name="Group 41" transform="translate(1.834 2.479) rotate(180)">
          <g id="Group_39" data-name="Group 39" transform="translate(0.237 1.79) rotate(-72)">
            <path id="t-34" data-name="t" d="M0,1.187V0H.593Z" transform="translate(0.198 0.183) rotate(-18)" fill="#fc0"/>
            <path id="Path_34" data-name="Path 34" d="M0,0V1.187H.593Z" transform="translate(0.564 1.312) rotate(-162)" fill="#fc0"/>
          </g>
          <g id="Group_40" data-name="Group 40" transform="matrix(-0.809, -0.588, 0.588, -0.809, 0.913, 1.725)">
            <path id="t-35" data-name="t" d="M0,1.187V0H.593Z" transform="translate(0.198 0.183) rotate(-18)" fill="#fc0"/>
            <path id="Path_35" data-name="Path 35" d="M0,0V1.187H.593Z" transform="translate(0.564 1.312) rotate(-162)" fill="#fc0"/>
          </g>
        </g>
      </g>
    </g>
    <g id="Group_73" data-name="Group 73" transform="translate(16.849 16.114) rotate(180)">
      <g id="Group_48" data-name="Group 48" transform="translate(0 6.514)">
        <g id="c-8" data-name="c" transform="translate(0.739 1.167)">
          <path id="t-36" data-name="t" d="M0,1.187V0H.593Z" transform="translate(0.198 0.183) rotate(-18)" fill="#fc0"/>
          <path id="Path_36" data-name="Path 36" d="M0,0V1.187H.593Z" transform="translate(0.564 1.312) rotate(-162)" fill="#fc0"/>
        </g>
        <g id="a-8" data-name="a" transform="translate(0.773)">
          <g id="Group_43" data-name="Group 43" transform="translate(0.237 1.79) rotate(-72)">
            <path id="t-37" data-name="t" d="M0,1.187V0H.593Z" transform="translate(0.198 0.183) rotate(-18)" fill="#fc0"/>
            <path id="Path_37" data-name="Path 37" d="M0,0V1.187H.593Z" transform="translate(0.564 1.312) rotate(-162)" fill="#fc0"/>
          </g>
          <g id="Group_44" data-name="Group 44" transform="matrix(-0.809, -0.588, 0.588, -0.809, 0.913, 1.725)">
            <path id="t-38" data-name="t" d="M0,1.187V0H.593Z" transform="translate(0.198 0.183) rotate(-18)" fill="#fc0"/>
            <path id="Path_38" data-name="Path 38" d="M0,0V1.187H.593Z" transform="translate(0.564 1.312) rotate(-162)" fill="#fc0"/>
          </g>
        </g>
        <g id="Group_47" data-name="Group 47" transform="translate(1.833 2.196) rotate(-180)">
          <g id="Group_45" data-name="Group 45" transform="translate(1.485 0) rotate(72)">
            <path id="t-39" data-name="t" d="M0,0V1.187H.593Z" transform="translate(0.564 0) rotate(18)" fill="#fc0"/>
            <path id="Path_39" data-name="Path 39" d="M0,1.187V0H.593Z" transform="translate(0.931 1.129) rotate(162)" fill="#fc0"/>
          </g>
          <g id="Group_46" data-name="Group 46" transform="matrix(-0.809, 0.588, -0.588, -0.809, 1.685, 1.532)">
            <path id="t-40" data-name="t" d="M0,0V1.187H.593Z" transform="translate(0.564 0) rotate(18)" fill="#fc0"/>
            <path id="Path_40" data-name="Path 40" d="M0,1.187V0H.593Z" transform="translate(0.931 1.129) rotate(162)" fill="#fc0"/>
          </g>
        </g>
      </g>
      <g id="Group_54" data-name="Group 54" transform="matrix(-0.809, 0.588, -0.588, -0.809, 6.678, 14.253)">
        <g id="c-9" data-name="c" transform="translate(0.739 1.167)">
          <path id="t-41" data-name="t" d="M0,1.187V0H.593Z" transform="translate(0.198 0.183) rotate(-18)" fill="#fc0"/>
          <path id="Path_41" data-name="Path 41" d="M0,0V1.187H.593Z" transform="translate(0.564 1.312) rotate(-162)" fill="#fc0"/>
        </g>
        <g id="a-9" data-name="a" transform="translate(0.773 0)">
          <g id="Group_49" data-name="Group 49" transform="translate(0.237 1.79) rotate(-72)">
            <path id="t-42" data-name="t" d="M0,1.187V0H.593Z" transform="translate(0.198 0.183) rotate(-18)" fill="#fc0"/>
            <path id="Path_42" data-name="Path 42" d="M0,0V1.187H.593Z" transform="translate(0.564 1.312) rotate(-162)" fill="#fc0"/>
          </g>
          <g id="Group_50" data-name="Group 50" transform="matrix(-0.809, -0.588, 0.588, -0.809, 0.913, 1.725)">
            <path id="t-43" data-name="t" d="M0,1.187V0H.593Z" transform="translate(0.198 0.183) rotate(-18)" fill="#fc0"/>
            <path id="Path_43" data-name="Path 43" d="M0,0V1.187H.593Z" transform="translate(0.564 1.312) rotate(-162)" fill="#fc0"/>
          </g>
        </g>
        <g id="Group_53" data-name="Group 53" transform="translate(1.834 2.196) rotate(-180)">
          <g id="Group_51" data-name="Group 51" transform="translate(1.485 0) rotate(72)">
            <path id="t-44" data-name="t" d="M0,0V1.187H.593Z" transform="translate(0.564 0) rotate(18)" fill="#fc0"/>
            <path id="Path_44" data-name="Path 44" d="M0,1.187V0H.593Z" transform="translate(0.931 1.129) rotate(162)" fill="#fc0"/>
          </g>
          <g id="Group_52" data-name="Group 52" transform="matrix(-0.809, 0.588, -0.588, -0.809, 1.685, 1.532)">
            <path id="t-45" data-name="t" d="M0,0V1.187H.593Z" transform="translate(0.564 0) rotate(18)" fill="#fc0"/>
            <path id="Path_45" data-name="Path 45" d="M0,1.187V0H.593Z" transform="translate(0.931 1.129) rotate(162)" fill="#fc0"/>
          </g>
        </g>
      </g>
      <g id="Group_60" data-name="Group 60" transform="matrix(-0.809, -0.588, 0.588, -0.809, 2.552, 13.178)">
        <g id="c-10" data-name="c" transform="translate(0.739 1.167)">
          <path id="t-46" data-name="t" d="M0,1.187V0H.593Z" transform="translate(0.198 0.183) rotate(-18)" fill="#fc0"/>
          <path id="Path_46" data-name="Path 46" d="M0,0V1.187H.593Z" transform="translate(0.564 1.312) rotate(-162)" fill="#fc0"/>
        </g>
        <g id="a-10" data-name="a" transform="translate(0.773 0)">
          <g id="Group_55" data-name="Group 55" transform="translate(0.237 1.79) rotate(-72)">
            <path id="t-47" data-name="t" d="M0,1.187V0H.593Z" transform="translate(0.198 0.183) rotate(-18)" fill="#fc0"/>
            <path id="Path_47" data-name="Path 47" d="M0,0V1.187H.593Z" transform="translate(0.564 1.312) rotate(-162)" fill="#fc0"/>
          </g>
          <g id="Group_56" data-name="Group 56" transform="matrix(-0.809, -0.588, 0.588, -0.809, 0.913, 1.725)">
            <path id="t-48" data-name="t" d="M0,1.187V0H.593Z" transform="translate(0.198 0.183) rotate(-18)" fill="#fc0"/>
            <path id="Path_48" data-name="Path 48" d="M0,0V1.187H.593Z" transform="translate(0.564 1.312) rotate(-162)" fill="#fc0"/>
          </g>
        </g>
        <g id="Group_59" data-name="Group 59" transform="translate(1.834 2.196) rotate(-180)">
          <g id="Group_57" data-name="Group 57" transform="translate(1.485 0) rotate(72)">
            <path id="t-49" data-name="t" d="M0,0V1.187H.593Z" transform="translate(0.564 0) rotate(18)" fill="#fc0"/>
            <path id="Path_49" data-name="Path 49" d="M0,1.187V0H.593Z" transform="translate(0.931 1.129) rotate(162)" fill="#fc0"/>
          </g>
          <g id="Group_58" data-name="Group 58" transform="matrix(-0.809, 0.588, -0.588, -0.809, 1.685, 1.532)">
            <path id="t-50" data-name="t" d="M0,0V1.187H.593Z" transform="translate(0.564 0) rotate(18)" fill="#fc0"/>
            <path id="Path_50" data-name="Path 50" d="M0,1.187V0H.593Z" transform="translate(0.931 1.129) rotate(162)" fill="#fc0"/>
          </g>
        </g>
      </g>
      <g id="Group_66" data-name="Group 66" transform="translate(0.626 5.086) rotate(-72)">
        <g id="c-11" data-name="c" transform="translate(0.739 1.167)">
          <path id="t-51" data-name="t" d="M0,1.187V0H.593Z" transform="translate(0.198 0.183) rotate(-18)" fill="#fc0"/>
          <path id="Path_51" data-name="Path 51" d="M0,0V1.187H.593Z" transform="translate(0.564 1.312) rotate(-162)" fill="#fc0"/>
        </g>
        <g id="a-11" data-name="a" transform="translate(0.773)">
          <g id="Group_61" data-name="Group 61" transform="translate(0.237 1.79) rotate(-72)">
            <path id="t-52" data-name="t" d="M0,1.187V0H.593Z" transform="translate(0.198 0.183) rotate(-18)" fill="#fc0"/>
            <path id="Path_52" data-name="Path 52" d="M0,0V1.187H.593Z" transform="translate(0.564 1.312) rotate(-162)" fill="#fc0"/>
          </g>
          <g id="Group_62" data-name="Group 62" transform="matrix(-0.809, -0.588, 0.588, -0.809, 0.913, 1.725)">
            <path id="t-53" data-name="t" d="M0,1.187V0H.593Z" transform="translate(0.198 0.183) rotate(-18)" fill="#fc0"/>
            <path id="Path_53" data-name="Path 53" d="M0,0V1.187H.593Z" transform="translate(0.564 1.312) rotate(-162)" fill="#fc0"/>
          </g>
        </g>
        <g id="Group_65" data-name="Group 65" transform="translate(1.834 2.196) rotate(-180)">
          <g id="Group_63" data-name="Group 63" transform="translate(1.485 0) rotate(72)">
            <path id="t-54" data-name="t" d="M0,0V1.187H.593Z" transform="translate(0.564 0) rotate(18)" fill="#fc0"/>
            <path id="Path_54" data-name="Path 54" d="M0,1.187V0H.593Z" transform="translate(0.931 1.129) rotate(162)" fill="#fc0"/>
          </g>
          <g id="Group_64" data-name="Group 64" transform="matrix(-0.809, 0.588, -0.588, -0.809, 1.685, 1.532)">
            <path id="t-55" data-name="t" d="M0,0V1.187H.593Z" transform="translate(0.564 0) rotate(18)" fill="#fc0"/>
            <path id="Path_55" data-name="Path 55" d="M0,1.187V0H.593Z" transform="translate(0.931 1.129) rotate(162)" fill="#fc0"/>
          </g>
        </g>
      </g>
      <g id="Group_72" data-name="Group 72" transform="translate(3.232 2.479) rotate(-72)">
        <g id="c-12" data-name="c" transform="translate(0.739 1.167)">
          <path id="t-56" data-name="t" d="M0,1.187V0H.593Z" transform="translate(0.198 0.183) rotate(-18)" fill="#fc0"/>
          <path id="Path_56" data-name="Path 56" d="M0,0V1.187H.593Z" transform="translate(0.564 1.312) rotate(-162)" fill="#fc0"/>
        </g>
        <g id="a-12" data-name="a" transform="translate(0.773)">
          <g id="Group_67" data-name="Group 67" transform="translate(0.237 1.79) rotate(-72)">
            <path id="t-57" data-name="t" d="M0,1.187V0H.593Z" transform="translate(0.198 0.183) rotate(-18)" fill="#fc0"/>
            <path id="Path_57" data-name="Path 57" d="M0,0V1.187H.593Z" transform="translate(0.564 1.312) rotate(-162)" fill="#fc0"/>
          </g>
          <g id="Group_68" data-name="Group 68" transform="matrix(-0.809, -0.588, 0.588, -0.809, 0.913, 1.725)">
            <path id="t-58" data-name="t" d="M0,1.187V0H.593Z" transform="translate(0.198 0.183) rotate(-18)" fill="#fc0"/>
            <path id="Path_58" data-name="Path 58" d="M0,0V1.187H.593Z" transform="translate(0.564 1.312) rotate(-162)" fill="#fc0"/>
          </g>
        </g>
        <g id="Group_71" data-name="Group 71" transform="translate(1.834 2.196) rotate(-180)">
          <g id="Group_69" data-name="Group 69" transform="translate(1.485 0) rotate(72)">
            <path id="t-59" data-name="t" d="M0,0V1.187H.593Z" transform="translate(0.564 0) rotate(18)" fill="#fc0"/>
            <path id="Path_59" data-name="Path 59" d="M0,1.187V0H.593Z" transform="translate(0.931 1.129) rotate(162)" fill="#fc0"/>
          </g>
          <g id="Group_70" data-name="Group 70" transform="matrix(-0.809, 0.588, -0.588, -0.809, 1.685, 1.532)">
            <path id="t-60" data-name="t" d="M0,0V1.187H.593Z" transform="translate(0.564 0) rotate(18)" fill="#fc0"/>
            <path id="Path_60" data-name="Path 60" d="M0,1.187V0H.593Z" transform="translate(0.931 1.129) rotate(162)" fill="#fc0"/>
          </g>
        </g>
      </g>
    </g>
  </g>
</svg>
