<svg xmlns="http://www.w3.org/2000/svg" width="33" height="22" viewBox="0 0 33 22">
  <g id="Group_407" data-name="Group 407" transform="translate(1801 -792)">
    <rect id="Rectangle_278" data-name="Rectangle 278" width="33" height="22" rx="1" transform="translate(-1801 792)" fill="#fccf00"/>
    <path id="Path_592" data-name="Path 592" d="M129.133,8.321a.531.531,0,0,1-.726.2.555.555,0,0,1-.264-.726.531.531,0,0,1,.726-.2.576.576,0,0,1,.264.726m-.066-3.434c-.858-.264-.991-.2-1.057-.2A9.153,9.153,0,0,0,124.577,3.5c-.4,0-.4.858-.4,1.255a18.452,18.452,0,0,0,.66,4.16.82.82,0,0,0,.528.4,2.476,2.476,0,0,0,.726.066s.594.066.991.066h.792l.066.2c.33,1.321.792,5.019.792,5.085a.388.388,0,0,1-.264.4h-.4l-.066-.2c-.2-1.057-.33-3.236-.726-4.821-.33,0-1.651-.066-1.651-.066a3.276,3.276,0,0,1-.858-.2,1.443,1.443,0,0,1-.726-.792,19.273,19.273,0,0,1-.66-4.424,19.3,19.3,0,0,0-3.962.528c-.4.132-.726.264-.726.264a12.555,12.555,0,0,0-6.009,4.49c-2.443,3.17-3.368,5.415-3.3,5.481h.594c-.858,1.717-1.717,3.566-1.783,3.7h4.887l.132-.264c1.453-2.443,3.962-4.556,6.141-4.556,2.774,0,4.953,1.321,5.085,4.556v.2h3.83c.066.132,5.415-12.745.792-14.132" transform="translate(-1904.2 791.5)" fill="#231916"/>
  </g>
</svg>
