<svg id="nz" xmlns="http://www.w3.org/2000/svg" width="33" height="22" viewBox="0 0 33 22">
  <path id="Path_498" data-name="Path 498" d="M32.431,110.276H.569A.574.574,0,0,1,0,109.7V88.855a.574.574,0,0,1,.569-.579H32.431a.574.574,0,0,1,.569.579V109.7A.574.574,0,0,1,32.431,110.276Z" transform="translate(0 -88.276)" fill="#41479b"/>
  <path id="Path_499" data-name="Path 499" d="M15.792,88.277h-.98L9.588,91.7V88.277H6.768V91.7L1.544,88.277H.564A.564.564,0,0,0,0,88.841v.447l4.482,2.937H0v2.82H4.482L0,97.982v.447a.564.564,0,0,0,.564.564h.98L6.768,95.57v3.423h2.82V95.57l5.224,3.423h.98a.564.564,0,0,0,.564-.564v-.447l-4.482-2.937h4.482v-2.82H11.874l4.482-2.937v-.447A.564.564,0,0,0,15.792,88.277Z" transform="translate(0 -88.277)" fill="#f5f5f5"/>
  <g id="Group_363" data-name="Group 363" transform="translate(0 0)">
    <path id="Path_500" data-name="Path 500" d="M16.356,92.789H9.024V88.277H7.332v4.512H0v1.692H7.332v4.512H9.024V94.481h7.332Z" transform="translate(0 -88.277)" fill="#ff4b55"/>
    <path id="Path_501" data-name="Path 501" d="M6.2,93.622.269,89.769A.555.555,0,0,0,0,90.238v.029l5.168,3.355H6.2Z" transform="translate(0 -89.674)" fill="#ff4b55"/>
    <path id="Path_502" data-name="Path 502" d="M151.1,92.225l5.646-3.665a.556.556,0,0,0-.478-.283h-.122l-6.082,3.948Z" transform="translate(-140.481 -88.277)" fill="#ff4b55"/>
    <path id="Path_503" data-name="Path 503" d="M6.9,194.208l-5.635,3.658a.557.557,0,0,0,.483.29h.106l6.082-3.948H6.9Z" transform="translate(-1.188 -186.954)" fill="#ff4b55"/>
    <path id="Path_504" data-name="Path 504" d="M163.3,197.636l-5.282-3.428H156.98l6,3.893A.559.559,0,0,0,163.3,197.636Z" transform="translate(-146.951 -186.956)" fill="#ff4b55"/>
    <path id="Path_505" data-name="Path 505" d="M365.7,331.751a.115.115,0,0,1-.066-.021l-.667-.477-.668.477a.115.115,0,0,1-.066.021.113.113,0,0,1-.108-.147l.248-.782-.66-.487a.113.113,0,0,1,.066-.2l.82-.007.259-.778a.113.113,0,0,1,.214,0l.259.778.82.007a.113.113,0,0,1,.066.2l-.66.487.248.782a.114.114,0,0,1-.041.126A.115.115,0,0,1,365.7,331.751Z" transform="translate(-340.435 -312.872)" fill="#ff4b55"/>
  </g>
  <path id="Path_506" data-name="Path 506" d="M363.317,327.73l.285.855.9.007-.725.535.272.859-.733-.524-.733.524.272-.859-.725-.535.9-.007.285-.855m0-.226a.226.226,0,0,0-.214.154l-.234.7-.74.006a.226.226,0,0,0-.132.407l.6.439-.223.705a.226.226,0,0,0,.346.252l.6-.43.6.43a.226.226,0,0,0,.346-.252l-.223-.705.6-.439a.226.226,0,0,0-.132-.407l-.74-.006-.234-.7a.226.226,0,0,0-.214-.154Z" transform="translate(-338.56 -311.756)" fill="#f5f5f5"/>
  <path id="Path_507" data-name="Path 507" d="M365.7,189.432a.114.114,0,0,1-.066-.021l-.667-.477-.668.478a.115.115,0,0,1-.066.021.113.113,0,0,1-.108-.147l.248-.782-.66-.487a.113.113,0,0,1,.066-.2l.82-.006.259-.778a.113.113,0,0,1,.214,0l.259.778.82.006a.113.113,0,0,1,.066.2l-.66.487.248.782a.113.113,0,0,1-.108.147Z" transform="translate(-340.212 -180.457)" fill="#ff4b55"/>
  <path id="Path_508" data-name="Path 508" d="M363.317,185.409l.285.855.9.007-.725.535.272.859-.733-.524-.733.524.272-.859-.725-.535.9-.007.285-.855m0-.226a.226.226,0,0,0-.214.154l-.234.7-.74.006a.226.226,0,0,0-.132.407l.6.439-.223.705a.226.226,0,0,0,.346.252l.6-.43.6.43a.226.226,0,0,0,.346-.252l-.223-.705.6-.439a.226.226,0,0,0-.132-.407l-.74-.006-.234-.7a.226.226,0,0,0-.214-.154Z" transform="translate(-338.56 -178.804)" fill="#f5f5f5"/>
  <path id="Path_509" data-name="Path 509" d="M427.5,233.569a.114.114,0,0,1-.066-.021l-.667-.478-.668.478a.113.113,0,0,1-.173-.126l.248-.782-.66-.487a.113.113,0,0,1,.066-.2l.82-.006.259-.778a.113.113,0,0,1,.214,0l.259.778.82.006a.113.113,0,0,1,.066.2l-.66.487.248.782a.114.114,0,0,1-.041.126A.115.115,0,0,1,427.5,233.569Z" transform="translate(-397.992 -221.689)" fill="#ff4b55"/>
  <path id="Path_510" data-name="Path 510" d="M425.11,229.547l.285.855.9.007-.725.535.272.859-.733-.524-.733.524.272-.859-.725-.535.9-.007.285-.855m0-.226a.226.226,0,0,0-.214.154l-.234.7-.74.006a.226.226,0,0,0-.132.407l.6.439-.223.705a.226.226,0,0,0,.346.251l.6-.43.6.43a.226.226,0,0,0,.346-.251l-.223-.705.6-.439a.226.226,0,0,0-.132-.407l-.74-.006-.234-.7a.226.226,0,0,0-.214-.154Z" transform="translate(-396.34 -220.036)" fill="#f5f5f5"/>
  <path id="Path_511" data-name="Path 511" d="M303.909,251.224a.114.114,0,0,1-.066-.021l-.667-.477-.668.477a.113.113,0,0,1-.173-.126l.248-.782-.66-.487a.113.113,0,0,1,.066-.2l.82-.006.259-.778a.113.113,0,0,1,.214,0l.259.778.82.006a.113.113,0,0,1,.066.2l-.66.487.248.782a.114.114,0,0,1-.041.126A.115.115,0,0,1,303.909,251.224Z" transform="translate(-282.406 -238.182)" fill="#ff4b55"/>
  <path id="Path_512" data-name="Path 512" d="M301.524,247.2l.285.855.9.007-.725.535.272.859-.733-.524-.733.524.272-.859-.725-.535.9-.007.285-.855m0-.226a.226.226,0,0,0-.214.154l-.234.7-.74.006a.226.226,0,0,0-.132.407l.6.439-.223.705a.226.226,0,0,0,.346.252l.6-.43.6.43a.226.226,0,0,0,.346-.252l-.223-.705.6-.439a.226.226,0,0,0-.132-.407l-.74-.006-.234-.7a.226.226,0,0,0-.214-.154Z" transform="translate(-280.753 -236.529)" fill="#f5f5f5"/>
</svg>
