<svg id="rc" xmlns="http://www.w3.org/2000/svg" width="33" height="22" viewBox="0 0 33 22">
  <path id="Path_456" data-name="Path 456" d="M33,339.863H0v4.794a.567.567,0,0,0,.569.564H32.431a.567.567,0,0,0,.569-.564v-4.794Z" transform="translate(0 -323.221)" fill="#ff4b55"/>
  <path id="Path_457" data-name="Path 457" d="M33,98.992H0V88.84a.567.567,0,0,1,.569-.564H32.431A.567.567,0,0,1,33,88.84V98.992Z" transform="translate(0 -88.276)" fill="#ffe15a"/>
  <rect id="Rectangle_241" data-name="Rectangle 241" width="33" height="5.358" transform="translate(0 11.095)" fill="#41479b"/>
  <path id="Path_458" data-name="Path 458" d="M246.788,209.217l4.12-3.531v5.11a1.559,1.559,0,0,1-1.559,1.559h0a1.56,1.56,0,0,1-1.043-.4l-1.517-1.365v-1.373Z" transform="translate(-230.862 -197.896)" fill="#ffe15a"/>
  <path id="Path_459" data-name="Path 459" d="M263.333,223.546l-1.192-1.073V220.7l2.158-1.85v4.27a.579.579,0,0,1-.966.43Z" transform="translate(-245.235 -210.218)" fill="#ff4b55"/>
  <path id="Path_460" data-name="Path 460" d="M262.729,220.192v2.02l.981.886v-3.746l.589-.5v4.27a.579.579,0,0,1-.966.43l-1.192-1.073V220.7Z" transform="translate(-245.235 -210.219)" fill="#41479b"/>
  <path id="Path_461" data-name="Path 461" d="M204.852,209.217l-4.12-3.531v5.11a1.559,1.559,0,0,0,1.559,1.559h0a1.56,1.56,0,0,0,1.043-.4l1.517-1.365Z" transform="translate(-187.778 -197.896)" fill="#ffe15a"/>
  <path id="Path_462" data-name="Path 462" d="M217.05,223.546l1.192-1.073V220.7l-2.158-1.85v4.27a.579.579,0,0,0,.966.43Z" transform="translate(-202.148 -210.218)" fill="#ff4b55"/>
  <g id="Group_358" data-name="Group 358" transform="translate(12.827 7.79)">
    <path id="Path_463" data-name="Path 463" d="M217.653,220.192v2.02l-.981.886v-3.746l-.589-.5v4.27a.579.579,0,0,0,.966.43l1.192-1.073V220.7Z" transform="translate(-214.961 -218.024)" fill="#41479b"/>
    <rect id="Rectangle_242" data-name="Rectangle 242" width="0.282" height="1.69" transform="translate(7.062)" fill="#41479b"/>
    <rect id="Rectangle_243" data-name="Rectangle 243" width="0.282" height="1.69" fill="#41479b"/>
  </g>
  <g id="Group_359" data-name="Group 359" transform="translate(11.988 5.229)">
    <path id="Path_464" data-name="Path 464" d="M189.3,169.366s.392-1.864-.981-1.618-1.373.638-2.943,1.422a8.148,8.148,0,0,0,2.55.2,3.235,3.235,0,0,0,1.177.981h.589Z" transform="translate(-185.379 -167.725)" fill="#5a4646"/>
    <path id="Path_465" data-name="Path 465" d="M259.462,169.366s-.392-1.864.981-1.618,1.373.638,2.943,1.422a8.148,8.148,0,0,1-2.55.2,3.235,3.235,0,0,1-1.177.981h-.589Z" transform="translate(-254.362 -167.725)" fill="#5a4646"/>
    <path id="Path_466" data-name="Path 466" d="M247.966,185.762h-1.177v-.988a.581.581,0,0,1,.581-.581h.014a.581.581,0,0,1,.581.581v.988Z" transform="translate(-242.866 -183.141)" fill="#5a4646"/>
  </g>
  <ellipse id="Ellipse_38" data-name="Ellipse 38" cx="0.392" cy="0.392" rx="0.392" ry="0.392" transform="translate(16.108 6.498)" fill="#e6e1cd"/>
  <path id="Path_467" data-name="Path 467" d="M242.823,184.528l.738.394a.159.159,0,0,0,.188-.028h0a.159.159,0,0,0,0-.225l-.476-.476h-.114a.335.335,0,0,0-.335.335Z" transform="translate(-227.168 -177.897)" fill="#ffd0af"/>
  <path id="Path_468" data-name="Path 468" d="M238.169,184.586h-.591l.259-.3a.256.256,0,0,1,.194-.09h.332v.2A.194.194,0,0,1,238.169,184.586Z" transform="translate(-222.262 -177.9)" fill="#ffaf94"/>
  <g id="Group_360" data-name="Group 360" transform="translate(13.361 7.363)">
    <path id="Path_469" data-name="Path 469" d="M280.292,200.645a.32.32,0,1,1,.425-.358.547.547,0,0,1,.114.465c.039.067.087.152.14.253a.433.433,0,0,1,.006-.043.264.264,0,1,1,.44.125.45.45,0,0,1-.267.293c.049.113.1.235.144.364,0-.008,0-.015.006-.023a.264.264,0,1,1,.424.173.45.45,0,0,1-.3.263,3.45,3.45,0,0,1,.113.842h-.2a3.174,3.174,0,0,0-.1-.742.446.446,0,0,1-.373-.041.261.261,0,1,1,.237-.387c.005,0,.009.008.014.011-.042-.121-.087-.235-.133-.343a.446.446,0,0,1-.383,0,.261.261,0,1,1,.191-.411c-.054-.1-.1-.191-.141-.256A.549.549,0,0,1,280.292,200.645Z" transform="translate(-275.48 -200.091)" fill="#8cb400"/>
    <path id="Path_470" data-name="Path 470" d="M208.338,200.645a.32.32,0,1,0-.425-.358.547.547,0,0,0-.114.465c-.039.067-.087.152-.14.253a.428.428,0,0,0-.006-.043.264.264,0,1,0-.44.125.45.45,0,0,0,.267.293c-.049.113-.1.235-.144.364,0-.008,0-.015-.006-.023a.264.264,0,1,0-.424.173.45.45,0,0,0,.3.263,3.448,3.448,0,0,0-.113.842h.2a3.175,3.175,0,0,1,.1-.742.446.446,0,0,0,.373-.041.261.261,0,1,0-.237-.387c-.005,0-.009.008-.014.011.042-.121.087-.235.133-.343a.446.446,0,0,0,.383,0,.261.261,0,1,0-.191-.411c.054-.1.1-.191.141-.256A.549.549,0,0,0,208.338,200.645Z" transform="translate(-206.872 -200.091)" fill="#8cb400"/>
  </g>
  <path id="Path_471" data-name="Path 471" d="M195.64,224.57l-4.12-3.531v5.11a1.559,1.559,0,0,0,1.559,1.559h0a1.56,1.56,0,0,0,1.043-.4l1.517-1.365Z" transform="translate(-179.16 -212.23)" fill="#ffe15a"/>
  <path id="Path_472" data-name="Path 472" d="M207.838,238.9l1.192-1.073v-1.777l-2.158-1.85v4.27a.579.579,0,0,0,.966.43Z" transform="translate(-193.53 -224.556)" fill="#ff4b55"/>
  <path id="Path_473" data-name="Path 473" d="M208.441,235.544v2.02l-.981.886V234.7l-.589-.5v4.27a.579.579,0,0,0,.966.43l1.192-1.073v-1.777Z" transform="translate(-193.53 -224.557)" fill="#41479b"/>
  <path id="Path_474" data-name="Path 474" d="M256,224.57l4.12-3.531v5.11a1.559,1.559,0,0,1-1.559,1.559h0a1.56,1.56,0,0,1-1.043-.4L256,225.943Z" transform="translate(-239.479 -212.23)" fill="#ffe15a"/>
  <path id="Path_475" data-name="Path 475" d="M272.545,238.9l-1.192-1.073v-1.777l2.158-1.85v4.27a.579.579,0,0,1-.966.43Z" transform="translate(-253.853 -224.556)" fill="#ff4b55"/>
  <path id="Path_476" data-name="Path 476" d="M271.941,235.544v2.02l.981.886V234.7l.589-.5v4.27a.579.579,0,0,1-.966.43l-1.192-1.073v-1.777Z" transform="translate(-253.853 -224.557)" fill="#41479b"/>
  <ellipse id="Ellipse_39" data-name="Ellipse 39" cx="1.962" cy="2.943" rx="1.962" ry="2.943" transform="translate(14.538 7.978)" fill="#69c3ff"/>
  <path id="Path_477" data-name="Path 477" d="M228.366,241.229H231.9l.2-.785-.894.149a.615.615,0,0,1-.5-.14l-1.015-.87a.5.5,0,0,0-.326-.12h0a.5.5,0,0,0-.354.147l-.638.638v.981Z" transform="translate(-213.631 -229.525)" fill="#009b64"/>
  <path id="Path_478" data-name="Path 478" d="M229.944,240.31l.337-.215-.6-.513a.5.5,0,0,0-.326-.12h0a.5.5,0,0,0-.354.147l-.638.638v.2l.981-.2.173.087A.431.431,0,0,0,229.944,240.31Z" transform="translate(-213.637 -229.533)" fill="#f5f5f5"/>
  <path id="Path_479" data-name="Path 479" d="M228.366,267.1l.2,1.177.981.981h.589l.785-.2.785-.785.2-1.177Z" transform="translate(-213.632 -255.334)" fill="#5aa0e6"/>
  <path id="Path_480" data-name="Path 480" d="M224.383,211.963c-1.19,0-2.158-1.408-2.158-3.139s.968-3.139,2.158-3.139,2.158,1.408,2.158,3.139S225.573,211.963,224.383,211.963Zm0-5.885c-.973,0-1.766,1.232-1.766,2.746s.792,2.746,1.766,2.746,1.766-1.232,1.766-2.746S225.356,206.078,224.383,206.078Z" transform="translate(-207.883 -197.903)" fill="#ffc88c"/>
  <g id="Group_361" data-name="Group 361" transform="translate(13.724 13.564)">
    <path id="Path_481" data-name="Path 481" d="M214.22,295.1a.816.816,0,0,0-1.373,0,.947.947,0,0,1,.619.606,1.153,1.153,0,0,1,.068.393A1.009,1.009,0,0,1,214.22,295.1Z" transform="translate(-212.847 -294.73)" fill="#e1e1e1"/>
    <path id="Path_482" data-name="Path 482" d="M221.569,310.215a.659.659,0,0,1-.149.384l-.006,0a.659.659,0,0,1-.149-.384Z" transform="translate(-220.727 -309.221)" fill="#e1e1e1"/>
  </g>
  <path id="Path_483" data-name="Path 483" d="M221.088,308.743h-4.907a.1.1,0,0,1-.1-.1v0a.1.1,0,0,1,.1-.1h4.907a.1.1,0,0,1,.1.1v0A.1.1,0,0,1,221.088,308.743Z" transform="translate(-202.134 -294.097)" fill="#966446"/>
  <path id="Path_484" data-name="Path 484" d="M236.865,304.725h-1.971a.388.388,0,0,1-.388-.388v-.01a.388.388,0,0,1,.388-.388h1.971a.388.388,0,0,1,.388.388v.01A.388.388,0,0,1,236.865,304.725Z" transform="translate(-219.379 -289.782)" fill="#be915a"/>
  <path id="Path_485" data-name="Path 485" d="M216.87,308.547h-.687a.1.1,0,0,0,0,.2h.687Z" transform="translate(-202.155 -294.097)" fill="#b9b9b9"/>
  <path id="Path_486" data-name="Path 486" d="M244.5,316.223v1.792l-.785-.223.392-1.569Z" transform="translate(-228.007 -301.238)" fill="#ff4b55"/>
  <path id="Path_487" data-name="Path 487" d="M235.684,316.223l-.392,1.373-.785-.2.589-1.177Z" transform="translate(-219.387 -301.247)" fill="#41479b"/>
  <path id="Path_488" data-name="Path 488" d="M232.025,316.223l-.589.785.589.2.392-.981Z" transform="translate(-216.515 -301.255)" fill="#ffe15a"/>
  <path id="Path_489" data-name="Path 489" d="M256,316.223v1.792l.785-.223-.392-1.569Z" transform="translate(-239.497 -301.238)" fill="#ff4b55"/>
  <path id="Path_490" data-name="Path 490" d="M259.071,316.223l.392,1.373.785-.2-.589-1.177Z" transform="translate(-242.368 -301.247)" fill="#41479b"/>
  <path id="Path_491" data-name="Path 491" d="M265.6,316.223l.589.785-.589.2-.392-.981Z" transform="translate(-248.114 -301.255)" fill="#ffe15a"/>
  <g id="Group_362" data-name="Group 362" transform="translate(12.239 8.726)">
    <path id="Path_492" data-name="Path 492" d="M189.6,222.726l-.282-.284v-1.406h.282Z" transform="translate(-189.314 -221.036)" fill="#41479b"/>
    <path id="Path_493" data-name="Path 493" d="M318.514,222.442l-.282.284v-1.69h.282Z" transform="translate(-309.995 -221.036)" fill="#41479b"/>
  </g>
</svg>
