<svg xmlns="http://www.w3.org/2000/svg" width="51.734" height="42.766" viewBox="0 0 51.734 42.766">
  <g id="Group_36" data-name="Group 36" transform="translate(-54.8 -600.125)">
    <rect id="Rectangle_9" data-name="Rectangle 9" width="8.624" height="17" transform="translate(96.911 624.891)" fill="none" stroke="#76c208" stroke-miterlimit="10" stroke-width="2"/>
    <path id="Path_67" data-name="Path 67" d="M96.911,627.531v12.705H96.08l-7-5.66-15,2.83-15.74-7.5h0a3.269,3.269,0,0,1-2.54-3.21,3.225,3.225,0,0,1,5.23-2.52l10.68,3.76,1.87-3.049,15.88-2.16Z" fill="none" stroke="#76c208" stroke-linecap="round" stroke-linejoin="round" stroke-width="2"/>
    <path id="Path_68" data-name="Path 68" d="M71.71,627.937l4.813,2.032,9.563-1.375" fill="none" stroke="#76c208" stroke-linecap="round" stroke-linejoin="round" stroke-width="2"/>
    <path id="Path_69" data-name="Path 69" d="M86.758,623.1l-13.18,1.79-1.87,3.05-7.74-2.73c-.01-.11-.01-.21-.01-.32a11.471,11.471,0,0,1,22.8-1.79Z" fill="#76c208"/>
    <path id="Path_70" data-name="Path 70" d="M81.612,609.093c2.726-2.043,3.24-5.96,3.24-5.96s-3.9-.6-6.629,1.44-3.241,5.96-3.241,5.96S78.887,611.137,81.612,609.093Z" fill="#76c208"/>
    <path id="Path_71" data-name="Path 71" d="M66.435,608.5c-3.779-2.833-4.492-8.264-4.492-8.264s5.413-.837,9.192,2,4.493,8.264,4.493,8.264S70.215,611.338,66.435,608.5Z" fill="#76c208"/>
    <line id="Line_1" data-name="Line 1" y2="4.216" transform="translate(75.357 610.342)" fill="none" stroke="#76c208" stroke-miterlimit="10" stroke-width="2"/>
  </g>
</svg>
