<svg xmlns="http://www.w3.org/2000/svg" width="29.696" height="40.315" viewBox="0 0 29.696 40.315">
  <g id="Group_38" data-name="Group 38" transform="translate(-60.78 -505.772)">
    <rect id="Rectangle_12" data-name="Rectangle 12" width="21.75" height="7.398" transform="translate(64.063 538.688)" fill="#76c208"/>
    <rect id="Rectangle_13" data-name="Rectangle 13" width="17" height="4.283" transform="translate(66.646 534.405)" fill="none" stroke="#76c208" stroke-miterlimit="10" stroke-width="2"/>
    <path id="Path_77" data-name="Path 77" d="M64.066,514.179v-4.417a.856.856,0,0,1,.01-.16,2.824,2.824,0,0,1,5.64,0h.99a2.83,2.83,0,0,1,5.66,0h1.011a2.835,2.835,0,0,1,5.669,0h.77a2.83,2.83,0,0,1,5.66,0v14.92l-7.41,7.58-.17,2.3H68.4l-.5-2.383-.537-.923-5.579-5.753V516.1s.983-2,2.283-1.917l10.875,0a3,3,0,1,1,0,6H69.03s2.5-.333,3.75,5.167" fill="none" stroke="#76c208" stroke-miterlimit="10" stroke-width="2"/>
  </g>
</svg>
