<svg id="facebook-letter-logo" xmlns="http://www.w3.org/2000/svg" width="9.811" height="21.109" viewBox="0 0 9.811 21.109">
  <g id="Group_19" data-name="Group 19" transform="translate(0)">
    <path id="Path_11" data-name="Path 11" d="M155.423,0h-2.2A4.732,4.732,0,0,0,149.6,1.2a5.044,5.044,0,0,0-1.1,3.529V6.208a.709.709,0,0,1-.709.709h-.76a.709.709,0,0,0-.709.709v2.22a.709.709,0,0,0,.709.709h.76a.709.709,0,0,1,.709.709V20.4a.709.709,0,0,0,.709.709h2.95a.709.709,0,0,0,.709-.709V11.263a.709.709,0,0,1,.709-.709h1.49a.8.8,0,0,0,.783-.7l.235-2.228a.624.624,0,0,0-.634-.7h-1.874a.709.709,0,0,1-.709-.709V5.1a3.981,3.981,0,0,1,.038-.634,1.235,1.235,0,0,1,.173-.442.706.706,0,0,1,.435-.3,3.1,3.1,0,0,1,.8-.083h1.11a.709.709,0,0,0,.709-.709V.709A.708.708,0,0,0,155.423,0Z" transform="translate(-146.32)"/>
  </g>
</svg>
