<svg xmlns="http://www.w3.org/2000/svg" width="19.728" height="19.728" viewBox="0 0 19.728 19.728">
  <g id="linkedin-logo" transform="translate(2.051 2.322)">
    <path id="LinkedIn__x28_alt_x29_" d="M18.273,0H1.46A1.436,1.436,0,0,0,0,1.413v16.9A1.437,1.437,0,0,0,1.46,19.728H18.273a1.436,1.436,0,0,0,1.457-1.414V1.413A1.435,1.435,0,0,0,18.273,0ZM5.983,16.514H3V7.607H5.983ZM4.493,6.39h-.02a1.544,1.544,0,1,1,.039-3.078A1.544,1.544,0,1,1,4.493,6.39ZM16.727,16.514h-2.98V11.748c0-1.2-.432-2.014-1.509-2.014a1.628,1.628,0,0,0-1.529,1.083,1.991,1.991,0,0,0-.1.721v4.975H7.631s.039-8.071,0-8.907h2.98V8.869A2.959,2.959,0,0,1,13.3,7.4c1.961,0,3.432,1.272,3.432,4.009ZM10.592,8.9l.019-.028V8.9Z" transform="translate(-2.053 -2.322)" fill="#222"/>
  </g>
</svg>
