<svg xmlns="http://www.w3.org/2000/svg" width="27.773" height="22" viewBox="0 0 27.773 22">
  <g id="orange-weibo-logo" transform="translate(0 -2.5)">
    <path id="Path_395" data-name="Path 395" d="M25.278,9.063c.119,1.522-.142,3.346-1.164,3.436-1.669.147-.8-1.661-.776-2.748a5.356,5.356,0,0,0-5.357-5.344c-.759,0-2.524.507-2.252-1.069.123-.694.721-.685,1.319-.764A7.046,7.046,0,0,1,25.278,9.063Z" transform="translate(2.468)" fill="#fea200"/>
    <path id="Path_396" data-name="Path 396" d="M20.372,12.319c1.938,1.043,4.267,1.562,3.881,4.657-.711,5.7-12.792,9.535-20.338,5.344C1.846,21.169-.3,19.487.034,16.136c.285-2.885,2.257-5.12,4.193-7.023a13.665,13.665,0,0,1,6.442-3.893c2.875-.711,3.724,1.646,2.95,3.969,1.665-.11,5.194-1.937,6.754-.153.687.787.425,2.2,0,3.283Zm-2.1,7.329a4.557,4.557,0,0,0,1.242-2.976c-.012-5.086-8.835-6.221-13.662-3.436C.362,16.406,2.681,22.1,9.427,22.549c3.573.236,7.15-1,8.849-2.9Z" transform="translate(0 0.407)" fill="#fea200"/>
    <path id="Path_397" data-name="Path 397" d="M20.5,10.77c-1.131.074-.708-.761-.776-1.755a2.088,2.088,0,0,0-1.009-1.528c-.883-.407-2.251.3-2.251-.915,0-.9.794-.807,1.243-.84C21.821,5.424,22.075,10.667,20.5,10.77Z" transform="translate(2.588 0.506)" fill="#fea200"/>
    <path id="Path_398" data-name="Path 398" d="M14.035,15.094c1.654,4.916-6.963,7.2-8.539,2.978C4.442,15.246,6.974,13,9.61,12.727a4.007,4.007,0,0,1,4.425,2.367Zm-3.96.84a.585.585,0,0,0,1.087-.306C11.078,15.081,10.068,15.162,10.075,15.934Zm-1.4,2.6c1.449-.339,1.643-3.023-.544-2.519C6.3,16.431,6.653,19,8.679,18.529Z" transform="translate(0.826 1.603)" fill="#fea200"/>
  </g>
</svg>
