<svg xmlns="http://www.w3.org/2000/svg" width="40" height="40" viewBox="0 0 40 40">
  <g id="share-weibo" transform="translate(-1235 -451)">
    <g id="share-weibo-2" data-name="share-weibo" transform="translate(676 -7)">
      <circle id="Ellipse_36" data-name="Ellipse 36" cx="20" cy="20" r="20" transform="translate(559 458)" fill="#d52a2c"/>
    </g>
    <g id="weibo-logo" transform="translate(1244.275 459.268)">
      <path id="Path_281" data-name="Path 281" d="M16.758,12.53c-.855-.361-.855-.361-.639-1.254.351-1.457-.311-2.4-1.811-2.4a11.947,11.947,0,0,0-3.725.853,17.894,17.894,0,0,0,.194-1.784A1.507,1.507,0,0,0,9.09,6.3a5.2,5.2,0,0,0-1.868.435A13.4,13.4,0,0,0,.411,13.661,5.635,5.635,0,0,0,0,16.014a4.871,4.871,0,0,0,2.635,4.01,12.23,12.23,0,0,0,10.036,1.318,9.442,9.442,0,0,0,5.382-3.523C19.621,15.676,19.086,13.514,16.758,12.53Zm-2.166,4.892a5.8,5.8,0,0,1-2.544,2,9.114,9.114,0,0,1-7.01.276,6.14,6.14,0,0,1-1.492-.835,3.132,3.132,0,0,1-.455-4.87,7.683,7.683,0,0,1,4.785-2.313c.442-.066.893-.078,1.278-.109a7.028,7.028,0,0,1,5.131,1.833A2.988,2.988,0,0,1,14.592,17.422Zm7.579-8.271c.022.614-.235.976-.713,1.012-.494.035-.822-.328-.85-.946A5.08,5.08,0,0,0,15.683,4.3c-.658-.036-.993-.325-.966-.825s.407-.769,1.039-.735A6.67,6.67,0,0,1,22.171,9.151Zm-3.147-.056a.778.778,0,0,1-.507,1.07.77.77,0,0,1-.992-.645,2.893,2.893,0,0,0-2.211-2.176.738.738,0,0,1-.63-.857c.051-.42.318-.666.9-.675a7.492,7.492,0,0,1,.791.247A4.378,4.378,0,0,1,19.025,9.094ZM9.765,17.411a3.091,3.091,0,0,1-3.453.708,2,2,0,0,1-.523-3.432,3.344,3.344,0,0,1,2.126-.832,9.506,9.506,0,0,1,1.037.247A1.991,1.991,0,0,1,9.765,17.411Z" transform="translate(-0.491 -0.423)" fill="#fff"/>
    </g>
  </g>
</svg>
