<svg xmlns="http://www.w3.org/2000/svg" width="40" height="40" viewBox="0 0 40 40">
  <g id="share-email" transform="translate(-913 -3286)">
    <g id="Group_107" data-name="Group 107" transform="translate(-26 -1)">
      <g id="Group_106" data-name="Group 106">
        <circle id="Ellipse_8" data-name="Ellipse 8" cx="20" cy="20" r="20" transform="translate(939 3287)" fill="#686868"/>
      </g>
      <g id="envelope" transform="translate(949.828 3242.924)">
        <g id="Group_269" data-name="Group 269" transform="translate(-0.991 56.996)">
          <path id="Path_275" data-name="Path 275" d="M17.489,57.75H2.436A2.438,2.438,0,0,0,0,60.186V70.474A2.438,2.438,0,0,0,2.436,72.91H17.485a2.438,2.438,0,0,0,2.436-2.436V60.19A2.435,2.435,0,0,0,17.489,57.75Zm1.323,12.724A1.325,1.325,0,0,1,17.489,71.8H2.436a1.325,1.325,0,0,1-1.323-1.323V60.19a1.325,1.325,0,0,1,1.323-1.323H17.485a1.325,1.325,0,0,1,1.323,1.323V70.474Z" transform="translate(0 -57.75)" fill="#fff"/>
          <path id="Path_276" data-name="Path 276" d="M66.018,114.246l4.872-4.369a.557.557,0,0,0-.746-.828l-6.719,6.03-1.311-1.171s-.008-.008-.008-.012a.822.822,0,0,0-.091-.078l-5.334-4.773a.558.558,0,0,0-.742.833l4.93,4.406-4.909,4.6a.559.559,0,0,0-.025.787.569.569,0,0,0,.408.177.558.558,0,0,0,.379-.148l4.983-4.662,1.352,1.208a.555.555,0,0,0,.742,0l1.389-1.245,4.954,4.707a.558.558,0,0,0,.787-.021.559.559,0,0,0-.021-.787Z" transform="translate(-53.454 -106.794)" fill="#fff"/>
        </g>
      </g>
    </g>
  </g>
</svg>
