<svg xmlns="http://www.w3.org/2000/svg" width="40" height="40" viewBox="0 0 40 40">
  <g id="share-facebook" transform="translate(-913 -3286)">
    <g id="Group_107" data-name="Group 107" transform="translate(-26 -1)">
      <g id="Group_106" data-name="Group 106">
        <circle id="Ellipse_8" data-name="Ellipse 8" cx="20" cy="20" r="20" transform="translate(939 3287)" fill="#3b5998"/>
      </g>
      <g id="facebook-letter-logo" transform="translate(955 3298)">
        <g id="Group_19" data-name="Group 19" transform="translate(0)">
          <path id="Path_11" data-name="Path 11" d="M153.651,0H151.88a3.811,3.811,0,0,0-2.919.965,4.062,4.062,0,0,0-.887,2.842V5a.571.571,0,0,1-.571.571h-.612a.571.571,0,0,0-.571.571V7.929a.571.571,0,0,0,.571.571h.612a.571.571,0,0,1,.571.571v7.358a.571.571,0,0,0,.571.571h2.376a.571.571,0,0,0,.571-.571V9.071a.571.571,0,0,1,.571-.571h1.2a.648.648,0,0,0,.631-.568l.189-1.794a.5.5,0,0,0-.511-.568h-1.509A.571.571,0,0,1,151.591,5V4.106a3.206,3.206,0,0,1,.031-.511.994.994,0,0,1,.139-.356A.569.569,0,0,1,152.112,3a2.5,2.5,0,0,1,.645-.067h.894a.571.571,0,0,0,.571-.571V.571A.57.57,0,0,0,153.651,0Z" transform="translate(-146.32)" fill="#fff"/>
        </g>
      </g>
    </g>
  </g>
</svg>
