<svg xmlns="http://www.w3.org/2000/svg" width="40" height="40" viewBox="0 0 40 40">
  <g id="share-twitter" transform="translate(-559 -458)">
    <circle id="Ellipse_36" data-name="Ellipse 36" cx="20" cy="20" r="20" transform="translate(559 458)" fill="#03a9f4"/>
    <path id="twitter" d="M18.288,49.759a7.817,7.817,0,0,1-2.16.592,3.728,3.728,0,0,0,1.649-2.072,7.493,7.493,0,0,1-2.377.908A3.749,3.749,0,0,0,8.914,51.75,3.861,3.861,0,0,0,9,52.605a10.612,10.612,0,0,1-7.728-3.922,3.75,3.75,0,0,0,1.152,5.011,3.7,3.7,0,0,1-1.694-.462v.041a3.767,3.767,0,0,0,3,3.684,3.742,3.742,0,0,1-.983.123,3.315,3.315,0,0,1-.71-.064,3.785,3.785,0,0,0,3.5,2.612A7.533,7.533,0,0,1,.9,61.228a7.022,7.022,0,0,1-.9-.051,10.555,10.555,0,0,0,5.752,1.683A10.6,10.6,0,0,0,16.423,52.19c0-.166-.006-.326-.014-.485A7.48,7.48,0,0,0,18.288,49.759Z" transform="translate(570 423)" fill="#fff"/>
  </g>
</svg>
