<svg id="white-yt-icon" xmlns="http://www.w3.org/2000/svg" width="28.135" height="19.343" viewBox="0 0 28.135 19.343">
  <path id="Path_14" data-name="Path 14" d="M26.939,81.864c-.763-1.358-1.591-1.607-3.278-1.7C21.977,80.047,17.741,80,14.071,80s-7.915.047-9.6.16c-1.683.1-2.513.345-3.283,1.7C.4,83.22,0,85.555,0,89.666v.014c0,4.094.4,6.446,1.19,7.788.77,1.358,1.6,1.6,3.281,1.718,1.685.1,5.922.156,9.6.156s7.906-.058,9.592-.155c1.686-.114,2.515-.36,3.278-1.718.793-1.342,1.194-3.695,1.194-7.788v-.014C28.135,85.555,27.734,83.22,26.939,81.864ZM10.551,94.947V84.4l8.792,5.275Z" transform="translate(0 -80)" fill="#fff"/>
</svg>
