<svg xmlns="http://www.w3.org/2000/svg" width="15.377" height="10.572" viewBox="0 0 15.377 10.572">
  <g id="youtube" transform="translate(0 0)">
    <g id="Group_26" data-name="Group 26" transform="translate(0 0)">
      <path id="Path_14" data-name="Path 14" d="M14.724,81.019c-.417-.742-.87-.878-1.791-.93S9.7,80,7.69,80s-4.326.026-5.246.087-1.373.188-1.794.931S0,83.036,0,85.283v.008c0,2.237.221,3.523.651,4.257s.874.876,1.793.939,3.237.086,5.246.086,4.321-.032,5.243-.085,1.374-.2,1.791-.939c.433-.733.653-2.019.653-4.257v-.008C15.377,83.036,15.158,81.76,14.724,81.019Zm-8.957,7.15V82.4l4.805,2.883Z" transform="translate(0 -80)" fill="#fff"/>
    </g>
  </g>
</svg>
