<svg id="au" xmlns="http://www.w3.org/2000/svg" width="33" height="22" viewBox="0 0 33 22">
  <path id="Path_436" data-name="Path 436" d="M32.431,110.276H.569A.574.574,0,0,1,0,109.7V88.855a.574.574,0,0,1,.569-.579H32.431a.574.574,0,0,1,.569.579V109.7A.574.574,0,0,1,32.431,110.276Z" transform="translate(0 -88.276)" fill="#41479b"/>
  <path id="Path_437" data-name="Path 437" d="M15.792,88.277h-.98L9.588,91.7V88.277H6.768V91.7L1.544,88.277H.564A.564.564,0,0,0,0,88.841v.447l4.482,2.937H0v2.82H4.482L0,97.982v.447a.564.564,0,0,0,.564.564h.98L6.768,95.57v3.423h2.82V95.57l5.224,3.423h.98a.564.564,0,0,0,.564-.564v-.447l-4.482-2.937h4.482v-2.82H11.874l4.482-2.937v-.447A.564.564,0,0,0,15.792,88.277Z" transform="translate(0 -88.277)" fill="#f5f5f5"/>
  <g id="Group_356" data-name="Group 356" transform="translate(0 0)">
    <path id="Path_438" data-name="Path 438" d="M16.356,92.789H9.024V88.277H7.332v4.512H0v1.692H7.332v4.512H9.024V94.481h7.332Z" transform="translate(0 -88.277)" fill="#ff4b55"/>
    <path id="Path_439" data-name="Path 439" d="M6.2,93.622.269,89.769A.555.555,0,0,0,0,90.238v.029l5.168,3.355H6.2Z" transform="translate(0 -89.674)" fill="#ff4b55"/>
    <path id="Path_440" data-name="Path 440" d="M151.1,92.225l5.646-3.665a.556.556,0,0,0-.478-.283h-.122l-6.082,3.948Z" transform="translate(-140.481 -88.277)" fill="#ff4b55"/>
    <path id="Path_441" data-name="Path 441" d="M6.9,194.208l-5.635,3.658a.557.557,0,0,0,.483.29h.106l6.082-3.948H6.9Z" transform="translate(-1.188 -187.44)" fill="#ff4b55"/>
    <path id="Path_442" data-name="Path 442" d="M163.3,197.636l-5.282-3.428H156.98l6,3.893A.559.559,0,0,0,163.3,197.636Z" transform="translate(-146.951 -187.44)" fill="#ff4b55"/>
  </g>
  <g id="Group_357" data-name="Group 357" transform="translate(5.947 4.323)">
    <path id="Path_443" data-name="Path 443" d="M91.263,302.813l.426,1.405,1.364-.543a.127.127,0,0,1,.151.19l-.833,1.209,1.275.728a.127.127,0,0,1-.054.236l-1.465.1.226,1.451a.127.127,0,0,1-.218.105l-.993-1.082-.993,1.082a.127.127,0,0,1-.218-.105l.226-1.451-1.465-.1a.127.127,0,0,1-.054-.236l1.275-.728-.833-1.209a.127.127,0,0,1,.151-.19l1.364.543.426-1.405A.127.127,0,0,1,91.263,302.813Z" transform="translate(-88.573 -292.777)" fill="#f5f5f5"/>
    <path id="Path_444" data-name="Path 444" d="M374.026,147.086l.208.686.666-.265a.062.062,0,0,1,.074.093l-.407.591.623.356a.062.062,0,0,1-.026.115l-.716.05.111.709a.062.062,0,0,1-.107.051l-.485-.528-.485.528a.062.062,0,0,1-.107-.051l.11-.709-.716-.05a.062.062,0,0,1-.026-.115l.623-.356-.407-.591a.062.062,0,0,1,.074-.093l.666.265.208-.686A.062.062,0,0,1,374.026,147.086Z" transform="translate(-354.558 -147.042)" fill="#f5f5f5"/>
    <path id="Path_445" data-name="Path 445" d="M301.449,229.562l.208.687.666-.265a.062.062,0,0,1,.074.093l-.407.591.623.356a.062.062,0,0,1-.026.115l-.716.05.111.709a.062.062,0,0,1-.107.051l-.485-.528-.485.528a.062.062,0,0,1-.107-.051l.11-.709-.716-.05a.062.062,0,0,1-.026-.115l.623-.356-.407-.591a.062.062,0,0,1,.074-.093l.666.265.208-.687A.062.062,0,0,1,301.449,229.562Z" transform="translate(-286.618 -224.249)" fill="#f5f5f5"/>
    <path id="Path_446" data-name="Path 446" d="M442.691,194.251l.208.687.666-.265a.062.062,0,0,1,.074.093l-.407.591.623.356a.062.062,0,0,1-.026.115l-.716.05.11.709a.062.062,0,0,1-.107.051l-.485-.528-.485.528a.062.062,0,0,1-.107-.051l.11-.709-.716-.05a.062.062,0,0,1-.026-.115l.623-.356-.407-.591a.062.062,0,0,1,.074-.093l.666.265.208-.687A.062.062,0,0,1,442.691,194.251Z" transform="translate(-418.836 -191.194)" fill="#f5f5f5"/>
    <path id="Path_447" data-name="Path 447" d="M374.026,335.493l.208.686.666-.265a.062.062,0,0,1,.074.093l-.407.591.623.356a.062.062,0,0,1-.026.115l-.716.05.111.709a.062.062,0,0,1-.107.051l-.485-.528-.485.528a.062.062,0,0,1-.107-.051l.11-.709-.716-.05a.062.062,0,0,1-.026-.115l.623-.356-.407-.591a.062.062,0,0,1,.074-.093l.666.265.208-.686A.062.062,0,0,1,374.026,335.493Z" transform="translate(-354.558 -323.412)" fill="#f5f5f5"/>
    <path id="Path_448" data-name="Path 448" d="M407.248,248.8l-.167.5-.528,0a.071.071,0,0,0-.042.128l.425.314-.159.5a.071.071,0,0,0,.109.079l.429-.307.429.307a.071.071,0,0,0,.109-.079l-.159-.5.424-.314a.071.071,0,0,0-.042-.128l-.528,0-.167-.5A.071.071,0,0,0,407.248,248.8Z" transform="translate(-386.171 -242.254)" fill="#f5f5f5"/>
  </g>
</svg>
