<svg xmlns="http://www.w3.org/2000/svg" width="33" height="22" viewBox="0 0 33 22">
  <g id="ca" transform="translate(-12 -27.751)">
    <path id="Path_431" data-name="Path 431" d="M12,27.751H45v22H12Z" fill="#f0f0f0"/>
    <g id="Group_355" data-name="Group 355" transform="translate(12 27.751)">
      <path id="Path_432" data-name="Path 432" d="M55.8,53.549l1.819-2.342-2.774,1.387L55.3,50.73l-1.971,1.563.853-4.068-2.046,1.518-.819-2.335L50.5,49.742,48.45,48.225l.852,4.068L47.332,50.73l.455,1.864-2.774-1.387,1.819,2.342-1.819.318,2.79,1.52-.608,1.16,3.865-.585v2.46h.512v-2.46l3.865.585-.608-1.16,2.79-1.52Z" transform="translate(-34.815 -41.915)" fill="#d60a2e"/>
      <path id="Path_433" data-name="Path 433" d="M12,27.751h7.081v22H12Z" transform="translate(-12 -27.751)" fill="#d60a2e"/>
      <path id="Path_434" data-name="Path 434" d="M94.667,27.751h7.081v22H94.667Z" transform="translate(-68.748 -27.751)" fill="#d60a2e"/>
    </g>
  </g>
</svg>
