<svg xmlns="http://www.w3.org/2000/svg" width="33" height="22" viewBox="0 0 33 22">
  <g id="ec" transform="translate(0 -88.276)">
    <path id="Path_620" data-name="Path 620" d="M33,339.863H0v4.767a.565.565,0,0,0,.569.561H32.431A.565.565,0,0,0,33,344.63v-4.767Z" transform="translate(0 -234.914)" fill="#ff4b55"/>
    <path id="Path_621" data-name="Path 621" d="M33,98.931H0V88.837a.565.565,0,0,1,.569-.561H32.431a.565.565,0,0,1,.569.561V98.931Z" fill="#ffe15a"/>
    <rect id="Rectangle_265" data-name="Rectangle 265" width="33" height="5.327" transform="translate(0 99.391)" fill="#41479b"/>
    <path id="Path_622" data-name="Path 622" d="M246.788,209.2l4.1-3.511v5.081a1.551,1.551,0,0,1-1.551,1.551h0a1.551,1.551,0,0,1-1.037-.4l-1.508-1.357V209.2Z" transform="translate(-230.849 -109.601)" fill="#ffe15a"/>
    <path id="Path_623" data-name="Path 623" d="M263.326,223.519l-1.185-1.067v-1.767l2.146-1.839v4.245a.575.575,0,0,1-.96.428Z" transform="translate(-245.228 -121.928)" fill="#ff4b55"/>
    <path id="Path_624" data-name="Path 624" d="M262.726,220.184v2.008l.975.881v-3.725l.585-.5v4.245a.575.575,0,0,1-.96.428l-1.185-1.067v-1.767Z" transform="translate(-245.228 -121.929)" fill="#41479b"/>
    <path id="Path_625" data-name="Path 625" d="M204.828,209.2l-4.1-3.511v5.081a1.551,1.551,0,0,0,1.551,1.551h0a1.551,1.551,0,0,0,1.037-.4l1.508-1.357Z" transform="translate(-187.767 -109.601)" fill="#ffe15a"/>
    <path id="Path_626" data-name="Path 626" d="M217.044,223.519l1.185-1.067v-1.767l-2.146-1.839v4.245a.575.575,0,0,0,.96.428Z" transform="translate(-202.143 -121.928)" fill="#ff4b55"/>
    <g id="Group_377" data-name="Group 377" transform="translate(12.848 96.081)">
      <path id="Path_627" data-name="Path 627" d="M217.644,220.184v2.008l-.975.881v-3.725l-.585-.5v4.245a.575.575,0,0,0,.96.428l1.185-1.067v-1.767Z" transform="translate(-214.968 -218.028)" fill="#41479b"/>
      <rect id="Rectangle_266" data-name="Rectangle 266" width="0.28" height="1.68" transform="translate(7.021 0)" fill="#41479b"/>
      <rect id="Rectangle_267" data-name="Rectangle 267" width="0.28" height="1.68" transform="translate(0 0)" fill="#41479b"/>
    </g>
    <g id="Group_378" data-name="Group 378" transform="translate(12.014 93.509)">
      <path id="Path_628" data-name="Path 628" d="M189.28,169.356s.39-1.853-.975-1.609-1.365.634-2.926,1.414a8.1,8.1,0,0,0,2.536.2,3.217,3.217,0,0,0,1.17.975h.585Z" transform="translate(-185.379 -167.725)" fill="#5a4646"/>
      <path id="Path_629" data-name="Path 629" d="M259.46,169.356s-.39-1.853.975-1.609,1.365.634,2.926,1.414a8.1,8.1,0,0,1-2.536.2,3.217,3.217,0,0,1-1.17.975h-.585Z" transform="translate(-254.389 -167.725)" fill="#5a4646"/>
      <path id="Path_630" data-name="Path 630" d="M247.959,185.753h-1.17v-.982a.578.578,0,0,1,.578-.578h.014a.578.578,0,0,1,.578.578v.982Z" transform="translate(-242.888 -183.147)" fill="#5a4646"/>
    </g>
    <circle id="Ellipse_45" data-name="Ellipse 45" cx="0.39" cy="0.39" r="0.39" transform="translate(16.11 94.775)" fill="#e6e1cd"/>
    <path id="Path_631" data-name="Path 631" d="M242.823,184.526l.733.392a.158.158,0,0,0,.187-.028h0a.158.158,0,0,0,0-.224l-.473-.473h-.114a.333.333,0,0,0-.333.333Z" transform="translate(-227.165 -89.619)" fill="#ffd0af"/>
    <path id="Path_632" data-name="Path 632" d="M238.166,184.584h-.588l.257-.3a.254.254,0,0,1,.193-.089h.33v.2A.193.193,0,0,1,238.166,184.584Z" transform="translate(-222.26 -89.624)" fill="#ffaf94"/>
    <g id="Group_379" data-name="Group 379" transform="translate(13.379 95.645)">
      <path id="Path_633" data-name="Path 633" d="M280.291,200.642a.318.318,0,1,1,.423-.356.544.544,0,0,1,.113.462c.039.066.087.151.139.252,0-.014,0-.028.006-.043a.262.262,0,1,1,.438.125.448.448,0,0,1-.266.291c.049.112.1.234.143.361,0-.008,0-.015.006-.023a.262.262,0,1,1,.422.172.448.448,0,0,1-.3.262,3.429,3.429,0,0,1,.113.837h-.2a3.156,3.156,0,0,0-.1-.737.444.444,0,0,1-.371-.041.26.26,0,1,1,.236-.385c.005,0,.009.008.014.011-.042-.12-.086-.234-.132-.341a.444.444,0,0,1-.381,0,.259.259,0,1,1,.19-.409c-.054-.1-.1-.19-.14-.254A.545.545,0,0,1,280.291,200.642Z" transform="translate(-275.507 -200.091)" fill="#8cb400"/>
      <path id="Path_634" data-name="Path 634" d="M208.33,200.642a.318.318,0,1,0-.423-.356.544.544,0,0,0-.113.462c-.039.066-.087.151-.139.252a.425.425,0,0,0-.006-.043.262.262,0,1,0-.438.125.448.448,0,0,0,.266.291c-.049.112-.1.234-.143.361,0-.008,0-.015-.006-.023a.262.262,0,1,0-.422.172.448.448,0,0,0,.3.262,3.428,3.428,0,0,0-.113.837h.2a3.156,3.156,0,0,1,.1-.737.444.444,0,0,0,.371-.041.26.26,0,1,0-.236-.385c-.005,0-.009.008-.014.011.042-.12.086-.234.132-.341a.444.444,0,0,0,.381,0,.259.259,0,1,0-.19-.409c.054-.1.1-.19.14-.254A.545.545,0,0,0,208.33,200.642Z" transform="translate(-206.872 -200.091)" fill="#8cb400"/>
    </g>
    <path id="Path_635" data-name="Path 635" d="M195.616,224.55l-4.1-3.511v5.081a1.551,1.551,0,0,0,1.551,1.551h0a1.551,1.551,0,0,0,1.037-.4l1.508-1.357Z" transform="translate(-179.15 -123.932)" fill="#ffe15a"/>
    <path id="Path_636" data-name="Path 636" d="M207.832,238.871l1.185-1.067v-1.767l-2.146-1.839v4.245a.575.575,0,0,0,.96.428Z" transform="translate(-193.525 -136.264)" fill="#ff4b55"/>
    <path id="Path_637" data-name="Path 637" d="M208.432,235.536v2.008l-.975.881V234.7l-.585-.5v4.245a.575.575,0,0,0,.96.428l1.185-1.067v-1.767Z" transform="translate(-193.525 -136.265)" fill="#41479b"/>
    <path id="Path_638" data-name="Path 638" d="M256,224.55l4.1-3.511v5.081a1.551,1.551,0,0,1-1.551,1.551h0a1.551,1.551,0,0,1-1.037-.4L256,225.915Z" transform="translate(-239.466 -123.932)" fill="#ffe15a"/>
    <path id="Path_639" data-name="Path 639" d="M272.538,238.871l-1.185-1.067v-1.767L273.5,234.2v4.245a.575.575,0,0,1-.96.428Z" transform="translate(-253.846 -136.264)" fill="#ff4b55"/>
    <path id="Path_640" data-name="Path 640" d="M271.938,235.536v2.008l.975.881V234.7l.585-.5v4.245a.575.575,0,0,1-.96.428l-1.185-1.067v-1.767Z" transform="translate(-253.846 -136.265)" fill="#41479b"/>
    <ellipse id="Ellipse_46" data-name="Ellipse 46" cx="1.951" cy="2.926" rx="1.951" ry="2.926" transform="translate(14.549 96.271)" fill="#69c3ff"/>
    <path id="Path_641" data-name="Path 641" d="M228.366,241.218h3.511l.2-.78-.889.148a.611.611,0,0,1-.5-.139l-1.009-.865a.5.5,0,0,0-.324-.12h0a.5.5,0,0,0-.352.146l-.634.634v.975Z" transform="translate(-213.62 -141.244)" fill="#009b64"/>
    <path id="Path_642" data-name="Path 642" d="M229.935,240.305l.335-.214-.6-.51a.5.5,0,0,0-.324-.12h0a.5.5,0,0,0-.352.146l-.634.634v.2l.975-.2.172.086A.429.429,0,0,0,229.935,240.305Z" transform="translate(-213.632 -141.255)" fill="#f5f5f5"/>
    <path id="Path_643" data-name="Path 643" d="M228.366,267.1l.2,1.17.975.975h.585l.78-.2.78-.78.2-1.17Z" transform="translate(-213.621 -167.051)" fill="#5aa0e6"/>
    <path id="Path_644" data-name="Path 644" d="M224.371,211.927c-1.183,0-2.146-1.4-2.146-3.121s.962-3.121,2.146-3.121,2.146,1.4,2.146,3.121S225.554,211.927,224.371,211.927Zm0-5.851c-.968,0-1.755,1.225-1.755,2.731s.788,2.731,1.755,2.731,1.755-1.225,1.755-2.731S225.338,206.075,224.371,206.075Z" transform="translate(-207.871 -109.609)" fill="#ffc88c"/>
    <g id="Group_380" data-name="Group 380" transform="translate(13.727 101.845)">
      <path id="Path_645" data-name="Path 645" d="M214.212,295.1a.812.812,0,0,0-1.365,0,.941.941,0,0,1,.615.6,1.146,1.146,0,0,1,.068.391A1,1,0,0,1,214.212,295.1Z" transform="translate(-212.847 -294.73)" fill="#e1e1e1"/>
      <path id="Path_646" data-name="Path 646" d="M221.568,310.215a.655.655,0,0,1-.149.382l-.006,0a.656.656,0,0,1-.149-.382Z" transform="translate(-220.73 -309.227)" fill="#e1e1e1"/>
    </g>
    <path id="Path_647" data-name="Path 647" d="M221.059,308.742H216.18a.1.1,0,0,1-.1-.1v0a.1.1,0,0,1,.1-.1h4.879a.1.1,0,0,1,.1.1v0A.1.1,0,0,1,221.059,308.742Z" transform="translate(-202.12 -205.821)" fill="#966446"/>
    <path id="Path_648" data-name="Path 648" d="M236.851,304.72h-1.96a.385.385,0,0,1-.385-.385v-.01a.385.385,0,0,1,.385-.385h1.96a.385.385,0,0,1,.385.385v.01A.385.385,0,0,1,236.851,304.72Z" transform="translate(-219.371 -201.503)" fill="#be915a"/>
    <path id="Path_649" data-name="Path 649" d="M216.865,308.547h-.683a.1.1,0,1,0,0,.2h.683Z" transform="translate(-202.153 -205.821)" fill="#b9b9b9"/>
    <path id="Path_650" data-name="Path 650" d="M244.5,316.223v1.782l-.78-.222.39-1.56Z" transform="translate(-228.005 -212.955)" fill="#ff4b55"/>
    <path id="Path_651" data-name="Path 651" d="M235.677,316.223l-.39,1.365-.78-.2.585-1.17Z" transform="translate(-219.384 -212.965)" fill="#41479b"/>
    <path id="Path_652" data-name="Path 652" d="M232.021,316.223l-.585.78.585.2.39-.975Z" transform="translate(-216.513 -212.975)" fill="#ffe15a"/>
    <path id="Path_653" data-name="Path 653" d="M256,316.223v1.782l.78-.222-.39-1.56Z" transform="translate(-239.494 -212.955)" fill="#ff4b55"/>
    <path id="Path_654" data-name="Path 654" d="M259.071,316.223l.39,1.365.78-.2-.585-1.17Z" transform="translate(-242.364 -212.965)" fill="#41479b"/>
    <path id="Path_655" data-name="Path 655" d="M265.6,316.223l.585.78-.585.2-.39-.975Z" transform="translate(-248.111 -212.975)" fill="#ffe15a"/>
    <g id="Group_381" data-name="Group 381" transform="translate(12.264 97.006)">
      <path id="Path_656" data-name="Path 656" d="M189.594,222.716l-.28-.283v-1.4h.28Z" transform="translate(-189.314 -221.036)" fill="#41479b"/>
      <path id="Path_657" data-name="Path 657" d="M318.512,222.433l-.28.283v-1.68h.28Z" transform="translate(-310.043 -221.036)" fill="#41479b"/>
    </g>
  </g>
</svg>
