<svg id="uk" xmlns="http://www.w3.org/2000/svg" width="33" height="22" viewBox="0 0 33 22">
  <rect id="Rectangle_252" data-name="Rectangle 252" width="33" height="22" transform="translate(0 0)" fill="#f0f0f0"/>
  <path id="Path_488" data-name="Path 488" d="M18.562,85.33H14.437v8.937H0v4.125H14.437v8.937h4.125V98.392H33V94.267H18.562Z" transform="translate(0 -85.33)" fill="#d80027"/>
  <g id="Group_361" data-name="Group 361" transform="translate(19.856 14.697)">
    <path id="Path_489" data-name="Path 489" d="M393.785,315.358l7.756,4.309v-4.309Z" transform="translate(-388.397 -315.358)" fill="#0052b4"/>
    <path id="Path_490" data-name="Path 490" d="M311.652,315.358l13.144,7.3V320.6l-9.427-5.237Z" transform="translate(-311.652 -315.358)" fill="#0052b4"/>
    <path id="Path_491" data-name="Path 491" d="M321.295,350.356,311.652,345v5.358Z" transform="translate(-311.652 -343.053)" fill="#0052b4"/>
  </g>
  <path id="Path_492" data-name="Path 492" d="M311.652,315.358l13.144,7.3V320.6l-9.427-5.237Z" transform="translate(-291.796 -300.661)" fill="#f0f0f0"/>
  <path id="Path_493" data-name="Path 493" d="M311.652,315.358l13.144,7.3V320.6l-9.427-5.237Z" transform="translate(-291.796 -300.661)" fill="#d80027"/>
  <g id="Group_362" data-name="Group 362" transform="translate(0 14.697)">
    <path id="Path_494" data-name="Path 494" d="M5.927,315.356,0,318.649v-3.293Z" transform="translate(0 -315.356)" fill="#0052b4"/>
    <path id="Path_495" data-name="Path 495" d="M36.963,329.51v6.374H25.491Z" transform="translate(-23.819 -328.581)" fill="#0052b4"/>
  </g>
  <path id="Path_496" data-name="Path 496" d="M9.427,315.358,0,320.6v2.065H0l13.144-7.3Z" transform="translate(0 -300.661)" fill="#d80027"/>
  <g id="Group_363" data-name="Group 363" transform="translate(0 0)">
    <path id="Path_497" data-name="Path 497" d="M7.756,135.267,0,130.958v4.309Z" transform="translate(0 -127.965)" fill="#0052b4"/>
    <path id="Path_498" data-name="Path 498" d="M13.144,92.632,0,85.33v2.065l9.427,5.237Z" transform="translate(0 -85.33)" fill="#0052b4"/>
    <path id="Path_499" data-name="Path 499" d="M53.366,85.33l9.643,5.358V85.33Z" transform="translate(-49.865 -85.33)" fill="#0052b4"/>
  </g>
  <path id="Path_500" data-name="Path 500" d="M13.144,92.632,0,85.33v2.065l9.427,5.237Z" transform="translate(0 -85.33)" fill="#f0f0f0"/>
  <path id="Path_501" data-name="Path 501" d="M13.144,92.632,0,85.33v2.065l9.427,5.237Z" transform="translate(0 -85.33)" fill="#d80027"/>
  <g id="Group_364" data-name="Group 364" transform="translate(19.856 0)">
    <path id="Path_502" data-name="Path 502" d="M421.659,149.739l5.927-3.293v3.293Z" transform="translate(-414.442 -142.436)" fill="#0052b4"/>
    <path id="Path_503" data-name="Path 503" d="M311.652,91.7V85.331h11.472Z" transform="translate(-311.652 -85.331)" fill="#0052b4"/>
  </g>
  <path id="Path_504" data-name="Path 504" d="M315.369,92.632l9.427-5.237V85.33h0l-13.144,7.3Z" transform="translate(-291.796 -85.33)" fill="#d80027"/>
</svg>
