<svg xmlns="http://www.w3.org/2000/svg" width="33" height="22" viewBox="0 0 33 22">
  <g id="us" transform="translate(-86 -594)">
    <g id="Group_359" data-name="Group 359" transform="translate(86 594)">
      <g id="Group_358" data-name="Group 358" transform="translate(0 0)" style="isolation: isolate">
        <g id="united-states" transform="translate(0)">
          <path id="Path_435" data-name="Path 435" d="M32.431,110.276H.569A.574.574,0,0,1,0,109.7V88.855a.574.574,0,0,1,.569-.579H32.431a.574.574,0,0,1,.569.579V109.7A.574.574,0,0,1,32.431,110.276Z" transform="translate(0 -88.276)" fill="#f5f5f5"/>
          <g id="Group_356" data-name="Group 356">
            <path id="Path_436" data-name="Path 436" d="M33,89.911H0V88.835a.564.564,0,0,1,.569-.56H32.431a.564.564,0,0,1,.569.56v1.076Z" transform="translate(0 -88.276)" fill="#ff4b55"/>
            <rect id="Rectangle_238" data-name="Rectangle 238" width="33" height="1.635" transform="translate(0 6.788)" fill="#ff4b55"/>
            <rect id="Rectangle_239" data-name="Rectangle 239" width="33" height="1.635" transform="translate(0 3.394)" fill="#ff4b55"/>
            <path id="Path_437" data-name="Path 437" d="M33,244.733H.569A.564.564,0,0,1,0,244.174V243.1H33Z" transform="translate(0 -232.916)" fill="#ff4b55"/>
            <rect id="Rectangle_240" data-name="Rectangle 240" width="33" height="1.635" transform="translate(0 16.971)" fill="#ff4b55"/>
            <path id="Path_438" data-name="Path 438" d="M32.431,399.556H.569A.564.564,0,0,1,0,399v-1.076H33V399A.564.564,0,0,1,32.431,399.556Z" transform="translate(0 -377.556)" fill="#ff4b55"/>
            <rect id="Rectangle_241" data-name="Rectangle 241" width="33" height="1.635" transform="translate(0 13.577)" fill="#ff4b55"/>
          </g>
          <path id="Path_439" data-name="Path 439" d="M14.546,88.277H.559A.559.559,0,0,0,0,88.836V99.165a.56.56,0,0,0,.559.56H14.546a.56.56,0,0,0,.559-.56V88.836A.56.56,0,0,0,14.546,88.277Z" transform="translate(0 -88.277)" fill="#41479b"/>
          <g id="Group_357" data-name="Group 357" transform="translate(0.903 1.248)">
            <path id="Path_440" data-name="Path 440" d="M14.92,108l.124.371.391,0a.053.053,0,0,1,.031.1l-.315.233.118.373a.053.053,0,0,1-.081.059l-.318-.228-.318.228a.053.053,0,0,1-.081-.059l.118-.373-.315-.233a.053.053,0,0,1,.031-.1l.391,0,.124-.371A.053.053,0,0,1,14.92,108Z" transform="translate(-14.253 -107.969)" fill="#f5f5f5"/>
            <path id="Path_441" data-name="Path 441" d="M14.92,138.66l.124.371.391,0a.053.053,0,0,1,.031.1l-.315.233.118.373a.053.053,0,0,1-.081.059l-.318-.228-.318.228a.053.053,0,0,1-.081-.059l.118-.373-.315-.233a.053.053,0,0,1,.031-.1l.391,0,.124-.371A.053.053,0,0,1,14.92,138.66Z" transform="translate(-14.253 -136.681)" fill="#f5f5f5"/>
            <path id="Path_442" data-name="Path 442" d="M14.92,169.314l.124.371.391,0a.053.053,0,0,1,.031.1l-.315.233.118.373a.053.053,0,0,1-.081.059l-.318-.228-.318.228a.053.053,0,0,1-.081-.059l.118-.373-.315-.233a.053.053,0,0,1,.031-.1l.391,0,.124-.371A.053.053,0,0,1,14.92,169.314Z" transform="translate(-14.253 -165.392)" fill="#f5f5f5"/>
            <path id="Path_443" data-name="Path 443" d="M14.92,199.968l.124.371.391,0a.053.053,0,0,1,.031.1l-.315.233.118.373a.053.053,0,0,1-.081.059l-.318-.228-.318.228a.053.053,0,0,1-.081-.059l.118-.373-.315-.233a.053.053,0,0,1,.031-.1l.391,0,.124-.371A.053.053,0,0,1,14.92,199.968Z" transform="translate(-14.253 -194.104)" fill="#f5f5f5"/>
            <path id="Path_444" data-name="Path 444" d="M14.92,230.621l.124.371.391,0a.053.053,0,0,1,.031.1l-.315.233.118.373a.053.053,0,0,1-.081.059l-.318-.228-.318.228a.053.053,0,0,1-.081-.059l.118-.373-.315-.233a.053.053,0,0,1,.031-.1l.391,0,.124-.371A.053.053,0,0,1,14.92,230.621Z" transform="translate(-14.253 -222.814)" fill="#f5f5f5"/>
            <path id="Path_445" data-name="Path 445" d="M38.713,123.035l.124.371.391,0a.053.053,0,0,1,.031.1l-.315.233.118.373a.053.053,0,0,1-.081.059l-.318-.228-.318.228a.053.053,0,0,1-.081-.059l.118-.373-.315-.233a.053.053,0,0,1,.031-.1l.391,0,.124-.371A.053.053,0,0,1,38.713,123.035Z" transform="translate(-36.538 -122.046)" fill="#f5f5f5"/>
            <path id="Path_446" data-name="Path 446" d="M38.713,153.689l.124.371.391,0a.053.053,0,0,1,.031.1l-.315.233.118.373a.053.053,0,0,1-.081.059l-.318-.228-.318.228a.053.053,0,0,1-.081-.059l.118-.373-.315-.233a.053.053,0,0,1,.031-.1l.391,0,.124-.371A.053.053,0,0,1,38.713,153.689Z" transform="translate(-36.538 -150.757)" fill="#f5f5f5"/>
            <path id="Path_447" data-name="Path 447" d="M38.713,184.343l.124.371.391,0a.053.053,0,0,1,.031.1l-.315.233.118.373a.053.053,0,0,1-.081.059l-.318-.228-.318.228a.053.053,0,0,1-.081-.059l.118-.373-.315-.233a.053.053,0,0,1,.031-.1l.391,0,.124-.371A.053.053,0,0,1,38.713,184.343Z" transform="translate(-36.538 -179.469)" fill="#f5f5f5"/>
            <path id="Path_448" data-name="Path 448" d="M38.713,215l.124.371.391,0a.053.053,0,0,1,.031.1l-.315.233.118.373a.053.053,0,0,1-.081.059l-.318-.228-.318.228a.053.053,0,0,1-.081-.059l.118-.373-.315-.233a.053.053,0,0,1,.031-.1l.391,0,.124-.371A.053.053,0,0,1,38.713,215Z" transform="translate(-36.538 -208.181)" fill="#f5f5f5"/>
            <path id="Path_449" data-name="Path 449" d="M62.506,108l.124.371.391,0a.053.053,0,0,1,.031.1l-.315.233.118.373a.053.053,0,0,1-.081.059l-.318-.228-.318.228a.053.053,0,0,1-.081-.059l.118-.373-.315-.233a.053.053,0,0,1,.031-.1l.391,0,.124-.371A.053.053,0,0,1,62.506,108Z" transform="translate(-58.823 -107.969)" fill="#f5f5f5"/>
            <path id="Path_450" data-name="Path 450" d="M62.506,138.66l.124.371.391,0a.053.053,0,0,1,.031.1l-.315.233.118.373a.053.053,0,0,1-.081.059l-.318-.228-.318.228a.053.053,0,0,1-.081-.059l.118-.373-.315-.233a.053.053,0,0,1,.031-.1l.391,0,.124-.371A.053.053,0,0,1,62.506,138.66Z" transform="translate(-58.823 -136.681)" fill="#f5f5f5"/>
            <path id="Path_451" data-name="Path 451" d="M62.506,169.314l.124.371.391,0a.053.053,0,0,1,.031.1l-.315.233.118.373a.053.053,0,0,1-.081.059l-.318-.228-.318.228a.053.053,0,0,1-.081-.059l.118-.373-.315-.233a.053.053,0,0,1,.031-.1l.391,0,.124-.371A.053.053,0,0,1,62.506,169.314Z" transform="translate(-58.823 -165.392)" fill="#f5f5f5"/>
            <path id="Path_452" data-name="Path 452" d="M62.506,199.968l.124.371.391,0a.053.053,0,0,1,.031.1l-.315.233.118.373a.053.053,0,0,1-.081.059l-.318-.228-.318.228a.053.053,0,0,1-.081-.059l.118-.373-.315-.233a.053.053,0,0,1,.031-.1l.391,0,.124-.371A.053.053,0,0,1,62.506,199.968Z" transform="translate(-58.823 -194.103)" fill="#f5f5f5"/>
            <path id="Path_453" data-name="Path 453" d="M62.506,230.621l.124.371.391,0a.053.053,0,0,1,.031.1l-.315.233.118.373a.053.053,0,0,1-.081.059l-.318-.228-.318.228a.053.053,0,0,1-.081-.059l.118-.373-.315-.233a.053.053,0,0,1,.031-.1l.391,0,.124-.371A.053.053,0,0,1,62.506,230.621Z" transform="translate(-58.823 -222.814)" fill="#f5f5f5"/>
            <path id="Path_454" data-name="Path 454" d="M86.3,123.035l.124.371.391,0a.053.053,0,0,1,.031.1l-.315.233.118.373a.053.053,0,0,1-.081.059l-.318-.228-.318.228a.053.053,0,0,1-.081-.059l.118-.373-.315-.233a.053.053,0,0,1,.031-.1l.391,0,.124-.371A.053.053,0,0,1,86.3,123.035Z" transform="translate(-81.109 -122.046)" fill="#f5f5f5"/>
            <path id="Path_455" data-name="Path 455" d="M86.3,153.689l.124.371.391,0a.053.053,0,0,1,.031.1l-.315.233.118.373a.053.053,0,0,1-.081.059l-.318-.228-.318.228a.053.053,0,0,1-.081-.059l.118-.373-.315-.233a.053.053,0,0,1,.031-.1l.391,0,.124-.371A.053.053,0,0,1,86.3,153.689Z" transform="translate(-81.109 -150.757)" fill="#f5f5f5"/>
            <path id="Path_456" data-name="Path 456" d="M86.3,184.343l.124.371.391,0a.053.053,0,0,1,.031.1l-.315.233.118.373a.053.053,0,0,1-.081.059l-.318-.228-.318.228a.053.053,0,0,1-.081-.059l.118-.373-.315-.233a.053.053,0,0,1,.031-.1l.391,0,.124-.371A.053.053,0,0,1,86.3,184.343Z" transform="translate(-81.109 -179.469)" fill="#f5f5f5"/>
            <path id="Path_457" data-name="Path 457" d="M86.3,215l.124.371.391,0a.053.053,0,0,1,.031.1l-.315.233.118.373a.053.053,0,0,1-.081.059l-.318-.228-.318.228a.053.053,0,0,1-.081-.059l.118-.373-.315-.233a.053.053,0,0,1,.031-.1l.391,0L86.2,215A.053.053,0,0,1,86.3,215Z" transform="translate(-81.109 -208.181)" fill="#f5f5f5"/>
            <path id="Path_458" data-name="Path 458" d="M110.092,108l.124.371.391,0a.053.053,0,0,1,.031.1l-.315.233.118.373a.053.053,0,0,1-.081.059l-.319-.228-.318.228a.053.053,0,0,1-.081-.059l.118-.373-.315-.233a.053.053,0,0,1,.031-.1l.391,0,.124-.371A.053.053,0,0,1,110.092,108Z" transform="translate(-103.393 -107.969)" fill="#f5f5f5"/>
            <path id="Path_459" data-name="Path 459" d="M110.092,138.66l.124.371.391,0a.053.053,0,0,1,.031.1l-.315.233.118.373a.053.053,0,0,1-.081.059l-.319-.228-.318.228a.053.053,0,0,1-.081-.059l.118-.373-.315-.233a.053.053,0,0,1,.031-.1l.391,0,.124-.371A.053.053,0,0,1,110.092,138.66Z" transform="translate(-103.393 -136.681)" fill="#f5f5f5"/>
            <path id="Path_460" data-name="Path 460" d="M110.092,169.314l.124.371.391,0a.053.053,0,0,1,.031.1l-.315.233.118.373a.053.053,0,0,1-.081.059l-.319-.228-.318.228a.053.053,0,0,1-.081-.059l.118-.373-.315-.233a.053.053,0,0,1,.031-.1l.391,0,.124-.371A.053.053,0,0,1,110.092,169.314Z" transform="translate(-103.393 -165.392)" fill="#f5f5f5"/>
            <path id="Path_461" data-name="Path 461" d="M110.092,199.968l.124.371.391,0a.053.053,0,0,1,.031.1l-.315.233.118.373a.053.053,0,0,1-.081.059l-.319-.228-.318.228a.053.053,0,0,1-.081-.059l.118-.373-.315-.233a.053.053,0,0,1,.031-.1l.391,0,.124-.371A.053.053,0,0,1,110.092,199.968Z" transform="translate(-103.393 -194.103)" fill="#f5f5f5"/>
            <path id="Path_462" data-name="Path 462" d="M110.092,230.621l.124.371.391,0a.053.053,0,0,1,.031.1l-.315.233.118.373a.053.053,0,0,1-.081.059l-.319-.228-.318.228a.053.053,0,0,1-.081-.059l.118-.373-.315-.233a.053.053,0,0,1,.031-.1l.391,0,.124-.371A.053.053,0,0,1,110.092,230.621Z" transform="translate(-103.393 -222.814)" fill="#f5f5f5"/>
            <path id="Path_463" data-name="Path 463" d="M133.886,123.035l.124.371.391,0a.053.053,0,0,1,.031.1l-.315.233.118.373a.053.053,0,0,1-.081.059l-.318-.228-.318.228a.053.053,0,0,1-.081-.059l.118-.373-.315-.233a.053.053,0,0,1,.031-.1l.391,0,.124-.371A.053.053,0,0,1,133.886,123.035Z" transform="translate(-125.679 -122.046)" fill="#f5f5f5"/>
            <path id="Path_464" data-name="Path 464" d="M133.886,153.689l.124.371.391,0a.053.053,0,0,1,.031.1l-.315.233.118.373a.053.053,0,0,1-.081.059l-.318-.228-.318.228a.053.053,0,0,1-.081-.059l.118-.373-.315-.233a.053.053,0,0,1,.031-.1l.391,0,.124-.371A.053.053,0,0,1,133.886,153.689Z" transform="translate(-125.679 -150.757)" fill="#f5f5f5"/>
            <path id="Path_465" data-name="Path 465" d="M133.886,184.343l.124.371.391,0a.053.053,0,0,1,.031.1l-.315.233.118.373a.053.053,0,0,1-.081.059l-.318-.228-.318.228a.053.053,0,0,1-.081-.059l.118-.373-.315-.233a.053.053,0,0,1,.031-.1l.391,0,.124-.371A.053.053,0,0,1,133.886,184.343Z" transform="translate(-125.679 -179.469)" fill="#f5f5f5"/>
            <path id="Path_466" data-name="Path 466" d="M133.886,215l.124.371.391,0a.053.053,0,0,1,.031.1l-.315.233.118.373a.053.053,0,0,1-.081.059l-.318-.228-.318.228a.053.053,0,0,1-.081-.059l.118-.373-.315-.233a.053.053,0,0,1,.031-.1l.391,0,.124-.371A.053.053,0,0,1,133.886,215Z" transform="translate(-125.679 -208.181)" fill="#f5f5f5"/>
            <path id="Path_467" data-name="Path 467" d="M157.68,108l.124.371.391,0a.053.053,0,0,1,.031.1l-.315.233.118.373a.053.053,0,0,1-.081.059l-.318-.228-.318.228a.053.053,0,0,1-.081-.059l.118-.373-.315-.233a.053.053,0,0,1,.031-.1l.391,0,.124-.371A.053.053,0,0,1,157.68,108Z" transform="translate(-147.965 -107.969)" fill="#f5f5f5"/>
            <path id="Path_468" data-name="Path 468" d="M157.68,138.66l.124.371.391,0a.053.053,0,0,1,.031.1l-.315.233.118.373a.053.053,0,0,1-.081.059l-.318-.228-.318.228a.053.053,0,0,1-.081-.059l.118-.373-.315-.233a.053.053,0,0,1,.031-.1l.391,0,.124-.371A.053.053,0,0,1,157.68,138.66Z" transform="translate(-147.965 -136.681)" fill="#f5f5f5"/>
            <path id="Path_469" data-name="Path 469" d="M157.68,169.314l.124.371.391,0a.053.053,0,0,1,.031.1l-.315.233.118.373a.053.053,0,0,1-.081.059l-.318-.228-.318.228a.053.053,0,0,1-.081-.059l.118-.373-.315-.233a.053.053,0,0,1,.031-.1l.391,0,.124-.371A.053.053,0,0,1,157.68,169.314Z" transform="translate(-147.965 -165.392)" fill="#f5f5f5"/>
            <path id="Path_470" data-name="Path 470" d="M157.68,199.968l.124.371.391,0a.053.053,0,0,1,.031.1l-.315.233.118.373a.053.053,0,0,1-.081.059l-.318-.228-.318.228a.053.053,0,0,1-.081-.059l.118-.373-.315-.233a.053.053,0,0,1,.031-.1l.391,0,.124-.371A.053.053,0,0,1,157.68,199.968Z" transform="translate(-147.965 -194.103)" fill="#f5f5f5"/>
            <path id="Path_471" data-name="Path 471" d="M157.68,230.621l.124.371.391,0a.053.053,0,0,1,.031.1l-.315.233.118.373a.053.053,0,0,1-.081.059l-.318-.228-.318.228a.053.053,0,0,1-.081-.059l.118-.373-.315-.233a.053.053,0,0,1,.031-.1l.391,0,.124-.371A.053.053,0,0,1,157.68,230.621Z" transform="translate(-147.965 -222.814)" fill="#f5f5f5"/>
            <path id="Path_472" data-name="Path 472" d="M181.473,123.035l.124.371.391,0a.053.053,0,0,1,.031.1l-.315.233.118.373a.053.053,0,0,1-.081.059l-.318-.228-.318.228a.053.053,0,0,1-.081-.059l.118-.373-.315-.233a.053.053,0,0,1,.031-.1l.391,0,.124-.371A.053.053,0,0,1,181.473,123.035Z" transform="translate(-170.25 -122.046)" fill="#f5f5f5"/>
            <path id="Path_473" data-name="Path 473" d="M181.473,153.689l.124.371.391,0a.053.053,0,0,1,.031.1l-.315.233.118.373a.053.053,0,0,1-.081.059l-.318-.228-.318.228a.053.053,0,0,1-.081-.059l.118-.373-.315-.233a.053.053,0,0,1,.031-.1l.391,0,.124-.371A.053.053,0,0,1,181.473,153.689Z" transform="translate(-170.25 -150.757)" fill="#f5f5f5"/>
            <path id="Path_474" data-name="Path 474" d="M181.473,184.343l.124.371.391,0a.053.053,0,0,1,.031.1l-.315.233.118.373a.053.053,0,0,1-.081.059l-.318-.228-.318.228a.053.053,0,0,1-.081-.059l.118-.373-.315-.233a.053.053,0,0,1,.031-.1l.391,0,.124-.371A.053.053,0,0,1,181.473,184.343Z" transform="translate(-170.25 -179.469)" fill="#f5f5f5"/>
            <path id="Path_475" data-name="Path 475" d="M181.473,215l.124.371.391,0a.053.053,0,0,1,.031.1l-.315.233.118.373a.053.053,0,0,1-.081.059l-.318-.228-.318.228a.053.053,0,0,1-.081-.059l.118-.373-.315-.233a.053.053,0,0,1,.031-.1l.391,0,.124-.371A.053.053,0,0,1,181.473,215Z" transform="translate(-170.25 -208.181)" fill="#f5f5f5"/>
            <path id="Path_476" data-name="Path 476" d="M205.267,108l.124.371.391,0a.053.053,0,0,1,.031.1l-.315.233.118.373a.053.053,0,0,1-.081.059l-.318-.228-.318.228a.053.053,0,0,1-.081-.059l.118-.373-.315-.233a.053.053,0,0,1,.031-.1l.391,0,.124-.371A.053.053,0,0,1,205.267,108Z" transform="translate(-192.536 -107.969)" fill="#f5f5f5"/>
            <path id="Path_477" data-name="Path 477" d="M205.267,138.66l.124.371.391,0a.053.053,0,0,1,.031.1l-.315.233.118.373a.053.053,0,0,1-.081.059l-.318-.228-.318.228a.053.053,0,0,1-.081-.059l.118-.373-.315-.233a.053.053,0,0,1,.031-.1l.391,0,.124-.371A.053.053,0,0,1,205.267,138.66Z" transform="translate(-192.536 -136.681)" fill="#f5f5f5"/>
            <path id="Path_478" data-name="Path 478" d="M205.267,169.314l.124.371.391,0a.053.053,0,0,1,.031.1l-.315.233.118.373a.053.053,0,0,1-.081.059l-.318-.228-.318.228a.053.053,0,0,1-.081-.059l.118-.373-.315-.233a.053.053,0,0,1,.031-.1l.391,0,.124-.371A.053.053,0,0,1,205.267,169.314Z" transform="translate(-192.536 -165.392)" fill="#f5f5f5"/>
            <path id="Path_479" data-name="Path 479" d="M205.267,199.968l.124.371.391,0a.053.053,0,0,1,.031.1l-.315.233.118.373a.053.053,0,0,1-.081.059l-.318-.228-.318.228a.053.053,0,0,1-.081-.059l.118-.373-.315-.233a.053.053,0,0,1,.031-.1l.391,0,.124-.371A.053.053,0,0,1,205.267,199.968Z" transform="translate(-192.536 -194.103)" fill="#f5f5f5"/>
            <path id="Path_480" data-name="Path 480" d="M205.267,230.621l.124.371.391,0a.053.053,0,0,1,.031.1l-.315.233.118.373a.053.053,0,0,1-.081.059l-.318-.228-.318.228a.053.053,0,0,1-.081-.059l.118-.373-.315-.233a.053.053,0,0,1,.031-.1l.391,0,.124-.371A.053.053,0,0,1,205.267,230.621Z" transform="translate(-192.536 -222.814)" fill="#f5f5f5"/>
          </g>
        </g>
      </g>
    </g>
  </g>
</svg>
