<svg id="black-mail-icon" xmlns="http://www.w3.org/2000/svg" width="27.595" height="21" viewBox="0 0 27.595 21">
  <path id="Path_275" data-name="Path 275" d="M24.226,57.75H3.374A3.377,3.377,0,0,0,0,61.124V75.376A3.377,3.377,0,0,0,3.374,78.75H24.22a3.377,3.377,0,0,0,3.374-3.374V61.13A3.374,3.374,0,0,0,24.226,57.75Zm1.833,17.626a1.835,1.835,0,0,1-1.833,1.833H3.374a1.835,1.835,0,0,1-1.833-1.833V61.13A1.835,1.835,0,0,1,3.374,59.3H24.22a1.835,1.835,0,0,1,1.833,1.833V75.376Z" transform="translate(0 -57.75)"/>
  <path id="Path_276" data-name="Path 276" d="M69.972,116.3l6.749-6.052a.772.772,0,0,0-1.033-1.148l-9.307,8.353-1.816-1.622c-.006-.006-.011-.011-.011-.017a1.141,1.141,0,0,0-.126-.108L57.04,109.1a.772.772,0,1,0-1.028,1.153l6.829,6.1-6.8,6.366a.774.774,0,0,0-.034,1.091.789.789,0,0,0,.565.246.772.772,0,0,0,.525-.206L64,117.4l1.873,1.673a.769.769,0,0,0,1.028-.006l1.924-1.724,6.863,6.52a.773.773,0,0,0,1.091-.029.774.774,0,0,0-.029-1.091Z" transform="translate(-52.569 -105.982)"/>
</svg>
