<svg xmlns="http://www.w3.org/2000/svg" width="261.689" height="138" viewBox="0 0 261.689 138">
  <g id="black-gear-icon" transform="translate(0 -121)">
    <g id="Group_556" data-name="Group 556" transform="translate(77.178 197.667)">
      <g id="Group_555" data-name="Group 555">
        <path id="Path_1244" data-name="Path 1244" d="M204.667,271A53.732,53.732,0,0,0,151,324.667a52.98,52.98,0,0,0,.775,7.667H174a7.662,7.662,0,0,0,7.667-7.667,23,23,0,1,1,46,0,7.662,7.662,0,0,0,7.667,7.667h22.225a52.982,52.982,0,0,0,.775-7.667A53.732,53.732,0,0,0,204.667,271Z" transform="translate(-151 -271)"/>
      </g>
    </g>
    <g id="Group_558" data-name="Group 558" transform="translate(0 121)">
      <g id="Group_557" data-name="Group 557">
        <path id="Path_1245" data-name="Path 1245" d="M255.886,228.565l-12.555-3.144q-.887-3.807-2.066-7.622l9.321-9.007a7.661,7.661,0,0,0,1.31-9.344l-15.333-26.564a7.706,7.706,0,0,0-8.752-3.542l-12.955,3.564q-2.7-2.887-5.585-5.585l3.564-12.444a7.675,7.675,0,0,0-3.541-8.752l-26.564-15.333a7.684,7.684,0,0,0-9.344,1.31l-9.007,9.321q-3.807-1.179-7.622-2.066L153.612,126.8a7.664,7.664,0,0,0-7.434-5.8H115.511a7.665,7.665,0,0,0-7.435,5.8l-3.144,12.555q-3.807.887-7.622,2.066L88.3,132.1a7.668,7.668,0,0,0-9.344-1.31L52.4,146.127a7.676,7.676,0,0,0-3.541,8.752l3.564,12.444q-2.887,2.7-5.585,5.585l-12.955-3.564a7.724,7.724,0,0,0-8.752,3.541L9.793,199.449a7.661,7.661,0,0,0,1.31,9.344l9.321,9.007q-1.179,3.807-2.066,7.622L5.8,228.566A7.664,7.664,0,0,0,0,236v15.333A7.662,7.662,0,0,0,7.667,259H62.619a67.538,67.538,0,0,1-.775-7.667,69,69,0,0,1,138,0A67.537,67.537,0,0,1,199.07,259h54.953a7.662,7.662,0,0,0,7.667-7.667V236A7.665,7.665,0,0,0,255.886,228.565Z" transform="translate(0 -121)"/>
      </g>
    </g>
  </g>
</svg>
