<svg xmlns="http://www.w3.org/2000/svg" width="433.586" height="438.944" viewBox="0 0 433.586 438.944">
  <g id="black-pcr-select-swoosh" transform="matrix(0.966, 0.259, -0.259, 0.966, -69.069, -331.46)" opacity="0.9">
    <path id="Path_17094" data-name="Path 17094" d="M588.787,418.546l.663,2.484c.414,1.643,1.035,4.086,1.711,7.3a171.006,171.006,0,0,1,3.616,28.281c.055,1.532.11,3.119.138,4.734.027,1.642-.028,3.271-.028,4.983l-.041,2.567c-.014.869.014,1.739-.055,2.637l-.345,5.452c-.055.925-.11,1.864-.18,2.816l-.317,2.857c-.235,1.918-.428,3.878-.677,5.866-.69,3.948-1.228,8.088-2.222,12.27-.828,4.224-2.057,8.489-3.257,12.905q-1.056,3.271-2.14,6.625c-.345,1.132-.787,2.236-1.2,3.354l-1.27,3.367a175.931,175.931,0,0,1-13.5,27.274,173.837,173.837,0,0,1-19.889,26.556,173.669,173.669,0,0,1-96.852,54.2l-2.485.469-1.242.248-1.242.166-5.038.718-2.512.345-2.54.235-5.107.455-1.27.11-1.284.055-2.567.1c-1.725.069-3.437.138-5.162.193l-5.162-.055-2.526-.028-1.27-.014-1.311-.083-5.272-.318c-.87-.055-1.767-.11-2.636-.179l-2.609-.29-5.217-.593c-.87-.083-1.725-.249-2.595-.387L391.3,635.8l-2.609-.428c-.869-.152-1.739-.262-2.595-.469l-5.176-1.118-2.595-.566-2.568-.69-5.148-1.38c-.856-.207-1.7-.524-2.54-.787l-2.54-.814-2.553-.828-1.27-.415c-.414-.138-.828-.3-1.256-.469l-5.01-1.891c-.828-.331-1.684-.607-2.5-.98l-2.457-1.077-4.941-2.154-4.817-2.388-2.43-1.2c-.8-.4-1.573-.869-2.36-1.3l-4.721-2.623c-.8-.428-1.56-.924-2.319-1.394l-2.3-1.436-2.3-1.436-1.146-.718-1.118-.759c-2.968-2.071-5.99-4.058-8.834-6.322-1.422-1.1-2.9-2.181-4.292-3.326l-4.168-3.506c-.69-.58-1.394-1.16-2.071-1.767l-2-1.849-3.989-3.7a188.568,188.568,0,0,1-14.645-16.135l-1.711-2.126-.856-1.063-.8-1.1-3.216-4.389c-1.1-1.449-2.057-3-3.078-4.5-.98-1.532-2.015-3.023-2.968-4.568a177.928,177.928,0,0,1-26.39-81.269c-.193-1.767-.207-3.533-.29-5.3s-.138-3.52-.207-5.272c0-.207-.014-.014,0-.538v-.953l.014-1.256.028-2.512.028-2.512c.014-.828.014-1.643.083-2.568l.331-5.341.166-2.664c.069-.9.193-1.739.276-2.609.4-3.451.718-6.9,1.339-10.3a181.851,181.851,0,0,1,80.5-123.395,184.738,184.738,0,0,1,28.281-15.031l3.52-1.436,1.739-.718c.29-.11.58-.235.87-.345l.883-.318c2.346-.828,4.651-1.642,6.943-2.443,2.291-.759,4.582-1.394,6.846-2.084,2.236-.7,4.486-1.214,6.708-1.767,4.4-1.173,8.751-1.9,12.947-2.719,2.1-.359,4.168-.607,6.2-.911l3.023-.414c1.008-.138,2-.193,2.981-.29l5.769-.524c.952-.1,1.877-.124,2.8-.152l2.747-.11,2.692-.11,1.311-.041.649-.028h.165l.262-.014h.3l2.388-.013,2.554.027a183.364,183.364,0,0,1,30.338,2.981c3.478.621,6.114,1.228,7.881,1.615l2.691.635a12.566,12.566,0,1,1-5.783,24.458l-.276-.069-.221-.055-2.3-.621c-1.532-.373-3.8-.966-6.777-1.588s-6.68-1.339-11.056-1.932c-2.195-.318-4.555-.58-7.081-.828s-5.244-.428-8.06-.566l-2.1-.069-2.388-.055-4.555.042-2.4.013c-.8.014-1.615.014-2.443.083-1.643.1-3.327.194-5.052.3-.856.055-1.725.083-2.609.179l-2.636.3c-1.78.207-3.6.373-5.452.621-3.658.635-7.495,1.146-11.373,2.071-1.946.428-3.934.8-5.907,1.38-1.988.552-4.016,1.049-6.046,1.643-2.029.649-4.072,1.311-6.156,1.987l-.773.248c-.262.083-.511.193-.773.276l-1.546.594-3.119,1.173A161.591,161.591,0,0,0,261.708,433.963c-.662,3.051-1.021,6.17-1.491,9.289-.1.773-.235,1.56-.3,2.333l-.221,2.3-.428,4.61c-.083.746-.1,1.6-.138,2.443l-.1,2.5-.1,2.512-.055,1.256-.014.635-.014.318v.1c.014,1.6.041,3.2.055,4.8s-.014,3.23.124,4.831a163.094,163.094,0,0,0,22.125,75.141c.842,1.449,1.753,2.857,2.637,4.279s1.725,2.885,2.719,4.251l2.857,4.141.718,1.049.759,1.007,1.532,2a174.087,174.087,0,0,0,13.168,15.362l3.616,3.547,1.808,1.767c.621.58,1.256,1.132,1.891,1.7l3.782,3.382c1.284,1.1,2.622,2.126,3.92,3.2,2.581,2.195,5.369,4.113,8.074,6.128l1.021.745,1.063.7,2.112,1.394,2.112,1.408c.7.455,1.394.939,2.126,1.353l4.361,2.6c.718.414,1.436.869,2.181,1.27l2.236,1.187,4.458,2.374,4.568,2.139,2.291,1.077c.745.372,1.546.649,2.319.98l4.651,1.919c.386.165.773.331,1.173.483l1.187.414,2.36.842,2.374.841c.787.263,1.574.58,2.374.8l4.8,1.435,2.4.718,2.43.607,4.858,1.187c.8.221,1.629.345,2.443.511l2.443.483,2.457.469c.815.152,1.615.331,2.443.428l4.914.7,2.457.345c.814.083,1.629.152,2.443.221l4.858.456,1.215.11,1.27.041,2.526.1,4.927.207,4.914-.055,2.443-.027,1.215-.014,1.228-.069,4.859-.3,2.429-.151L442,628.51l4.8-.552,1.2-.124,1.2-.193,2.374-.387a169.359,169.359,0,0,0,114.782-75.017,173.175,173.175,0,0,0,13.968-26.349l1.339-3.271c.441-1.09.911-2.153,1.27-3.257q1.16-3.272,2.291-6.46c1.3-4.306,2.636-8.475,3.561-12.616,1.1-4.113,1.739-8.171,2.526-12.063.3-1.96.566-3.892.829-5.783l.4-2.816c.11-.925.18-1.85.262-2.761l.483-5.383c.11-.87.1-1.753.138-2.622l.11-2.567c.055-1.684.152-3.354.166-4.941s.014-3.175-.013-4.707a170.439,170.439,0,0,0-2.8-28.254c-.58-3.23-1.146-5.687-1.5-7.343Z" transform="translate(0 0)"/>
  </g>
</svg>
