<svg id="world" xmlns="http://www.w3.org/2000/svg" width="18.581" height="18.584" viewBox="0 0 18.581 18.584">
  <g id="Group_2" data-name="Group 2">
    <path id="Path_5" data-name="Path 5" d="M22.78,5.416,22.5,5.5l-1.481.132L20.6,6.3l-.3-.1L19.121,5.145l-.171-.553L18.722,4l-.741-.664-.874-.171-.02.4.856.835.419.493-.471.246-.383-.113-.574-.24.02-.463-.754-.31-.25,1.089-.76.172.075.608.99.19.171-.971.817.121.38.222h.609l.417.835,1.106,1.122-.081.436-.891-.114-1.54.778-1.109,1.33-.144.589h-.4l-.742-.342-.721.342.179.76.314-.361.551-.017-.038.683.457.134.456.512.745-.209.851.134.988.266.493.058.836.949,1.614.949-1.044,1.995-1.1.512-.418,1.14-1.595,1.065-.17.614A9.28,9.28,0,0,0,22.78,5.416Z" transform="translate(-5.773 -1.294)"/>
    <path id="Path_6" data-name="Path 6" d="M10.363,17.224,9.686,15.97l.621-1.294-.621-.186-.7-.7-1.545-.347L6.93,12.37v.637H6.7L5.373,11.2V9.718L4.4,8.131l-1.55.276H1.8l-.525-.344.67-.531-.668.154A9.279,9.279,0,0,0,9.294,21.66a9.727,9.727,0,0,0,1.166-.081l-.1-1.126s.427-1.672.427-1.728S10.363,17.224,10.363,17.224Z" transform="translate(-0.004 -3.076)"/>
    <path id="Path_7" data-name="Path 7" d="M4.923,3l1.65-.23.761-.417.856.247L9.558,2.52l.469-.736.683.112,1.659-.156.457-.5.645-.431.912.137.332-.05A9.261,9.261,0,0,0,3.6,3.378h0ZM11.154.924,12.1.4l.609.352-.882.671-.842.085-.379-.246ZM8.343,1l.419.175L9.31,1l.3.518L8.343,1.85l-.609-.356S8.33,1.111,8.343,1Z" transform="translate(-1.471)"/>
  </g>
</svg>
