<svg xmlns="http://www.w3.org/2000/svg" width="18.7" height="20" viewBox="0 0 18.7 20">
  <g id="Group_428" data-name="Group 428" transform="translate(-83.133 -774.965)">
    <path id="Path_380" data-name="Path 380" d="M84.412,793.976a3.677,3.677,0,0,1-1.118-2.638h0a3.669,3.669,0,0,1,1.118-2.634h0l5.683-5.55,5.108-4.987h0a2.43,2.43,0,0,1,1.7-.737h0a2.209,2.209,0,0,1,2.222,2.151h0a2.338,2.338,0,0,1-.766,1.671h0L88.176,791.2h0a.613.613,0,0,1-.853,0h0a.579.579,0,0,1,0-.833h0l4.631-4.522h0l5.556-5.426h0a1.173,1.173,0,0,0,.413-.839h0a.95.95,0,0,0-.3-.68h0a1.035,1.035,0,0,0-.713-.294h0a1.208,1.208,0,0,0-.851.392h0l-5.108,4.988h0l-5.683,5.549a2.506,2.506,0,0,0-.765,1.8h0a2.509,2.509,0,0,0,.765,1.805h0a2.146,2.146,0,0,0,1.529.644h0a2.828,2.828,0,0,0,1.939-.864h0L99.6,782.309a3.3,3.3,0,0,0,1.025-2.321h0a3.841,3.841,0,0,0-1.35-2.748h0a3.569,3.569,0,0,0-2.442-1.1h0a3.417,3.417,0,0,0-2.407,1.114h0L84.162,787.281h0a.614.614,0,0,1-.853,0h0a.58.58,0,0,1,0-.833h0l10.266-10.025a4.642,4.642,0,0,1,3.26-1.459h0a4.779,4.779,0,0,1,3.294,1.443h0a5,5,0,0,1,1.7,3.58h0a4.464,4.464,0,0,1-1.378,3.154h0L89.585,793.756a4.04,4.04,0,0,1-2.791,1.209h-.01a3.379,3.379,0,0,1-2.372-.989Z" transform="translate(0 0)"/>
  </g>
</svg>
