<svg id="black-award-icon" xmlns="http://www.w3.org/2000/svg" width="26.179" height="36.321" viewBox="0 0 26.179 36.321">
  <path id="Path_17098" data-name="Path 17098" d="M0,10.2Z" transform="translate(2.884 2.889)" fill="#fff"/>
  <path id="Path_286" data-name="Path 286" d="M4463.883,331.98l4.027,10.82,2.876-3.671,4.547.877-3.972-10.957Z" transform="translate(-4450.199 -306.479)"/>
  <path id="Path_287" data-name="Path 287" d="M4103.805,331.98l-4.026,10.82-2.876-3.671-4.547.877,3.972-10.957Z" transform="translate(-4091.412 -306.479)"/>
  <g id="Group_278" data-name="Group 278">
    <path id="Path_288" data-name="Path 288" d="M4066.617-310.8c-.1-.251-.2-.486-.294-.726-.032-.084-.076-.1-.153-.072-.106.033-.214.06-.322.087a.228.228,0,0,1-.3-.166q-.247-.9-.484-1.793c-.045-.171.025-.272.2-.324.13-.038.26-.074.406-.115-.023-.177-.044-.353-.069-.529-.049-.351-.05-.351-.406-.353-.276,0-.342-.068-.342-.345q0-.858,0-1.716c0-.214.085-.3.3-.305h.015c.129-.007.3.033.374-.034s.051-.245.069-.374c.021-.153.042-.306.064-.47-.14-.039-.274-.075-.408-.114-.175-.05-.246-.154-.2-.324q.233-.891.478-1.779a.232.232,0,0,1,.31-.179c.108.026.216.053.322.086.077.024.121.014.154-.071.091-.239.192-.475.295-.726-.122-.071-.247-.142-.37-.217a.24.24,0,0,1-.1-.368q.454-.795.915-1.585a.239.239,0,0,1,.36-.092c.127.069.251.142.38.216l.544-.711c-.1-.1-.2-.192-.3-.291a.254.254,0,0,1,0-.4q.631-.634,1.266-1.264a.253.253,0,0,1,.4,0c.1.1.186.2.286.3l.714-.551c-.072-.126-.143-.247-.211-.369a.244.244,0,0,1,.093-.371q.79-.461,1.584-.916a.244.244,0,0,1,.368.1c.072.12.141.242.215.37.258-.106.513-.207.763-.317.024-.011.039-.08.031-.117-.022-.114-.059-.224-.086-.337a.228.228,0,0,1,.167-.305q.9-.25,1.807-.486a.233.233,0,0,1,.308.187c.041.138.077.278.117.423.278-.034.546-.064.813-.1.028,0,.063-.066.066-.1.009-.111,0-.223,0-.334a.246.246,0,0,1,.281-.275q.9,0,1.8,0c.186,0,.273.09.278.278,0,.111-.007.224,0,.334a.14.14,0,0,0,.082.1c.258.039.518.066.8.1.035-.127.07-.256.106-.384.059-.209.161-.27.365-.216q.856.227,1.71.458c.2.053.256.157.207.357-.032.131-.067.261-.1.4l.819.342c.072-.124.144-.25.218-.373a.244.244,0,0,1,.369-.1q.793.455,1.583.917a.241.241,0,0,1,.09.371c-.069.122-.14.242-.212.367l.719.553c.094-.1.186-.2.285-.3a.25.25,0,0,1,.394-.01q.646.639,1.286,1.284a.25.25,0,0,1,0,.385c-.1.1-.2.195-.309.3l.547.715c.13-.074.255-.148.382-.217a.239.239,0,0,1,.359.095q.46.79.914,1.585a.24.24,0,0,1-.1.368c-.062.038-.126.073-.188.109l-.18.107c.1.255.2.505.313.751a.142.142,0,0,0,.122.045c.114-.02.224-.059.337-.087a.23.23,0,0,1,.3.169q.247.9.483,1.793a.237.237,0,0,1-.192.318c-.135.039-.27.075-.415.115.033.277.063.55.1.822,0,.023.062.053.1.055.116.007.233,0,.349,0a.247.247,0,0,1,.268.275q0,.909,0,1.818a.237.237,0,0,1-.253.271c-.121.008-.243,0-.364.007-.036,0-.094.042-.1.07-.038.263-.067.527-.1.806.139.04.277.078.415.119a.236.236,0,0,1,.192.317q-.236.9-.484,1.793a.228.228,0,0,1-.3.172c-.113-.027-.225-.058-.336-.091-.073-.022-.112,0-.142.072-.091.239-.192.475-.3.728.116.068.236.138.355.209a.246.246,0,0,1,.108.387q-.448.781-.9,1.559a.243.243,0,0,1-.378.1c-.123-.068-.244-.138-.37-.21l-.545.711c.1.095.2.19.3.289a.257.257,0,0,1,0,.406q-.63.634-1.266,1.264a.257.257,0,0,1-.415-.007l-.281-.274s-.009,0-.019,0l-.693.535c.073.125.148.248.218.374a.241.241,0,0,1-.092.361q-.8.466-1.6.924a.241.241,0,0,1-.358-.1c-.075-.123-.146-.25-.219-.376l-.82.341c.036.143.073.283.107.423a.238.238,0,0,1-.181.322q-.882.242-1.765.474c-.177.046-.282-.024-.335-.207-.035-.121-.068-.242-.1-.363a.264.264,0,0,0-.018-.036c-.268.033-.542.063-.813.1-.024,0-.055.061-.057.1-.007.116,0,.233,0,.349a.244.244,0,0,1-.275.266q-.9,0-1.8,0a.246.246,0,0,1-.282-.274c0-.111,0-.223,0-.334,0-.037-.038-.1-.066-.1-.267-.04-.535-.07-.813-.1-.038.136-.072.266-.11.395-.054.189-.162.259-.346.211q-.876-.231-1.751-.471a.243.243,0,0,1-.189-.331c.032-.14.119-.309.07-.412s-.24-.117-.368-.171l-.414-.176c-.069.12-.137.242-.208.362a.249.249,0,0,1-.389.106q-.781-.448-1.559-.9a.247.247,0,0,1-.1-.379c.063-.114.129-.227.193-.341a.142.142,0,0,0,.008-.031l-.707-.549c-.1.1-.187.208-.286.307a.252.252,0,0,1-.4,0q-.635-.63-1.266-1.264a.255.255,0,0,1,0-.4c.047-.049.095-.1.144-.144s.1-.092.156-.144l-.545-.713c-.129.073-.253.146-.38.215a.239.239,0,0,1-.36-.092q-.465-.8-.922-1.6a.234.234,0,0,1,.094-.348C4066.358-310.655,4066.485-310.726,4066.617-310.8Zm11.314,4.737a9.916,9.916,0,0,0,9.916-9.908,9.917,9.917,0,0,0-9.871-9.909,9.914,9.914,0,0,0-9.945,9.908A9.916,9.916,0,0,0,4077.932-306.066Z" transform="translate(-4064.85 329.064)"/>
    <path id="Path_289" data-name="Path 289" d="M4188.822-214.245a9.169,9.169,0,0,1,9.147,9.085,9.164,9.164,0,0,1-9.147,9.213,9.165,9.165,0,0,1-9.155-9.235A9.172,9.172,0,0,1,4188.822-214.245Zm-3.4,16.781a8.351,8.351,0,0,0,4.39.659,8.066,8.066,0,0,0,2.4-.662l-2.751-4.335a3.346,3.346,0,0,1-1.164.018.162.162,0,0,0-.194.091q-.875,1.389-1.756,2.774C4186.042-198.441,4185.74-197.963,4185.424-197.464Zm-2.836-2.069a.357.357,0,0,0,.04-.033q1.589-1.921,3.178-3.84a.155.155,0,0,0,.022-.18c-.113-.318-.228-.636-.311-.962a.218.218,0,0,0-.182-.194q-2.03-.517-4.061-1.04c-.246-.063-.493-.124-.765-.192A8.394,8.394,0,0,0,4182.587-199.533Zm14.539-6.443-.508.129q-2.163.554-4.327,1.108a.2.2,0,0,0-.167.174c-.083.322-.188.638-.3.95a.2.2,0,0,0,.026.229q1.232,1.48,2.456,2.966l.739.893A8.419,8.419,0,0,0,4197.126-205.977Zm-6.555-7.285c0,.062-.009.1-.011.129q-.046.739-.093,1.479-.109,1.7-.223,3.407c-.006.094.035.128.106.176.271.184.541.373.8.575a.2.2,0,0,0,.229.041q1.8-.716,3.6-1.425l1.056-.421A8.424,8.424,0,0,0,4190.572-213.262Zm-8.964,3.955c.043.022.063.034.085.043q2.3.909,4.6,1.819a.155.155,0,0,0,.178-.034c.265-.2.532-.4.808-.586a.205.205,0,0,0,.112-.216c-.09-1.372-.174-2.745-.261-4.117-.018-.28-.039-.559-.061-.863A8.423,8.423,0,0,0,4181.607-209.307Zm5.316,4.205a1.889,1.889,0,0,0,1.882,1.9,1.891,1.891,0,0,0,1.906-1.894,1.89,1.89,0,0,0-1.89-1.9A1.887,1.887,0,0,0,4186.924-205.1Z" transform="translate(-4175.729 218.183)"/>
    <path id="Path_290" data-name="Path 290" d="M4427.762,33.257a.68.68,0,0,1-.68.686.687.687,0,1,1,0-1.374A.68.68,0,0,1,4427.762,33.257Z" transform="translate(-4413.993 -20.166)"/>
  </g>
</svg>
