<svg xmlns="http://www.w3.org/2000/svg" width="27.218" height="24" viewBox="0 0 27.218 24">
  <g id="black-quote-icon" transform="translate(0 -7.328)">
    <path id="Path_129" data-name="Path 129" d="M10.935,12.094a1.309,1.309,0,0,0,.659-1.757L10.517,8.076A1.313,1.313,0,0,0,8.8,7.439a15.127,15.127,0,0,0-4.743,3.074A11.472,11.472,0,0,0,.878,15.541,27.576,27.576,0,0,0,0,23.27v6.741a1.321,1.321,0,0,0,1.317,1.317H9.947a1.321,1.321,0,0,0,1.317-1.317V21.382a1.321,1.321,0,0,0-1.317-1.317H5.819a9.258,9.258,0,0,1,1.537-5.336A8.346,8.346,0,0,1,10.935,12.094Z" transform="translate(0 0)"/>
    <path id="Path_130" data-name="Path 130" d="M81.613,12.172a1.309,1.309,0,0,0,.659-1.757L81.2,8.176a1.313,1.313,0,0,0-1.713-.637,15.906,15.906,0,0,0-4.721,3.052,11.718,11.718,0,0,0-3.206,5.05,27.206,27.206,0,0,0-.856,7.707v6.741a1.321,1.321,0,0,0,1.317,1.317h8.629a1.321,1.321,0,0,0,1.317-1.317V21.46a1.321,1.321,0,0,0-1.317-1.317H76.5a9.26,9.26,0,0,1,1.537-5.336A8.344,8.344,0,0,1,81.613,12.172Z" transform="translate(-55.176 -0.078)"/>
  </g>
</svg>
