<svg xmlns="http://www.w3.org/2000/svg" width="90.727" height="80" viewBox="0 0 90.727 80">
  <g id="left-quote" transform="translate(0 -7.328)">
    <path id="Path_129" data-name="Path 129" d="M36.449,23.213a4.362,4.362,0,0,0,2.2-5.855L35.058,9.819A4.376,4.376,0,0,0,29.349,7.7,50.423,50.423,0,0,0,13.54,17.944,38.241,38.241,0,0,0,2.928,34.7C1.025,41,0,49.561,0,60.467V82.936a4.4,4.4,0,0,0,4.391,4.391H33.155a4.4,4.4,0,0,0,4.391-4.391V54.172a4.4,4.4,0,0,0-4.391-4.391H19.4c.146-7.393,1.9-13.321,5.123-17.786C27.153,28.41,31.106,25.483,36.449,23.213Z" transform="translate(0 0)" fill="#d5d5d5"/>
    <path id="Path_130" data-name="Path 130" d="M107.075,23.24a4.363,4.363,0,0,0,2.2-5.855L105.685,9.92A4.376,4.376,0,0,0,99.976,7.8,53.018,53.018,0,0,0,84.24,17.971,39.061,39.061,0,0,0,73.554,34.8Q70.7,44.026,70.7,60.494V82.964a4.4,4.4,0,0,0,4.391,4.391h28.764a4.4,4.4,0,0,0,4.391-4.391V54.2a4.4,4.4,0,0,0-4.391-4.391H90.022c.146-7.393,1.9-13.321,5.123-17.786C97.78,28.437,101.732,25.51,107.075,23.24Z" transform="translate(-18.955 -0.027)" fill="#d5d5d5"/>
  </g>
</svg>
