<?xml version="1.0" encoding="utf-8"?>
<!-- Generator: Adobe Illustrator 19.0.0, SVG Export Plug-In . SVG Version: 6.00 Build 0)  -->
<svg version="1.1" id="Layer_1" xmlns="http://www.w3.org/2000/svg" xmlns:xlink="http://www.w3.org/1999/xlink" x="0px" y="0px"
	 viewBox="0 0 21 8" style="enable-background:new 0 0 21 8;" xml:space="preserve">
<style type="text/css">
	.Drop_x0020_Shadow{fill:none;}
	.Outer_x0020_Glow_x0020_5_x0020_pt{fill:none;}
	.Blue_x0020_Neon{fill:none;stroke:#8AACDA;stroke-width:7;stroke-linecap:round;stroke-linejoin:round;}
	.Chrome_x0020_Highlight{fill:url(#SVGID_1_);stroke:#FFFFFF;stroke-width:0.3629;stroke-miterlimit:1;}
	.Jive_GS{fill:#FFDD00;}
	.Alyssa_GS{fill:#A6D0E4;}
	.st0{fill:#FFFFFF;}
	.st1{fill:#333333;}
</style>
<linearGradient id="SVGID_1_" gradientUnits="userSpaceOnUse" x1="0" y1="0" x2="4.489659e-011" y2="-1">
	<stop  offset="0" style="stop-color:#656565"/>
	<stop  offset="0.618" style="stop-color:#1B1B1B"/>
	<stop  offset="0.6292" style="stop-color:#545454"/>
	<stop  offset="0.9831" style="stop-color:#3E3E3E"/>
</linearGradient>
<g id="XMLID_2_">
	<path id="XMLID_23_" d="M20.9,4.8c0,0,0-0.8,0-0.9c0-0.1-0.2-0.4-0.2-0.4s0-0.8-0.1-1c-0.1-0.2-0.3-0.4-0.4-0.5c0,0-0.8-0.6-1.2-1
		l-0.6-0.5c0,0,0,0,0,0c0-0.1,0-0.1,0-0.1s-0.5,0-0.8-0.1c-0.3,0-1.5-0.1-2.9-0.3c-1.4-0.1-3.9,0.1-4.2,0.2C10,0.5,9.3,0.6,9.3,0.6
		S8.2,1.1,7.6,1.4C7.1,1.6,5.9,2.3,5.7,2.4c0.1-0.1,0.4-0.2,0.6-0.3C6,2.3,5.7,2.4,5.6,2.4c0,0-1.3,0.2-2.5,0.4
		c-1,0.2-1.9,0.5-2.1,0.6C0.7,3.6,0.4,3.9,0.4,4c0,0.1-0.2,0.5-0.2,0.5c0,0.1-0.1,0.1-0.2,0.3c-0.1,0.2,0.3,1.3,0.3,1.3
		s-0.2-0.1-0.2,0c0,0.1,0.1,0.1,0.1,0.1l2,0.2L6,6.3h9.6c0,0,3.6-0.1,4-0.2c0.1,0,0.1,0,0.2-0.1c0,0,0,0,0,0l0.8,0.1
		c0,0,0.1,0,0.2-0.2c0.1-0.1,0.1-0.2,0.1-0.2l-0.3,0c0.1-0.1,0.2-0.1,0.2-0.1s0.2-0.1,0.3-0.2c0-0.1,0-0.2,0-0.2s0.1,0,0.1,0
		C21,5.1,20.9,4.8,20.9,4.8z M6.5,2.1c0,0,0.1,0,0.1-0.1C6.6,2,6.5,2.1,6.5,2.1z M6.4,2.1c0,0,0.1,0,0.1-0.1
		C6.4,2.1,6.4,2.1,6.4,2.1z"/>
	<path id="XMLID_22_" class="st0" d="M6,2.7c0,0,1.8-1.1,3-1.6c1.2-0.5,2.9-0.6,2.9-0.6s-0.1,0.4-0.2,0.9c-0.1,0.5-0.2,0.9-0.2,0.9
		L6,2.7z"/>
	<path id="XMLID_21_" class="st0" d="M12.2,0.5l-0.2,1.8c0,0,1.6-0.1,2.1-0.1c0.5,0,1.2,0,1.4-0.1C15.7,2.1,16,2,16.1,2
		c0.2-0.1,0.3-0.2,0.3-0.2l-0.8-1.1c0,0-1.1-0.1-1.8-0.2C13.1,0.5,12.2,0.5,12.2,0.5z"/>
	<path id="XMLID_20_" class="st0" d="M15.9,0.8l0.6,1c0,0,0.3-0.1,0.5-0.3c0.3-0.2,0.4-0.3,0.3-0.4c-0.1-0.1-0.4-0.1-0.8-0.2
		C16.2,0.7,15.9,0.8,15.9,0.8z"/>
	<path id="XMLID_19_" class="st0" d="M20,2.6c-0.4,0-0.8,0-0.9,0.1c-0.1,0.1,0.2,0.3,0.3,0.4c0.1,0.1,0.2,0.2,0.3,0.2
		c0.1,0,0.5,0.1,0.6,0c0.1,0,0.3-0.3,0.2-0.5C20.5,2.6,20.4,2.6,20,2.6z"/>
	<g id="XMLID_11_">
		<circle id="XMLID_18_" class="st1" cx="4" cy="6.3" r="1.4"/>
		<path id="XMLID_15_" class="st0" d="M4,7.8c-0.8,0-1.5-0.7-1.5-1.5c0-0.8,0.7-1.5,1.5-1.5s1.5,0.7,1.5,1.5C5.5,7.1,4.8,7.8,4,7.8z
			 M4,5.1c-0.7,0-1.2,0.5-1.2,1.2c0,0.7,0.5,1.2,1.2,1.2s1.2-0.5,1.2-1.2C5.2,5.6,4.6,5.1,4,5.1z"/>
		<circle id="XMLID_14_" cx="4" cy="6.3" r="1.4"/>
		<circle id="XMLID_13_" class="st0" cx="4" cy="6.3" r="0.9"/>
		<circle id="XMLID_12_" class="st1" cx="4" cy="6.3" r="0.3"/>
	</g>
	<g id="XMLID_3_">
		<circle id="XMLID_10_" class="st1" cx="16.8" cy="6.3" r="1.4"/>
		<path id="XMLID_7_" class="st0" d="M16.8,7.8c-0.8,0-1.5-0.7-1.5-1.5c0-0.8,0.7-1.5,1.5-1.5c0.8,0,1.5,0.7,1.5,1.5
			C18.3,7.1,17.6,7.8,16.8,7.8z M16.8,5.1c-0.7,0-1.2,0.5-1.2,1.2c0,0.7,0.5,1.2,1.2,1.2S18,6.9,18,6.3C18,5.6,17.5,5.1,16.8,5.1z"
			/>
		<circle id="XMLID_6_" cx="16.8" cy="6.3" r="1.4"/>
		<circle id="XMLID_5_" class="st0" cx="16.8" cy="6.3" r="0.9"/>
		<circle id="XMLID_4_" class="st1" cx="16.8" cy="6.3" r="0.3"/>
	</g>
</g>
</svg>
