<svg xmlns="http://www.w3.org/2000/svg" width="353" height="218.152" viewBox="0 0 353 218.152">
  <g id="icon" transform="translate(16.672 -8.151)">
    <g id="c9_hat" transform="translate(-16.672 8.151)">
      <path id="Path_444" data-name="Path 444" d="M320.382,154.275V120.441L353,102.415,176.508,8.151,0,102.423l70.365,40.866v25.959c.19-.1.43-.19.637-.29a5.371,5.371,0,0,0-1.241,3.1c0,11.813,47.765,21.442,106.747,21.442,58.949,0,106.764-9.629,106.764-21.442a5.544,5.544,0,0,0-1.241-3.1c.207.124.447.19.629.29V143.223l30.7-18.886v29.938a9.253,9.253,0,1,0,7.023,0Zm-143.874,31.1c-52.339,0-94.744-5.973-94.744-13.3s42.4-13.285,94.744-13.285c52.315,0,94.736,5.956,94.736,13.285S228.823,185.371,176.508,185.371Zm103.843-61.8c-7.031-7.52-32.329-27.258-103.843-27.258-71.556,0-96.812,19.754-103.835,27.282v-7.147S93.155,85.7,176.508,85.7s103.843,30.749,103.843,30.749Z" transform="translate(0 -8.151)" fill="#d8d8d8"/>
      <path id="Path_445" data-name="Path 445" d="M40.8,28.194,36.932,80.542c11.25-17.446,20.524-10.87,20.524-10.87V28.194C45.461,32.851,40.8,28.194,40.8,28.194Z" transform="translate(268.584 137.61)" fill="#d8d8d8"/>
    </g>
  </g>
</svg>
