<svg id="calendar-page-empty" xmlns="http://www.w3.org/2000/svg" width="17.458" height="18.801" viewBox="0 0 17.458 18.801">
  <path id="Path_73" data-name="Path 73" d="M35.335,3.085a1.29,1.29,0,0,0-.944-.4H33.048V1.679A1.617,1.617,0,0,0,32.555.493,1.617,1.617,0,0,0,31.37,0H30.7a1.616,1.616,0,0,0-1.186.493,1.616,1.616,0,0,0-.493,1.185V2.686H24.991V1.679A1.616,1.616,0,0,0,24.5.493,1.616,1.616,0,0,0,23.312,0h-.671a1.617,1.617,0,0,0-1.186.493,1.617,1.617,0,0,0-.493,1.185V2.686H19.619a1.291,1.291,0,0,0-.944.4,1.291,1.291,0,0,0-.4.944V17.458A1.362,1.362,0,0,0,19.619,18.8H34.391a1.362,1.362,0,0,0,1.343-1.343V4.029A1.291,1.291,0,0,0,35.335,3.085ZM30.362,1.679a.323.323,0,0,1,.335-.336h.671a.323.323,0,0,1,.336.336V4.7a.323.323,0,0,1-.336.336H30.7a.323.323,0,0,1-.335-.336Zm-8.058,0a.323.323,0,0,1,.336-.336h.671a.323.323,0,0,1,.336.336V4.7a.323.323,0,0,1-.336.336h-.671A.323.323,0,0,1,22.3,4.7ZM34.391,17.458H19.619V6.715H34.391Z" transform="translate(-18.276)" fill="#bebebe"/>
</svg>
