<svg xmlns="http://www.w3.org/2000/svg" width="161" height="160" viewBox="0 0 161 160">
  <g id="Group_317" data-name="Group 317" transform="translate(-1070.952 -2671)">
    <g id="Ellipse_43" data-name="Ellipse 43" transform="translate(1138.952 2697)" fill="#fccf00" stroke="#fff" stroke-width="3">
      <ellipse cx="46.5" cy="45.5" rx="46.5" ry="45.5" stroke="none"/>
      <ellipse cx="46.5" cy="45.5" rx="45" ry="44" fill="none"/>
    </g>
    <g id="Ellipse_42" data-name="Ellipse 42" transform="translate(1070.952 2671)" fill="#fccf00" stroke="#fff" stroke-width="3">
      <circle cx="46.5" cy="46.5" r="46.5" stroke="none"/>
      <circle cx="46.5" cy="46.5" r="45" fill="none"/>
    </g>
    <ellipse id="Ellipse_44" data-name="Ellipse 44" cx="46" cy="46.5" rx="46" ry="46.5" transform="translate(1080.952 2738)" fill="#fff"/>
    <g id="elephant-side-view" transform="translate(1100.587 2764.198)">
      <g id="Group_303" data-name="Group 303">
        <path id="Path_335" data-name="Path 335" d="M1.591,87.019c.447-.525.913-1.036,1.326-1.587a9.571,9.571,0,0,0,1.258-2.318c.314-.815.68-1.609,1.009-2.418.143-.35.256-.713.374-1.073a.828.828,0,0,1,.49-.5c0,.138,0,.249,0,.36C6.03,81.179,6,82.878,6,84.576a10.884,10.884,0,0,0,.406,2.4c.058.264.137.522.207.783a2.56,2.56,0,0,1-.089,1.413c-.2.69-.379,1.387-.566,2.081-.125.464-.272.923-.37,1.393a9.378,9.378,0,0,0-.022,3.249,3.843,3.843,0,0,1-.014,1.71,2.138,2.138,0,0,0-.109.7.748.748,0,0,0,.721.742c.4.042.8.081,1.208.1.528.024,1.058.055,1.585.033.634-.027,1.266-.112,1.9-.162.177-.014.206-.111.186-.251-.028-.2-.063-.4-.1-.609a.979.979,0,0,1,.1-.046.413.413,0,0,0,.241-.635,5.46,5.46,0,0,0-.561-.7c-.183-.2-.415-.365-.579-.58a9.71,9.71,0,0,1-.668-1.027,1.233,1.233,0,0,1-.044-.976,9.2,9.2,0,0,1,.529-1.535,6.763,6.763,0,0,1,.932-1.409c.462-.535,1.006-1,1.512-1.5a3.65,3.65,0,0,0,1.027-1.81,8.553,8.553,0,0,1,.24-.822.215.215,0,0,1,.175-.1c.665.043,1.329.114,1.995.14.432.017.868-.026,1.3-.042.109,0,.218,0,.327-.007.87-.03,1.744-.025,2.609-.105a4.451,4.451,0,0,0,1.63-.571c.369-.194.746-.373,1.13-.563a1.877,1.877,0,0,1,.468.912A18.542,18.542,0,0,1,23.7,90c.034.572.094,1.145.093,1.717,0,.635-.069,1.269-.087,1.9-.01.341.053.685.028,1.024-.042.57-.115,1.139-.2,1.7a2.246,2.246,0,0,1-.223.533.981.981,0,0,0,.16,1.2.406.406,0,0,0,.26.111c.93-.036,1.859-.09,2.789-.125.6-.023,1.2-.026,1.794-.029a.362.362,0,0,1,.235.085.989.989,0,0,0,.74.21c.741.01,1.481,0,2.222,0,.309,0,.619.016.926-.009a3.335,3.335,0,0,0,.6-.143c.112-.031.216-.09.329-.112.471-.091.477-.2.385-.679a1.381,1.381,0,0,0-.282-.442c-.094-.136-.19-.272-.295-.4-.035-.043-.11-.053-.149-.094a4.11,4.11,0,0,1-.955-1.177,1.389,1.389,0,0,1-.094-.382c-.1-.9-.231-1.8-.283-2.709-.04-.687.025-1.379.035-2.069.008-.577-.007-1.154.011-1.73.022-.683.029-1.37.111-2.047a18.765,18.765,0,0,0,.058-3.233c-.047-.91-.172-1.815-.251-2.724a.286.286,0,0,1,.126-.214q1.048-.625,2.107-1.231c.791-.452,1.587-.9,2.458-1.387.15.173.322.382.506.58.163.176.343.336.508.51.211.224.424.446.615.686s.345.322.491.223a.507.507,0,0,0,.091-.637,1.319,1.319,0,0,0-.171-.216,5.213,5.213,0,0,1-.983-1.77c-.024-.057-.05-.114-.093-.211.3-.139.591-.282.89-.414a6.733,6.733,0,0,1,.627-.246,2.19,2.19,0,0,0,.968-.7c.165-.191.38-.3.593-.156a4.239,4.239,0,0,0,1.708.468.535.535,0,0,1,.091.016c.12.046.253.1.328-.047a1.136,1.136,0,0,0,.033-.351c.112-.154.349-.094.557-.119a4.5,4.5,0,0,1,.694-.043,1.907,1.907,0,0,1,.494.106,6.53,6.53,0,0,0,3.032.248,4.417,4.417,0,0,0,1.986-.676,1.8,1.8,0,0,0,.844-1.11.832.832,0,0,0-.035-.362c-1.019.941-2.247.932-3.542.91.335-.334.867-.435.829-1.055-.445.163-.857.321-1.276.464a1.839,1.839,0,0,1-1.42.061,4.7,4.7,0,0,1,.784-.27,3.1,3.1,0,0,0,2.132-1.426,4.843,4.843,0,0,0,.909-3.4,7.494,7.494,0,0,0-.587-2.113,4.866,4.866,0,0,1-.293-2.2,5.406,5.406,0,0,1,.773-2.2c.187-.3.354-.617.56-.9a2.978,2.978,0,0,1,1.581-1.128c.183-.057.362-.128.546-.181a.181.181,0,0,0,.1-.282,1.8,1.8,0,0,1-.123-.936c-.007-.313-.21-.491-.45-.317a5,5,0,0,1-1.288.491A6.556,6.556,0,0,0,47.1,60.31a6.623,6.623,0,0,0-1.622,2.29,11.678,11.678,0,0,0-.8,2.291,7.488,7.488,0,0,0,.047,2.732,8.387,8.387,0,0,1,.111,1.346.615.615,0,0,1-.152.35c-.226.291-.469.568-.663.8-.384-.132-.74-.268-1.1-.377a2.917,2.917,0,0,1-1-.5c-.241-.191-.519-.335-.772-.512-.444-.309-.876-.634-1.324-.937a11.316,11.316,0,0,0-.971-.592c-.544-.293-1.094-.576-1.652-.842a3.082,3.082,0,0,0-1.626-.168,5,5,0,0,0-2.153.682c-.59.352-1.174.716-1.762,1.071a1.9,1.9,0,0,1-1.051.241,4.353,4.353,0,0,0-.623,0c-.332.041-.574-.172-.846-.281a6.9,6.9,0,0,0-1.977-.489c-.547-.048-1.09-.139-1.637-.194a5.169,5.169,0,0,0-2.611.282c-.489.21-.959.464-1.449.671a.808.808,0,0,1-.452,0c-.566-.123-1.128-.269-1.693-.4-.5-.115-1.013-.206-1.513-.332a4.876,4.876,0,0,0-2.609.286,18.46,18.46,0,0,0-1.815.647,8.453,8.453,0,0,0-1.224.63,17.7,17.7,0,0,0-1.846,1.23,17.55,17.55,0,0,0-1.738,1.644c-.487.516-.925,1.081-1.36,1.645A11.725,11.725,0,0,0,6.3,74.85a18.7,18.7,0,0,0-.931,1.868,7.724,7.724,0,0,0-.314,1.163c-.1.413-.191.83-.31,1.238q-.277.945-.592,1.878-.252.747-.55,1.478c-.169.415-.365.819-.557,1.224-.266.561-.513,1.132-.818,1.671a8.255,8.255,0,0,1-.884,1.273c-.175.206-.487.288-.707.465A1.649,1.649,0,0,0,0,88.226c.239-.109.436-.184.618-.286a3.788,3.788,0,0,0,.973-.921Zm25.534,7.728a2.815,2.815,0,0,0,.239-.8c.123-.763.223-1.53.326-2.3.086-.642.163-1.285.244-1.928h.047c.107.442.216.883.32,1.326a6.319,6.319,0,0,1,.117,2.269,2.291,2.291,0,0,0,.078,1.332,2.261,2.261,0,0,1,.088,1.519c-.062.3-.149.6-.243.977-.125-.152-.2-.241-.278-.336-.234-.307-.458-.621-.7-.923a.973.973,0,0,1-.239-1.136Z" transform="translate(0.003 -58.3)"/>
      </g>
    </g>
    <g id="teamwork" transform="translate(1169.489 2726.103)">
      <g id="Group_305" data-name="Group 305" transform="translate(11.702 0.897)">
        <g id="Group_304" data-name="Group 304">
          <ellipse id="Ellipse_45" data-name="Ellipse 45" cx="4.5" cy="3.5" rx="4.5" ry="3.5" transform="translate(-0.238)" fill="#fff"/>
        </g>
      </g>
      <g id="Group_307" data-name="Group 307" transform="translate(10.165 10.165)">
        <g id="Group_306" data-name="Group 306">
          <path id="Path_336" data-name="Path 336" d="M172.19,169.023l-.923-7.189a2.025,2.025,0,0,0-2.021-1.83h-1.114a1.024,1.024,0,0,0-.72.3l-1.313,1.313-1.313-1.313a1.024,1.024,0,0,0-.72-.3h-1.112a2.021,2.021,0,0,0-2.021,1.8l-.925,7.217a1.018,1.018,0,0,0,1.008,1.145h1.1l.85,10.368a2.026,2.026,0,0,0,2.023,1.83h2.226a2.032,2.032,0,0,0,2.025-1.848l.848-10.35h1.1a1.014,1.014,0,0,0,.762-.346A1,1,0,0,0,172.19,169.023Z" transform="translate(-160 -160.005)" fill="#fff"/>
        </g>
      </g>
      <g id="Group_309" data-name="Group 309" transform="translate(22.844 0.897)">
        <g id="Group_308" data-name="Group 308">
          <ellipse id="Ellipse_46" data-name="Ellipse 46" cx="4" cy="3.5" rx="4" ry="3.5" transform="translate(-0.381)" fill="#fff"/>
        </g>
      </g>
      <g id="Group_311" data-name="Group 311" transform="translate(2.033)">
        <g id="Group_310" data-name="Group 310">
          <path id="Path_337" data-name="Path 337" d="M36.065,0a4.066,4.066,0,1,0,4.066,4.066A4.066,4.066,0,0,0,36.065,0Z" transform="translate(-31.999 -0.005)" fill="#fff"/>
        </g>
      </g>
      <g id="Group_313" data-name="Group 313" transform="translate(22.622 10.165)">
        <g id="Group_312" data-name="Group 312">
          <path id="Path_338" data-name="Path 338" d="M365.962,169.024l-.923-7.187A2.024,2.024,0,0,0,363.018,160H361.9a1.024,1.024,0,0,0-.72.3l-1.313,1.313-1.313-1.313a1.022,1.022,0,0,0-.718-.3h-1.114a1.94,1.94,0,0,0-.36.067,3.955,3.955,0,0,1,.529,1.529l.921,7.164a3.042,3.042,0,0,1-.744,2.411,2.948,2.948,0,0,1-1.008.716l.675,6.613a2.026,2.026,0,0,0,2.023,1.83h2.226a2.032,2.032,0,0,0,2.025-1.848l.846-8.317h1.1a1.014,1.014,0,0,0,.762-.346A1,1,0,0,0,365.962,169.024Z" transform="translate(-356.063 -160.005)" fill="#fff"/>
        </g>
      </g>
      <g id="Group_315" data-name="Group 315" transform="translate(0 10.165)">
        <g id="Group_314" data-name="Group 314">
          <path id="Path_339" data-name="Path 339" d="M8.892,171.166a3.045,3.045,0,0,1-.736-2.4l.925-7.219a3.758,3.758,0,0,1,.506-1.48A1.913,1.913,0,0,0,9.246,160H8.132a1.024,1.024,0,0,0-.72.3L6.1,161.615,4.785,160.3a1.023,1.023,0,0,0-.718-.3H2.953a2.02,2.02,0,0,0-2.021,1.8l-.925,7.217a1.018,1.018,0,0,0,1.008,1.145h1.1l.85,8.335a2.026,2.026,0,0,0,2.023,1.83H7.213a2.032,2.032,0,0,0,2.025-1.848l.675-6.6a3.049,3.049,0,0,1-1.021-.713Z" transform="translate(0.001 -160.005)" fill="#fff"/>
        </g>
      </g>
    </g>
    <g id="respect" transform="translate(1096.087 2699.803)">
      <g id="Group_316" data-name="Group 316" transform="translate(0.819 0.819)">
        <path id="Path_340" data-name="Path 340" d="M13.763,73.694l-.308-.308a11.788,11.788,0,0,1,0-16.671h0a11.788,11.788,0,0,1,16.671,0l.015.015.015.015,4.96,6.965,9.225,9.225a2.266,2.266,0,0,1,0,3.2h0a2.266,2.266,0,0,1-3.2,0l-3.411-3.4,3.407,3.407a2.266,2.266,0,0,1,0,3.2h0a2.266,2.266,0,0,1-3.2,0L34.53,75.934l3.407,3.407a2.266,2.266,0,0,1,0,3.2h0a2.266,2.266,0,0,1-3.2,0L31.33,79.134l-.029.029,3.4,3.415a2.266,2.266,0,0,1,0,3.2h0a2.266,2.266,0,0,1-3.2,0l-1.94-1.93Z" transform="translate(-10.002 -53.263)" fill="#fccf00"/>
        <path id="Path_341" data-name="Path 341" d="M192.026,61.719l-.668.668a4.83,4.83,0,0,1-3.415,1.415h-3.224L182.25,66.27a2.7,2.7,0,0,1-3.816,0h0a2.7,2.7,0,0,1,0-3.816l5.635-5.635a11.788,11.788,0,0,1,16.671,0h0a11.788,11.788,0,0,1,0,16.671l-1.587,1.587-.389-1.287-9.647-9.647" transform="translate(-163.924 -53.358)" fill="#fccf00"/>
        <path id="Path_342" data-name="Path 342" d="M180.435,381.894l-1.41,1.411a2.266,2.266,0,0,0,0,3.2h0a2.266,2.266,0,0,0,3.2,0l1.41-1.41a2.266,2.266,0,0,0,0-3.2h0a2.266,2.266,0,0,0-3.2,0Z" transform="translate(-164.583 -354.39)" fill="#fccf00"/>
        <path id="Path_343" data-name="Path 343" d="M141.281,342.741l-1.411,1.411a2.266,2.266,0,0,0,0,3.2h0a2.266,2.266,0,0,0,3.2,0l1.41-1.41a2.266,2.266,0,0,0,0-3.2h0A2.266,2.266,0,0,0,141.281,342.741Z" transform="translate(-128.633 -318.441)" fill="#fccf00"/>
        <path id="Path_344" data-name="Path 344" d="M102.127,303.586,100.717,305a2.266,2.266,0,0,0,0,3.2h0a2.266,2.266,0,0,0,3.2,0l1.41-1.41a2.266,2.266,0,0,0,0-3.2h0a2.266,2.266,0,0,0-3.2,0Z" transform="translate(-92.683 -282.49)" fill="#fccf00"/>
        <path id="Path_345" data-name="Path 345" d="M62.973,264.431l-1.41,1.41a2.266,2.266,0,0,0,0,3.2h0a2.266,2.266,0,0,0,3.2,0l1.41-1.41a2.266,2.266,0,0,0,0-3.2h0a2.266,2.266,0,0,0-3.2,0Z" transform="translate(-56.734 -246.54)" fill="#fccf00"/>
      </g>
      <path id="Path_348" data-name="Path 348" d="M40.263,49.649a.818.818,0,0,0-1.423.809,10.994,10.994,0,0,1-1.785,13.175l-.621.621a3.065,3.065,0,0,0-.7-1.079l-8.409-8.409a5.655,5.655,0,0,0,1.5-1.078l1.613-1.613a.818.818,0,0,0-1.158-1.157L27.673,52.53a3.986,3.986,0,0,1-2.836,1.17H21.613a.819.819,0,0,0-.579.24l-2.468,2.468a1.88,1.88,0,1,1-2.659-2.659l5.635-5.635a11.015,11.015,0,0,1,13.074-1.842.819.819,0,1,0,.794-1.432,12.7,12.7,0,0,0-7.784-1.466,12.473,12.473,0,0,0-6.669,3.043A12.6,12.6,0,1,0,3.69,64.784L4,65.09a.818.818,0,0,0,.176.133A3.077,3.077,0,0,0,7.25,68.066h.123v.124a3.082,3.082,0,0,0,3.084,3.083h.123V71.4a3.082,3.082,0,0,0,3.084,3.083h.124a3.083,3.083,0,0,0,5.261,2.305l1.144-1.144,1.545,1.545A3.083,3.083,0,0,0,27,74.851h.154a3.079,3.079,0,0,0,3.08-3.206h.124a3.081,3.081,0,0,0,3.08-3.207h.124a3.082,3.082,0,0,0,2.85-1.906.818.818,0,0,0,.221-.157l1.587-1.587a12.635,12.635,0,0,0,2.045-15.139ZM7.25,66.431A1.447,1.447,0,0,1,6.226,63.96l1.41-1.41A1.449,1.449,0,1,1,9.684,64.6l-1.41,1.41a1.438,1.438,0,0,1-1.024.421Zm2.181,2.78a1.447,1.447,0,0,1,0-2.047l1.41-1.41h0A1.447,1.447,0,0,1,12.888,67.8l-1.41,1.41a1.449,1.449,0,0,1-2.047,0Zm3.2,3.2a1.447,1.447,0,0,1,0-2.047l1.41-1.41h0A1.449,1.449,0,0,1,16.092,71l-1.41,1.41a1.449,1.449,0,0,1-2.047,0Zm5.251,3.2a1.447,1.447,0,0,1-2.047-2.047l1.41-1.41h0A1.453,1.453,0,0,1,19.3,74.209ZM34.575,66.37a1.447,1.447,0,0,1-2.047,0l-3.407-3.407h0l-3.2-3.2a.818.818,0,1,0-1.158,1.157l6.611,6.611a1.447,1.447,0,0,1-2.047,2.047l-6.611-6.611a.819.819,0,0,0-1.158,1.158l3.2,3.2h0L28.17,70.74a1.447,1.447,0,1,1-2.047,2.047L22.717,69.38a.817.817,0,0,0-.209-.151l-.972-.972a.819.819,0,1,0-1.158,1.158l4.559,4.558A1.447,1.447,0,0,1,22.89,76.02l-1.735-1.735A3.085,3.085,0,0,0,18.273,70.1h-.124a3.081,3.081,0,0,0-3.08-3.207h-.124a3.081,3.081,0,0,0-3.08-3.207h-.124a3.082,3.082,0,0,0-5.261-2.3L5.069,62.8a3.082,3.082,0,0,0-.454.579A10.97,10.97,0,0,1,19.78,47.567L14.75,52.6a3.517,3.517,0,0,0,4.974,4.974l2.229-2.229h2.885a5.731,5.731,0,0,0,.707-.045l9.035,9.035a1.45,1.45,0,0,1,0,2.044Z" transform="translate(0 -43.261)" fill="#fff"/>
    </g>
  </g>
</svg>
