<svg xmlns="http://www.w3.org/2000/svg" width="27.173" height="33.833" viewBox="0 0 27.173 33.833">
  <g id="investors-company-icon-4" transform="translate(-4947.926 -605.741)">
    <path id="Path_16102" data-name="Path 16102" d="M4967.952,637.085v1.989l-9.763-7.936-9.763,7.936V609.865H4963.3" fill="none" stroke="#1a1a1a" stroke-linecap="round" stroke-linejoin="round" stroke-width="1"/>
    <g id="Group_818" data-name="Group 818">
      <path id="Path_16103" data-name="Path 16103" d="M4968.552,613.1c-1.52,0-2.751-1.536-2.751-3.43s1.231-3.43,2.751-3.43,2.751,1.536,2.751,3.43S4970.071,613.1,4968.552,613.1Z" fill="none" stroke="#1a1a1a" stroke-linecap="round" stroke-linejoin="round" stroke-width="1"/>
      <path id="Path_16104" data-name="Path 16104" d="M4965.237,625.4a4.327,4.327,0,0,1-2.732-4.022v-2.013a4.324,4.324,0,0,1,4.324-4.325h3.445a4.325,4.325,0,0,1,4.325,4.325v2.013a4.326,4.326,0,0,1-2.733,4.022" fill="none" stroke="#1a1a1a" stroke-linecap="round" stroke-linejoin="round" stroke-width="1"/>
      <line id="Line_242" data-name="Line 242" y1="7.908" transform="translate(4968.552 625.399)" fill="none" stroke="#1a1a1a" stroke-linecap="round" stroke-linejoin="round" stroke-width="1"/>
      <path id="Path_16105" data-name="Path 16105" d="M4965.338,618.693v14.614s1.726,1.487,3.214,0c1.487,1.487,3.214,0,3.214,0V618.693" fill="none" stroke="#1a1a1a" stroke-linecap="round" stroke-linejoin="round" stroke-width="1"/>
    </g>
  </g>
</svg>
