<svg xmlns="http://www.w3.org/2000/svg" width="50.527" height="36.613" viewBox="0 0 50.527 36.613">
  <g id="investors-company-icon-1" transform="translate(-1666.789 -2353.107)">
    <g id="Group_812" data-name="Group 812">
      <circle id="Ellipse_283" data-name="Ellipse 283" cx="2.08" cy="2.08" r="2.08" transform="translate(1678.791 2353.607)" stroke-width="1" stroke="#1a1a1a" stroke-linecap="round" stroke-linejoin="round" fill="none"/>
      <g id="Group_811" data-name="Group 811">
        <path id="Path_16078" data-name="Path 16078" d="M1701.154,2387.141h-9.1v-31.454h-9.1" fill="none" stroke="#1a1a1a" stroke-linecap="round" stroke-linejoin="round" stroke-width="1"/>
        <path id="Path_16079" data-name="Path 16079" d="M1701.154,2387.141a2.08,2.08,0,1,1,2.08,2.079A2.08,2.08,0,0,1,1701.154,2387.141Z" fill="none" stroke="#1a1a1a" stroke-linecap="round" stroke-linejoin="round" stroke-width="1"/>
      </g>
    </g>
    <g id="Group_813" data-name="Group 813">
      <circle id="Ellipse_284" data-name="Ellipse 284" cx="2.08" cy="2.08" r="2.08" transform="translate(1677.775 2383.991)" stroke-width="1" stroke="#1a1a1a" stroke-linecap="round" stroke-linejoin="round" fill="none"/>
      <path id="Path_16080" data-name="Path 16080" d="M1681.935,2386.071h7.714v-26.124H1676.51" fill="none" stroke="#1a1a1a" stroke-linecap="round" stroke-linejoin="round" stroke-width="1"/>
    </g>
    <g id="Group_814" data-name="Group 814">
      <path id="Path_16081" data-name="Path 16081" d="M1706.329,2356.346a2.079,2.079,0,1,1-2.079-2.079A2.079,2.079,0,0,1,1706.329,2356.346Z" fill="none" stroke="#1a1a1a" stroke-linecap="round" stroke-linejoin="round" stroke-width="1"/>
      <path id="Path_16082" data-name="Path 16082" d="M1702.17,2356.346h-7.714v26.124h13.138" fill="none" stroke="#1a1a1a" stroke-linecap="round" stroke-linejoin="round" stroke-width="1"/>
    </g>
    <path id="Path_16083" data-name="Path 16083" d="M1676.51,2380.544h10.364v-15.592h-15.426" fill="none" stroke="#1a1a1a" stroke-linecap="round" stroke-linejoin="round" stroke-width="1"/>
    <path id="Path_16084" data-name="Path 16084" d="M1707.594,2361.874h-10.364v15.592h15.425" fill="none" stroke="#1a1a1a" stroke-linecap="round" stroke-linejoin="round" stroke-width="1"/>
    <path id="Path_16085" data-name="Path 16085" d="M1672.351,2380.544a2.08,2.08,0,1,1,2.08,2.079A2.08,2.08,0,0,1,1672.351,2380.544Z" fill="none" stroke="#1a1a1a" stroke-linecap="round" stroke-linejoin="round" stroke-width="1"/>
    <circle id="Ellipse_285" data-name="Ellipse 285" cx="2.08" cy="2.08" r="2.08" transform="translate(1707.594 2359.794)" stroke-width="1" stroke="#1a1a1a" stroke-linecap="round" stroke-linejoin="round" fill="none"/>
    <path id="Path_16086" data-name="Path 16086" d="M1677.291,2374.908a2.079,2.079,0,1,1,2.079,2.079A2.08,2.08,0,0,1,1677.291,2374.908Z" fill="none" stroke="#1a1a1a" stroke-linecap="round" stroke-linejoin="round" stroke-width="1"/>
    <circle id="Ellipse_286" data-name="Ellipse 286" cx="2.08" cy="2.08" r="2.08" transform="translate(1702.655 2365.43)" stroke-width="1" stroke="#1a1a1a" stroke-linecap="round" stroke-linejoin="round" fill="none"/>
    <path id="Path_16087" data-name="Path 16087" d="M1672.351,2359.947a2.08,2.08,0,1,1,2.08,2.08A2.08,2.08,0,0,1,1672.351,2359.947Z" fill="none" stroke="#1a1a1a" stroke-linecap="round" stroke-linejoin="round" stroke-width="1"/>
    <path id="Path_16088" data-name="Path 16088" d="M1711.754,2382.47a2.08,2.08,0,1,1-2.08-2.079A2.08,2.08,0,0,1,1711.754,2382.47Z" fill="none" stroke="#1a1a1a" stroke-linecap="round" stroke-linejoin="round" stroke-width="1"/>
    <path id="Path_16089" data-name="Path 16089" d="M1667.289,2364.952a2.08,2.08,0,1,1,2.08,2.08A2.079,2.079,0,0,1,1667.289,2364.952Z" fill="none" stroke="#1a1a1a" stroke-linecap="round" stroke-linejoin="round" stroke-width="1"/>
    <circle id="Ellipse_287" data-name="Ellipse 287" cx="2.08" cy="2.08" r="2.08" transform="translate(1712.656 2375.386)" stroke-width="1" stroke="#1a1a1a" stroke-linecap="round" stroke-linejoin="round" fill="none"/>
    <path id="Path_16090" data-name="Path 16090" d="M1672.351,2369.8a2.08,2.08,0,1,1,2.08,2.08A2.079,2.079,0,0,1,1672.351,2369.8Z" fill="none" stroke="#1a1a1a" stroke-linecap="round" stroke-linejoin="round" stroke-width="1"/>
    <circle id="Ellipse_288" data-name="Ellipse 288" cx="2.08" cy="2.08" r="2.08" transform="translate(1707.594 2370.542)" stroke-width="1" stroke="#1a1a1a" stroke-linecap="round" stroke-linejoin="round" fill="none"/>
    <path id="Path_16091" data-name="Path 16091" d="M1681.45,2374.908h2.99V2369.8h-7.93" fill="none" stroke="#1a1a1a" stroke-linecap="round" stroke-linejoin="round" stroke-width="1"/>
    <path id="Path_16092" data-name="Path 16092" d="M1702.655,2367.51h-2.99v5.112h7.93" fill="none" stroke="#1a1a1a" stroke-linecap="round" stroke-linejoin="round" stroke-width="1"/>
  </g>
</svg>
