<svg xmlns="http://www.w3.org/2000/svg" width="62.261" height="37.785" viewBox="0 0 62.261 37.785">
  <g id="jg-black-motorports-icon" transform="translate(0 0)">
    <path id="Path_314" data-name="Path 314" d="M5139.008-2831.563c-.771-.039-1.542-.074-2.314-.117-1.187-.065-2.6-.249-2.582-1.649s1.425-1.625,2.617-1.592c1.393.038,2.807.091,2.791,2.127,0,.375.619.756,1.077,1.272,2.235-2.624,4.3-5.146,6.492-7.56a5.522,5.522,0,0,1,2.39-1.482,51.176,51.176,0,0,1,29.62.113,3.85,3.85,0,0,1,1.7,1.136c2.229,2.532,4.393,5.12,6.923,8.091.411-.907.745-1.5.952-2.13.419-1.279,1.427-1.541,2.567-1.576,1.176-.036,2.375.045,2.869,1.348.34.894-.689,1.765-2.143,1.886-.752.063-1.512.043-2.265.112-.18.017-.341.238-.8.581.95-.128,1.573-.244,2.2-.29a3.605,3.605,0,0,1,4,3.581c.045,4.745.146,9.5-.035,14.233-.109,2.831-.711,5.643-1.1,8.563h-8.134v-4.5h-43.416v4.463h-8.385c-.358-4.238-.808-8.414-1.034-12.6-.164-3.045-.035-6.107-.031-9.162,0-3.572,1.753-5.034,5.3-4.439.206.034.413.052.62.077Zm3.062,1.1c2.217.292,4.122.972,5.879.7a95.384,95.384,0,0,1,29.448-.222,19.047,19.047,0,0,0,8.434-.679c-2.2-2.63-4.283-5.145-6.412-7.616a2.71,2.71,0,0,0-1.254-.654,48.163,48.163,0,0,0-28.3,0,2.443,2.443,0,0,0-1.139.547C5146.57-2835.866,5144.456-2833.313,5142.07-2830.463Zm33.312,17.125,2.1-6.1h-26.977c.65,1.9,1.207,3.65,1.874,5.359a1.393,1.393,0,0,0,1.043.707C5160.712-2813.327,5168-2813.338,5175.382-2813.338Zm7.267-8.969c4.263-.276,7.407-1.6,9.778-5.312-2.548.2-4.65.34-6.743.569a1.705,1.705,0,0,0-1.183.692C5183.85-2825.139,5183.338-2823.848,5182.649-2822.306Zm-37.232-.033c-.606-1.4-1.087-2.645-1.689-3.827a1.687,1.687,0,0,0-1.079-.842c-2.178-.25-4.368-.391-6.982-.6A11.34,11.34,0,0,0,5145.417-2822.34Z" transform="translate(-5132.913 2842.699)"/>
  </g>
</svg>
