<svg xmlns="http://www.w3.org/2000/svg" width="52.852" height="56.875" viewBox="0 0 52.852 56.875">
  <g id="black-employee-icon" transform="translate(0)">
    <path id="Path_290" data-name="Path 290" d="M-1015.179-2536.162a13.727,13.727,0,0,1,7.446,12.13c.193,0,.382,0,.572,0a1.955,1.955,0,0,1,1.922,1.981,1.981,1.981,0,0,1-1.934,1.984h-.068q-14.065,0-28.129,0a1.981,1.981,0,0,1-1.784-2.918,1.878,1.878,0,0,1,1.68-1.045c.19-.006.381,0,.583,0a13.717,13.717,0,0,1,7.457-12.133c.183,1.036.352,1.993.522,2.951.2,1.14.4,2.281.611,3.419a1.018,1.018,0,0,0,1.248.858,1.047,1.047,0,0,0,.784-1.248q-.619-3.5-1.228-7.011a.574.574,0,0,1,.1-.4,2.626,2.626,0,0,1,2.17-1.092q1.912-.026,3.823,0a2.631,2.631,0,0,1,2.195,1.111.536.536,0,0,1,.087.368q-.6,3.508-1.227,7.01a1.047,1.047,0,0,0,.77,1.257,1.021,1.021,0,0,0,1.263-.879c.368-2.044.726-4.09,1.089-6.135C-1015.223-2536-1015.21-2536.038-1015.179-2536.162Z" transform="translate(1047.743 2538.697)"/>
    <path id="Path_291" data-name="Path 291" d="M-1016.688-2229.511h28.815a8.59,8.59,0,0,1-.583,3.146,10.342,10.342,0,0,1-.69,1.363,1.208,1.208,0,0,1-.425.479,2.038,2.038,0,0,0-.852,1.2,21.227,21.227,0,0,1-4.84,7.267,11.19,11.19,0,0,1-4.9,2.9,8.39,8.39,0,0,1-6.722-1.138,16.746,16.746,0,0,1-5.371-5.619,24.122,24.122,0,0,1-1.99-3.986c-.054-.135-.2-.236-.318-.345a5.879,5.879,0,0,1-.871-.837,7.956,7.956,0,0,1-1.187-3.654C-1016.657-2228.982-1016.667-2229.231-1016.688-2229.511Z" transform="translate(1028.448 2250.622)"/>
    <path id="Path_292" data-name="Path 292" d="M-955.468-1980.783c.593-.654,1.145-1.254,1.687-1.862a59.652,59.652,0,0,0,4.645-5.67c.4-.584.728-1.222,1.106-1.866l1.572.247v12.429h-22.878v-12.428l1.634-.26a16.285,16.285,0,0,0,2.931,4.348c1.38,1.647,2.831,3.235,4.251,4.848.044.05.093.1.182.19.081-.307.152-.571.22-.836.307-1.2.609-2.4.921-3.593a.383.383,0,0,0-.137-.458,3.182,3.182,0,0,1-.9-2.539h4.652a3.139,3.139,0,0,1-.91,2.559.353.353,0,0,0-.14.428C-956.238-1983.789-955.866-1982.327-955.468-1980.783Z" transform="translate(984.328 2027.645)"/>
    <path id="Path_293" data-name="Path 293" d="M-543.775-1957.336c0-.59.014-1.158,0-1.726a4.927,4.927,0,0,0-2.721-4.445c-.171-.094-.277-.171-.277-.4q.013-5.818.007-11.636c0-.067.008-.135.014-.234a2.4,2.4,0,0,1,.266.04,9.669,9.669,0,0,1,5.122,3.6,20.643,20.643,0,0,1,3.393,7.153,5.622,5.622,0,0,1-.077,3.257,4.963,4.963,0,0,1-1.926,2.572A13.112,13.112,0,0,1-543.775-1957.336Z" transform="translate(590.622 2014.211)"/>
    <path id="Path_294" data-name="Path 294" d="M-1179.915-1976v.383q0,5.681.006,11.363a.55.55,0,0,1-.332.572,4.9,4.9,0,0,0-2.666,4.373c-.019.578,0,1.158,0,1.755a.536.536,0,0,1-.148,0,13.762,13.762,0,0,1-3.675-1.826,5.06,5.06,0,0,1-2.01-5.605,18.947,18.947,0,0,1,3.425-7.355,9.7,9.7,0,0,1,5.12-3.6C-1180.124-1975.966-1180.046-1975.976-1179.915-1976Z" transform="translate(1188.925 2014.422)"/>
  </g>
</svg>
