<svg id="jg-black-distributor-icon" xmlns="http://www.w3.org/2000/svg" width="56.635" height="56.848" viewBox="0 0 56.635 56.848">
  <path id="Path_295" data-name="Path 295" d="M455.673-1950.952c-.094-.013-.188-.034-.283-.039-2.508-.125-5.021-.2-7.525-.384a47.055,47.055,0,0,1-8.058-1.2,8.71,8.71,0,0,1-2.363-.887,1.143,1.143,0,0,1-.618-1.105,23.77,23.77,0,0,1,1.526-8.432,17.8,17.8,0,0,1,5.65-7.558,25.1,25.1,0,0,1,7.2-3.851c.276.764.545,1.522.825,2.276a74.48,74.48,0,0,0,3.527,8.38c.158.306.342.6.526.893a2.9,2.9,0,0,0,.3.332c.154-.587.307-1.116.431-1.651.31-1.336.6-2.677.912-4.014a1.808,1.808,0,0,0-.323-1.579,9.814,9.814,0,0,1-.583-.858,2.137,2.137,0,0,1,.2-2.67,2.954,2.954,0,0,1,3.361-.9,3.8,3.8,0,0,1,1.5,1.049,1.547,1.547,0,0,1,.289,1.647c-.276.756-.6,1.493-.9,2.24a2.826,2.826,0,0,0-.074,2.932q.6,1.727,1.194,3.455c.03.086.066.17.12.31.09-.2.159-.339.222-.484,1.552-3.574,3.112-7.146,4.648-10.727a1.078,1.078,0,0,1,1.492-.71,6.529,6.529,0,0,1,2.265,1.23,30.389,30.389,0,0,1,6.177,6.552,25.385,25.385,0,0,1,3.352,6.059,11.462,11.462,0,0,1,.743,3.565,2.9,2.9,0,0,1-1.347,2.616,11.442,11.442,0,0,1-3.394,1.541,39.257,39.257,0,0,1-6.519,1.284,89.428,89.428,0,0,1-9.181.638c-.2,0-.4.031-.6.048Z" transform="translate(-424.762 2007.799)"/>
  <path id="Path_296" data-name="Path 296" d="M570.439-2534.279a9.685,9.685,0,0,1-.406-3.043,13.821,13.821,0,0,1,1.6-6.046,12.165,12.165,0,0,1,2.306-3.326,10.838,10.838,0,0,1,5.554-2.874,13.514,13.514,0,0,1,11.167,2.533,10.548,10.548,0,0,1,4.229,7.119,20.268,20.268,0,0,1,.057,5.664.834.834,0,0,0,0,.1c.029-.006.042,0,.046-.01.469-.6.8-.595,1.251.032a3.757,3.757,0,0,1,.456,3.49,10.737,10.737,0,0,1-2.018,3.568,49.358,49.358,0,0,1-6.756,7.062,13.873,13.873,0,0,1-3.487,2.225,3.634,3.634,0,0,1-3.5-.165c-.6-.368-1.2-.73-1.761-1.147a27.434,27.434,0,0,1-4.067-3.8c-1.982-2.23-3.917-4.5-5.855-6.768a5.143,5.143,0,0,1-1.2-2.146,3.979,3.979,0,0,1,.427-2.841.74.74,0,0,1,1.245-.25C570-2534.684,570.258-2534.437,570.439-2534.279Z" transform="translate(-548.307 2549.864)"/>
  <path id="Path_297" data-name="Path 297" d="M237.542-2178.293l-9.524.2v-.365q0-16.623,0-33.248a2.1,2.1,0,0,1,2.208-2.21q8.2,0,16.407,0a2.186,2.186,0,0,1,2.243,2.154c.116,1.766.26,3.531.389,5.3.1,1.439.178,2.882.322,4.317a.926.926,0,0,1-.448.959,47.011,47.011,0,0,0-6.509,5.74,19.894,19.894,0,0,0-4.819,8.454,18.939,18.939,0,0,0-.5,6.5c.06.66.155,1.317.233,1.976A2.272,2.272,0,0,1,237.542-2178.293Zm-3.855-26.922h9.983v-2.027h-9.983Zm9.993,1.522h-9.99v2h9.99Z" transform="translate(-228.018 2233.327)"/>
</svg>
