<svg xmlns="http://www.w3.org/2000/svg" width="45.574" height="118.76" viewBox="0 0 45.574 118.76">
  <g id="jg-tire-icon" transform="translate(-223.535 -779.481)">
    <path id="Path_316" data-name="Path 316" d="M.05-2.017h0L0,74" transform="translate(246.5 781.5)" fill="none" stroke="#000" stroke-width="4"/>
    <g id="Group_297" data-name="Group 297" transform="translate(223.535 852.667)">
      <path id="Path_288" data-name="Path 288" d="M4067.927-297.274c-.178-.436-.354-.847-.513-1.263-.056-.147-.131-.167-.267-.125-.185.058-.373.1-.562.151a.4.4,0,0,1-.529-.289q-.431-1.558-.843-3.121c-.079-.3.043-.474.35-.564.226-.066.454-.129.707-.2-.039-.309-.075-.615-.118-.92-.086-.611-.088-.611-.706-.614-.48,0-.6-.118-.6-.6q0-1.494,0-2.988c0-.373.148-.523.517-.531h.025c.224-.012.526.058.65-.059s.088-.426.12-.651c.037-.266.072-.532.111-.819-.244-.068-.477-.131-.71-.2-.3-.088-.429-.269-.352-.565q.408-1.551.833-3.1a.405.405,0,0,1,.541-.312c.188.046.376.093.561.151.134.042.211.024.267-.124.159-.417.334-.827.513-1.264-.211-.124-.43-.247-.645-.377a.418.418,0,0,1-.171-.641q.791-1.384,1.592-2.76a.418.418,0,0,1,.627-.16c.22.12.437.248.661.375l.947-1.237c-.173-.168-.35-.334-.52-.507a.444.444,0,0,1,0-.7q1.1-1.1,2.2-2.2a.441.441,0,0,1,.705,0c.167.166.324.343.5.527l1.244-.959c-.126-.22-.25-.429-.367-.643a.425.425,0,0,1,.162-.646q1.375-.8,2.757-1.594a.425.425,0,0,1,.642.177c.125.209.244.422.374.645.449-.184.892-.36,1.328-.551.042-.018.067-.139.055-.2-.039-.2-.1-.391-.151-.587a.4.4,0,0,1,.29-.531q1.57-.434,3.146-.846a.405.405,0,0,1,.536.326c.071.24.135.483.2.736.483-.059.951-.111,1.416-.18.048-.007.109-.114.114-.179.015-.193,0-.388.007-.582a.428.428,0,0,1,.489-.479q1.569,0,3.139,0c.323,0,.474.157.483.485.005.194-.012.389.007.582a.245.245,0,0,0,.143.179c.45.067.9.116,1.385.174.061-.221.122-.445.185-.669.1-.363.28-.471.637-.376q1.488.4,2.976.8c.343.093.446.273.36.622-.056.228-.116.454-.178.692l1.426.6c.126-.216.25-.435.38-.65a.425.425,0,0,1,.643-.173q1.381.793,2.756,1.6a.419.419,0,0,1,.155.646c-.119.212-.243.422-.369.638.411.315.811.622,1.251.962.164-.175.324-.356.5-.527a.435.435,0,0,1,.686-.017q1.124,1.113,2.24,2.236a.437.437,0,0,1,0,.67c-.171.175-.354.339-.538.516l.952,1.246c.226-.129.444-.257.665-.378a.417.417,0,0,1,.625.165q.8,1.376,1.592,2.76a.418.418,0,0,1-.176.64c-.107.066-.218.127-.328.19l-.314.186c.182.443.354.879.545,1.308a.247.247,0,0,0,.213.078c.2-.035.391-.1.586-.151a.4.4,0,0,1,.53.3q.429,1.558.841,3.122a.413.413,0,0,1-.335.553c-.234.069-.47.131-.723.2.058.483.11.958.176,1.431.005.04.108.092.168.1.2.012.405,0,.607.006a.431.431,0,0,1,.467.478q0,1.582,0,3.165a.413.413,0,0,1-.441.471c-.21.013-.423,0-.633.011-.062,0-.165.072-.171.122-.067.458-.116.918-.173,1.4.241.069.482.136.721.207a.411.411,0,0,1,.335.552q-.412,1.563-.844,3.121a.4.4,0,0,1-.525.3c-.2-.048-.393-.1-.585-.159-.129-.039-.195-.008-.247.125-.159.417-.334.827-.515,1.267.2.119.412.24.619.363a.428.428,0,0,1,.187.674q-.778,1.36-1.568,2.715a.424.424,0,0,1-.658.177c-.213-.118-.424-.241-.644-.366-.311.407-.618.807-.949,1.238.171.165.349.33.518.5a.448.448,0,0,1,0,.707q-1.1,1.1-2.2,2.2a.448.448,0,0,1-.724-.012l-.488-.477c-.006,0-.016,0-.034-.006l-1.207.932c.127.218.258.432.379.651a.42.42,0,0,1-.16.628q-1.384.812-2.778,1.609a.418.418,0,0,1-.623-.177c-.132-.215-.254-.435-.383-.655l-1.426.594c.064.249.127.492.187.736a.414.414,0,0,1-.316.561q-1.535.42-3.074.826c-.308.081-.489-.042-.583-.36-.06-.21-.118-.421-.177-.632a.655.655,0,0,0-.032-.062c-.468.057-.943.11-1.416.179-.042.006-.1.107-.1.167-.013.2,0,.405-.007.607a.425.425,0,0,1-.479.464q-1.569,0-3.14,0a.429.429,0,0,1-.49-.477c-.007-.194.008-.389-.007-.582,0-.065-.066-.172-.114-.179-.465-.07-.932-.122-1.416-.181-.065.236-.125.463-.191.687-.095.33-.283.451-.6.367q-1.526-.4-3.048-.819a.422.422,0,0,1-.33-.576c.056-.243.208-.538.123-.718-.078-.164-.417-.2-.641-.3l-.721-.307c-.122.21-.24.421-.363.63a.433.433,0,0,1-.677.185q-1.36-.78-2.713-1.57a.429.429,0,0,1-.178-.66c.11-.2.225-.4.336-.594a.252.252,0,0,0,.015-.054l-1.232-.956c-.166.179-.325.363-.5.534a.44.44,0,0,1-.705,0q-1.1-1.1-2.2-2.2a.444.444,0,0,1,0-.7c.083-.085.165-.169.251-.251s.173-.16.272-.251l-.95-1.242c-.224.127-.441.255-.661.375a.417.417,0,0,1-.627-.16q-.808-1.387-1.6-2.781a.409.409,0,0,1,.163-.606C4067.475-297.016,4067.7-297.139,4067.927-297.274Zm19.7,8.247a17.264,17.264,0,0,0,17.263-17.249,17.265,17.265,0,0,0-17.185-17.25,17.26,17.26,0,0,0-17.313,17.248A17.264,17.264,0,0,0,4087.624-289.027Z" transform="translate(-4064.85 329.064)"/>
      <path id="Path_289" data-name="Path 289" d="M4195.605-214.245a15.963,15.963,0,0,1,15.924,15.816,15.953,15.953,0,0,1-15.924,16.04,15.957,15.957,0,0,1-15.938-16.077A15.968,15.968,0,0,1,4195.605-214.245Zm-5.917,29.214a14.535,14.535,0,0,0,7.641,1.147,14.048,14.048,0,0,0,4.175-1.153c-1.609-2.537-3.2-5.041-4.789-7.546a5.828,5.828,0,0,1-2.027.031.282.282,0,0,0-.338.158q-1.523,2.419-3.058,4.83Zm-4.937-3.6a.785.785,0,0,0,.07-.058q2.765-3.344,5.532-6.686a.271.271,0,0,0,.038-.313c-.2-.553-.4-1.107-.541-1.675a.382.382,0,0,0-.318-.338q-3.537-.9-7.067-1.811c-.43-.11-.859-.216-1.334-.335A14.617,14.617,0,0,0,4184.751-188.633Zm25.31-11.217-.884.224q-3.765.965-7.533,1.929a.343.343,0,0,0-.291.3c-.144.56-.327,1.11-.525,1.654a.342.342,0,0,0,.046.4q2.145,2.576,4.276,5.164c.421.51.845,1.02,1.288,1.555A14.656,14.656,0,0,0,4210.062-199.85Zm-11.411-12.683c-.008.109-.016.166-.019.224-.056.858-.107,1.716-.163,2.575-.128,1.977-.253,3.954-.388,5.931-.011.164.06.223.185.306.471.32.939.649,1.391,1a.34.34,0,0,0,.4.071q3.13-1.247,6.266-2.481c.6-.238,1.2-.478,1.84-.733A14.678,14.678,0,0,0,4198.651-212.533Zm-15.607,6.885c.076.038.112.059.15.074q4,1.582,8,3.167a.273.273,0,0,0,.312-.059c.458-.352.926-.7,1.4-1.02a.36.36,0,0,0,.2-.376q-.232-3.584-.454-7.168c-.03-.487-.066-.973-.1-1.5A14.669,14.669,0,0,0,4183.043-205.648Zm9.256,7.321a3.287,3.287,0,0,0,3.276,3.313,3.292,3.292,0,0,0,3.319-3.3,3.29,3.29,0,0,0-3.289-3.3A3.288,3.288,0,0,0,4192.3-198.328Z" transform="translate(-4172.811 221.1)"/>
      <path id="Path_290" data-name="Path 290" d="M4428.777,33.767a1.183,1.183,0,0,1-1.183,1.194,1.2,1.2,0,1,1,0-2.392A1.183,1.183,0,0,1,4428.777,33.767Z" transform="translate(-4404.807 -10.977)"/>
    </g>
  </g>
</svg>
