<svg xmlns="http://www.w3.org/2000/svg" width="39" height="38.999" viewBox="0 0 39 38.999">
  <g id="ms-hero-overview-icon" transform="translate(-956.704 -56.815)">
    <path id="Path_464" data-name="Path 464" d="M976.2,56.815a19.5,19.5,0,1,0,19.5,19.5A19.5,19.5,0,0,0,976.2,56.815Zm0,34.672a15.172,15.172,0,1,1,15.172-15.172A15.172,15.172,0,0,1,976.2,91.487Z" transform="translate(0 0)" fill="#fccf00"/>
    <path id="Path_465" data-name="Path 465" d="M983.8,63.992a14.1,14.1,0,1,0,4.122,9.961A14,14,0,0,0,983.8,63.992Zm-22.124,9.98v-.019a12.1,12.1,0,0,1,2.312-7.128,1.417,1.417,0,0,1,2.294-.007l2.741,3.773a2.113,2.113,0,0,1-1.057,3.25l-4.457,1.449A1.4,1.4,0,0,1,961.679,73.973Zm10.243,10.2a1.412,1.412,0,0,1-1.846,1.348,12.2,12.2,0,0,1-6.051-4.394,1.416,1.416,0,0,1,.7-2.19l4.434-1.44a2.112,2.112,0,0,1,2.766,2.009Zm.211-15.838-2.743-3.777a1.416,1.416,0,0,1,.715-2.179,12.19,12.19,0,0,1,7.473,0,1.416,1.416,0,0,1,.716,2.179l-2.743,3.777A2.113,2.113,0,0,1,972.133,68.333Zm11.527,12.792a12.194,12.194,0,0,1-6.051,4.394,1.412,1.412,0,0,1-1.846-1.348V79.5a2.112,2.112,0,0,1,2.766-2.009l4.434,1.44A1.416,1.416,0,0,1,983.659,81.125Zm.512-5.835-4.457-1.449a2.113,2.113,0,0,1-1.057-3.25l2.741-3.773a1.417,1.417,0,0,1,2.294.007,12.1,12.1,0,0,1,2.312,7.128v.019A1.4,1.4,0,0,1,984.172,75.29Z" transform="translate(2.362 2.362)" fill="#fccf00"/>
  </g>
</svg>
