<svg xmlns="http://www.w3.org/2000/svg" width="39" height="39" viewBox="0 0 39 39">
  <path id="ms-races-circuit-icon" d="M28.856,0h-16.5A10.079,10.079,0,0,0,2.285,10.068v6.081H0v2.285H11.425V16.148H9.14V10.068a3.216,3.216,0,0,1,3.212-3.212h16.5a3.3,3.3,0,0,1,3.288,3.212V14.79a3.205,3.205,0,0,1-2.192,3.045l-4.712,1.546a10.056,10.056,0,0,0-6.883,9.551,3.216,3.216,0,0,1-3.212,3.212H12.353A3.216,3.216,0,0,1,9.14,28.932V23h2.285V20.719H0V23H2.285v5.928A10.079,10.079,0,0,0,12.353,39h2.792A10.079,10.079,0,0,0,25.213,28.932,3.205,3.205,0,0,1,27.4,25.887l4.712-1.546A10.056,10.056,0,0,0,39,14.79V10.068A10.136,10.136,0,0,0,28.856,0Zm7.859,14.79A7.772,7.772,0,0,1,31.4,22.172l-4.712,1.546a5.49,5.49,0,0,0-3.759,5.215,7.792,7.792,0,0,1-7.783,7.783H12.353A7.792,7.792,0,0,1,4.57,28.932V23H6.855v5.928a5.5,5.5,0,0,0,5.5,5.5h2.792a5.5,5.5,0,0,0,5.5-5.5,7.772,7.772,0,0,1,5.316-7.381l4.712-1.546a5.49,5.49,0,0,0,3.759-5.215V10.068a5.564,5.564,0,0,0-5.574-5.5h-16.5a5.5,5.5,0,0,0-5.5,5.5v6.081H4.57V10.068a7.792,7.792,0,0,1,7.783-7.783h16.5a7.83,7.83,0,0,1,7.859,7.783Zm0,0" transform="translate(0)" fill="#fccf00"/>
</svg>
