<svg xmlns="http://www.w3.org/2000/svg" width="31.693" height="30.675" viewBox="0 0 31.693 30.675">
  <g id="ms-yellow-flag-icon" transform="translate(356 -22)">
    <g id="Group_359" data-name="Group 359" transform="translate(-356 22)">
      <path id="Path_432" data-name="Path 432" d="M26.707,11a20.9,20.9,0,0,0-5.575.122,17,17,0,0,1-5.563-.028A6.752,6.752,0,0,1,11.08,7.284l-.825,2.232-5.4,14.6L0,37.265l1.876.693L6.248,26.13a6.045,6.045,0,0,0,3.1,1.8,17.009,17.009,0,0,0,5.563.028,20.883,20.883,0,0,1,5.576-.122,6.753,6.753,0,0,1,4.985,3.905L31.693,14.9A6.754,6.754,0,0,0,26.707,11Zm.231,9.993a6.658,6.658,0,0,0-3.115-1.533l-1.2,3.242a6.661,6.661,0,0,1,3.116,1.533l-1.1,2.973a6.656,6.656,0,0,0-3.116-1.533l1.1-2.973a16.3,16.3,0,0,0-3.64-.12l-1.1,2.973c-1.273.1-2.541.249-3.814.351l1.1-2.973a16.285,16.285,0,0,1-3.64-.12l-1.1,2.973a6.656,6.656,0,0,1-3.116-1.533l1.1-2.972a6.658,6.658,0,0,0,3.116,1.533l1.2-3.242a6.657,6.657,0,0,1-3.116-1.533l1.2-3.242a6.66,6.66,0,0,0,3.116,1.533l1.1-2.972a16.285,16.285,0,0,0,3.64.12l-1.1,2.973c1.273-.1,2.541-.249,3.814-.351l1.1-2.973a16.289,16.289,0,0,1,3.64.12l-1.1,2.973a6.66,6.66,0,0,1,3.116,1.533Z" transform="translate(0 -7.284)" fill="#fccf00"/>
      <path id="Path_433" data-name="Path 433" d="M218.225,180.049l-1.2,3.242c1.273-.1,2.541-.249,3.814-.352l1.2-3.242C220.766,179.8,219.5,179.947,218.225,180.049Z" transform="translate(-201.857 -167.646)" fill="#fccf00"/>
      <path id="Path_434" data-name="Path 434" d="M185.733,139.995l1.2-3.242a16.315,16.315,0,0,1-3.64-.12l-1.2,3.242A16.269,16.269,0,0,0,185.733,139.995Z" transform="translate(-169.365 -127.592)" fill="#fccf00"/>
      <path id="Path_435" data-name="Path 435" d="M289.932,132.7l-1.2,3.242a16.3,16.3,0,0,1,3.64.12l1.2-3.242A16.28,16.28,0,0,0,289.932,132.7Z" transform="translate(-268.552 -123.887)" fill="#fccf00"/>
    </g>
  </g>
</svg>
