<svg xmlns="http://www.w3.org/2000/svg" width="13.739" height="36.768" viewBox="0 0 13.739 36.768">
  <g id="top-phone-icons" transform="translate(2014.226 -2641.801)">
    <g id="phone" transform="translate(-2014.765 2641.801)">
      <g id="Group_433" data-name="Group 433" transform="translate(0.539 0)">
        <path id="Path_462" data-name="Path 462" d="M13.918,10.1,12,8.183a1.278,1.278,0,0,0-2.127.48,1.308,1.308,0,0,1-1.51.823A5.925,5.925,0,0,1,4.792,5.919a1.244,1.244,0,0,1,.823-1.51A1.278,1.278,0,0,0,6.1,2.282L4.174.36a1.371,1.371,0,0,0-1.853,0l-1.3,1.3C-.286,3.036,1.155,6.673,4.38,9.9s6.862,4.735,8.234,3.362l1.3-1.3A1.37,1.37,0,0,0,13.918,10.1Z" transform="translate(-0.539 0)" fill="#fccf00"/>
      </g>
    </g>
    <g id="phone-2" data-name="phone" transform="translate(-2014.765 2664.801)">
      <g id="Group_433-2" data-name="Group 433" transform="translate(0.539 0)">
        <path id="Path_462-2" data-name="Path 462" d="M13.918,10.1,12,8.183a1.278,1.278,0,0,0-2.127.48,1.308,1.308,0,0,1-1.51.823A5.925,5.925,0,0,1,4.792,5.919a1.244,1.244,0,0,1,.823-1.51A1.278,1.278,0,0,0,6.1,2.282L4.174.36a1.371,1.371,0,0,0-1.853,0l-1.3,1.3C-.286,3.036,1.155,6.673,4.38,9.9s6.862,4.735,8.234,3.362l1.3-1.3A1.37,1.37,0,0,0,13.918,10.1Z" transform="translate(-0.539 0)" fill="#fff"/>
      </g>
    </g>
  </g>
</svg>
