<svg xmlns="http://www.w3.org/2000/svg" width="21" height="16" viewBox="0 0 21 16">
  <g id="web" transform="translate(-116 -909)">
    <rect id="Rectangle_265" data-name="Rectangle 265" width="21" height="16" transform="translate(116 909)" fill="#c8c8c8" opacity="0"/>
    <g id="global" transform="translate(119 908.683)">
      <path id="Path_579" data-name="Path 579" d="M231.816,347.367c1.146-.163,2.15-1.359,2.782-3.125a13.6,13.6,0,0,0-2.782-.328Zm0,0" transform="translate(-223.41 -331.05)"/>
      <path id="Path_580" data-name="Path 580" d="M279.731,360.326c.068-.02.135-.039.2-.061s.112-.038.168-.057.132-.046.2-.071l.166-.066.19-.08.164-.075c.062-.029.123-.059.185-.09l.161-.084q.09-.048.179-.1c.054-.03.105-.061.157-.092l.173-.107c.051-.033.1-.066.153-.1s.112-.078.168-.117l.148-.107.162-.127c.048-.038.1-.076.142-.115s.1-.091.157-.137.091-.08.136-.122.1-.1.151-.146.087-.085.129-.128l.023-.025a9,9,0,0,0-1.835-.706,6.645,6.645,0,0,1-1.711,2.779l.065-.016Zm0,0" transform="translate(-269.124 -344.29)"/>
      <path id="Path_581" data-name="Path 581" d="M339.31,231.684H336.1a13.888,13.888,0,0,1-.541,3.7,9.31,9.31,0,0,1,2.032.809,7.482,7.482,0,0,0,1.719-4.514Zm0,0" transform="translate(-323.31 -222.847)"/>
      <path id="Path_582" data-name="Path 582" d="M231.816,112.515h3.478a13.4,13.4,0,0,0-.527-3.573,14.106,14.106,0,0,1-2.951.352Zm0,0" transform="translate(-223.371 -104.655)"/>
      <path id="Path_583" data-name="Path 583" d="M231.816.316V3.769a13.61,13.61,0,0,0,2.782-.328c-.632-1.766-1.637-2.962-2.782-3.125Zm0,0" transform="translate(-223.41)"/>
      <path id="Path_584" data-name="Path 584" d="M231.816,234.9a14.115,14.115,0,0,1,2.951.352,13.4,13.4,0,0,0,.527-3.573h-3.478Zm0,0" transform="translate(-223.371 -222.911)"/>
      <path id="Path_585" data-name="Path 585" d="M337.591,80.844a9.313,9.313,0,0,1-2.032.809,13.889,13.889,0,0,1,.541,3.7h3.211a7.484,7.484,0,0,0-1.719-4.514Zm0,0" transform="translate(-323.31 -77.562)"/>
      <path id="Path_586" data-name="Path 586" d="M283.006,8.869l-.023-.025c-.042-.044-.086-.086-.129-.128s-.1-.1-.151-.146-.09-.08-.136-.122-.1-.092-.157-.137-.094-.076-.141-.114-.109-.087-.164-.128-.1-.072-.147-.107-.112-.08-.169-.119-.1-.067-.152-.1-.116-.074-.175-.109l-.156-.091q-.09-.051-.18-.1l-.161-.083c-.062-.031-.124-.061-.187-.09s-.108-.05-.163-.075-.128-.053-.191-.08l-.166-.066c-.065-.025-.131-.048-.2-.071s-.111-.039-.168-.057-.134-.041-.2-.061-.112-.033-.168-.048l-.065-.016a6.645,6.645,0,0,1,1.712,2.779,8.987,8.987,0,0,0,1.837-.707Zm0,0" transform="translate(-269.087 -6.263)"/>
      <path id="Path_587" data-name="Path 587" d="M0,85.357H3.211a13.893,13.893,0,0,1,.541-3.7,9.3,9.3,0,0,1-2.032-.809A7.482,7.482,0,0,0,0,85.357Zm0,0" transform="translate(0 -77.562)"/>
      <path id="Path_588" data-name="Path 588" d="M135.477,347.366v-3.452a13.61,13.61,0,0,0-2.782.328C133.327,346.008,134.331,347.2,135.477,347.366Zm0,0" transform="translate(-127.883 -331.05)"/>
      <path id="Path_589" data-name="Path 589" d="M115.4,231.684h-3.478a13.392,13.392,0,0,0,.527,3.573,14.1,14.1,0,0,1,2.951-.352Zm0,0" transform="translate(-107.844 -222.911)"/>
      <path id="Path_590" data-name="Path 590" d="M135.477.316c-1.146.163-2.15,1.359-2.782,3.125a13.592,13.592,0,0,0,2.782.328Zm0,0" transform="translate(-127.883)"/>
      <path id="Path_591" data-name="Path 591" d="M115.4,109.293a14.106,14.106,0,0,1-2.951-.352,13.391,13.391,0,0,0-.527,3.573H115.4Zm0,0" transform="translate(-107.844 -104.655)"/>
      <path id="Path_592" data-name="Path 592" d="M65.737,6.789l-.065.016c-.057.015-.113.032-.169.048s-.134.039-.2.061l-.169.058c-.066.023-.131.046-.2.071l-.167.066-.19.08c-.055.024-.11.05-.164.075s-.123.059-.184.09l-.161.084q-.09.048-.179.1t-.158.092l-.173.107c-.052.033-.1.066-.153.1s-.112.078-.168.117l-.148.107c-.055.041-.107.084-.162.127s-.1.076-.142.115-.1.09-.156.136-.092.08-.137.123-.1.1-.15.146-.087.085-.129.129l-.023.025a8.991,8.991,0,0,0,1.835.706,6.643,6.643,0,0,1,1.711-2.778Zm0,0" transform="translate(-60.109 -6.256)"/>
      <path id="Path_593" data-name="Path 593" d="M62.381,358.422c.05.049.1.1.15.146s.09.08.136.122.1.092.157.137.093.076.141.114.107.087.164.128l.146.107c.056.04.112.08.169.119s.1.067.152.1.116.074.175.109l.156.091q.09.051.18.1l.161.083c.062.031.124.061.187.091l.163.074c.063.028.127.053.191.08l.166.066c.065.025.131.048.2.071s.111.039.168.057.134.042.2.061.112.033.168.048l.065.016a6.648,6.648,0,0,1-1.711-2.779,8.99,8.99,0,0,0-1.835.706l.023.025C62.294,358.337,62.337,358.379,62.381,358.422Zm0,0" transform="translate(-60.147 -344.241)"/>
      <path id="Path_594" data-name="Path 594" d="M1.719,236.2a9.318,9.318,0,0,1,2.032-.809,13.893,13.893,0,0,1-.541-3.7H0A7.483,7.483,0,0,0,1.719,236.2Zm0,0" transform="translate(0 -222.846)"/>
    </g>
  </g>
</svg>
