<svg xmlns="http://www.w3.org/2000/svg" width="44.002" height="44" viewBox="0 0 44.002 44">
  <g id="iconfinder_circle-arrow-down_430086" transform="translate(-13.869 57.903) rotate(-90)">
    <g id="Group_102" data-name="Group 102" transform="translate(13.903 13.869)">
      <path id="Path_66" data-name="Path 66" d="M35.9,13.869a22,22,0,1,0,22,22A22.026,22.026,0,0,0,35.9,13.869Zm0,42.247A20.246,20.246,0,1,1,56.148,35.87,20.27,20.27,0,0,1,35.9,56.116ZM42.27,38.029l-5.488,4.729V27.067a.878.878,0,0,0-1.756,0V42.758l-5.489-4.729a.878.878,0,0,0-1.146,1.33L35.9,45.831l7.512-6.473a.878.878,0,0,0-1.146-1.33Z" transform="translate(-13.903 -13.869)" fill="#fff"/>
    </g>
  </g>
</svg>
