<svg id="checkered-flag" xmlns="http://www.w3.org/2000/svg" width="34.83" height="33.711" viewBox="0 0 34.83 33.711">
  <g id="Group_359" data-name="Group 359" transform="translate(0 0)">
    <path id="Path_432" data-name="Path 432" d="M29.351,11.364a22.968,22.968,0,0,0-6.127.135,18.687,18.687,0,0,1-6.114-.03,7.42,7.42,0,0,1-4.933-4.184L11.27,9.737,5.338,25.788,0,40.233,2.062,41l4.8-13a6.644,6.644,0,0,0,3.406,1.976A18.693,18.693,0,0,0,16.385,30a22.95,22.95,0,0,1,6.127-.135,7.422,7.422,0,0,1,5.479,4.292l6.838-18.5A7.422,7.422,0,0,0,29.351,11.364ZM29.6,22.346a7.317,7.317,0,0,0-3.424-1.685l-1.317,3.562a7.321,7.321,0,0,1,3.424,1.685L27.08,29.175a7.315,7.315,0,0,0-3.424-1.685l1.207-3.267a17.91,17.91,0,0,0-4-.132l-1.207,3.267c-1.4.113-2.793.273-4.192.386l1.207-3.267a17.9,17.9,0,0,1-4-.132l-1.207,3.267A7.315,7.315,0,0,1,8.04,25.927l1.207-3.267a7.317,7.317,0,0,0,3.424,1.685l1.317-3.563A7.316,7.316,0,0,1,10.564,19.1l1.317-3.563A7.319,7.319,0,0,0,15.3,17.22l1.207-3.267a17.9,17.9,0,0,0,4,.132l-1.207,3.267c1.4-.113,2.793-.273,4.192-.386L24.7,13.7a17.9,17.9,0,0,1,4,.132L27.5,17.1a7.319,7.319,0,0,1,3.424,1.685Z" transform="translate(0 -7.284)" fill="#fff"/>
    <path id="Path_433" data-name="Path 433" d="M218.344,180.084l-1.317,3.563c1.4-.113,2.793-.273,4.192-.386l1.317-3.562C221.137,179.811,219.743,179.971,218.344,180.084Z" transform="translate(-200.355 -166.453)" fill="#fff"/>
    <path id="Path_434" data-name="Path 434" d="M186.093,140.327l1.317-3.562a17.929,17.929,0,0,1-4-.132l-1.317,3.563A17.88,17.88,0,0,0,186.093,140.327Z" transform="translate(-168.105 -126.697)" fill="#fff"/>
    <path id="Path_435" data-name="Path 435" d="M290.051,132.7l-1.317,3.563a17.917,17.917,0,0,1,4,.132l1.317-3.562A17.892,17.892,0,0,0,290.051,132.7Z" transform="translate(-266.554 -123.02)" fill="#fff"/>
  </g>
</svg>
