<svg xmlns="http://www.w3.org/2000/svg" width="14" height="14" viewBox="0 0 14 14">
  <path id="language_1_" data-name="language (1)" d="M7,0a7,7,0,1,0,7,7A7,7,0,0,0,7,0Zm6.054,9.452L11.063,9.8a10.446,10.446,0,0,0,.366-2.562h2.1a6.49,6.49,0,0,1-.474,2.219ZM.472,7.233h2.1A10.446,10.446,0,0,0,2.937,9.8L.946,9.452A6.49,6.49,0,0,1,.472,7.233ZM.946,4.548,2.937,4.2A10.446,10.446,0,0,0,2.57,6.767H.472A6.49,6.49,0,0,1,.946,4.548Zm6.287-.8a16.052,16.052,0,0,1,2.5.228l.824.142a10.016,10.016,0,0,1,.4,2.65H7.233Zm2.581-.232A16.539,16.539,0,0,0,7.233,3.28V.48c1.338.129,2.5,1.353,3.158,3.136ZM6.767,3.28a16.537,16.537,0,0,0-2.581.235l-.578.1C4.267,1.832,5.429.607,6.767.479Zm-2.5.7a16.048,16.048,0,0,1,2.5-.228v3.02H3.037a10.016,10.016,0,0,1,.4-2.65ZM3.037,7.233h3.73v3.02a16.052,16.052,0,0,1-2.5-.228l-.824-.142a10.016,10.016,0,0,1-.4-2.65Zm1.149,3.252a16.6,16.6,0,0,0,2.581.236v2.8c-1.338-.129-2.5-1.353-3.158-3.136Zm3.048.236a16.593,16.593,0,0,0,2.581-.236l.578-.1c-.659,1.783-1.821,3.008-3.158,3.136Zm2.5-.7a16.048,16.048,0,0,1-2.5.228V7.233h3.73a10.016,10.016,0,0,1-.4,2.65Zm1.7-3.258A10.446,10.446,0,0,0,11.063,4.2l1.991.344a6.49,6.49,0,0,1,.474,2.219Zm1.388-2.733L10.91,3.7A6.434,6.434,0,0,0,9.053.8a6.564,6.564,0,0,1,3.765,3.234ZM4.947.8A6.434,6.434,0,0,0,3.09,3.7l-1.908.329A6.564,6.564,0,0,1,4.947.8ZM1.182,9.967,3.09,10.3A6.434,6.434,0,0,0,4.947,13.2,6.564,6.564,0,0,1,1.182,9.967ZM9.053,13.2A6.434,6.434,0,0,0,10.91,10.3l1.908-.329A6.564,6.564,0,0,1,9.053,13.2Zm0,0" fill="#fff"/>
</svg>
