<svg xmlns="http://www.w3.org/2000/svg" width="158.85" height="106.414" viewBox="0 0 158.85 106.414">
  <g id="Group_995" data-name="Group 995" transform="translate(-424 -1185)">
    <g id="Group_831" data-name="Group 831" transform="translate(424 1185)">
      <path id="Path_16130" data-name="Path 16130" d="M274.969,376.951q.778-1.516,1.585-2.948.793-1.406,1.616-2.73l-2.281-3.212-2.195-3.092-2.114-2.98-2.039-2.873q-1.05,1.019-2.086,2.105-1.054,1.106-2.094,2.281-1.058,1.2-2.1,2.466-1.063,1.293-2.113,2.661l2.526,3.507,2.63,3.65,2.74,3.8,2.856,3.963q.743-1.757,1.519-3.422Q274.177,378.5,274.969,376.951Z" transform="translate(-222.497 -317.079)" fill="#fff"/>
      <path id="Path_16131" data-name="Path 16131" d="M331.5,320.438l-1.449-2.092-1.4-2.03q-.92.529-1.843,1.091t-1.869,1.173q-.947.612-1.9,1.263T321.1,321.2l1.679,2.4,1.736,2.479,1.8,2.564,1.859,2.655q.8-.921,1.607-1.79t1.6-1.669q.79-.8,1.585-1.558t1.575-1.456l-1.543-2.228Z" transform="translate(-266.074 -285.97)" fill="#fff"/>
      <path id="Path_16132" data-name="Path 16132" d="M254.072,228.189q1.245-.194,2.469-.366t2.407-.322l-.979-1.414-.955-1.379-.931-1.345-.909-1.312q-1.26.062-2.541.14t-2.612.176q-1.332.1-2.691.213t-2.78.255l1.049,1.5,1.076,1.537,1.105,1.578,1.136,1.622q1.322-.245,2.616-.465T254.072,228.189Z" transform="translate(-210.435 -217.457)" fill="#fff"/>
      <path id="Path_16133" data-name="Path 16133" d="M332.135,285.848l1.323,1.911,1.363,1.969q.914-.5,1.821-.977t1.789-.906q.882-.434,1.76-.839t1.734-.778l-1.158-1.69-1.127-1.644-1.1-1.6-1.068-1.559q-.951.257-1.91.535t-1.947.585q-.988.307-1.987.639t-2.032.7l1.248,1.8Z" transform="translate(-272.252 -259.382)" fill="#fff"/>
      <path id="Path_16134" data-name="Path 16134" d="M276.046,313.825q.99-.841,1.98-1.634t1.956-1.52l-1.624-2.319-1.573-2.246-1.524-2.175-1.476-2.108q-1.119.55-2.244,1.135-1.14.594-2.287,1.226-1.163.641-2.336,1.326-1.19.695-2.392,1.436l1.772,2.5,1.834,2.584,1.9,2.675L272,317.476q1.02-.975,2.039-1.893Q275.042,314.678,276.046,313.825Z" transform="translate(-224.954 -275.437)" fill="#fff"/>
      <path id="Path_16135" data-name="Path 16135" d="M281.032,270.381l1.389,1.982,1.431,2.043q1.106-.521,2.2-1.007t2.149-.928q1.057-.443,2.1-.856t2.064-.788l-1.213-1.753-1.18-1.7-1.147-1.657-1.117-1.613q-1.119.256-2.251.536t-2.3.59q-1.171.311-2.36.649t-2.425.713l1.308,1.868Z" transform="translate(-235.02 -248.02)" fill="#fff"/>
      <path id="Path_16136" data-name="Path 16136" d="M211.528,299.429q1.252-.9,2.505-1.744,1.233-.829,2.467-1.6l-1.715-2.416-1.659-2.337-1.606-2.263-1.555-2.192q-1.376.582-2.765,1.2-1.41.632-2.835,1.307-1.447.686-2.914,1.42-1.49.746-3,1.545l1.883,2.613,1.949,2.705,2.019,2.8,2.093,2.9q1.3-1.057,2.591-2.051Q210.255,300.345,211.528,299.429Z" transform="translate(-176.927 -264.573)" fill="#fff"/>
      <path id="Path_16137" data-name="Path 16137" d="M222.307,254.245l1.462,2.059,1.508,2.124q1.353-.549,2.685-1.059,1.314-.5,2.609-.97,1.279-.461,2.542-.889,1.247-.423,2.482-.815l-1.271-1.815-1.235-1.763-1.2-1.714-1.168-1.667q-1.331.261-2.682.548-1.367.29-2.755.608-1.406.322-2.838.673-1.451.356-2.931.744l1.375,1.939Z" transform="translate(-192.238 -236.126)" fill="#fff"/>
      <path id="Path_16138" data-name="Path 16138" d="M299.29,242.744l1.058,1.529,1.087,1.57q1.114-.241,2.209-.461t2.154-.414q1.059-.195,2.1-.37t2.059-.329l-.94-1.371-.917-1.338-.895-1.306-.873-1.274q-1.085.069-2.186.154t-2.238.187q-1.138.1-2.3.223t-2.361.261l1,1.451Z" transform="translate(-248.741 -229.761)" fill="#fff"/>
      <path id="Path_16139" data-name="Path 16139" d="M378.12,295.579q-.84.31-1.687.642t-1.717.7l1.191,1.738,1.225,1.787,1.26,1.839,1.3,1.893q.76-.5,1.518-.967t1.5-.9q.741-.433,1.481-.84t1.465-.783l-1.1-1.622-1.073-1.58-1.045-1.539-1.019-1.5q-.814.263-1.634.546T378.12,295.579Z" transform="translate(-305.041 -270.071)" fill="#fff"/>
      <path id="Path_16140" data-name="Path 16140" d="M373.4,332.277q-.777.6-1.553,1.226t-1.571,1.314l1.593,2.3,1.646,2.378,1.7,2.458,1.76,2.543q.63-.885,1.267-1.725t1.269-1.614q.631-.776,1.271-1.513t1.272-1.419l-1.463-2.134-1.419-2.07-1.376-2.008-1.336-1.949q-.763.519-1.524,1.069T373.4,332.277Z" transform="translate(-301.811 -295.963)" fill="#fff"/>
      <path id="Path_16141" data-name="Path 16141" d="M326.655,375.265q-.809,1.114-1.6,2.294-.8,1.2-1.591,2.466l2.369,3.339,2.465,3.473,2.566,3.616,2.674,3.768q.51-1.628,1.054-3.172.535-1.518,1.1-2.956.558-1.415,1.148-2.752.58-1.315,1.191-2.557l-2.149-3.068-2.071-2.956-2-2.85-1.927-2.75q-.819.957-1.621,1.975Q327.453,374.168,326.655,375.265Z" transform="translate(-267.79 -325.831)" fill="#fff"/>
      <path id="Path_16142" data-name="Path 16142" d="M325.983,226q1.033-.033,2.049-.053t2-.029l-.749-1.1-.733-1.079-.717-1.056-.7-1.034h0q-1.039-.054-2.095-.1t-2.145-.078q-1.089-.034-2.2-.057t-2.26-.035l.8,1.161.814,1.188.833,1.216.853,1.245q1.086-.061,2.153-.108T325.983,226Z" transform="translate(-264.136 -216.966)" fill="#fff"/>
      <path id="Path_16143" data-name="Path 16143" d="M345.719,258.811l1.014,1.479,1.041,1.518q.948-.243,1.885-.467t1.846-.424q.91-.2,1.81-.384t1.777-.346l-.9-1.325-.879-1.294-.858-1.264-.839-1.235q-.944.081-1.9.175t-1.938.206q-.983.111-1.982.239t-2.029.273l.963,1.406Z" transform="translate(-282.548 -241.456)" fill="#fff"/>
      <path id="Path_16144" data-name="Path 16144" d="M163.374,239.768q1.57-.49,3.115-.943,1.524-.447,3.026-.861l-1.336-1.882-1.3-1.828-1.261-1.777-1.226-1.727q-1.609.272-3.245.572-1.659.3-3.35.638-1.716.339-3.47.711-1.781.378-3.607.791l1.457,2.022,1.5,2.084,1.549,2.149,1.6,2.218q1.683-.589,3.33-1.134Q161.782,240.265,163.374,239.768Z" transform="translate(-142.239 -223.781)" fill="#fff"/>
      <path id="Path_16145" data-name="Path 16145" d="M137.612,276.349l-1.7-2.364L134.26,271.7q-1.731.615-3.484,1.286-1.782.682-3.587,1.419-1.837.75-3.7,1.559-1.9.823-3.819,1.706l2.02,2.756,2.091,2.853,2.167,2.956,2.247,3.064q1.691-1.164,3.37-2.257,1.648-1.072,3.285-2.075,1.608-.984,3.207-1.9,1.571-.9,3.134-1.739l-1.82-2.526Z" transform="translate(-119.671 -253.539)" fill="#fff"/>
      <path id="Path_16146" data-name="Path 16146" d="M296.919,476.515q.227-2.738.533-5.33.3-2.534.679-4.929l-3.4-4.726-3.253-4.516-3.112-4.32-2.98-4.136q-.787,1.858-1.525,3.828-.754,2.012-1.459,4.143-.72,2.178-1.388,4.481-.683,2.355-1.311,4.841l3.852,5.253,4.041,5.513,4.245,5.791L296.3,488.5q.077-3.194.233-6.224Q296.687,479.318,296.919,476.515Z" transform="translate(-235.981 -382.086)" fill="#fff"/>
      <path id="Path_16147" data-name="Path 16147" d="M202.5,353.4l-2.251-3.125-2.169-3.01q-1.359,1.107-2.709,2.291-1.376,1.206-2.745,2.493-1.4,1.312-2.784,2.706-1.416,1.422-2.826,2.933l2.717,3.707,2.83,3.86,2.949,4.023,3.076,4.2q1.063-1.94,2.155-3.773,1.069-1.8,2.165-3.489,1.074-1.66,2.174-3.223,1.079-1.532,2.183-2.972l-2.429-3.371Z" transform="translate(-168.621 -308.465)" fill="#fff"/>
      <path id="Path_16148" data-name="Path 16148" d="M434.2,285.986l.92,1.366.943,1.4q.7-.266,1.4-.514t1.377-.476q.682-.228,1.36-.441t1.344-.408l-.81-1.211-.793-1.185-.776-1.16-.76-1.136q-.728.114-1.461.24t-1.482.267q-.749.141-1.5.3t-1.53.326l.878,1.3Z" transform="translate(-346.986 -261.189)" fill="#fff"/>
      <path id="Path_16149" data-name="Path 16149" d="M494.537,305.552l.685,1.03.7,1.051q.641-.133,1.277-.254t1.262-.231q.625-.11,1.247-.21t1.232-.19l-.6-.911-.591-.895-.581-.879-.571-.864q-.657.027-1.319.063t-1.337.079q-.674.043-1.355.1t-1.374.113l.658.991Z" transform="translate(-391.162 -276.437)" fill="#fff"/>
      <path id="Path_16150" data-name="Path 16150" d="M440.466,214.575l.511.769.52.782q.806.1,1.6.211t1.575.22q.779.112,1.549.229t1.525.239l-.461-.7-.454-.686-.447-.676-.44-.665q-.784-.161-1.579-.317t-1.6-.31q-.81-.153-1.632-.3t-1.661-.295l.494.743Z" transform="translate(-352.105 -210.934)" fill="#fff"/>
      <path id="Path_16151" data-name="Path 16151" d="M498.05,273.9q-.67-.046-1.345-.087t-1.363-.076q-.688-.036-1.382-.065l.533.807.542.82.053.08h.039l.214,0,.256,0-.256,0-.214,0h-.039l.5.755.561.849.161-.006.16-.006.16-.006.16-.005.613-.019.609-.016.606-.013.6-.01h.067l.258,0,.258,0h.043l.214,0,.256,0h.964l-.486-.74-.479-.728-.472-.717-.464-.706Q498.716,273.95,498.05,273.9Z" transform="translate(-391.709 -254.979)" fill="#fff"/>
      <path id="Path_16152" data-name="Path 16152" d="M498.7,279.91l-.256,0-.214,0,.214,0Z" transform="translate(-394.816 -259.51)" fill="#fff"/>
      <path id="Path_16153" data-name="Path 16153" d="M496.188,279.938l.258,0h0Z" transform="translate(-393.329 -259.528)" fill="#fff"/>
      <path id="Path_16154" data-name="Path 16154" d="M497.421,279.925l-.247,0,.247,0h0Z" transform="translate(-394.045 -259.521)" fill="#fff"/>
      <path id="Path_16155" data-name="Path 16155" d="M498.09,279.924Z" transform="translate(-394.711 -259.52)" fill="#fff"/>
      <path id="Path_16156" data-name="Path 16156" d="M468.316,287.434l-.622-.936-.611-.918q-.733,0-1.473.013t-1.5.03q-.756.019-1.521.048t-1.547.066l.7,1.045.713,1.066.728,1.088.743,1.112q.728-.108,1.449-.205t1.427-.182q.706-.085,1.406-.16t1.386-.14l-.646-.972Z" transform="translate(-367.787 -263.631)" fill="#fff"/>
      <path id="Path_16157" data-name="Path 16157" d="M449.76,258.363h.228q.521,0,1.038.007t1.027.015q.51.009,1.016.022l1.005.029.308.01.306.011.306.012.3.012-.524-.793-.516-.78-.507-.767-.5-.755q-.728-.077-1.464-.149T450.3,255.1q-.75-.067-1.51-.128t-1.535-.116l.567.854.578.869.589.885.6.9h.171Z" transform="translate(-357.764 -241.298)" fill="#fff"/>
      <path id="Path_16158" data-name="Path 16158" d="M464.814,267.786q.51.009,1.016.022l1.005.029-1.005-.029Q465.324,267.8,464.814,267.786Z" transform="translate(-370.526 -250.698)" fill="#fff"/>
      <path id="Path_16159" data-name="Path 16159" d="M455.966,267.7h0Z" transform="translate(-363.97 -250.636)" fill="#fff"/>
      <path id="Path_16160" data-name="Path 16160" d="M407.185,253.671l.766,1.138.784,1.163q.828-.089,1.645-.165t1.616-.14q.8-.064,1.588-.117t1.562-.095l-.685-1.024-.671-1-.658-.983-.645-.964-.1,0-.1,0-.1,0-.1,0h-.064q-.584-.013-1.173-.021t-1.187-.011q-.6,0-1.2,0t-1.22.008l-.385,0-.386.005-.388.006-.39.008.734,1.089Z" transform="translate(-327.561 -238.815)" fill="#fff"/>
      <path id="Path_16161" data-name="Path 16161" d="M424.114,234.781l.621.928.632.946q.822.023,1.633.055t1.6.07q.793.039,1.576.084t1.55.1l-.558-.839-.547-.824-.538-.81-.529-.8q-.8-.1-1.618-.2t-1.646-.185q-.832-.09-1.677-.173t-1.709-.161l.6.893Z" transform="translate(-340.068 -225.4)" fill="#fff"/>
      <path id="Path_16162" data-name="Path 16162" d="M464.011,229.011l.476.719.483.731.491.743q.729.079,1.449.163t1.428.171q.708.087,1.408.179t1.389.187l-.431-.656-.425-.646-.419-.637-.413-.628q-.717-.137-1.444-.269t-1.464-.262q-.738-.13-1.486-.255t-1.509-.248Z" transform="translate(-369.602 -222.001)" fill="#fff"/>
      <path id="Path_16163" data-name="Path 16163" d="M522.592,290.2q-.606-.018-1.218-.031t-1.232-.02q-.621-.007-1.246-.009l.494.751.5.763.51.775.518.787q.588-.054,1.172-.1t1.159-.087q.576-.04,1.148-.074t1.136-.061l-.444-.677-.437-.668-.431-.658-.425-.649Q523.2,290.213,522.592,290.2Z" transform="translate(-409.833 -266.942)" fill="#fff"/>
      <path id="Path_16164" data-name="Path 16164" d="M547.689,329.805l.636.962.647.979q.564-.158,1.127-.307t1.116-.285q.553-.137,1.106-.264t1.1-.245l-.552-.839-.543-.826-.535-.813-.526-.8q-.59.055-1.182.118t-1.195.133q-.6.071-1.208.15t-1.222.167l.613.928Z" transform="translate(-429.861 -294.001)" fill="#fff"/>
      <path id="Path_16165" data-name="Path 16165" d="M486.854,328.342l.867,1.3.886,1.326q.6-.284,1.205-.552t1.193-.517q.592-.249,1.182-.483t1.172-.451l-.757-1.14-.742-1.116-.727-1.094-.712-1.072q-.642.136-1.287.284t-1.3.31q-.657.162-1.318.337t-1.335.366l.828,1.239Z" transform="translate(-385.327 -291.946)" fill="#fff"/>
      <path id="Path_16166" data-name="Path 16166" d="M491.1,214.99l.4.61.407.619q.718.136,1.428.275t1.408.28q.7.142,1.39.286t1.373.29l-.358-.547-.353-.54-.349-.533-.345-.527q-.705-.18-1.419-.358t-1.437-.355q-.724-.176-1.456-.351t-1.476-.347l.391.594Z" transform="translate(-389.061 -211.456)" fill="#fff"/>
      <path id="Path_16167" data-name="Path 16167" d="M496.926,253.739l-.387-.591-.382-.583q-.638-.106-1.281-.208t-1.3-.2q-.652-.1-1.312-.2t-1.328-.19l-.043-.006-.043-.006-.043-.006-.043-.006.438.665.444.675.451.685.2.308q.532.079,1.061.159.651.1,1.3.2t1.28.208q-.638-.106-1.281-.208t-1.3-.2q-.527-.081-1.06-.159l.255.388q.659.051,1.313.108t1.3.116q.643.06,1.281.125t1.266.132l-.4-.607Z" transform="translate(-389.389 -239.038)" fill="#fff"/>
      <path id="Path_16168" data-name="Path 16168" d="M498.742,260.645q.643.1,1.281.208-.637-.106-1.28-.208t-1.3-.2q-.528-.081-1.06-.159h0q.532.079,1.06.159Q498.1,260.543,498.742,260.645Z" transform="translate(-393.473 -245.246)" fill="#fff"/>
      <path id="Path_16169" data-name="Path 16169" d="M382.667,207.1l.648.962.661.982q.923.043,1.833.1t1.795.111q.886.059,1.759.126t1.726.14l-.586-.876-.575-.86-.564-.844-.554-.829q-.89-.123-1.793-.239t-1.83-.226q-.927-.109-1.869-.212t-1.909-.2l.623.925Z" transform="translate(-309.906 -205.236)" fill="#fff"/>
      <path id="Path_16170" data-name="Path 16170" d="M373.759,231.694l-.092,0-.092,0-.093,0-.093,0h-.044q-.837-.033-1.686-.058t-1.718-.042q-.87-.017-1.752-.026t-1.789-.009h-.3l.766,1.127.783,1.153.8,1.179.819,1.206q.945-.073,1.876-.132t1.836-.106q.906-.047,1.8-.082t1.764-.059l-.719-1.067-.7-1.044-.689-1.023Z" transform="translate(-298.78 -224.356)" fill="#fff"/>
      <path id="Path_16171" data-name="Path 16171" d="M429.228,320.512l1.195,1.76,1.229,1.81q.633-.5,1.267-.973t1.258-.912q.624-.439,1.249-.855t1.241-.8L435.625,319l-1.015-1.507-.99-1.47-.966-1.434q-.7.275-1.4.569t-1.421.612q-.718.319-1.439.659t-1.458.708l1.132,1.667Z" transform="translate(-342.993 -284.712)" fill="#fff"/>
      <path id="Path_16172" data-name="Path 16172" d="M387.082,273.911l.969,1.427.993,1.463q.814-.252,1.62-.485t1.592-.445q.786-.212,1.566-.407t1.543-.372l-.858-1.273-.838-1.244-.819-1.216-.8-1.189q-.827.1-1.662.2t-1.691.232q-.856.124-1.723.262t-1.757.3l.922,1.357Z" transform="translate(-312.672 -252.43)" fill="#fff"/>
      <path id="Path_16173" data-name="Path 16173" d="M555.062,287.638q.531.007,1.059.019l-.319-.489-.315-.484-.312-.479-.308-.474q-.556-.053-1.115-.1t-1.123-.1q-.565-.046-1.133-.088t-1.144-.081l.364.558.368.564.373.571.377.578q.543-.007,1.084-.009t1.075,0Q554.53,287.631,555.062,287.638Z" transform="translate(-432.696 -263.475)" fill="#fff"/>
      <path id="Path_16174" data-name="Path 16174" d="M609.894,319.907l-.215-.331-.213-.329q-.524-.075-1.048-.146t-1.054-.14q-.529-.068-1.06-.133t-1.066-.128l.259.4.261.4.263.4.266.409q.51.025,1.019.054t1.013.062q.5.033,1.008.07t1,.078l-.218-.336Z" transform="translate(-472.588 -287.702)" fill="#fff"/>
      <path id="Path_16175" data-name="Path 16175" d="M564.821,253.078l.228.352.231.355q.6.159,1.192.32l1.183.322,1.176.325,1.169.328-.193-.3-.192-.3-.191-.294-.19-.292-1.2-.381-1.211-.38-1.22-.378-1.228-.377.224.346Z" transform="translate(-442.884 -239.503)" fill="#fff"/>
      <path id="Path_16176" data-name="Path 16176" d="M592.793,284.952l.208.322.21.324.211.326q.52.073,1.038.148t1.033.155q.515.079,1.029.161t1.026.169l-.172-.265-.17-.263-.169-.262-.168-.26q-.532-.115-1.065-.227t-1.068-.221l-1.073-.216-1.079-.211Z" transform="translate(-463.392 -262.943)" fill="#fff"/>
      <path id="Path_16177" data-name="Path 16177" d="M551.885,275.941q-.573-.092-1.151-.181l.3.455.3.459.3.464.306.469q.552.051,1.1.105t1.093.112q.544.058,1.085.119t1.078.125l-.256-.394-.254-.391-.251-.387-.25-.384q-.561-.1-1.124-.2t-1.133-.191Q552.457,276.033,551.885,275.941Z" transform="translate(-432.973 -256.494)" fill="#fff"/>
      <path id="Path_16178" data-name="Path 16178" d="M582.742,292.01l.243.374.245.377.247.381q.556.1,1.11.2l1.1.2,1.1.206,1.091.211-.206-.317-.2-.314-.2-.312-.2-.31-1.131-.271q-.567-.135-1.137-.267t-1.144-.264q-.575-.131-1.153-.26Z" transform="translate(-456.062 -268.036)" fill="#fff"/>
      <path id="Path_16179" data-name="Path 16179" d="M536.534,260.925l-.287-.441-.284-.436q-.6-.126-1.212-.249t-1.224-.246q-.615-.122-1.235-.242t-1.248-.238l.331.507.335.513.339.519.343.525q.6.08,1.2.163t1.186.168q.589.085,1.175.173t1.165.179l-.292-.45Z" transform="translate(-418.663 -244.365)" fill="#fff"/>
      <path id="Path_16180" data-name="Path 16180" d="M539.08,248.1l-1.238-.316.273.419.276.423.278.428.281.432q.6.124,1.2.25t1.186.253l1.177.258q.586.129,1.168.261l-.238-.368-.237-.364-.235-.361-.233-.358-1.208-.321q-.607-.161-1.218-.319T539.08,248.1Z" transform="translate(-423.603 -236.16)" fill="#fff"/>
      <path id="Path_16181" data-name="Path 16181" d="M575.094,266.338l.2.306.2.307,1.117.27q.556.136,1.11.273l1.105.278q.551.14,1.1.282l-.163-.252-.162-.25-.161-.249-.161-.248q-.567-.169-1.136-.335l-1.14-.332-1.146-.328-1.152-.325.2.3Z" transform="translate(-450.394 -249.207)" fill="#fff"/>
      <path id="Path_16182" data-name="Path 16182" d="M621.258,299.417l-.127-.2-.147-.226q-.506-.1-1.012-.194t-1.013-.186q-.508-.091-1.015-.178t-1.019-.171l.173.266.173.268.175.27.176.271q.491.053.981.111t.978.12q.488.062.976.13t.976.14l-.149-.229Z" transform="translate(-481.083 -272.852)" fill="#fff"/>
      <path id="Path_16183" data-name="Path 16183" d="M598.918,305.408q.472.014.945.033t.944.043l-.181-.278-.179-.276-.178-.275-.177-.273q-.493-.056-.986-.108t-.988-.1q-.5-.047-.991-.09t-1-.082l.22.339.222.342.223.344.225.347q.475,0,.95.011T598.918,305.408Z" transform="translate(-465.968 -277.021)" fill="#fff"/>
      <path id="Path_16184" data-name="Path 16184" d="M565.406,306.24l.325.5.329.505.333.511.61-.04.608-.036.606-.032.6-.028.377-.015.376-.014.375-.012.375-.011-.276-.424-.273-.42-.27-.416-.268-.412q-.514-.027-1.028-.05t-1.035-.042q-.52-.018-1.041-.033t-1.048-.025Z" transform="translate(-443.403 -278.288)" fill="#fff"/>
      <path id="Path_16185" data-name="Path 16185" d="M592.658,258.088l.158.245.159.246q.562.165,1.122.332l1.117.336,1.114.34,1.112.346-.137-.212-.118-.182-.117-.181-.135-.209-1.143-.392-1.145-.388-1.148-.384-1.153-.381.156.242Z" transform="translate(-463.216 -243.297)" fill="#fff"/>
      <path id="Path_16186" data-name="Path 16186" d="M613.711,270.351q-.544-.142-1.089-.281l.164.254.165.255.166.257.167.258q.528.112,1.055.227t1.051.233q.524.118,1.048.239t1.046.246l-.143-.22-.123-.189-.122-.188-.141-.218q-.54-.15-1.08-.3t-1.082-.291Q614.254,270.493,613.711,270.351Z" transform="translate(-477.954 -252.358)" fill="#fff"/>
      <path id="Path_16187" data-name="Path 16187" d="M542.3,222.739l.309.473.313.479q.649.152,1.293.307l1.28.31,1.268.313q.63.156,1.256.314l-.271-.415-.267-.411-.265-.407-.262-.4-1.3-.375q-.651-.188-1.309-.374l-1.322-.372-1.335-.37.3.463Z" transform="translate(-426.401 -217.281)" fill="#fff"/>
      <path id="Path_16188" data-name="Path 16188" d="M504.9,234.836l.367.561.372.568.377.576q.656.109,1.307.22t1.291.226q.642.114,1.277.23t1.263.235l-.327-.5-.323-.5-.32-.49-.316-.484q-.652-.153-1.31-.3t-1.325-.3q-.667-.15-1.34-.3t-1.356-.294Z" transform="translate(-399.398 -226.348)" fill="#fff"/>
      <path id="Path_16189" data-name="Path 16189" d="M547.369,310.608l.463.707.469.717q.527-.083,1.052-.159t1.044-.145q.518-.069,1.036-.131t1.028-.117l-.4-.608-.392-.6-.387-.593-.382-.585-.291,0-.291,0-.292.005-.293.005-.262.006-.263.006-.264.007-.265.008h-.051l-.255.008-.255.008-.256.009-.256.01-.286.011-.286.012-.287.013-.288.014.45.687Z" transform="translate(-429.869 -280.72)" fill="#fff"/>
      <path id="Path_16190" data-name="Path 16190" d="M531.512,273.331l-.347-.531q-.6-.081-1.212-.159t-1.225-.152q-.617-.075-1.238-.146t-1.252-.139l.4.614.408.623.414.632.42.64q.6.023,1.192.049t1.18.059q.586.031,1.168.067t1.156.075l-.359-.551-.355-.544Z" transform="translate(-415.169 -253.909)" fill="#fff"/>
      <path id="Path_16191" data-name="Path 16191" d="M639,302.588l-.07-.109-.081-.126q-.507-.136-1.012-.265t-1.009-.253q-.5-.124-1.007-.242t-1.007-.231l0,0,0,0,0,0,0,0,.109.169.095.146.1.148.111.172q.489.089.978.185t.979.2q.489.1.981.21t.984.223l-.082-.127Z" transform="translate(-494.085 -275.101)" fill="#fff"/>
      <path id="Path_16192" data-name="Path 16192" d="M681.654,293.377l-.047-.073-.055-.085q-.528-.18-1.054-.353t-1.048-.339q-.523-.166-1.045-.326t-1.043-.314l.081.124.07.107.07.108.081.126q.509.134,1.019.275t1.02.288q.511.148,1.024.3t1.03.317l-.055-.085Z" transform="translate(-525.008 -268.215)" fill="#fff"/>
      <path id="Path_16193" data-name="Path 16193" d="M639.787,284.533q-.532-.171-1.063-.337t-1.062-.328q-.531-.162-1.063-.32l.109.167.094.145.094.146.11.17q.518.136,1.035.276t1.035.285q.518.145,1.036.3t1.04.307l-.081-.124-.069-.107-.069-.106-.079-.123Q640.319,284.7,639.787,284.533Z" transform="translate(-495.381 -262.155)" fill="#fff"/>
      <path id="Path_16194" data-name="Path 16194" d="M689.9,314.883l-.048-.074-.048-.074-.056-.086q-.505-.145-1.006-.282t-1-.265q-.5-.129-1-.249t-.994-.235l.083.127.071.11.071.11.083.128q.483.093.967.194t.97.21q.486.109.975.227t.982.245Z" transform="translate(-531.109 -284.01)" fill="#fff"/>
      <path id="Path_16195" data-name="Path 16195" d="M653.461,262.587l.091.141.106.164q.546.18,1.089.362t1.089.369q.544.186,1.089.377t1.092.386l-.079-.122-.068-.1-.067-.1-.078-.12-1.118-.425q-.558-.21-1.115-.416t-1.114-.409q-.557-.2-1.115-.4l.105.163Z" transform="translate(-507.494 -246.699)" fill="#fff"/>
      <path id="Path_16196" data-name="Path 16196" d="M617.935,254.292l.12.185.14.217q.536.147,1.071.3t1.068.3q.534.153,1.067.31t1.068.317l-.108-.167-.093-.143-.092-.143-.107-.165q-.549-.183-1.1-.361t-1.1-.355q-.549-.176-1.1-.349l-1.1-.344.138.213Z" transform="translate(-481.628 -240.601)" fill="#fff"/>
      <path id="Path_16197" data-name="Path 16197" d="M619.512,304.963q-.487-.075-.974-.145l.15.231.129.2.13.2.152.234q.469.042.939.09t.939.1q.469.054.94.115t.943.128l-.115-.178-.1-.152-.1-.151-.114-.176q-.489-.092-.975-.177t-.973-.166Q620,305.037,619.512,304.963Z" transform="translate(-482.254 -277.614)" fill="#fff"/>
      <path id="Path_16198" data-name="Path 16198" d="M614.555,288.154l.144.222.124.192.125.193.146.225q.5.1,1.008.2t1.006.206q.5.105,1.005.215t1.007.225l-.111-.172-.1-.147-.1-.147-.11-.17q-.52-.138-1.038-.272t-1.037-.263q-.519-.13-1.038-.255T614.555,288.154Z" transform="translate(-479.359 -265.502)" fill="#fff"/>
    </g>
  </g>
</svg>
