<svg xmlns="http://www.w3.org/2000/svg" width="65.497" height="18.624" viewBox="0 0 65.497 18.624">
  <path id="Path_16401" data-name="Path 16401" d="M731.668,246.758a4.883,4.883,0,1,0,4.883,4.883,4.883,4.883,0,0,0-4.883-4.883Zm-43.039-6.732-7.809-2.117c-.222-.06-.346.176-.289.392l1.16,4.425a.544.544,0,0,0,.494.391h7.254a.292.292,0,0,0,.289-.391l-.6-2.308a.631.631,0,0,0-.494-.392Zm36.115,4.238c-1.026-.216-2.33-.552-1.983,1a1.974,1.974,0,0,0,.116.347,68.1,68.1,0,0,1-12.012.042c-1.2-.067-.979.106-1.456-1.026-.362-.861-.758-1.9-1.019-2.527-.2-.492-.575-1.121.286-1.256a40.977,40.977,0,0,1,5.575.106c2.654.28,9.92,1.563,11.987,2.68.194.1-1.195.7-1.5.636Zm-40.836,11.383c-.686-.091-1.789.19-2.095-.211-.59-.773-1.275-2.113-1.089-2.834.125-.482,1.087-.513,1.07-.56a29.636,29.636,0,0,1-.78-5.24c-.181-1.329-.374-1.507,1.083-1.79,8.6-1.67,11.96-1.142,20.98-3.944,9.166-2.847,21.594.16,31.828,4.3a118.188,118.188,0,0,1,10.815,5.295.66.66,0,0,1,.111,1.005,24.816,24.816,0,0,1-1.994,2.7c-.713.763-1.1,1.445-2.034,1.475-.905.029-2.015-.04-3.055-.006-.665.022-1.1-.074-1.025-.767.066-.618.228-1.807.286-2.385a10.421,10.421,0,0,0,.049-1.046,6.348,6.348,0,1,0-12.7,0c0,.339.007.673.028,1,.132,2.02,1.155,3.182-.91,3.18l-26.078-.03c-1.292,0-1.207-1.4-1.052-2.9a12.292,12.292,0,0,0,.055-1.249,6.349,6.349,0,0,0-12.7,0,11.057,11.057,0,0,0,.051,1.137c.126,1.215.137,3-.852,2.87Zm7.061-8.889a4.883,4.883,0,1,0,4.883,4.883,4.883,4.883,0,0,0-4.883-4.883Zm13.776-1.788,2.353.33c.47.065.4.116.24-.344q-.176-.517-.353-1.016c-.306-.863-.024-.76-.813-.55-.353.094-3.131,1.342-1.427,1.58Z" transform="translate(-680.518 -237.9)" fill="#fff" fill-rule="evenodd"/>
</svg>
