<svg xmlns="http://www.w3.org/2000/svg" width="25.965" height="25.965" viewBox="0 0 25.965 25.965">
  <g id="white-wheel-icon" transform="translate(-683.535 -1255.667)">
    <g id="Group_287" data-name="Group 287" transform="translate(683.535 1255.667)">
      <path id="Path_288" data-name="Path 288" d="M4066.6-310.952c-.1-.248-.2-.482-.292-.72-.032-.084-.075-.1-.152-.071-.1.033-.212.06-.32.086a.226.226,0,0,1-.3-.165q-.246-.888-.48-1.778c-.045-.17.024-.27.2-.321.129-.038.259-.073.4-.114-.022-.176-.043-.35-.067-.524-.049-.348-.05-.348-.4-.35-.274,0-.339-.067-.34-.343q0-.851,0-1.7c0-.212.085-.3.294-.3h.015c.128-.007.3.033.371-.034s.05-.243.068-.371c.021-.151.041-.3.063-.466-.139-.039-.272-.075-.4-.113-.173-.05-.244-.153-.2-.322q.233-.884.475-1.765a.231.231,0,0,1,.308-.177c.107.026.215.053.32.086.077.024.12.014.152-.071.09-.238.19-.471.292-.72-.121-.07-.245-.14-.368-.215a.238.238,0,0,1-.1-.365q.451-.788.907-1.572a.238.238,0,0,1,.358-.091c.125.069.249.141.376.214l.54-.7c-.1-.1-.2-.19-.3-.289a.253.253,0,0,1,0-.4q.627-.628,1.255-1.253a.251.251,0,0,1,.4,0c.1.095.185.2.284.3l.708-.546c-.072-.125-.142-.245-.209-.366a.242.242,0,0,1,.092-.368q.784-.457,1.571-.908a.242.242,0,0,1,.365.1c.072.119.14.24.213.367.256-.1.508-.2.757-.314.024-.01.038-.079.031-.116-.022-.113-.059-.223-.086-.334a.226.226,0,0,1,.165-.3q.895-.247,1.792-.482a.231.231,0,0,1,.305.186c.041.137.077.275.116.42.275-.034.542-.063.807-.1.027,0,.062-.065.065-.1.009-.11,0-.221,0-.332a.244.244,0,0,1,.279-.273q.894,0,1.788,0c.184,0,.27.089.276.276,0,.111-.007.222,0,.331a.14.14,0,0,0,.081.1c.256.038.514.066.789.1.035-.126.07-.254.105-.381.059-.207.16-.268.363-.214l1.7.454c.2.053.254.156.205.354-.032.13-.066.259-.1.394l.813.339c.072-.123.142-.248.216-.37a.243.243,0,0,1,.367-.1q.786.452,1.57.91a.239.239,0,0,1,.089.368c-.068.121-.139.24-.21.364l.713.548c.094-.1.185-.2.282-.3a.248.248,0,0,1,.391-.01q.641.634,1.277,1.274a.249.249,0,0,1,0,.382c-.1.1-.2.193-.306.294l.542.71c.128-.073.252-.147.378-.215a.238.238,0,0,1,.357.094q.456.784.906,1.572a.238.238,0,0,1-.1.365c-.061.038-.124.072-.187.109l-.179.106c.1.253.2.5.311.745a.141.141,0,0,0,.121.045c.113-.02.223-.059.334-.086a.229.229,0,0,1,.3.168q.245.888.479,1.779a.235.235,0,0,1-.191.315c-.134.039-.268.074-.412.114.033.275.063.546.1.816,0,.023.062.052.1.054.115.007.231,0,.346,0a.246.246,0,0,1,.266.272q0,.9,0,1.8a.235.235,0,0,1-.251.268c-.119.008-.241,0-.361.007-.035,0-.094.041-.1.07-.038.261-.066.523-.1.8.137.04.275.077.411.118a.234.234,0,0,1,.191.314q-.234.891-.481,1.778a.226.226,0,0,1-.3.17q-.168-.041-.333-.09c-.073-.022-.111,0-.14.071-.091.237-.19.471-.293.722.116.068.234.136.352.207a.244.244,0,0,1,.107.384q-.443.775-.893,1.547a.242.242,0,0,1-.375.1c-.121-.067-.241-.137-.367-.208l-.541.705c.1.094.2.188.295.286a.255.255,0,0,1,0,.4q-.625.629-1.256,1.253a.255.255,0,0,1-.412-.007l-.278-.272s-.009,0-.019,0l-.687.531c.072.124.147.246.216.371a.239.239,0,0,1-.091.358q-.788.463-1.582.917a.239.239,0,0,1-.355-.1c-.075-.122-.145-.248-.218-.373l-.813.339c.037.142.073.28.106.419a.236.236,0,0,1-.18.319q-.875.24-1.751.471c-.175.046-.279-.024-.332-.2-.034-.12-.067-.24-.1-.36,0-.009-.009-.017-.018-.035-.266.032-.537.063-.806.1-.024,0-.055.061-.056.095-.007.115,0,.231,0,.346a.242.242,0,0,1-.273.264q-.894,0-1.789,0a.245.245,0,0,1-.279-.272c0-.11,0-.222,0-.332,0-.037-.038-.1-.065-.1-.265-.04-.531-.069-.807-.1-.037.135-.072.264-.109.392-.054.188-.161.257-.343.209q-.87-.229-1.737-.467a.241.241,0,0,1-.188-.328c.032-.139.119-.307.07-.409s-.238-.116-.365-.17l-.411-.175c-.069.12-.137.24-.207.359a.247.247,0,0,1-.386.105q-.775-.444-1.545-.894a.244.244,0,0,1-.1-.376c.062-.113.128-.225.191-.338a.147.147,0,0,0,.009-.031l-.7-.545c-.094.1-.185.207-.283.3a.251.251,0,0,1-.4,0q-.629-.625-1.255-1.253a.253.253,0,0,1,0-.4c.047-.048.094-.1.143-.143s.1-.091.155-.143l-.541-.708c-.128.073-.251.145-.377.214a.238.238,0,0,1-.358-.091q-.46-.79-.914-1.585a.233.233,0,0,1,.093-.345C4066.345-310.805,4066.47-310.875,4066.6-310.952Zm11.221,4.7a9.836,9.836,0,0,0,9.835-9.827,9.836,9.836,0,0,0-9.791-9.828,9.834,9.834,0,0,0-9.864,9.827A9.836,9.836,0,0,0,4077.824-306.254Z" transform="translate(-4064.849 329.064)" fill="#fff"/>
      <path id="Path_289" data-name="Path 289" d="M4188.747-214.245a9.1,9.1,0,0,1,9.073,9.011,9.089,9.089,0,0,1-9.073,9.138,9.091,9.091,0,0,1-9.08-9.159A9.1,9.1,0,0,1,4188.747-214.245Zm-3.37,16.644a8.28,8.28,0,0,0,4.354.653,8,8,0,0,0,2.378-.657c-.916-1.445-1.822-2.872-2.728-4.3a3.32,3.32,0,0,1-1.155.018.16.16,0,0,0-.192.09q-.869,1.378-1.742,2.752Zm-2.813-2.052a.418.418,0,0,0,.04-.033q1.575-1.9,3.152-3.809a.155.155,0,0,0,.021-.178c-.112-.315-.226-.631-.308-.954a.217.217,0,0,0-.181-.193q-2.015-.513-4.026-1.032c-.245-.063-.49-.123-.76-.191A8.327,8.327,0,0,0,4182.563-199.653Zm14.42-6.391-.5.128q-2.145.55-4.292,1.1a.2.2,0,0,0-.166.173c-.082.319-.187.633-.3.942a.2.2,0,0,0,.026.227q1.222,1.468,2.436,2.942c.24.291.481.581.734.886A8.35,8.35,0,0,0,4196.983-206.044Zm-6.5-7.226c0,.062-.009.095-.011.128q-.047.733-.093,1.467c-.073,1.126-.145,2.253-.221,3.379-.006.093.034.127.105.175.269.182.535.37.792.57a.194.194,0,0,0,.227.04q1.783-.71,3.57-1.414l1.048-.417A8.364,8.364,0,0,0,4190.482-213.27Zm-8.892,3.922c.043.022.063.034.085.042q2.281.9,4.56,1.8a.155.155,0,0,0,.178-.034c.262-.2.527-.4.8-.581a.2.2,0,0,0,.111-.214q-.132-2.042-.258-4.084c-.017-.277-.038-.554-.06-.856A8.357,8.357,0,0,0,4181.591-209.347Zm5.273,4.171a1.872,1.872,0,0,0,1.866,1.888,1.876,1.876,0,0,0,1.891-1.878,1.875,1.875,0,0,0-1.875-1.88A1.873,1.873,0,0,0,4186.864-205.177Z" transform="translate(-4175.761 218.151)" fill="#fff"/>
      <path id="Path_290" data-name="Path 290" d="M4427.75,33.251a.675.675,0,0,1-.674.68.682.682,0,1,1,0-1.363A.674.674,0,0,1,4427.75,33.251Z" transform="translate(-4414.094 -20.267)" fill="#fff"/>
    </g>
  </g>
</svg>
