<svg xmlns="http://www.w3.org/2000/svg" width="16.5" height="16.5" viewBox="0 0 16.5 16.5">
  <path id="yellow-ciircuit-icon" d="M12.208,0H5.226A4.264,4.264,0,0,0,.966,4.259V6.832H0V7.8H4.834V6.832H3.867V4.259A1.361,1.361,0,0,1,5.226,2.9h6.982A1.394,1.394,0,0,1,13.6,4.259v2a1.356,1.356,0,0,1-.927,1.288L10.678,8.2A4.254,4.254,0,0,0,7.766,12.24,1.361,1.361,0,0,1,6.407,13.6H5.226A1.361,1.361,0,0,1,3.867,12.24V9.732h.967V8.766H0v.967H.966V12.24A4.264,4.264,0,0,0,5.226,16.5H6.407a4.264,4.264,0,0,0,4.259-4.259,1.356,1.356,0,0,1,.927-1.288l1.993-.654A4.254,4.254,0,0,0,16.5,6.257v-2A4.288,4.288,0,0,0,12.208,0Zm3.325,6.257A3.288,3.288,0,0,1,13.284,9.38l-1.993.654A2.323,2.323,0,0,0,9.7,12.24a3.3,3.3,0,0,1-3.293,3.293H5.226A3.3,3.3,0,0,1,1.933,12.24V9.732H2.9V12.24a2.328,2.328,0,0,0,2.326,2.326H6.407A2.328,2.328,0,0,0,8.733,12.24a3.288,3.288,0,0,1,2.249-3.123l1.993-.654a2.323,2.323,0,0,0,1.591-2.206v-2a2.354,2.354,0,0,0-2.358-2.326H5.226A2.328,2.328,0,0,0,2.9,4.259V6.832H1.933V4.259A3.3,3.3,0,0,1,5.226.967h6.982a3.313,3.313,0,0,1,3.325,3.293Zm0,0" transform="translate(0)" fill="#fccf00"/>
</svg>
