<svg xmlns="http://www.w3.org/2000/svg" width="518.081" height="386.675" viewBox="0 0 518.081 386.675">
  <g id="Group_660" data-name="Group 660" transform="translate(-755.241 -827.407)">
    <g id="Group_659" data-name="Group 659" transform="translate(1145.499 1032.684) rotate(45)">
      <g id="Group_279" data-name="Group 279" transform="translate(72.762)">
        <path id="Path_294" data-name="Path 294" d="M307.412,175.905c2.739-2.1,56.423-44.633,56.423-44.633l-23.58,67.585Z" transform="translate(-255.83 -131.272)" fill="#a4a4a4"/>
        <path id="Path_295" data-name="Path 295" d="M294.02,162.432s28.422,6.948,29.053,6.529,78.952-37.689,78.952-37.689Z" transform="translate(-294.02 -131.272)" fill="#a4a4a4"/>
        <path id="Path_296" data-name="Path 296" d="M301.563,168.959l6.948,30.949,15.58-24,56.425-44.635Z" transform="translate(-272.509 -131.272)" fill="#858585"/>
        <path id="Path_297" data-name="Path 297" d="M303.367,166.862l20.941-20.256-5.361-3.746Z" transform="translate(-267.365 -98.226)" fill="#4e4e4e"/>
      </g>
      <path id="Path_298" data-name="Path 298" stroke="#000" d="M275.129,177.222s12.676-13.254,29.384,2.889-.173,53.08,27.929,52.494c19.894-.416,21.908-41.379,10.369-41.213-11.794.173-4.487,20.375,7.545,20.452,37.758.239,21.693-37.5,21.693-37.5s-3.47-19.043,4.252-24.5" fill="none" transform="translate(-275.129 -78.322)" stroke-linecap="round" stroke-linejoin="round" stroke-width="0.898" stroke-dasharray="0 1.795"/>
    </g>
    <g id="Group_652" data-name="Group 652" transform="translate(708.136 785.648)">
      <g id="Background_Complete" data-name="Background Complete" transform="translate(47.105 113.236)">
        <g id="Group_309" data-name="Group 309" transform="translate(0 88.704)">
          <g id="Group_288" data-name="Group 288">
            <g id="Group_287" data-name="Group 287">
              <g id="Group_286" data-name="Group 286">
                <path id="Path_300" data-name="Path 300" d="M129.365,399.1c20.355-13.587,25.324-39.292,24.889-62.472-.073-3.87.42-7.941-1.391-11.362s-6.124-5.8-9.658-4.228c-2.931,1.308-4.252,4.63-5.923,7.369a22.817,22.817,0,0,1-9.324,8.527c-2.516,1.241-5.614,1.976-8.057.6-3.352-1.891-3.678-6.5-3.594-10.352q.236-10.751.471-21.5c.084-3.846.158-7.772-1-11.442s-3.78-7.1-7.472-8.18-8.31.962-9.151,4.714c-.351,1.563-.052,3.193-.185,4.788s-.915,3.35-2.459,3.774c-1.561.427-3.1-.688-4.252-1.83-3.962-3.944-6.614-8.987-9.087-14s-4.871-10.143-8.454-14.433-8.581-7.723-14.157-8.119-11.576,2.917-13.071,8.3,1.623,10.95,5.042,15.392a86.422,86.422,0,0,0,17.847,17.31c1.215.879,2.533,1.829,2.981,3.261.806,2.576-1.7,5.088-4.274,5.892-2.921.911-6.067.566-9.111.874s-6.358,1.58-7.552,4.4c-1.656,3.909,1.611,8.079,4.847,10.827A74.711,74.711,0,0,0,79.13,340.1c2.851,1.08,5.853,2.032,8.134,4.054s3.622,5.5,2.185,8.188-5.039,3.505-8.033,2.91-5.657-2.243-8.5-3.352c-5.325-2.075-12.247-1.813-15.749,2.7-2.3,2.969-2.565,7.147-1.48,10.744s3.348,6.713,5.759,9.594c8.429,10.068,19.295,18.234,31.652,22.671s23.853,5.76,36.269,1.489" transform="translate(-47.105 -260.916)" fill="#ebebeb"/>
              </g>
            </g>
          </g>
          <g id="Group_292" data-name="Group 292" transform="translate(6.098 3.144)">
            <g id="Group_291" data-name="Group 291">
              <g id="Group_290" data-name="Group 290">
                <g id="Group_289" data-name="Group 289">
                  <path id="Path_301" data-name="Path 301" d="M125.717,385.662a342.553,342.553,0,0,0-13.288-37.306l-3.992-9.6c-1.316-3.151-2.621-6.271-4.089-9.247a171.78,171.78,0,0,0-9.426-16.623c-3.258-5.146-6.54-9.91-9.641-14.347s-6.089-8.5-8.964-12.1A138.009,138.009,0,0,0,61.49,270.453c-1.894-1.745-3.406-3.053-4.442-3.928l-1.183-.987c-.269-.22-.417-.321-.417-.321s.121.131.377.366l1.147,1.029c1.009.9,2.5,2.237,4.364,4.005a144.283,144.283,0,0,1,14.658,16.068c2.848,3.608,5.8,7.69,8.892,12.126s6.343,9.214,9.583,14.357a172.811,172.811,0,0,1,9.367,16.586c1.457,2.964,2.751,6.063,4.068,9.22l3.988,9.6a349.106,349.106,0,0,1,13.31,37.231" transform="translate(-55.448 -265.218)" fill="#b8b8b8"/>
                </g>
              </g>
            </g>
          </g>
          <g id="Group_296" data-name="Group 296" transform="translate(54.841 25.139)">
            <g id="Group_295" data-name="Group 295">
              <g id="Group_294" data-name="Group 294">
                <g id="Group_293" data-name="Group 293">
                  <path id="Path_302" data-name="Path 302" d="M122.15,337.545a9.281,9.281,0,0,0,.381-1.639c.212-1.061.474-2.606.772-4.516.6-3.823,1.252-9.129,1.958-14.982s1.449-11.138,2.13-14.938c.334-1.9.624-3.438.84-4.5a9.329,9.329,0,0,0,.268-1.661,9.356,9.356,0,0,0-.489,1.61c-.284,1.045-.636,2.573-1.023,4.47-.787,3.791-1.6,9.084-2.3,14.944-.691,5.8-1.317,11.054-1.787,15-.238,1.835-.436,3.361-.589,4.539A9.315,9.315,0,0,0,122.15,337.545Z" transform="translate(-122.137 -295.312)" fill="#b8b8b8"/>
                </g>
              </g>
            </g>
          </g>
          <g id="Group_300" data-name="Group 300" transform="translate(4.891 57.356)">
            <g id="Group_299" data-name="Group 299">
              <g id="Group_298" data-name="Group 298">
                <g id="Group_297" data-name="Group 297">
                  <path id="Path_303" data-name="Path 303" d="M53.8,339.416a1.767,1.767,0,0,0,.515.091l1.482.149c1.286.124,3.145.3,5.436.589,4.583.544,10.889,1.527,17.794,2.917s13.1,2.944,17.543,4.194c2.227.609,4.016,1.151,5.253,1.521l1.428.42a1.724,1.724,0,0,0,.512.108,1.827,1.827,0,0,0-.474-.22l-1.4-.523c-1.217-.436-2.991-1.041-5.208-1.7-4.426-1.352-10.621-2.96-17.544-4.367s-13.256-2.315-17.865-2.757c-2.3-.239-4.172-.352-5.464-.406l-1.49-.041A1.783,1.783,0,0,0,53.8,339.416Z" transform="translate(-53.796 -339.391)" fill="#b8b8b8"/>
                </g>
              </g>
            </g>
          </g>
          <g id="Group_304" data-name="Group 304" transform="translate(75.822 59.869)">
            <g id="Group_303" data-name="Group 303" transform="translate(0)">
              <g id="Group_302" data-name="Group 302">
                <g id="Group_301" data-name="Group 301">
                  <path id="Path_304" data-name="Path 304" d="M150.846,405.61a3.073,3.073,0,0,0,.34-.6l.874-1.781c.754-1.549,1.79-3.817,3.035-6.634,2.494-5.634,5.7-13.519,9.126-22.265s6.57-16.649,8.965-22.318c1.187-2.779,2.158-5.051,2.862-6.7.317-.746.573-1.351.774-1.824a3.1,3.1,0,0,0,.235-.653,3.068,3.068,0,0,0-.341.6l-.873,1.781c-.754,1.549-1.789,3.817-3.033,6.634-2.5,5.633-5.7,13.519-9.129,22.268s-6.569,16.645-8.964,22.315c-1.187,2.777-2.158,5.051-2.862,6.7-.317.745-.573,1.351-.774,1.825A3.1,3.1,0,0,0,150.846,405.61Z" transform="translate(-150.844 -342.828)" fill="#e0e0e0"/>
                </g>
              </g>
            </g>
          </g>
          <g id="Group_308" data-name="Group 308" transform="translate(9.571 100.475)">
            <g id="Group_307" data-name="Group 307">
              <g id="Group_306" data-name="Group 306">
                <g id="Group_305" data-name="Group 305">
                  <path id="Path_305" data-name="Path 305" d="M60.2,398.389a3.448,3.448,0,0,0,.66.266l1.928.656,7.1,2.367c5.993,2.006,14.239,4.877,23.34,8.071s17.377,6.009,23.407,7.915c3.016.955,5.461,1.7,7.162,2.191l1.96.553a3.284,3.284,0,0,0,.7.154,3.3,3.3,0,0,0-.661-.267l-1.927-.655-7.1-2.366c-5.994-2.006-14.239-4.879-23.343-8.073s-17.374-6.007-23.4-7.913c-3.016-.955-5.462-1.705-7.162-2.192l-1.961-.553A3.175,3.175,0,0,0,60.2,398.389Z" transform="translate(-60.199 -398.385)" fill="#b8b8b8"/>
                </g>
              </g>
            </g>
          </g>
        </g>
        <g id="Group_318" data-name="Group 318" transform="translate(371.706 77.93)">
          <g id="Group_310" data-name="Group 310" transform="translate(0)">
            <rect id="Rectangle_99" data-name="Rectangle 99" width="64.726" height="96.028" transform="translate(0 60.236) rotate(-68.535)" fill="#ebebeb"/>
          </g>
          <g id="Group_313" data-name="Group 313" transform="translate(23.685 0.836)">
            <g id="Group_312" data-name="Group 312">
              <g id="Group_311" data-name="Group 311">
                <path id="Path_306" data-name="Path 306" d="M677.441,282.46a6.663,6.663,0,0,1-1.147.474l-3.346,1.2-12.366,4.271-41,13.815-.338.114-.178-.31-.43-.748-21.768-38.066-6.51-11.585c-.719-1.319-1.3-2.372-1.731-3.172a6.807,6.807,0,0,1-.552-1.135,6.916,6.916,0,0,1,.7,1.048l1.873,3.089L597.4,262.9l21.988,37.938.431.749-.515-.2,41.082-13.569,12.454-4.009,3.4-1.048A6.67,6.67,0,0,1,677.441,282.46Z" transform="translate(-588.072 -247.319)" fill="#aaa"/>
              </g>
            </g>
          </g>
          <g id="Group_315" data-name="Group 315" transform="translate(0 36.755)">
            <g id="Group_314" data-name="Group 314">
              <path id="Path_307" data-name="Path 307" d="M555.668,320.781c-.115-.212,9.852-5.827,22.259-12.539s22.562-11.985,22.676-11.773-9.85,5.825-22.261,12.54S555.782,320.992,555.668,320.781Z" transform="translate(-555.667 -296.463)" fill="#aaa"/>
            </g>
          </g>
          <g id="Group_317" data-name="Group 317" transform="translate(74.927 47.688)">
            <g id="Group_316" data-name="Group 316">
              <path id="Path_308" data-name="Path 308" d="M658.193,311.422c.23-.069,3.648,10.739,7.632,24.137s7.028,24.319,6.8,24.388-3.648-10.737-7.633-24.139S657.962,311.491,658.193,311.422Z" transform="translate(-658.18 -311.422)" fill="#aaa"/>
            </g>
          </g>
        </g>
        <g id="Group_327" data-name="Group 327" transform="translate(409.19)">
          <g id="Group_319" data-name="Group 319">
            <rect id="Rectangle_100" data-name="Rectangle 100" width="57.442" height="38.717" transform="translate(0 22.937) rotate(-23.535)" fill="#ebebeb"/>
          </g>
          <g id="Group_322" data-name="Group 322" transform="translate(0.354 0.353)">
            <g id="Group_321" data-name="Group 321">
              <g id="Group_320" data-name="Group 320">
                <path id="Path_309" data-name="Path 309" d="M660.1,140.036a3.987,3.987,0,0,1-.285.686c-.228.485-.53,1.124-.906,1.923l-3.424,7.038-11.5,23.185-.1.191-.206-.056-.5-.134-25.308-6.894-7.653-2.147-2.074-.609a4.159,4.159,0,0,1-.714-.247,4.039,4.039,0,0,1,.742.145l2.1.515,7.7,1.987,25.347,6.746.5.134-.3.134,11.638-23.115,3.571-6.964.994-1.88A4.052,4.052,0,0,1,660.1,140.036Z" transform="translate(-607.437 -140.036)" fill="#a5a5a5"/>
              </g>
            </g>
          </g>
          <g id="Group_324" data-name="Group 324" transform="translate(15.807 29.497)">
            <g id="Group_323" data-name="Group 323">
              <path id="Path_310" data-name="Path 310" d="M628.587,209.2c-.138-.041,1.7-6.631,4.111-14.719s4.474-14.612,4.612-14.571-1.7,6.631-4.112,14.72S628.725,209.242,628.587,209.2Z" transform="translate(-628.58 -179.91)" fill="#a5a5a5"/>
            </g>
          </g>
          <g id="Group_326" data-name="Group 326" transform="translate(41.849 21.425)">
            <g id="Group_325" data-name="Group 325">
              <path id="Path_311" data-name="Path 311" d="M664.211,168.871c.069-.127,6.085,3,13.438,6.981s13.259,7.314,13.19,7.441-6.084-3-13.439-6.982S664.142,169,664.211,168.871Z" transform="translate(-664.21 -168.867)" fill="#a5a5a5"/>
            </g>
          </g>
        </g>
      </g>
      <g id="Device" transform="translate(111.526 123.639)">
        <g id="Group_367" data-name="Group 367" transform="translate(0)">
          <g id="Group_340" data-name="Group 340">
            <g id="Group_330" data-name="Group 330" transform="translate(13.528)">
              <g id="Group_329" data-name="Group 329">
                <g id="Group_328" data-name="Group 328">
                  <rect id="Rectangle_101" data-name="Rectangle 101" width="323.485" height="213.917" rx="14.567" fill="#263238"/>
                </g>
              </g>
            </g>
            <g id="Group_333" data-name="Group 333" transform="translate(0 198.096)">
              <g id="Group_332" data-name="Group 332">
                <g id="Group_331" data-name="Group 331">
                  <path id="Rectangle_102" data-name="Rectangle 102" d="M0,0H350.471a0,0,0,0,1,0,0V.92a17.8,17.8,0,0,1-17.8,17.8H17.8A17.8,17.8,0,0,1,0,.92V0A0,0,0,0,1,0,0Z" fill="#263238"/>
                </g>
              </g>
            </g>
            <g id="Group_336" data-name="Group 336" transform="translate(22.211 8.499)">
              <g id="Group_335" data-name="Group 335">
                <g id="Group_334" data-name="Group 334">
                  <rect id="Rectangle_103" data-name="Rectangle 103" width="305.214" height="180.65" fill="#455a64"/>
                </g>
              </g>
            </g>
            <g id="Group_339" data-name="Group 339" transform="translate(143.381 198.096)">
              <g id="Group_338" data-name="Group 338">
                <g id="Group_337" data-name="Group 337">
                  <path id="Path_312" data-name="Path 312" d="M331.417,424.818l4.349,6.918h61.2L401,424.818Z" transform="translate(-331.417 -424.818)" fill="#455a64"/>
                </g>
              </g>
            </g>
          </g>
          <g id="Group_363" data-name="Group 363" transform="translate(28.497 14.615)">
            <g id="Group_362" data-name="Group 362">
              <g id="Group_361" data-name="Group 361">
                <g id="Group_344" data-name="Group 344">
                  <g id="Group_343" data-name="Group 343">
                    <g id="Group_342" data-name="Group 342">
                      <g id="Group_341" data-name="Group 341">
                        <path id="Rectangle_104" data-name="Rectangle 104" d="M3.272,0H290a3.273,3.273,0,0,1,3.273,3.273v167.41A3.273,3.273,0,0,1,290,173.956H3.272A3.272,3.272,0,0,1,0,170.684V3.272A3.272,3.272,0,0,1,3.272,0Z" fill="#ebebeb"/>
                      </g>
                    </g>
                  </g>
                </g>
                <g id="Group_348" data-name="Group 348" transform="translate(0 12.746)">
                  <g id="Group_347" data-name="Group 347">
                    <g id="Group_346" data-name="Group 346">
                      <g id="Group_345" data-name="Group 345">
                        <rect id="Rectangle_105" data-name="Rectangle 105" width="293.269" height="161.211" fill="#ebebeb"/>
                      </g>
                    </g>
                  </g>
                </g>
                <g id="Group_352" data-name="Group 352" transform="translate(19.369 4.376)">
                  <g id="Group_351" data-name="Group 351">
                    <g id="Group_350" data-name="Group 350">
                      <g id="Group_349" data-name="Group 349">
                        <path id="Path_313" data-name="Path 313" d="M205.419,182.111a2.342,2.342,0,1,1-2.343-2.342A2.342,2.342,0,0,1,205.419,182.111Z" transform="translate(-200.735 -179.769)" fill="#455a64"/>
                      </g>
                    </g>
                  </g>
                </g>
                <g id="Group_356" data-name="Group 356" transform="translate(5.173 4.376)">
                  <g id="Group_355" data-name="Group 355">
                    <g id="Group_354" data-name="Group 354">
                      <g id="Group_353" data-name="Group 353">
                        <path id="Path_314" data-name="Path 314" d="M186,182.111a2.343,2.343,0,1,1-2.343-2.342A2.342,2.342,0,0,1,186,182.111Z" transform="translate(-181.312 -179.769)" fill="#455a64"/>
                      </g>
                    </g>
                  </g>
                </g>
                <g id="Group_360" data-name="Group 360" transform="translate(11.987 4.376)">
                  <g id="Group_359" data-name="Group 359">
                    <g id="Group_358" data-name="Group 358">
                      <g id="Group_357" data-name="Group 357">
                        <path id="Path_315" data-name="Path 315" d="M195.319,182.111a2.342,2.342,0,1,1-2.343-2.342A2.342,2.342,0,0,1,195.319,182.111Z" transform="translate(-190.635 -179.769)" fill="#455a64"/>
                      </g>
                    </g>
                  </g>
                </g>
              </g>
            </g>
          </g>
          <g id="Group_366" data-name="Group 366" transform="translate(13.527 197.887)">
            <g id="Group_365" data-name="Group 365">
              <g id="Group_364" data-name="Group 364">
                <path id="Path_316" data-name="Path 316" d="M474.459,424.741c0,.116-71.8.209-160.345.209-88.578,0-160.361-.094-160.361-.209s71.783-.21,160.361-.21C402.66,424.531,474.459,424.625,474.459,424.741Z" transform="translate(-153.753 -424.531)" fill="#455a64"/>
              </g>
            </g>
          </g>
        </g>
      </g>
      <g id="Paper_Plane" data-name="Paper Plane" transform="translate(99.12 63.832)">
        <g id="Group_379" data-name="Group 379" transform="translate(0 0)">
          <g id="Group_370" data-name="Group 370" transform="translate(0 26.043)">
            <g id="Group_369" data-name="Group 369">
              <g id="Group_368" data-name="Group 368">
                <path id="Path_317" data-name="Path 317" d="M144.137,341.806a1.557,1.557,0,0,1-.248-.149l-.715-.475-1.17-.794c-.463-.318-1.014-.672-1.584-1.145l-1.949-1.54c-.712-.574-1.429-1.275-2.239-1.994a54.228,54.228,0,0,1-5.094-5.479,57,57,0,0,1-9.624-18.022,70.987,70.987,0,0,1-3.032-26.877,77.11,77.11,0,0,1,2.729-15.564,62.991,62.991,0,0,1,6.751-15.741c.766-1.274,1.631-2.5,2.528-3.719l2.864-3.552c1.018-1.145,2.079-2.269,3.129-3.418,1.074-1.126,2.237-2.18,3.364-3.286a112.528,112.528,0,0,1,15.444-11.819c11.194-7.242,23.849-13.234,36.876-19.476,12.986-6.361,26.672-12.462,40.7-18.632,56.2-24.614,107.637-45.582,145.1-60.14,18.722-7.312,34-12.885,44.574-16.706,5.3-1.884,9.428-3.287,12.223-4.255l3.187-1.084.815-.267a1.722,1.722,0,0,1,.278-.078,1.505,1.505,0,0,1-.266.115l-.8.3-3.161,1.155-12.172,4.389c-10.537,3.907-25.786,9.554-44.479,16.929-37.409,14.684-88.805,35.728-144.993,60.335-14.035,6.172-27.7,12.257-40.688,18.608-13.036,6.234-25.668,12.2-36.819,19.393A112.138,112.138,0,0,0,140.3,240.542c-1.12,1.1-2.277,2.14-3.345,3.254-1.043,1.138-2.1,2.25-3.109,3.384L131,250.694c-.888,1.2-1.742,2.406-2.5,3.663a62.526,62.526,0,0,0-6.723,15.57,76.744,76.744,0,0,0-2.757,15.442,70.78,70.78,0,0,0,2.9,26.708,57.118,57.118,0,0,0,9.45,17.968,55.169,55.169,0,0,0,5.018,5.5c.8.726,1.5,1.433,2.207,2.014l1.92,1.564c.561.482,1.1.845,1.558,1.172l1.147.824.692.507A1.723,1.723,0,0,1,144.137,341.806Z" transform="translate(-118.271 -107.592)" fill="#263238"/>
              </g>
            </g>
          </g>
          <g id="Group_378" data-name="Group 378" transform="translate(308.498)">
            <g id="Group_375" data-name="Group 375">
              <g id="Group_372" data-name="Group 372">
                <g id="Group_371" data-name="Group 371">
                  <path id="Path_318" data-name="Path 318" d="M540.353,73.934l13.532,11.22L552.637,98l11.087-6.164,11.81,8.389L619.553,71.96Z" transform="translate(-540.353 -71.96)" fill="#e8505b"/>
                </g>
              </g>
              <g id="Group_374" data-name="Group 374" transform="translate(12.283 0.03)" opacity="0.5">
                <g id="Group_373" data-name="Group 373">
                  <path id="Path_319" data-name="Path 319" d="M558.408,85.165,622.882,72,564.974,89.526l-7.814,8.489h0Z" transform="translate(-557.159 -72)"/>
                </g>
              </g>
            </g>
            <g id="Group_377" data-name="Group 377" transform="translate(12.283 17.555)" opacity="0.8">
              <g id="Group_376" data-name="Group 376">
                <path id="Path_320" data-name="Path 320" d="M564.974,95.979l3.273,2.325-11.087,6.164Z" transform="translate(-557.159 -95.979)"/>
              </g>
            </g>
          </g>
        </g>
      </g>
      <g id="Letters" transform="translate(154.244 166.065)">
        <g id="Group_386" data-name="Group 386" transform="translate(0 68.404)">
          <g id="Group_383" data-name="Group 383">
            <g id="Group_380" data-name="Group 380" transform="translate(0.392 0.286)">
              <rect id="Rectangle_106" data-name="Rectangle 106" width="70.628" height="47.606" transform="matrix(0.996, -0.094, 0.094, 0.996, 0, 6.67)" fill="#fff"/>
            </g>
            <g id="Group_382" data-name="Group 382">
              <g id="Group_381" data-name="Group 381">
                <path id="Path_321" data-name="Path 321" d="M268.892,353.1s-.048-.306-.112-.877q-.1-.895-.267-2.514c-.227-2.223-.555-5.439-.973-9.546-.816-8.245-1.983-20.053-3.405-34.432l.286.237-70.3,6.734c-.07.077.553-.675.29-.35v.012l0,.025.005.05.01.1.018.2.037.4.075.79.15,1.577q.149,1.574.3,3.137l.588,6.208q.582,6.161,1.145,12.118c.745,7.932,1.462,15.559,2.14,22.781l-.327-.27,50.615-4.653,14.5-1.294,3.87-.33,1.006-.078a2.8,2.8,0,0,1,.353-.015,2.045,2.045,0,0,1-.315.047l-.968.11-3.8.4L249.391,355.1l-50.783,4.966-.3.029-.029-.3c-.691-7.221-1.422-14.845-2.181-22.777q-.567-5.95-1.155-12.116-.293-3.081-.591-6.208-.148-1.563-.3-3.137l-.15-1.577-.075-.79-.037-.4-.019-.2-.009-.1-.005-.049,0-.025v-.012c-.265.314.359-.444.3-.365l70.314-6.6.262-.025.023.261c1.314,14.459,2.393,26.331,3.146,34.621.359,4.086.64,7.288.834,9.5q.133,1.593.205,2.47C268.886,352.83,268.892,353.1,268.892,353.1Z" transform="translate(-193.692 -305.423)" fill="#455a64"/>
              </g>
            </g>
          </g>
          <g id="Group_385" data-name="Group 385" transform="translate(0.392 0.285)">
            <g id="Group_384" data-name="Group 384">
              <path id="Path_322" data-name="Path 322" d="M264.541,305.814a4.664,4.664,0,0,1-.545.7l-1.657,1.93-6.2,7.041-20.8,23.262-.185.206-.235-.149-1.873-1.193-27.523-17.655-8.3-5.414-2.239-1.5a5.006,5.006,0,0,1-.756-.561,5.106,5.106,0,0,1,.827.449l2.305,1.4,8.412,5.238L233.4,337.06l1.873,1.194-.42.057L255.8,315.184l6.353-6.9,1.745-1.85A4.61,4.61,0,0,1,264.541,305.814Z" transform="translate(-194.227 -305.813)" fill="#455a64"/>
            </g>
          </g>
        </g>
        <g id="Group_393" data-name="Group 393" transform="translate(209.574)">
          <g id="Group_390" data-name="Group 390">
            <g id="Group_387" data-name="Group 387" transform="translate(0.272 0.233)">
              <rect id="Rectangle_107" data-name="Rectangle 107" width="34.932" height="51.825" transform="translate(0 33.615) rotate(-74.218)" fill="#fff"/>
            </g>
            <g id="Group_389" data-name="Group 389">
              <g id="Group_388" data-name="Group 388">
                <path id="Path_323" data-name="Path 323" d="M530.57,259.777s.048-.223.156-.63q.172-.637.484-1.791l1.867-6.788,6.808-24.459.133.238L490.138,212.3c-.068.034.558-.315.292-.163l0,.009-.005.018-.01.035-.02.07-.039.141-.08.28-.158.561-.316,1.118-.629,2.225-1.245,4.4-2.432,8.593-4.581,16.152-.152-.271,35.861,10.248,10.261,2.962,2.735.8.708.213a2,2,0,0,1,.246.083,1.581,1.581,0,0,1-.228-.051l-.692-.182-2.707-.737L516.7,255.972l-36.059-10.079-.212-.059.06-.213c1.444-5.123,2.967-10.533,4.552-16.16q1.191-4.22,2.425-8.6.617-2.185,1.244-4.4.312-1.11.629-2.226l.316-1.118.159-.561.079-.281.04-.14.02-.07.01-.035.005-.018,0-.009c-.265.145.363-.208.3-.17l49.854,14.141.186.053-.053.185c-2.937,10.24-5.35,18.648-7.035,24.519-.839,2.891-1.5,5.156-1.95,6.721l-.515,1.744C530.637,259.588,530.57,259.777,530.57,259.777Z" transform="translate(-480.427 -211.833)" fill="#455a64"/>
              </g>
            </g>
          </g>
          <g id="Group_392" data-name="Group 392" transform="translate(9.772 0.233)">
            <g id="Group_391" data-name="Group 391">
              <path id="Path_324" data-name="Path 324" d="M543.669,226.247a3.38,3.38,0,0,1-.558.335l-1.646.881-6.11,3.172-20.4,10.393-.181.092-.121-.164-.965-1.313-14.143-19.381-4.241-5.906-1.134-1.62a3.693,3.693,0,0,1-.369-.585,3.787,3.787,0,0,1,.447.527l1.206,1.567,4.365,5.815,14.257,19.3.964,1.313-.3-.072L535.2,230.339l6.178-3.038,1.685-.8A3.436,3.436,0,0,1,543.669,226.247Z" transform="translate(-493.797 -212.152)" fill="#455a64"/>
            </g>
          </g>
        </g>
      </g>
      <g id="Plant" transform="translate(158.956 157.831)">
        <g id="Group_425" data-name="Group 425">
          <g id="Group_396" data-name="Group 396">
            <g id="Group_395" data-name="Group 395">
              <g id="Group_394" data-name="Group 394">
                <path id="Path_325" data-name="Path 325" d="M201.619,201.013s3.439-2.785,8.768,5.569a114.7,114.7,0,0,1,7.517,13.258s1.362,1.726,2.51.4,2.551-4.907,4.76-4.5c2.291.422,3.266,2.839,3.2,6.536s.069,11.8.085,12.537.526,1.733,1.454.955,6.023-7.693,9.16-5.078,1.245,12.883,1.06,14.009.075,1.575.623,1.8,2.042-2.265,3.573-4.172,3.638-3.85,5.322-2.19,2.891,9.11-3.065,21.978l-3.15,5.781-6.608.272c-14.176-.281-20.345-4.63-21.1-6.87s1.915-3.285,4.3-3.825,5.274-.8,5.315-1.385-.249-1.02-1.342-1.346-11.153-3.124-12.13-7.089,7.47-5.518,8.576-6.01.418-1.4-.222-1.725-7.878-4.013-11.233-5.568-5.1-3.49-4.477-5.735c.6-2.164,4.436-1.856,6.131-2.307s.739-2.432.739-2.432a114.672,114.672,0,0,1-8.627-12.564c-5.176-8.45-1.057-10.349-1.057-10.349" transform="translate(-200.138 -200.567)" fill="#fccf00"/>
              </g>
            </g>
          </g>
          <g id="Group_400" data-name="Group 400" transform="translate(6.266 7.919)">
            <g id="Group_399" data-name="Group 399">
              <g id="Group_398" data-name="Group 398">
                <g id="Group_397" data-name="Group 397">
                  <path id="Path_326" data-name="Path 326" d="M208.711,211.4s.03.064.1.183l.309.526,1.207,2.008c1.05,1.743,2.59,4.254,4.5,7.349,3.824,6.191,9.181,14.7,15.127,24.076s11.325,17.874,15.184,24.044l4.562,7.31,1.243,1.987.328.513c.075.116.118.171.118.171s-.03-.064-.1-.183l-.309-.525-1.207-2.009c-1.05-1.743-2.589-4.254-4.5-7.348-3.825-6.192-9.182-14.7-15.13-24.081s-11.324-17.87-15.182-24.04l-4.563-7.311-1.243-1.987-.328-.514C208.754,211.458,208.711,211.4,208.711,211.4Z" transform="translate(-208.711 -211.402)" fill="#263238"/>
                </g>
              </g>
            </g>
          </g>
          <g id="Group_404" data-name="Group 404" transform="translate(21.454 20.262)">
            <g id="Group_403" data-name="Group 403">
              <g id="Group_402" data-name="Group 402">
                <g id="Group_401" data-name="Group 401">
                  <path id="Path_327" data-name="Path 327" d="M231.313,228.29a2.01,2.01,0,0,0-.126.46c-.068.3-.153.733-.253,1.271-.2,1.076-.43,2.57-.656,4.222-.216,1.627-.41,3.1-.561,4.234q-.1.755-.176,1.281a1.96,1.96,0,0,0-.044.474,1.905,1.905,0,0,0,.129-.459c.067-.3.152-.734.246-1.272.186-1.079.4-2.575.626-4.227.227-1.624.432-3.093.591-4.228q.107-.754.183-1.281A1.955,1.955,0,0,0,231.313,228.29Z" transform="translate(-229.491 -228.29)" fill="#263238"/>
                </g>
              </g>
            </g>
          </g>
          <g id="Group_408" data-name="Group 408" transform="translate(7.171 29.834)">
            <g id="Group_407" data-name="Group 407">
              <g id="Group_406" data-name="Group 406">
                <g id="Group_405" data-name="Group 405">
                  <path id="Path_328" data-name="Path 328" d="M223.647,243.933c.011-.061-3.046-.679-6.829-1.381s-6.859-1.222-6.87-1.161,3.046.679,6.829,1.381S223.636,243.993,223.647,243.933Z" transform="translate(-209.949 -241.386)" fill="#263238"/>
                </g>
              </g>
            </g>
          </g>
          <g id="Group_412" data-name="Group 412" transform="translate(18.35 46.363)">
            <g id="Group_411" data-name="Group 411">
              <g id="Group_410" data-name="Group 410">
                <g id="Group_409" data-name="Group 409">
                  <path id="Path_329" data-name="Path 329" d="M237.547,264.008a2.069,2.069,0,0,0-.487.021l-1.315.129c-1.109.108-2.644.252-4.341.35s-3.238.142-4.353.162l-1.321.027a1.973,1.973,0,0,0-.485.036,2.084,2.084,0,0,0,.484.051c.312.018.764.035,1.323.044,1.117.02,2.662.005,4.366-.1s3.239-.268,4.346-.416c.554-.077,1-.144,1.308-.2A2.048,2.048,0,0,0,237.547,264.008Z" transform="translate(-225.245 -264.001)" fill="#263238"/>
                </g>
              </g>
            </g>
          </g>
          <g id="Group_416" data-name="Group 416" transform="translate(30.534 35.889)">
            <g id="Group_415" data-name="Group 415">
              <g id="Group_414" data-name="Group 414">
                <g id="Group_413" data-name="Group 413">
                  <path id="Path_330" data-name="Path 330" d="M246.621,249.67a1.778,1.778,0,0,0-.224.39c-.131.257-.314.633-.536,1.1-.444.93-1.043,2.223-1.693,3.657s-1.226,2.736-1.634,3.684c-.2.474-.365.859-.471,1.127a1.73,1.73,0,0,0-.145.426,1.777,1.777,0,0,0,.224-.39c.131-.257.314-.632.536-1.1.444-.93,1.043-2.223,1.693-3.657s1.226-2.736,1.634-3.684c.2-.474.365-.859.472-1.127A1.7,1.7,0,0,0,246.621,249.67Z" transform="translate(-241.915 -249.67)" fill="#263238"/>
                </g>
              </g>
            </g>
          </g>
          <g id="Group_420" data-name="Group 420" transform="translate(39.288 47.142)">
            <g id="Group_419" data-name="Group 419">
              <g id="Group_418" data-name="Group 418">
                <g id="Group_417" data-name="Group 417">
                  <path id="Path_331" data-name="Path 331" d="M260.05,265.066a2.886,2.886,0,0,0-.281.5l-.691,1.4c-.575,1.191-1.357,2.841-2.206,4.67s-1.609,3.491-2.147,4.7l-.628,1.435a2.883,2.883,0,0,0-.2.539,2.857,2.857,0,0,0,.281-.5l.692-1.4c.575-1.19,1.356-2.841,2.206-4.67s1.609-3.49,2.147-4.7c.251-.574.461-1.055.627-1.434A2.831,2.831,0,0,0,260.05,265.066Z" transform="translate(-253.892 -265.066)" fill="#263238"/>
                </g>
              </g>
            </g>
          </g>
          <g id="Group_424" data-name="Group 424" transform="translate(23.717 60.023)">
            <g id="Group_423" data-name="Group 423">
              <g id="Group_422" data-name="Group 422">
                <g id="Group_421" data-name="Group 421">
                  <path id="Path_332" data-name="Path 332" d="M248.219,282.7a3.285,3.285,0,0,0-.617.012l-1.673.1c-1.412.087-3.364.2-5.521.267s-4.113.082-5.528.082l-1.677,0a3.25,3.25,0,0,0-.615.026,3.2,3.2,0,0,0,.613.06c.4.024.968.05,1.677.069,1.416.04,3.375.053,5.537-.017s4.115-.206,5.526-.333c.705-.066,1.275-.125,1.669-.175A3.27,3.27,0,0,0,248.219,282.7Z" transform="translate(-232.588 -282.69)" fill="#263238"/>
                </g>
              </g>
            </g>
          </g>
        </g>
        <g id="Group_435" data-name="Group 435" transform="translate(217.724 65.595)">
          <g id="Group_426" data-name="Group 426" transform="translate(18.654)">
            <path id="Path_333" data-name="Path 333" d="M544.252,291.091a10.071,10.071,0,0,0-7.889.058,17.785,17.785,0,0,0-6.43,4.829c-3.478,3.908-5.415,9.611-6.387,14.752,5.767.711,11.4-2.987,14.144-5.042,4.333-3.248,10.19-11.751,6.561-14.6" transform="translate(-523.547 -290.313)" fill="#fccf00"/>
          </g>
          <g id="Group_427" data-name="Group 427" transform="translate(2.841 5.061)">
            <path id="Path_334" data-name="Path 334" d="M507.3,314.613a8.6,8.6,0,0,0,4.764-7.2,11.412,11.412,0,0,0-3.071-8.269,4.808,4.808,0,0,0-3.573-1.908,3.677,3.677,0,0,0-2.981,2.234,7.455,7.455,0,0,0-.461,3.844c.438,4.456,1.68,8.689,5.323,11.294" transform="translate(-501.912 -297.237)" fill="#fccf00"/>
          </g>
          <g id="Group_429" data-name="Group 429" transform="translate(0.645 11.466)">
            <g id="Group_428" data-name="Group 428">
              <path id="Path_335" data-name="Path 335" d="M498.913,331.514a4,4,0,0,0,.727-.826c.436-.554,1.052-1.368,1.782-2.4a36.9,36.9,0,0,0,4.74-8.668,18.494,18.494,0,0,0,.88-9.82,12.1,12.1,0,0,0-.953-2.857,3.37,3.37,0,0,0-.572-.944,25.64,25.64,0,0,1,1.118,3.877,19.4,19.4,0,0,1-1.025,9.548,42.709,42.709,0,0,1-4.531,8.633A33.1,33.1,0,0,0,498.913,331.514Z" transform="translate(-498.908 -306)" fill="#263238"/>
            </g>
          </g>
          <g id="Group_431" data-name="Group 431" transform="translate(0 6.75)">
            <g id="Group_430" data-name="Group 430">
              <path id="Path_336" data-name="Path 336" d="M532.182,299.55a10.63,10.63,0,0,0-1.46,1.075c-.917.721-2.224,1.786-3.827,3.119-3.2,2.666-7.572,6.421-12.292,10.686s-8.9,8.235-11.871,11.155c-1.488,1.46-2.679,2.654-3.489,3.493a10.691,10.691,0,0,0-1.217,1.344,10.809,10.809,0,0,0,1.376-1.18l3.616-3.357c3.046-2.842,7.263-6.756,11.978-11.02s9.034-8.061,12.168-10.806l3.7-3.26A10.87,10.87,0,0,0,532.182,299.55Z" transform="translate(-498.025 -299.549)" fill="#263238"/>
            </g>
          </g>
          <g id="Group_432" data-name="Group 432" transform="translate(11.302 26.964)">
            <path id="Path_337" data-name="Path 337" d="M513.73,330.56a20.106,20.106,0,0,1,18.256-2.043c1.511.59,3.15,1.672,3.177,3.294s-1.587,2.763-3.095,3.367a17.177,17.177,0,0,1-18.58-4.25" transform="translate(-513.489 -327.204)" fill="#fccf00"/>
          </g>
          <g id="Group_434" data-name="Group 434" transform="translate(1.3 29.361)">
            <g id="Group_433" data-name="Group 433">
              <path id="Path_338" data-name="Path 338" d="M524.384,332.349a3.636,3.636,0,0,0-.944-.468,8.551,8.551,0,0,0-1.159-.425,14.34,14.34,0,0,0-1.579-.437,21.171,21.171,0,0,0-4.236-.532,22.619,22.619,0,0,0-10.169,2.146,21.162,21.162,0,0,0-3.66,2.2,14.43,14.43,0,0,0-1.268,1.037,8.565,8.565,0,0,0-.889.858c-.463.5-.7.781-.674.808.08.082,1.107-1.012,3.072-2.367a23.629,23.629,0,0,1,3.643-2.044,23.87,23.87,0,0,1,9.937-2.1,23.617,23.617,0,0,1,4.159.4C522.962,331.871,524.342,332.456,524.384,332.349Z" transform="translate(-499.804 -330.485)" fill="#263238"/>
            </g>
          </g>
        </g>
      </g>
      <g id="Newletter" transform="translate(198.449 94.409)">
        <g id="Group_471" data-name="Group 471">
          <g id="Group_467" data-name="Group 467">
            <g id="Group_441" data-name="Group 441">
              <g id="Group_437" data-name="Group 437" transform="translate(0.191 0.19)">
                <g id="Group_436" data-name="Group 436">
                  <rect id="Rectangle_108" data-name="Rectangle 108" width="184.724" height="202.55" fill="#fafafa"/>
                </g>
              </g>
              <g id="Group_440" data-name="Group 440">
                <g id="Group_439" data-name="Group 439">
                  <g id="Group_438" data-name="Group 438">
                    <path id="Path_339" data-name="Path 339" d="M439.086,316.535c0-1.441-.067-81.507-.167-202.55l.167.167-184.705.023h-.018l.19-.19c-.01,74.531-.02,144.138-.029,202.55l-.162-.162,184.724.162-184.724.162H254.2v-.162c-.008-58.412-.018-128.019-.029-202.55v-.191h.209l184.705.023h.167v.167C439.154,235.028,439.087,315.1,439.086,316.535Z" transform="translate(-254.172 -113.794)" fill="#263238"/>
                  </g>
                </g>
              </g>
            </g>
            <g id="Group_460" data-name="Group 460" transform="translate(127.3 91.781)">
              <g id="Group_459" data-name="Group 459">
                <path id="Path_358" data-name="Path 358" d="M428.342,239.368" transform="translate(-428.342 -239.368)" fill="#e8505b"/>
              </g>
            </g>
            <g id="Group_463" data-name="Group 463" transform="translate(41.375 145.076)">
              <g id="Group_462" data-name="Group 462">
                <g id="Group_461" data-name="Group 461">
                  <path id="Path_359" data-name="Path 359" d="M415.713,312.476c0,.105-23.492.19-52.464.19s-52.469-.085-52.469-.19,23.487-.191,52.469-.191S415.713,312.371,415.713,312.476Z" transform="translate(-310.781 -312.285)" fill="#263238"/>
                </g>
              </g>
            </g>
            <g id="Group_653" data-name="Group 653" transform="translate(41.375 158.076)">
              <g id="Group_462-2" data-name="Group 462">
                <g id="Group_461-2" data-name="Group 461">
                  <path id="Path_359-2" data-name="Path 359" d="M415.713,312.476c0,.105-23.492.19-52.464.19s-52.469-.085-52.469-.19,23.487-.191,52.469-.191S415.713,312.371,415.713,312.476Z" transform="translate(-310.781 -312.285)" fill="#263238"/>
                </g>
              </g>
            </g>
            <g id="Group_656" data-name="Group 656" transform="translate(41.375 171.076)">
              <g id="Group_462-3" data-name="Group 462">
                <g id="Group_461-3" data-name="Group 461">
                  <path id="Path_359-3" data-name="Path 359" d="M415.713,312.476c0,.105-23.492.19-52.464.19s-52.469-.085-52.469-.19,23.487-.191,52.469-.191S415.713,312.371,415.713,312.476Z" transform="translate(-310.781 -312.285)" fill="#263238"/>
                </g>
              </g>
            </g>
            <g id="Group_466" data-name="Group 466" transform="translate(24.959 151.424)">
              <g id="Group_465" data-name="Group 465">
                <g id="Group_464" data-name="Group 464">
                  <path id="Path_360" data-name="Path 360" d="M426.085,321.16c0,.105-30.842.191-68.879.191s-68.886-.086-68.886-.191,30.836-.19,68.886-.19S426.085,321.056,426.085,321.16Z" transform="translate(-288.32 -320.97)" fill="#263238"/>
                </g>
              </g>
            </g>
            <g id="Group_654" data-name="Group 654" transform="translate(24.959 164.424)">
              <g id="Group_465-2" data-name="Group 465">
                <g id="Group_464-2" data-name="Group 464">
                  <path id="Path_360-2" data-name="Path 360" d="M426.085,321.16c0,.105-30.842.191-68.879.191s-68.886-.086-68.886-.191,30.836-.19,68.886-.19S426.085,321.056,426.085,321.16Z" transform="translate(-288.32 -320.97)" fill="#263238"/>
                </g>
              </g>
            </g>
            <g id="Group_655" data-name="Group 655" transform="translate(24.959 177.424)">
              <g id="Group_465-3" data-name="Group 465">
                <g id="Group_464-3" data-name="Group 464">
                  <path id="Path_360-3" data-name="Path 360" d="M426.085,321.16c0,.105-30.842.191-68.879.191s-68.886-.086-68.886-.191,30.836-.19,68.886-.19S426.085,321.056,426.085,321.16Z" transform="translate(-288.32 -320.97)" fill="#263238"/>
                </g>
              </g>
            </g>
          </g>
          <g id="Group_468" data-name="Group 468" transform="translate(5.747 6.505)">
            <path id="Path_361" data-name="Path 361" d="M265.163,124.258a1.564,1.564,0,1,1-1.564-1.564A1.564,1.564,0,0,1,265.163,124.258Z" transform="translate(-262.035 -122.694)" fill="#e0e0e0"/>
          </g>
          <g id="Group_469" data-name="Group 469" transform="translate(10.961 6.505)">
            <circle id="Ellipse_40" data-name="Ellipse 40" cx="1.564" cy="1.564" r="1.564" fill="#e0e0e0"/>
          </g>
          <g id="Group_470" data-name="Group 470" transform="translate(16.175 6.505)">
            <path id="Path_362" data-name="Path 362" d="M279.431,124.258a1.564,1.564,0,1,1-1.564-1.564A1.564,1.564,0,0,1,279.431,124.258Z" transform="translate(-276.303 -122.694)" fill="#e0e0e0"/>
          </g>
        </g>
      </g>
      <g id="Character" transform="translate(171.157 41.758)">
        <g id="Group_651" data-name="Group 651">
          <g id="Group_472" data-name="Group 472" transform="translate(185.966 69.715)">
            <path id="Path_363" data-name="Path 363" d="M483.761,160.9l3.037-10.954s1.1-4.45,1.357-5.49c.345-1.376-.62-1.808-1.188-.872-.216.354-2.62,4.887-2.62,4.887l1.985-7.688c.62-2.422-.879-2.171-1.319-1.305-.454.9-3.167,8.2-3.167,8.2,2.547-9.54,1.75-10.381,1.034-10.531s-2.963,8.573-2.963,8.573a8.162,8.162,0,0,0-2.3-2.519c-2.3-1.584-6.143,0-6.329,1.083s1.187,1.389,1.187,1.389a3.468,3.468,0,0,1,5.543,3.147,2.158,2.158,0,0,1-4.225.411c-.954-4.3-2.434-2.9-2.434-2.9l1.483,9.488-1.571,4.772" transform="translate(-471.268 -137.141)" fill="#ffbe9d"/>
          </g>
          <g id="Group_485" data-name="Group 485" transform="translate(88.521 111.168)">
            <g id="Group_474" data-name="Group 474" transform="translate(0.001 26.52)">
              <g id="Group_473" data-name="Group 473">
                <path id="Path_364" data-name="Path 364" d="M338.47,230.579l65.671-.438,1.8,44.649-68-.67Z" transform="translate(-337.946 -230.141)" fill="#455a64"/>
              </g>
            </g>
            <g id="Group_476" data-name="Group 476" transform="translate(0.525)">
              <g id="Group_475" data-name="Group 475">
                <path id="Path_365" data-name="Path 365" d="M338.663,220.815l33.356-26.958,32.315,26.52" transform="translate(-338.663 -193.857)" fill="#263238"/>
              </g>
            </g>
            <g id="Group_479" data-name="Group 479" transform="translate(0 45.149)">
              <g id="Group_478" data-name="Group 478">
                <g id="Group_477" data-name="Group 477">
                  <path id="Path_366" data-name="Path 366" d="M337.946,280.979c-.082-.077,5.179-5.814,11.749-12.813s11.964-12.612,12.046-12.536-5.178,5.813-11.75,12.814S338.028,281.056,337.946,280.979Z" transform="translate(-337.945 -255.63)" fill="#263238"/>
                </g>
              </g>
            </g>
            <g id="Group_482" data-name="Group 482" transform="translate(45.448 45.763)">
              <g id="Group_481" data-name="Group 481">
                <g id="Group_480" data-name="Group 480">
                  <path id="Path_367" data-name="Path 367" d="M422.679,281.875c-.084.075-5.2-5.553-11.427-12.567s-11.208-12.764-11.124-12.838,5.2,5.551,11.428,12.568S422.763,281.8,422.679,281.875Z" transform="translate(-400.127 -256.469)" fill="#263238"/>
                </g>
              </g>
            </g>
            <g id="Group_484" data-name="Group 484" transform="translate(0.525 26.52)">
              <g id="Group_483" data-name="Group 483">
                <path id="Path_368" data-name="Path 368" d="M404.334,230.141l-32.992,26.324-32.679-25.886" transform="translate(-338.663 -230.141)" fill="#263238"/>
              </g>
            </g>
          </g>
          <g id="Group_516" data-name="Group 516">
            <g id="Group_514" data-name="Group 514">
              <g id="Group_487" data-name="Group 487" transform="translate(41.623 67.737)">
                <g id="Group_486" data-name="Group 486">
                  <path id="Path_369" data-name="Path 369" d="M277.32,154.506l.219-.007-.881-2.938-2.813-11.228a2.061,2.061,0,0,1,1.321-2.446l2.025-.069,6.935-3.244a2.162,2.162,0,0,1,2.923,1.677c.253,2.063,1.656,7.608,3.15,5.666.035-.046.072-.083.107-.128,2.1-2.89,4.714-4.449,5.79-4.405a1.207,1.207,0,0,1,.735,2.073,1.276,1.276,0,0,1-.4.343c-.07.038-.153.106-.227.153a17.924,17.924,0,0,0-2.5,2.739,9.486,9.486,0,0,0-1.528,2.923c-.371,1.164-.645,2.185-.853,3.051l.539,5.731" transform="translate(-273.779 -134.435)" fill="#ffbe9d"/>
                </g>
              </g>
              <g id="Group_513" data-name="Group 513">
                <g id="Group_496" data-name="Group 496">
                  <g id="Group_489" data-name="Group 489">
                    <g id="Group_488" data-name="Group 488">
                      <path id="Path_370" data-name="Path 370" d="M280.5,78.708s-8.1-1.552-19.747-12.129-17.378-24.9-18.763-24.788-7.522-2.53-18.332,22.856-6.106,31.077-3.815,30.965,17.734-4.892,27.488-4.062,22.395,5.542,22.395,5.542Z" transform="translate(-216.831 -41.758)" fill="#455a64"/>
                    </g>
                  </g>
                  <g id="Group_491" data-name="Group 491" transform="translate(51.165 32.311)">
                    <g id="Group_490" data-name="Group 490" transform="translate(0 0)">
                      <path id="Path_371" data-name="Path 371" d="M316.832,103.779l-2.6,5.3-1.164,2.375a6.82,6.82,0,0,1-8.8,3.271L286.835,109.2l9.4-23.236,17.506,8.7A6.821,6.821,0,0,1,316.832,103.779Z" transform="translate(-286.835 -85.966)" fill="#263238"/>
                    </g>
                  </g>
                  <g id="Group_493" data-name="Group 493" transform="translate(40.631 55.287)">
                    <g id="Group_492" data-name="Group 492">
                      <path id="Path_372" data-name="Path 372" d="M303.239,120.884l-5.2,10.937-2.773-.686-17.55,15.122-5.3-9.686s10.486-4.874,12.342-8.715-.437-4.635-.437-4.635l4.836-5.819Z" transform="translate(-272.422 -117.401)" fill="#263238"/>
                    </g>
                  </g>
                  <g id="Group_495" data-name="Group 495" transform="translate(1.483 0.603)">
                    <g id="Group_494" data-name="Group 494">
                      <path id="Path_373" data-name="Path 373" d="M225.147,65.3c-5.746,13.749-7.955,25.918-4.934,27.181s10.128-8.86,15.874-22.609,7.955-25.918,4.934-27.181S230.893,51.55,225.147,65.3Z" transform="translate(-218.86 -42.584)" fill="#263238"/>
                    </g>
                  </g>
                </g>
                <g id="Group_498" data-name="Group 498" transform="translate(78.138 50.706)">
                  <g id="Group_497" data-name="Group 497">
                    <path id="Path_374" data-name="Path 374" d="M328.459,118.057l-4.72-1.337,2.739-5.587,3.571,2.082Z" transform="translate(-323.738 -111.133)" fill="#455a64"/>
                  </g>
                </g>
                <g id="Group_500" data-name="Group 500" transform="translate(55.714 57.281)">
                  <g id="Group_499" data-name="Group 499">
                    <path id="Path_375" data-name="Path 375" d="M293.058,120.13l12.8,7.662,1.481-3.118Z" transform="translate(-293.058 -120.13)" fill="#455a64"/>
                  </g>
                </g>
                <g id="Group_502" data-name="Group 502" transform="translate(78.138 50.706)">
                  <g id="Group_501" data-name="Group 501">
                    <path id="Path_376" data-name="Path 376" d="M326.478,111.133l-2.739,5.587.97.275,2.2-5.613Z" transform="translate(-323.738 -111.133)" fill="#455a64"/>
                  </g>
                </g>
                <g id="Group_504" data-name="Group 504" transform="translate(67.375 47.736)">
                  <g id="Group_503" data-name="Group 503">
                    <path id="Path_377" data-name="Path 377" d="M319.327,111.4c-.064.153-2.425-.689-5.273-1.879s-5.105-2.281-5.041-2.435a52.18,52.18,0,0,1,10.314,4.314Z" transform="translate(-309.012 -107.07)" fill="#455a64"/>
                  </g>
                </g>
                <g id="Group_506" data-name="Group 506" transform="translate(69.731 44.472)">
                  <g id="Group_505" data-name="Group 505">
                    <path id="Path_378" data-name="Path 378" d="M321.54,106.88a21.953,21.953,0,0,1-4.776-1.855,21.976,21.976,0,0,1-4.526-2.4,43.7,43.7,0,0,1,9.3,4.257Z" transform="translate(-312.237 -102.605)" fill="#455a64"/>
                  </g>
                </g>
                <g id="Group_508" data-name="Group 508" transform="translate(66.571 51.676)">
                  <g id="Group_507" data-name="Group 507">
                    <path id="Path_379" data-name="Path 379" d="M317.314,116.342c-.023.08-.582-.032-1.476-.281-.447-.124-.976-.282-1.563-.467s-1.191-.478-1.84-.751a19.891,19.891,0,0,1-4.521-2.363c.071-.165,2.187.7,4.756,1.81.644.27,1.243.571,1.806.787s1.071.406,1.495.58C316.818,116.006,317.336,116.262,317.314,116.342Z" transform="translate(-307.912 -112.46)" fill="#455a64"/>
                  </g>
                </g>
                <g id="Group_510" data-name="Group 510" transform="translate(8.531 19.053)">
                  <g id="Group_509" data-name="Group 509">
                    <path id="Path_380" data-name="Path 380" d="M240.156,68.718s-7.123-4.141-10.684,5.424,3.847,10.912,3.847,10.912A63.041,63.041,0,0,0,240.156,68.718Z" transform="translate(-228.503 -67.826)" fill="#455a64"/>
                  </g>
                </g>
                <g id="Group_512" data-name="Group 512" transform="translate(8.424 8.463)">
                  <g id="Group_511" data-name="Group 511">
                    <path id="Path_381" data-name="Path 381" d="M247.241,53.337a10.6,10.6,0,0,1-.223,1.815c-.189,1.161-.454,2.848-.845,4.92-.267,1.023-.559,2.139-.872,3.337l-.492,1.858-.258.972c-.1.326-.223.647-.335.976l-1.465,4.125q-.191.537-.387,1.082c-.126.365-.308.711-.462,1.071q-.482,1.072-.979,2.174l-.982,2.174c-.169.354-.308.719-.5,1.056l-.555,1.006-2.123,3.83c-.173.3-.33.61-.511.9l-.558.838-1.07,1.6L232.7,89.937c-1.292,1.66-2.378,2.971-3.125,3.881a10.575,10.575,0,0,1-1.214,1.369,10.764,10.764,0,0,1,1.03-1.513l2.973-4,1.851-2.885,1.035-1.6.542-.837c.176-.287.327-.6.5-.9l2.079-3.821.547-1c.187-.335.324-.7.49-1.051q.48-1.065.973-2.16t.975-2.158c.153-.358.336-.7.463-1.063l.389-1.072,1.488-4.086c.115-.327.246-.644.345-.966s.181-.645.269-.962q.266-.947.517-1.839c.336-1.184.65-2.289.938-3.3.429-2.031.778-3.685,1.028-4.863A10.827,10.827,0,0,1,247.241,53.337Z" transform="translate(-228.356 -53.337)" fill="#263238"/>
                  </g>
                </g>
              </g>
            </g>
            <g id="Group_515" data-name="Group 515" transform="translate(150.408 130.469)">
              <path id="Path_382" data-name="Path 382" d="M422.617,220.264" transform="translate(-422.617 -220.264)" fill="#e8505b"/>
            </g>
          </g>
          <g id="Group_569" data-name="Group 569" transform="translate(44.039 83.249)">
            <g id="Group_518" data-name="Group 518" transform="translate(51.533 38.117)">
              <g id="Group_517" data-name="Group 517">
                <path id="Path_383" data-name="Path 383" d="M347.591,207.81" transform="translate(-347.591 -207.81)" fill="#e8505b"/>
              </g>
            </g>
            <g id="Group_520" data-name="Group 520" transform="translate(0 0.427)">
              <g id="Group_519" data-name="Group 519">
                <path id="Path_384" data-name="Path 384" d="M302.441,185.5,295.2,157.966l-18.11.479,5.632,38.423c.721,8.361,5.64,13.835,13.926,15.163,4.967.8,10.351-3.94,14.34-7,2.606-2,3.068-1.6,5.756-4.048h0l11.667-8.433.286,1.384-.075,0,1.982,23.478,24.161,18.972,28.82-23.091-.659-9.987c.071-.009.142-.147-.009-.144l-.746-11.319,14.763,16.936a16.856,16.856,0,0,0,29.63-3.452l7.606-38.706-16.693-3.592-7.818,27.892L391,169.483c-10.754-14.014-23.313-12.829-23.313-12.829l-23.151-.411h-.053c-.687.037-13.625.428-22.395,9.8Z" transform="translate(-277.085 -156.243)" fill="#fccf00"/>
              </g>
            </g>
            <g id="Group_523" data-name="Group 523" transform="translate(42.144 12.975)">
              <g id="Group_522" data-name="Group 522">
                <g id="Group_521" data-name="Group 521">
                  <path id="Path_385" data-name="Path 385" d="M407.461,175.631c-.01.023-.25-.118-.745-.273a5.824,5.824,0,0,0-2.234-.23,10.327,10.327,0,0,0-3.424.982c-1.281.568-2.6,1.473-4.147,2.359a10.776,10.776,0,0,1-5.533,1.755,9.686,9.686,0,0,1-3.185-.742c-1.043-.408-2.07-.915-3.15-1.343a12.48,12.48,0,0,0-7.115-.675c-2.487.474-4.765,1.869-7.1,3.222a26.816,26.816,0,0,1-3.606,1.8,14.728,14.728,0,0,1-3.817.928,15.026,15.026,0,0,1-7.3-1.013,27.834,27.834,0,0,1-5.738-3.417c-1.689-1.223-3.243-2.386-4.768-3.269a17.172,17.172,0,0,0-4.377-1.8,10.911,10.911,0,0,0-3.553-.3,9.162,9.162,0,0,0-2.929.83.881.881,0,0,1,.173-.106c.118-.063.292-.162.529-.275a8.058,8.058,0,0,1,2.212-.6,10.818,10.818,0,0,1,3.617.236,17.1,17.1,0,0,1,4.461,1.777,57.738,57.738,0,0,1,4.819,3.247,27.816,27.816,0,0,0,5.686,3.348,14.72,14.72,0,0,0,7.126.967,14.379,14.379,0,0,0,3.72-.91,26.576,26.576,0,0,0,3.553-1.78c2.322-1.345,4.643-2.772,7.215-3.258a12.8,12.8,0,0,1,7.317.715c2.173.888,4.147,2.03,6.216,2.095a10.563,10.563,0,0,0,5.39-1.673c1.537-.863,2.884-1.761,4.192-2.32a10.266,10.266,0,0,1,3.5-.936,5.613,5.613,0,0,1,2.269.306A3.193,3.193,0,0,1,407.461,175.631Z" transform="translate(-334.746 -173.411)" fill="#fafafa"/>
                </g>
              </g>
            </g>
            <g id="Group_526" data-name="Group 526" transform="translate(30.293 24.297)">
              <g id="Group_525" data-name="Group 525">
                <g id="Group_524" data-name="Group 524">
                  <path id="Path_386" data-name="Path 386" d="M416.524,193.515a4.155,4.155,0,0,1-.4,1.018,6.55,6.55,0,0,1-2.1,2.315,9.656,9.656,0,0,1-4.654,1.648,30.341,30.341,0,0,1-6.556-.289,18.44,18.44,0,0,0-7.8.35,17.754,17.754,0,0,0-3.87,2.035,27.959,27.959,0,0,1-4.073,2.367,17.261,17.261,0,0,1-9.963,1.165,16.622,16.622,0,0,1-5.06-1.773c-1.605-.862-3.1-1.931-4.651-2.933a19.252,19.252,0,0,0-4.839-2.43,12.127,12.127,0,0,0-5.194-.324c-3.434.5-6.552,1.881-9.66,2.722a18.6,18.6,0,0,1-4.654.78,11.055,11.055,0,0,1-4.394-.742,21.762,21.762,0,0,1-6.448-4.648,30.941,30.941,0,0,0-5.03-4.141,10.436,10.436,0,0,0-4.6-1.568,7.316,7.316,0,0,0-3.056.368c-.667.248-.982.459-.995.436a4.538,4.538,0,0,1,.968-.508,7.158,7.158,0,0,1,3.093-.444,10.47,10.47,0,0,1,4.7,1.534,30.685,30.685,0,0,1,5.1,4.126,21.646,21.646,0,0,0,6.381,4.552,10.743,10.743,0,0,0,4.268.7,18.336,18.336,0,0,0,4.57-.783c1.538-.433,3.089-.976,4.691-1.494a29.6,29.6,0,0,1,5.012-1.26,12.488,12.488,0,0,1,5.355.331,19.553,19.553,0,0,1,4.936,2.473c1.559,1.008,3.048,2.071,4.624,2.918a16.271,16.271,0,0,0,4.947,1.74,16.949,16.949,0,0,0,9.755-1.119c2.908-1.27,5.193-3.473,7.984-4.38a12.951,12.951,0,0,1,4.119-.591,33.681,33.681,0,0,1,3.815.273,30.692,30.692,0,0,0,6.5.345,9.59,9.59,0,0,0,4.591-1.559,6.664,6.664,0,0,0,2.114-2.229C416.406,193.876,416.5,193.506,416.524,193.515Z" transform="translate(-318.531 -188.902)" fill="#fafafa"/>
                </g>
              </g>
            </g>
            <g id="Group_529" data-name="Group 529" transform="translate(118.343 45.838)">
              <g id="Group_528" data-name="Group 528">
                <g id="Group_527" data-name="Group 527">
                  <path id="Path_387" data-name="Path 387" d="M470.061,220.052a5.6,5.6,0,0,0-1.012-.829,5.077,5.077,0,0,0-3.433-.512,11.12,11.12,0,0,0-4.624,2.47c-.8.617-1.62,1.294-2.554,1.9a8.018,8.018,0,0,1-6.624,1.272,25.34,25.34,0,0,1-3.063-.892c-.957-.328-1.857-.653-2.717-.879a13.383,13.383,0,0,0-2.433-.412,6.821,6.821,0,0,0-3.479.557,13.024,13.024,0,0,0-1.121.686c-.009-.01.073-.094.24-.249a2.159,2.159,0,0,1,.327-.263,3.165,3.165,0,0,1,.487-.306,6.684,6.684,0,0,1,3.561-.694,13.2,13.2,0,0,1,2.5.375c.882.217,1.794.535,2.751.852,1.894.616,4.072,1.365,6.333.946a8.562,8.562,0,0,0,3.04-1.306c.914-.588,1.737-1.252,2.543-1.865a11.112,11.112,0,0,1,4.792-2.457,5.09,5.09,0,0,1,3.557.652,3.42,3.42,0,0,1,.745.663A1.224,1.224,0,0,1,470.061,220.052Z" transform="translate(-439 -218.373)" fill="#fafafa"/>
                </g>
              </g>
            </g>
            <g id="Group_532" data-name="Group 532" transform="translate(135.242 24.501)">
              <g id="Group_531" data-name="Group 531">
                <g id="Group_530" data-name="Group 530">
                  <path id="Path_388" data-name="Path 388" d="M479.953,191.191a1.967,1.967,0,0,1-.629.394,5.8,5.8,0,0,1-1.963.5,9.651,9.651,0,0,1-2.989-.269,29.691,29.691,0,0,1-3.463-1.153,19.392,19.392,0,0,0-3.441-1.028,8.3,8.3,0,0,0-2.894-.01,6.609,6.609,0,0,0-2.452,1.058,1.889,1.889,0,0,1,.54-.509,5.134,5.134,0,0,1,1.857-.812,8.108,8.108,0,0,1,3-.072,18.013,18.013,0,0,1,3.518,1.017,34.183,34.183,0,0,0,3.415,1.169,10.049,10.049,0,0,0,2.888.341A7.869,7.869,0,0,0,479.953,191.191Z" transform="translate(-462.121 -189.18)" fill="#fafafa"/>
                </g>
              </g>
            </g>
            <g id="Group_535" data-name="Group 535" transform="translate(53.515 52.347)">
              <g id="Group_534" data-name="Group 534">
                <g id="Group_533" data-name="Group 533">
                  <path id="Path_389" data-name="Path 389" d="M401.4,229.069a18.909,18.909,0,0,0-1.913-.876,12.924,12.924,0,0,0-5.643-.583,24.163,24.163,0,0,0-8.059,2.559c-2.9,1.365-5.971,3.193-9.543,4.35a17.737,17.737,0,0,1-5.38.929,16.459,16.459,0,0,1-5.013-.863,42.227,42.227,0,0,1-4.262-1.695c-1.31-.577-2.521-1.135-3.65-1.579a18.971,18.971,0,0,0-5.527-1.443c-.337-.019-.637-.048-.9-.054l-.659.021a2.991,2.991,0,0,1-.549-.006,2.894,2.894,0,0,1,.543-.071l.664-.058c.262-.006.566.012.909.02a18.133,18.133,0,0,1,5.615,1.34c1.144.431,2.364.976,3.679,1.541a43.48,43.48,0,0,0,4.242,1.65,16.251,16.251,0,0,0,4.9.824,17.549,17.549,0,0,0,5.265-.918c3.518-1.138,6.585-2.948,9.51-4.306a23.967,23.967,0,0,1,8.184-2.51,12.636,12.636,0,0,1,5.72.712A7.347,7.347,0,0,1,401.4,229.069Z" transform="translate(-350.303 -227.28)" fill="#fafafa"/>
                </g>
              </g>
            </g>
            <g id="Group_538" data-name="Group 538" transform="translate(4.79 35.231)">
              <g id="Group_537" data-name="Group 537">
                <g id="Group_536" data-name="Group 536">
                  <path id="Path_390" data-name="Path 390" d="M283.638,204.089a.98.98,0,0,1,.349-.166,1.9,1.9,0,0,1,1.105.045,3.159,3.159,0,0,1,1.44,1,10.549,10.549,0,0,1,1.159,1.99,6.781,6.781,0,0,0,1.617,2.152,7.9,7.9,0,0,0,2.7,1.494,15.245,15.245,0,0,0,7.117.341,50.321,50.321,0,0,1,7.245-.871,10.271,10.271,0,0,1,5.731,1.589,6.476,6.476,0,0,1,2.613,3.036,3.937,3.937,0,0,1,.305,1.444,12.865,12.865,0,0,0-.443-1.387,6.524,6.524,0,0,0-2.62-2.866,10.15,10.15,0,0,0-5.586-1.466,53.475,53.475,0,0,0-7.193.9,15.34,15.34,0,0,1-7.283-.385,8.127,8.127,0,0,1-2.8-1.59,6.964,6.964,0,0,1-1.649-2.269,10.822,10.822,0,0,0-1.084-1.977,3.084,3.084,0,0,0-1.322-.991A2.047,2.047,0,0,0,283.638,204.089Z" transform="translate(-283.638 -203.862)" fill="#fafafa"/>
                </g>
              </g>
            </g>
            <g id="Group_541" data-name="Group 541" transform="translate(2.003 11.21)">
              <g id="Group_540" data-name="Group 540">
                <g id="Group_539" data-name="Group 539">
                  <path id="Path_391" data-name="Path 391" d="M298.467,172.915a7.436,7.436,0,0,0-2.549-1.324,8.3,8.3,0,0,0-3.1-.2,13.521,13.521,0,0,0-3.679,1.061c-1.26.541-2.422,1.158-3.5,1.688a26.02,26.02,0,0,1-2.934,1.273,11.648,11.648,0,0,1-2.093.536,2.542,2.542,0,0,1-.791.049,25.824,25.824,0,0,0,2.791-.838,31.192,31.192,0,0,0,2.869-1.334c1.063-.545,2.226-1.175,3.508-1.725a13.141,13.141,0,0,1,3.79-1.059,8.159,8.159,0,0,1,3.209.294,5.747,5.747,0,0,1,1.924,1.007A2.149,2.149,0,0,1,298.467,172.915Z" transform="translate(-279.826 -170.996)" fill="#fafafa"/>
                </g>
              </g>
            </g>
            <g id="Group_544" data-name="Group 544" transform="translate(73.567 36.026)" opacity="0.3">
              <g id="Group_543" data-name="Group 543">
                <g id="Group_542" data-name="Group 542">
                  <path id="Path_392" data-name="Path 392" d="M377.738,246.263c9.381-5.441,20.242-11.82,25.659-21.216,3.464-6.009,5.184-13.195,5.857-20.1l1.414,21.45-28.82,23.091Z" transform="translate(-377.738 -204.949)"/>
                </g>
              </g>
            </g>
            <g id="Group_547" data-name="Group 547" transform="translate(25.217 6.377)" opacity="0.2">
              <g id="Group_546" data-name="Group 546">
                <g id="Group_545" data-name="Group 545">
                  <path id="Path_393" data-name="Path 393" d="M335.617,164.384A41.4,41.4,0,0,1,322.732,185.3a16.042,16.042,0,0,1-5.184,3.276,7.172,7.172,0,0,1-5.963-.393l.14-.491,14.606-14.463Z" transform="translate(-311.586 -164.384)"/>
                </g>
              </g>
            </g>
            <g id="Group_550" data-name="Group 550" transform="translate(25.321 29.731)">
              <g id="Group_549" data-name="Group 549">
                <g id="Group_548" data-name="Group 548">
                  <path id="Path_394" data-name="Path 394" d="M313.623,207.794c-.062-.023.176-.664.373-1.735a12.32,12.32,0,0,0-1.353-8.2c-.531-.951-.962-1.481-.911-1.522a5.013,5.013,0,0,1,1.142,1.385,11.039,11.039,0,0,1,1.385,8.393A5.02,5.02,0,0,1,313.623,207.794Z" transform="translate(-311.728 -196.337)" fill="#263238"/>
                </g>
              </g>
            </g>
            <g id="Group_553" data-name="Group 553" transform="translate(23.025 30.067)">
              <g id="Group_552" data-name="Group 552">
                <g id="Group_551" data-name="Group 551">
                  <path id="Path_395" data-name="Path 395" d="M308.593,204.234a10.446,10.446,0,0,0,2.058-7.438,2.659,2.659,0,0,1,.292,1.153,7.781,7.781,0,0,1-1.507,5.445C308.985,203.981,308.624,204.265,308.593,204.234Z" transform="translate(-308.588 -196.796)" fill="#263238"/>
                </g>
              </g>
            </g>
            <g id="Group_556" data-name="Group 556" transform="translate(50.205 22.393)">
              <g id="Group_555" data-name="Group 555">
                <g id="Group_554" data-name="Group 554">
                  <path id="Path_396" data-name="Path 396" d="M345.79,186.3c.1-.009.7,5.817,1.34,13.012s1.066,13.038.961,13.046-.7-5.816-1.34-13.013S345.686,186.306,345.79,186.3Z" transform="translate(-345.775 -186.297)" fill="#263238"/>
                </g>
              </g>
            </g>
            <g id="Group_559" data-name="Group 559" transform="translate(67.616)">
              <g id="Group_558" data-name="Group 558">
                <g id="Group_557" data-name="Group 557">
                  <path id="Path_397" data-name="Path 397" d="M391.222,155.659a1.8,1.8,0,0,1,.157.394,8.23,8.23,0,0,1,.319,1.175,11.152,11.152,0,0,1-.07,4.464,11.554,11.554,0,0,1-3.187,5.778,11.363,11.363,0,0,1-15.026.328,11.54,11.54,0,0,1-3.437-5.634,11.136,11.136,0,0,1-.265-4.456,8.1,8.1,0,0,1,.267-1.187,1.747,1.747,0,0,1,.14-.4c.045.012-.143.568-.26,1.607a11.593,11.593,0,0,0,.377,4.366,11.438,11.438,0,0,0,3.409,5.441,11.105,11.105,0,0,0,14.553-.319,11.437,11.437,0,0,0,3.168-5.584,11.6,11.6,0,0,0,.186-4.379C391.389,156.22,391.177,155.673,391.222,155.659Z" transform="translate(-369.596 -155.659)" fill="#263238"/>
                </g>
              </g>
            </g>
            <g id="Group_562" data-name="Group 562" transform="translate(131.524 34.902)">
              <g id="Group_561" data-name="Group 561">
                <g id="Group_560" data-name="Group 560">
                  <path id="Path_398" data-name="Path 398" d="M457.212,212.542a27.71,27.71,0,0,1,.519-9.131c.109.016-.119,2.049-.259,4.566S457.323,212.538,457.212,212.542Z" transform="translate(-457.034 -203.411)" fill="#263238"/>
                </g>
              </g>
            </g>
            <g id="Group_565" data-name="Group 565" transform="translate(132.38 34.63)">
              <g id="Group_564" data-name="Group 564">
                <g id="Group_563" data-name="Group 563">
                  <path id="Path_399" data-name="Path 399" d="M460.463,213.771a6,6,0,0,1-.625-1.492,32.422,32.422,0,0,1-1.576-7.622,6.036,6.036,0,0,1-.018-1.617c.114-.008.332,2.44.949,5.4S460.57,213.733,460.463,213.771Z" transform="translate(-458.206 -203.039)" fill="#263238"/>
                </g>
              </g>
            </g>
            <g id="Group_568" data-name="Group 568" transform="translate(104.342 27.373)">
              <g id="Group_567" data-name="Group 567">
                <g id="Group_566" data-name="Group 566">
                  <path id="Path_400" data-name="Path 400" d="M420.584,211.518c-.105,0-.345-4.114-.536-9.2s-.26-9.207-.155-9.211.344,4.113.535,9.2S420.688,211.514,420.584,211.518Z" transform="translate(-419.844 -193.11)" fill="#263238"/>
                </g>
              </g>
            </g>
          </g>
          <g id="Group_650" data-name="Group 650" transform="translate(99.317 30.074)">
            <g id="Group_646" data-name="Group 646" transform="translate(4.029 9.603)">
              <g id="Group_582" data-name="Group 582">
                <g id="Group_581" data-name="Group 581">
                  <g id="Group_580" data-name="Group 580">
                    <g id="Group_574" data-name="Group 574">
                      <g id="Group_573" data-name="Group 573">
                        <g id="Group_572" data-name="Group 572">
                          <g id="Group_571" data-name="Group 571">
                            <g id="Group_570" data-name="Group 570">
                              <path id="Path_401" data-name="Path 401" d="M377.8,153.283h0a10.364,10.364,0,0,1-10.159-9.929c-.167-4.005-.306-7.683-.306-7.683s-8.383-.89-8.889-9.2.01-27.487.01-27.487h0a28.948,28.948,0,0,1,29.229,2.243l1.279.889-.608,40.964A10.363,10.363,0,0,1,377.8,153.283Z" transform="translate(-358.228 -96.043)" fill="#ffbe9d"/>
                            </g>
                          </g>
                        </g>
                      </g>
                    </g>
                    <g id="Group_579" data-name="Group 579" transform="translate(9.092 35.9)">
                      <g id="Group_578" data-name="Group 578">
                        <g id="Group_577" data-name="Group 577">
                          <g id="Group_576" data-name="Group 576">
                            <g id="Group_575" data-name="Group 575">
                              <path id="Path_402" data-name="Path 402" d="M370.668,148.769a19.37,19.37,0,0,0,10.7-3.608s-2.274,6.112-10.611,5.765Z" transform="translate(-370.668 -145.161)" fill="#eb996e"/>
                            </g>
                          </g>
                        </g>
                      </g>
                    </g>
                  </g>
                </g>
              </g>
              <g id="Group_594" data-name="Group 594" transform="translate(30.133 14.378)">
                <g id="Group_587" data-name="Group 587">
                  <g id="Group_586" data-name="Group 586">
                    <g id="Group_585" data-name="Group 585">
                      <g id="Group_584" data-name="Group 584">
                        <g id="Group_583" data-name="Group 583">
                          <path id="Path_403" data-name="Path 403" d="M399.455,116.072c.139-.068,5.634-1.968,5.728,3.729s-5.644,4.616-5.657,4.453S399.455,116.072,399.455,116.072Z" transform="translate(-399.455 -115.715)" fill="#ffbe9d"/>
                        </g>
                      </g>
                    </g>
                  </g>
                </g>
                <g id="Group_593" data-name="Group 593" transform="translate(1.771 1.828)">
                  <g id="Group_592" data-name="Group 592">
                    <g id="Group_591" data-name="Group 591">
                      <g id="Group_590" data-name="Group 590">
                        <g id="Group_589" data-name="Group 589">
                          <g id="Group_588" data-name="Group 588">
                            <path id="Path_404" data-name="Path 404" d="M401.882,122.74c.025-.019.1.068.27.142a.99.99,0,0,0,.742,0,2.457,2.457,0,0,0,1.1-2.222,3.284,3.284,0,0,0-.3-1.416,1.148,1.148,0,0,0-.759-.75.506.506,0,0,0-.581.282c-.074.16-.036.273-.066.284s-.124-.093-.082-.329a.634.634,0,0,1,.219-.361.75.75,0,0,1,.546-.154,1.4,1.4,0,0,1,1.052.866,3.377,3.377,0,0,1,.37,1.582,2.576,2.576,0,0,1-1.407,2.484,1.06,1.06,0,0,1-.91-.136C401.9,122.877,401.863,122.75,401.882,122.74Z" transform="translate(-401.877 -118.215)" fill="#eb996e"/>
                          </g>
                        </g>
                      </g>
                    </g>
                  </g>
                </g>
              </g>
              <g id="Group_645" data-name="Group 645" transform="translate(2.744 8.589)">
                <g id="Group_644" data-name="Group 644">
                  <g id="Group_633" data-name="Group 633" transform="translate(0 4.486)">
                    <g id="Group_632" data-name="Group 632">
                      <g id="Group_631" data-name="Group 631">
                        <g id="Group_606" data-name="Group 606">
                          <g id="Group_599" data-name="Group 599" transform="translate(1.465 1.366)">
                            <g id="Group_598" data-name="Group 598">
                              <g id="Group_597" data-name="Group 597">
                                <g id="Group_596" data-name="Group 596">
                                  <g id="Group_595" data-name="Group 595">
                                    <path id="Path_405" data-name="Path 405" d="M363.988,116.877a1.189,1.189,0,0,0,1.147,1.2A1.137,1.137,0,0,0,366.36,117a1.19,1.19,0,0,0-1.145-1.2A1.138,1.138,0,0,0,363.988,116.877Z" transform="translate(-363.987 -115.802)" fill="#263238"/>
                                  </g>
                                </g>
                              </g>
                            </g>
                          </g>
                          <g id="Group_605" data-name="Group 605">
                            <g id="Group_604" data-name="Group 604">
                              <g id="Group_603" data-name="Group 603">
                                <g id="Group_602" data-name="Group 602">
                                  <g id="Group_601" data-name="Group 601">
                                    <g id="Group_600" data-name="Group 600">
                                      <path id="Path_406" data-name="Path 406" d="M362,115.183c.148.155,1.049-.512,2.329-.509,1.278-.015,2.218.644,2.357.487.068-.069-.083-.349-.491-.647a3.266,3.266,0,0,0-1.886-.582,3.134,3.134,0,0,0-1.854.6C362.062,114.832,361.929,115.113,362,115.183Z" transform="translate(-361.982 -113.932)" fill="#263238"/>
                                    </g>
                                  </g>
                                </g>
                              </g>
                            </g>
                          </g>
                        </g>
                        <g id="Group_618" data-name="Group 618" transform="translate(12.581 0.239)">
                          <g id="Group_611" data-name="Group 611" transform="translate(1.173 1.274)">
                            <g id="Group_610" data-name="Group 610">
                              <g id="Group_609" data-name="Group 609">
                                <g id="Group_608" data-name="Group 608">
                                  <g id="Group_607" data-name="Group 607">
                                    <path id="Path_407" data-name="Path 407" d="M380.8,117.076a1.189,1.189,0,0,0,1.147,1.2,1.137,1.137,0,0,0,1.226-1.072,1.19,1.19,0,0,0-1.145-1.2A1.138,1.138,0,0,0,380.8,117.076Z" transform="translate(-380.801 -116.002)" fill="#263238"/>
                                  </g>
                                </g>
                              </g>
                            </g>
                          </g>
                          <g id="Group_617" data-name="Group 617">
                            <g id="Group_616" data-name="Group 616">
                              <g id="Group_615" data-name="Group 615">
                                <g id="Group_614" data-name="Group 614">
                                  <g id="Group_613" data-name="Group 613">
                                    <g id="Group_612" data-name="Group 612">
                                      <path id="Path_408" data-name="Path 408" d="M379.214,115.51c.148.155,1.05-.512,2.329-.509,1.278-.015,2.218.644,2.356.487.068-.069-.08-.349-.491-.647a3.263,3.263,0,0,0-1.886-.582,3.136,3.136,0,0,0-1.854.6C379.276,115.159,379.143,115.44,379.214,115.51Z" transform="translate(-379.196 -114.259)" fill="#263238"/>
                                    </g>
                                  </g>
                                </g>
                              </g>
                            </g>
                          </g>
                        </g>
                        <g id="Group_624" data-name="Group 624" transform="translate(4.694 0.317)">
                          <g id="Group_623" data-name="Group 623">
                            <g id="Group_622" data-name="Group 622">
                              <g id="Group_621" data-name="Group 621">
                                <g id="Group_620" data-name="Group 620">
                                  <g id="Group_619" data-name="Group 619">
                                    <path id="Path_409" data-name="Path 409" d="M371.665,125.029a8.518,8.518,0,0,0-2.079-.375c-.327-.034-.636-.1-.691-.322a1.664,1.664,0,0,1,.219-.968l.966-2.489a42.671,42.671,0,0,0,2.171-6.51,42.926,42.926,0,0,0-2.69,6.32q-.485,1.31-.925,2.5a1.885,1.885,0,0,0-.17,1.283.819.819,0,0,0,.537.478,2.257,2.257,0,0,0,.555.077A8.3,8.3,0,0,0,371.665,125.029Z" transform="translate(-368.405 -114.365)" fill="#263238"/>
                                  </g>
                                </g>
                              </g>
                            </g>
                          </g>
                        </g>
                        <g id="Group_630" data-name="Group 630" transform="translate(7.642 11.867)">
                          <g id="Group_629" data-name="Group 629">
                            <g id="Group_628" data-name="Group 628">
                              <g id="Group_627" data-name="Group 627">
                                <g id="Group_626" data-name="Group 626">
                                  <g id="Group_625" data-name="Group 625">
                                    <path id="Path_410" data-name="Path 410" d="M376.518,130.168c-.208-.012-.211,1.377-1.4,2.363s-2.668.833-2.679,1.028c-.019.087.33.27.955.287a3.459,3.459,0,0,0,2.236-.78,3.007,3.007,0,0,0,1.085-1.981C376.768,130.5,376.613,130.16,376.518,130.168Z" transform="translate(-372.438 -130.168)" fill="#263238"/>
                                  </g>
                                </g>
                              </g>
                            </g>
                          </g>
                        </g>
                      </g>
                    </g>
                  </g>
                  <g id="Group_638" data-name="Group 638" transform="translate(12.263)">
                    <g id="Group_637" data-name="Group 637">
                      <g id="Group_636" data-name="Group 636">
                        <g id="Group_635" data-name="Group 635">
                          <g id="Group_634" data-name="Group 634">
                            <path id="Path_411" data-name="Path 411" d="M378.767,108.754c.126.348,1.4.183,2.906.364,1.506.151,2.717.591,2.916.278.089-.149-.122-.477-.612-.813a5.093,5.093,0,0,0-4.435-.49C378.99,108.315,378.712,108.589,378.767,108.754Z" transform="translate(-378.76 -107.795)" fill="#263238"/>
                          </g>
                        </g>
                      </g>
                    </g>
                  </g>
                  <g id="Group_643" data-name="Group 643" transform="translate(0.457 0.706)">
                    <g id="Group_642" data-name="Group 642">
                      <g id="Group_641" data-name="Group 641">
                        <g id="Group_640" data-name="Group 640">
                          <g id="Group_639" data-name="Group 639">
                            <path id="Path_412" data-name="Path 412" d="M362.64,110.087c.225.29,1.107-.011,2.167-.026,1.06-.051,1.958.2,2.165-.108.091-.148-.05-.439-.443-.714a3.139,3.139,0,0,0-3.491.107C362.664,109.645,362.54,109.945,362.64,110.087Z" transform="translate(-362.607 -108.761)" fill="#263238"/>
                          </g>
                        </g>
                      </g>
                    </g>
                  </g>
                </g>
              </g>
            </g>
            <g id="Group_649" data-name="Group 649">
              <g id="Group_648" data-name="Group 648">
                <g id="Group_647" data-name="Group 647">
                  <path id="Path_413" data-name="Path 413" d="M352.727,89.949a3.076,3.076,0,0,1,1.135-2.747,2.181,2.181,0,0,1,2.826.212,2.545,2.545,0,0,1,2.188-3.087c1.358-.086,2.516.94,3.829,1.3a6.185,6.185,0,0,0,3.889-.449c1.232-.5,2.384-1.181,3.632-1.637A10.651,10.651,0,0,1,383.849,89.8a4.728,4.728,0,0,1,5.015,1.9,7.758,7.758,0,0,1,1.188,5.465,17.4,17.4,0,0,1-.952,3.737c0,.107.01.212.009.319-.086,4.58-.6,9.958-2.558,9.988-3.405.052-2.594-6.364-2.594-6.364-4.179-1.615-2.622-7.877-3.668-8.827s-3.231-3.157-11.982,1.315a16.952,16.952,0,0,1-10.382,1.123c-.072-.016-.145-.027-.218-.045l-.05-.01c-.027-.007-.046-.022-.072-.029a7.866,7.866,0,0,1-2.244-.952,4.433,4.433,0,0,1-1.85-2.056,2.428,2.428,0,0,1,.478-2.607A5.338,5.338,0,0,1,352.727,89.949Z" transform="translate(-352.715 -82.905)" fill="#263238"/>
                </g>
              </g>
            </g>
          </g>
        </g>
      </g>
    </g>
  </g>
</svg>
