<svg id="logo-giti" xmlns="http://www.w3.org/2000/svg" width="144.257" height="31.737" viewBox="0 0 144.257 31.737">
  <path id="XMLID_12_" d="M0,0H143.488V31.737H0Z" fill="#fccf00"/>
  <rect id="XMLID_11_" width="0.769" height="31.063" transform="translate(98.191 0.385)" fill="#231916"/>
  <path id="Path_1" data-name="Path 1" d="M.769.769H143.584V31.063H.769ZM0,0V31.737H144.257V0Z" fill="#231916"/>
  <path id="Path_2" data-name="Path 2" d="M26.83,11.616a15.909,15.909,0,0,1,7.117,1.443l4.9-2.885a29.591,29.591,0,0,0-12.118-2.4,25.976,25.976,0,0,0-7.982.962c-5.77,1.539-8.752,5-8.752,8.848,0,2.5.962,4.232,3.27,5.963,2.981,2.116,6.924,3.077,12.791,3.077a38.8,38.8,0,0,0,12.6-1.827V15.848H25.387l.962,3.751h3.27v2.885a17.238,17.238,0,0,1-3.27.289c-4.135,0-7.117-1.827-7.117-5.386C19.329,13.347,22.118,11.616,26.83,11.616ZM49.526,7c-2.6,0-4.712,1.058-4.712,2.308,0,1.346,2.116,2.308,4.52,2.308,2.6,0,4.616-1.058,4.616-2.308C54.047,8.058,52.027,7,49.526,7ZM45.1,26.427h8.655V13.155L45.1,13.54Zm27.505-2.789c-2.212,0-2.693-.385-2.693-2.308V16.906h3.366l.962-3.655H69.915v-5l-8.655.673v4.232H59.047v3.655h2.116v6.636c0,2.6,3.27,3.27,8.078,3.27a25.821,25.821,0,0,0,6.54-.769l-.962-2.6A7.71,7.71,0,0,1,72.608,23.638ZM84.341,11.712c2.6,0,4.616-1.058,4.616-2.308,0-1.346-2.02-2.308-4.52-2.308-2.6,0-4.712,1.058-4.712,2.308C79.821,10.655,81.936,11.712,84.341,11.712ZM80.109,26.427h8.752V13.155l-8.752.385Z" transform="translate(-0.383 -0.268)" fill="#231916"/>
  <g id="Group_1" data-name="Group 1" transform="translate(104.058 3.366)">
    <path id="Path_3" data-name="Path 3" d="M138.686,10.521a.774.774,0,0,1-1.058.289.809.809,0,0,1-.385-1.058.774.774,0,0,1,1.058-.289.839.839,0,0,1,.385,1.058m-.1-5c-1.25-.385-1.443-.289-1.539-.289a13.33,13.33,0,0,0-5-1.731c-.577,0-.577,1.25-.577,1.827,0,.481.385,4.9.962,6.059a1.194,1.194,0,0,0,.769.577,3.606,3.606,0,0,0,1.058.1s.866.1,1.443.1h1.154l.1.289c.481,1.923,1.154,7.309,1.154,7.405a.565.565,0,0,1-.385.577h-.577l-.1-.289c-.289-1.539-.481-4.712-1.058-7.021-.481,0-2.4-.1-2.4-.1a4.772,4.772,0,0,1-1.25-.289,2.1,2.1,0,0,1-1.058-1.154,28.07,28.07,0,0,1-.962-6.443,28.1,28.1,0,0,0-5.77.769c-.577.192-1.058.385-1.058.385a18.285,18.285,0,0,0-8.752,6.54c-3.558,4.616-4.9,7.886-4.809,7.982h.866c-1.25,2.5-2.5,5.193-2.6,5.386h7.117l.192-.385c2.116-3.558,5.77-6.636,8.944-6.636,4.039,0,7.213,1.923,7.405,6.636V26.1h5.578c.1.192,7.886-18.561,1.154-20.581" transform="translate(-108.2 -3.5)" fill="#231916"/>
  </g>
</svg>
