<svg xmlns="http://www.w3.org/2000/svg" width="256.365" height="26.359" viewBox="0 0 256.365 26.359">
  <g id="logo-primewell" transform="translate(-160.712 -394.538)">
    <path id="Path_399" data-name="Path 399" d="M170.676,421.227l-9.964-.014L166.44,399.4l11.342-.007c2.67.013,4.618.093,5.835.227a14.083,14.083,0,0,1,3.788,1.038,7.942,7.942,0,0,1,3.091,2.2,4.532,4.532,0,0,1,1.138,2.957,6.262,6.262,0,0,1-3.159,5.246c-2.1,1.42-5.093,2.135-9,2.135l-3.139.013-1.633-4.677,1.693.007c3.627,0,5.454-.783,5.46-2.322-.007-1.379-1.539-2.081-4.583-2.062l-2.1-.02Z" transform="translate(0 -0.336)" fill="#004a90"/>
    <path id="Path_400" data-name="Path 400" d="M200.638,421.228l-9.8-.007,5.714-21.816h15c4.095-.013,7.113.562,9.06,1.693a5.216,5.216,0,0,1,2.952,4.658c0,3.1-2.409,5.226-7.214,6.323l3.708,9.142-10.179-.007-4.543-12.828,2.523.013c3.721,0,5.6-.8,5.6-2.4-.007-1.352-1.566-2.014-4.7-2.028h-3.6Z" transform="translate(-2.084 -0.337)" fill="#004a90"/>
    <path id="Path_401" data-name="Path 401" d="M240.008,399.39l-5.715,21.842-9.757-.013,5.708-21.836Z" transform="translate(-4.414 -0.335)" fill="#004a90"/>
    <path id="Path_402" data-name="Path 402" d="M281.175,399.4,275.4,421.22h-9.676l3.072-11.624a37.136,37.136,0,0,1,1.225-3.727,21.616,21.616,0,0,0,.829-2.43c-.2.335-.5.837-.883,1.5-.816,1.4-1.566,2.6-2.262,3.593l-8.84,12.674-6.243.026-2.362-12.7a28.6,28.6,0,0,1-.455-3.587c-.053-.749-.133-1.338-.187-1.767-.5,3.045-1,5.635-1.58,7.824L245.36,421.22l-7.783.007,5.715-21.823,13.872-.007,1.8,9.67a14.455,14.455,0,0,0,.422,1.647,13.907,13.907,0,0,1,1-1.661l6.76-9.67Z" transform="translate(-5.316 -0.335)" fill="#004a90"/>
    <path id="Path_403" data-name="Path 403" d="M308.193,416.214l-1.332,5.012H281.553l5.715-21.829,24.693-.007-1.265,4.791-14.708-.007-.9,3.447,12.373-.007-1.272,4.731-12.34.014-1.01,3.861Z" transform="translate(-8.357 -0.336)" fill="#004a90"/>
    <path id="Path_404" data-name="Path 404" d="M380.573,416.2l-1.332,5.012-25.3.014,5.721-21.829,24.679-.007-1.251,4.791-14.7-.02-.917,3.446,12.38.007-1.244,4.738-12.38.007-.991,3.847Z" transform="translate(-13.363 -0.336)" fill="#004a90"/>
    <path id="Path_405" data-name="Path 405" d="M407.434,415.979l-1.332,5.24-23.516-.007,5.722-21.829,10.432.014L394.4,415.979Z" transform="translate(-15.344 -0.335)" fill="#004a90"/>
    <path id="Path_406" data-name="Path 406" d="M434.279,415.993l-1.352,5.233H409.438l5.728-21.829,10.447-.007-4.37,16.582Z" transform="translate(-17.201 -0.336)" fill="#004a90"/>
    <path id="Path_407" data-name="Path 407" d="M240.6,398.286l-9.529.013,10.693-3.761Z" transform="translate(-4.866 0)" fill="#ffaf00"/>
    <path id="Path_408" data-name="Path 408" d="M311.352,421.22l5.761-21.829,9.689-.007-3.084,11.637a32.542,32.542,0,0,1-1.2,3.754,22.977,22.977,0,0,0-.83,2.4c.194-.334.489-.836.856-1.505.824-1.406,1.586-2.584,2.255-3.587l8.866-12.687H339.9l2.375,12.695a30.464,30.464,0,0,1,.462,3.58,14.621,14.621,0,0,0,.188,1.753,75.642,75.642,0,0,1,1.566-7.8l2.658-10.238,7.815.007-5.721,21.815-13.88.007-1.813-9.657c-.161-.776-.288-1.352-.388-1.674a12,12,0,0,1-1.051,1.687l-6.718,9.644Z" transform="translate(-10.418 -0.335)" fill="#004a90"/>
  </g>
</svg>
