<svg xmlns="http://www.w3.org/2000/svg" width="87" height="87" viewBox="0 0 87 87">
  <g id="about-meassuring-employer-icon" transform="translate(-3471.907 -2345.705)">
    <g id="Group_435" data-name="Group 435" transform="translate(3496.082 2368.726)">
      <path id="Path_470" data-name="Path 470" d="M3517.32,2372.95c0,5.1-4.136,13.21-9.238,13.21s-9.239-8.107-9.239-13.21a9.238,9.238,0,1,1,18.477,0Z" transform="translate(-3488.435 -2363.711)" fill="none" stroke="#cfcfcf" stroke-linecap="round" stroke-linejoin="round" stroke-width="2"/>
      <path id="Path_471" data-name="Path 471" d="M3506.873,2380l.012,4.316-16.081,4.419v8.544h38.649v-8.589l-15.5-4.526-.029-4.063" transform="translate(-3490.805 -2358.909)" fill="none" stroke="#cfcfcf" stroke-linecap="round" stroke-linejoin="round" stroke-width="2"/>
    </g>
    <g id="Group_436" data-name="Group 436" transform="translate(3472.907 2346.705)">
      <path id="Path_472" data-name="Path 472" d="M3511.345,2352.71a35.515,35.515,0,0,1,27.478,27.576" transform="translate(-3461.573 -2344.934)" fill="none" stroke="#cfcfcf" stroke-linecap="round" stroke-linejoin="round" stroke-width="2"/>
      <path id="Path_473" data-name="Path 473" d="M3478.869,2380.462a35.509,35.509,0,0,1,28.033-27.833" transform="translate(-3471.149 -2344.958)" fill="none" stroke="#cfcfcf" stroke-linecap="round" stroke-linejoin="round" stroke-width="2"/>
      <path id="Path_474" data-name="Path 474" d="M3506.93,2412.769a35.509,35.509,0,0,1-28.061-27.839" transform="translate(-3471.149 -2335.434)" fill="none" stroke="#cfcfcf" stroke-linecap="round" stroke-linejoin="round" stroke-width="2"/>
      <path id="Path_475" data-name="Path 475" d="M3538.853,2384.929a35.51,35.51,0,0,1-27.508,27.728" transform="translate(-3461.573 -2335.434)" fill="none" stroke="#cfcfcf" stroke-linecap="round" stroke-linejoin="round" stroke-width="2"/>
      <circle id="Ellipse_252" data-name="Ellipse 252" cx="7.03" cy="7.03" r="7.03" transform="translate(70.94 35.47)" stroke-width="2" stroke="#cfcfcf" stroke-linecap="round" stroke-linejoin="round" fill="none"/>
      <circle id="Ellipse_253" data-name="Ellipse 253" cx="7.03" cy="7.03" r="7.03" transform="translate(0 35.47)" stroke-width="2" stroke="#cfcfcf" stroke-linecap="round" stroke-linejoin="round" fill="none"/>
      <circle id="Ellipse_254" data-name="Ellipse 254" cx="7.03" cy="7.03" r="7.03" transform="translate(35.753)" stroke-width="2" stroke="#cfcfcf" stroke-linecap="round" stroke-linejoin="round" fill="none"/>
      <circle id="Ellipse_255" data-name="Ellipse 255" cx="7.03" cy="7.03" r="7.03" transform="translate(35.753 70.94)" stroke-width="2" stroke="#cfcfcf" stroke-linecap="round" stroke-linejoin="round" fill="none"/>
    </g>
  </g>
</svg>
