<svg xmlns="http://www.w3.org/2000/svg" width="76.981" height="75.32" viewBox="0 0 76.981 75.32">
  <g id="about-meassuring-investment-icon" transform="translate(-3844.391 -1213.313)">
    <path id="Path_476" data-name="Path 476" d="M3845.395,1272.577h68.891s-.51-10.534-7.91-12.793-13.522,4.367-13.522,4.367-6.633-8.158-17.35-8.413-13.523,3.19-16.841,8.42C3858.662,1264.157,3845.138,1265.177,3845.395,1272.577Z" transform="translate(0 15.056)" fill="none" stroke="#cfcfcf" stroke-linecap="round" stroke-linejoin="round" stroke-width="2"/>
    <path id="Path_477" data-name="Path 477" d="M3868.287,1265.846c-.767,1.275-9.441-23,6.378-37.909" transform="translate(7.216 4.948)" fill="none" stroke="#cfcfcf" stroke-linecap="round" stroke-linejoin="round" stroke-width="2"/>
    <path id="Path_478" data-name="Path 478" d="M3865.488,1252.768s8.327-16.848,26.944-12.969" transform="translate(7.31 9.052)" fill="none" stroke="#cfcfcf" stroke-linecap="round" stroke-linejoin="round" stroke-width="2"/>
    <path id="Path_479" data-name="Path 479" d="M3855.871,1230.1s.006,8.832,12.761,16.026" transform="translate(3.812 5.735)" fill="none" stroke="#cfcfcf" stroke-linecap="round" stroke-linejoin="round" stroke-width="2"/>
    <path id="Path_480" data-name="Path 480" d="M3874.564,1241.531s16.077-20.641,35.2,6.947C3894.328,1252.808,3886.707,1257.647,3874.564,1241.531Z" transform="translate(10.612 7.195)" fill="none" stroke="#cfcfcf" stroke-linecap="round" stroke-linejoin="round" stroke-width="2"/>
    <path id="Path_481" data-name="Path 481" d="M3860.889,1243.014s9.477-12.335-5.323-26.384C3847.656,1232.05,3850.748,1237.619,3860.889,1243.014Z" transform="translate(2.075 0.835)" fill="none" stroke="#cfcfcf" stroke-linecap="round" stroke-linejoin="round" stroke-width="2"/>
    <path id="Path_482" data-name="Path 482" d="M3868.339,1241.249a22.524,22.524,0,0,0,17.92-7.156c7.755-8.371,10.026-19.372,10.026-19.372s-16-2.621-23.4,5.8-5.731,20.352-5.731,20.352" transform="translate(7.858)" fill="none" stroke="#cfcfcf" stroke-linecap="round" stroke-linejoin="round" stroke-width="2"/>
  </g>
</svg>
