<svg xmlns="http://www.w3.org/2000/svg" width="14.851" height="35.524" viewBox="0 0 14.851 35.524">
  <g id="Group_1" data-name="Group 1" transform="translate(-941.251 -346.565)">
    <g id="paint-board-and-brush" transform="translate(941.251 346.565)">
      <path id="Path_1" data-name="Path 1" d="M14.551,41.1a.206.206,0,0,0-.36-.044,1.82,1.82,0,0,1-1,.628,3.734,3.734,0,0,0-1.007.488,1.283,1.283,0,0,0-.621,1.325l-.012.016a6.776,6.776,0,0,0-.682-.841,6.377,6.377,0,0,0-4.342-1.949c-.072,0-.145,0-.217,0a6.3,6.3,0,0,0-4.771,2.228,6.27,6.27,0,0,0-1.47,5.031c.023.15.052.3.085.449a5.6,5.6,0,0,0,3.131,4.1,2.964,2.964,0,0,0,1.14.238A2.537,2.537,0,0,0,6.667,51.4a2.966,2.966,0,0,0,.356-1.019,2.461,2.461,0,0,0-.01-.6A2.272,2.272,0,0,1,7,49.192a.787.787,0,0,1,.827-.707,1.275,1.275,0,0,1,.387.062c-.152.279-.29.545-.411.792a8.04,8.04,0,0,0-.524,1.287c-.057.2-.208.747.161,1a.551.551,0,0,0,.42.081c.139-.026.563-.1,1.766-1.475.323-.368.671-.793,1.035-1.265a2.8,2.8,0,0,0,1.853-2,2.943,2.943,0,0,0,.06-.715c.35-.54.656-1.045.965-1.587l.018-.033a1.7,1.7,0,0,0,1.06-.959A3.279,3.279,0,0,0,14.551,41.1ZM9.5,44.474a.879.879,0,1,1,.113-.664A.876.876,0,0,1,9.5,44.474Zm1.142,1.594c.445-.655.915-1.306,1.362-1.886a2.411,2.411,0,0,0,.241.19,1.853,1.853,0,0,0,.453.232c-.377.645-.783,1.284-1.273,2.007A33.01,33.01,0,0,1,9.064,49.72a9.107,9.107,0,0,1-1.02,1.026,9.2,9.2,0,0,1,.58-1.332A33.113,33.113,0,0,1,10.644,46.068Zm-7.807-.006a.88.88,0,1,1,.745-.411A.877.877,0,0,1,2.837,46.062ZM1.915,48a.879.879,0,1,1-.113.663A.876.876,0,0,1,1.915,48Zm2.817-5.224a.88.88,0,1,1-.113.664A.876.876,0,0,1,4.731,42.775Z" transform="translate(0 -40.723)" fill="#fccf00"/>
    </g>
    <g id="paint-board-and-brush-2" data-name="paint-board-and-brush" transform="translate(941.251 370.038)">
      <path id="Path_1-2" data-name="Path 1" d="M14.551,41.1a.206.206,0,0,0-.36-.044,1.82,1.82,0,0,1-1,.628,3.734,3.734,0,0,0-1.007.488,1.283,1.283,0,0,0-.621,1.325l-.012.016a6.776,6.776,0,0,0-.682-.841,6.377,6.377,0,0,0-4.342-1.949c-.072,0-.145,0-.217,0a6.3,6.3,0,0,0-4.771,2.228,6.27,6.27,0,0,0-1.47,5.031c.023.15.052.3.085.449a5.6,5.6,0,0,0,3.131,4.1,2.964,2.964,0,0,0,1.14.238A2.537,2.537,0,0,0,6.667,51.4a2.966,2.966,0,0,0,.356-1.019,2.461,2.461,0,0,0-.01-.6A2.272,2.272,0,0,1,7,49.192a.787.787,0,0,1,.827-.707,1.275,1.275,0,0,1,.387.062c-.152.279-.29.545-.411.792a8.04,8.04,0,0,0-.524,1.287c-.057.2-.208.747.161,1a.551.551,0,0,0,.42.081c.139-.026.563-.1,1.766-1.475.323-.368.671-.793,1.035-1.265a2.8,2.8,0,0,0,1.853-2,2.943,2.943,0,0,0,.06-.715c.35-.54.656-1.045.965-1.587l.018-.033a1.7,1.7,0,0,0,1.06-.959A3.279,3.279,0,0,0,14.551,41.1ZM9.5,44.474a.879.879,0,1,1,.113-.664A.876.876,0,0,1,9.5,44.474Zm1.142,1.594c.445-.655.915-1.306,1.362-1.886a2.411,2.411,0,0,0,.241.19,1.853,1.853,0,0,0,.453.232c-.377.645-.783,1.284-1.273,2.007A33.01,33.01,0,0,1,9.064,49.72a9.107,9.107,0,0,1-1.02,1.026,9.2,9.2,0,0,1,.58-1.332A33.113,33.113,0,0,1,10.644,46.068Zm-7.807-.006a.88.88,0,1,1,.745-.411A.877.877,0,0,1,2.837,46.062ZM1.915,48a.879.879,0,1,1-.113.663A.876.876,0,0,1,1.915,48Zm2.817-5.224a.88.88,0,1,1-.113.664A.876.876,0,0,1,4.731,42.775Z" transform="translate(0 -40.723)" fill="#fff"/>
    </g>
  </g>
</svg>
