<svg xmlns="http://www.w3.org/2000/svg" width="70.779" height="98.201" viewBox="0 0 70.779 98.201">
  <g id="Group_279" data-name="Group 279" transform="translate(0)">
    <ellipse id="Ellipse_37" data-name="Ellipse 37" cx="27.578" cy="27.578" rx="27.578" ry="27.578" transform="translate(7.797 7.812)" fill="#fff"/>
    <path id="Path_286" data-name="Path 286" d="M4463.883,336.974l10.887,29.254,7.776-9.924,12.294,2.37L4484.1,329.049Z" transform="translate(-4426.884 -268.027)"/>
    <path id="Path_287" data-name="Path 287" d="M4123.313,336.974l-10.887,29.254-7.776-9.924-12.294,2.37,10.739-29.624Z" transform="translate(-4089.805 -268.027)"/>
    <g id="Group_278" data-name="Group 278">
      <path id="Path_288" data-name="Path 288" d="M4069.628-279.693c-.277-.677-.55-1.315-.8-1.962-.087-.228-.2-.26-.415-.194-.287.09-.579.163-.871.234a.616.616,0,0,1-.823-.449q-.669-2.42-1.31-4.847c-.122-.463.066-.737.544-.876.351-.1.7-.2,1.1-.311-.062-.479-.118-.955-.185-1.429-.134-.948-.136-.948-1.1-.953-.747,0-.924-.183-.924-.934q0-2.32,0-4.64c0-.579.23-.813.8-.825h.039c.348-.019.817.09,1.011-.092s.137-.661.186-1.01c.058-.413.113-.826.173-1.272-.379-.106-.742-.2-1.1-.308-.473-.136-.666-.417-.545-.877q.631-2.409,1.293-4.811a.628.628,0,0,1,.839-.484c.292.071.584.144.871.234.209.065.327.037.415-.193.246-.647.519-1.285.8-1.963-.329-.192-.668-.383-1-.585a.648.648,0,0,1-.266-1q1.227-2.148,2.472-4.286a.647.647,0,0,1,.973-.249c.343.187.679.385,1.027.583l1.472-1.921c-.269-.261-.543-.519-.807-.787a.688.688,0,0,1,0-1.093q1.706-1.713,3.423-3.417a.683.683,0,0,1,1.094-.006c.26.258.5.533.774.819l1.932-1.489c-.2-.341-.387-.667-.57-1a.66.66,0,0,1,.251-1q2.136-1.247,4.283-2.476a.659.659,0,0,1,1,.275c.2.324.38.655.581,1,.7-.285,1.386-.559,2.063-.856.065-.029.1-.217.085-.317-.06-.307-.159-.607-.234-.911a.618.618,0,0,1,.451-.825q2.438-.675,4.886-1.314a.629.629,0,0,1,.832.507c.111.373.209.751.317,1.144.752-.092,1.477-.172,2.2-.28.074-.011.169-.177.177-.277.023-.3,0-.6.009-.9a.666.666,0,0,1,.759-.743q2.438-.006,4.876,0c.5,0,.737.243.75.753.008.3-.019.6.011.9a.379.379,0,0,0,.222.277c.7.1,1.4.18,2.15.27.095-.344.188-.692.287-1.039.159-.564.436-.731.987-.584q2.312.615,4.624,1.238c.533.144.693.424.559.966-.087.353-.181.705-.276,1.074l2.214.924c.2-.335.388-.675.59-1.01a.66.66,0,0,1,1-.268q2.145,1.231,4.281,2.479a.652.652,0,0,1,.241,1c-.186.33-.378.655-.572.991l1.943,1.494c.254-.271.5-.553.77-.819a.674.674,0,0,1,1.065-.027q1.747,1.728,3.479,3.472a.678.678,0,0,1,0,1.04c-.265.272-.547.527-.835.8l1.479,1.934c.352-.2.688-.4,1.032-.586a.647.647,0,0,1,.971.256q1.245,2.137,2.472,4.286a.649.649,0,0,1-.272.994c-.167.1-.339.2-.509.3s-.313.186-.487.288c.282.688.551,1.366.846,2.031a.382.382,0,0,0,.331.122c.308-.055.606-.16.911-.235a.623.623,0,0,1,.822.458q.667,2.42,1.306,4.848a.641.641,0,0,1-.519.859c-.363.107-.73.2-1.123.311.089.75.17,1.488.274,2.223.009.063.167.143.261.148.313.018.629,0,.943.009a.668.668,0,0,1,.725.742q.005,2.458,0,4.915a.641.641,0,0,1-.686.732c-.326.02-.656-.008-.981.018-.1.007-.256.112-.267.19-.1.711-.18,1.425-.269,2.179.375.107.749.211,1.121.322a.638.638,0,0,1,.52.857q-.638,2.428-1.309,4.848a.618.618,0,0,1-.817.464c-.3-.074-.608-.156-.909-.247-.2-.06-.3-.012-.382.195-.248.647-.519,1.285-.8,1.968.314.184.639.372.96.564a.665.665,0,0,1,.292,1.047q-1.21,2.113-2.436,4.216a.658.658,0,0,1-1.022.275c-.331-.183-.658-.374-1-.568l-1.474,1.923c.265.256.54.513.8.78a.694.694,0,0,1,.006,1.1q-1.705,1.715-3.423,3.417a.7.7,0,0,1-1.123-.019c-.254-.246-.506-.494-.759-.74-.008-.007-.024,0-.052-.01l-1.873,1.448c.2.339.4.671.588,1.012a.651.651,0,0,1-.249.976q-2.151,1.261-4.315,2.5a.649.649,0,0,1-.967-.275c-.2-.334-.395-.675-.593-1.017l-2.216.923c.1.387.2.764.289,1.143a.642.642,0,0,1-.49.871q-2.385.653-4.773,1.283c-.479.126-.762-.065-.906-.558-.094-.326-.183-.655-.275-.982a.9.9,0,0,0-.049-.1c-.726.088-1.464.171-2.2.278-.065.009-.149.166-.154.259-.019.313,0,.629-.01.943a.659.659,0,0,1-.744.72q-2.437.007-4.875,0a.666.666,0,0,1-.762-.741c-.01-.3.013-.6-.011-.9-.008-.1-.1-.267-.177-.278-.722-.108-1.448-.189-2.2-.281-.1.367-.2.718-.3,1.068-.147.512-.439.7-.935.57q-2.37-.625-4.734-1.273a.656.656,0,0,1-.512-.895c.087-.378.323-.836.19-1.115-.121-.255-.648-.316-1-.464l-1.12-.476c-.187.326-.372.654-.563.978a.673.673,0,0,1-1.051.287q-2.112-1.211-4.214-2.438a.667.667,0,0,1-.276-1.025c.17-.309.348-.614.522-.922a.364.364,0,0,0,.023-.084l-1.912-1.484c-.258.278-.505.564-.773.829a.682.682,0,0,1-1.094-.006q-1.716-1.7-3.422-3.417a.69.69,0,0,1,0-1.093q.191-.2.389-.389c.132-.127.269-.249.422-.389l-1.475-1.929c-.348.2-.685.4-1.028.582a.646.646,0,0,1-.973-.248q-1.256-2.154-2.492-4.319a.634.634,0,0,1,.253-.941C4068.927-279.293,4069.27-279.483,4069.628-279.693Zm30.589,12.808a26.81,26.81,0,0,0,26.81-26.788,26.812,26.812,0,0,0-26.688-26.79,26.8,26.8,0,0,0-26.888,26.787A26.81,26.81,0,0,0,4100.218-266.885Z" transform="translate(-4064.85 329.064)"/>
      <path id="Path_289" data-name="Path 289" d="M4204.419-214.245a24.792,24.792,0,0,1,24.732,24.562,24.775,24.775,0,0,1-24.73,24.91,24.779,24.779,0,0,1-24.752-24.968A24.8,24.8,0,0,1,4204.419-214.245Zm-9.188,45.37a22.577,22.577,0,0,0,11.868,1.781,21.818,21.818,0,0,0,6.485-1.79l-7.438-11.72a9.054,9.054,0,0,1-3.148.048.438.438,0,0,0-.525.246q-2.366,3.756-4.749,7.5Zm-7.668-5.594a1.135,1.135,0,0,0,.107-.09q4.295-5.193,8.591-10.383a.42.42,0,0,0,.061-.486c-.306-.859-.616-1.72-.842-2.6a.589.589,0,0,0-.492-.526q-5.491-1.4-10.978-2.813c-.666-.171-1.333-.335-2.068-.52A22.7,22.7,0,0,0,4187.563-174.469Zm39.308-17.421c-.516.131-.945.238-1.375.348q-5.848,1.5-11.7,3a.537.537,0,0,0-.453.471c-.222.869-.508,1.724-.813,2.569a.526.526,0,0,0,.07.62q3.33,4,6.64,8.019c.655.793,1.311,1.584,2,2.415A22.766,22.766,0,0,0,4226.871-191.89Zm-17.722-19.7c-.014.169-.024.258-.03.349q-.127,2-.253,4-.3,4.606-.6,9.211c-.017.254.094.346.287.476.734.5,1.46,1.008,2.158,1.555a.53.53,0,0,0,.617.11q4.863-1.937,9.733-3.853c.933-.369,1.863-.742,2.855-1.138A22.784,22.784,0,0,0,4209.149-211.587Zm-24.239,10.692c.118.059.173.092.233.116q6.216,2.458,12.43,4.919a.42.42,0,0,0,.482-.092c.715-.546,1.437-1.085,2.185-1.584a.555.555,0,0,0,.3-.584c-.243-3.71-.47-7.421-.7-11.132-.047-.756-.1-1.511-.163-2.334A22.779,22.779,0,0,0,4184.911-200.894Zm14.375,11.369a5.1,5.1,0,0,0,5.087,5.146,5.115,5.115,0,0,0,5.156-5.12,5.112,5.112,0,0,0-5.11-5.125A5.1,5.1,0,0,0,4199.286-189.525Z" transform="translate(-4169.021 224.891)"/>
      <path id="Path_290" data-name="Path 290" d="M4430.1,34.43a1.837,1.837,0,0,1-1.838,1.854,1.858,1.858,0,1,1,.008-3.715A1.837,1.837,0,0,1,4430.1,34.43Z" transform="translate(-4392.869 0.963)"/>
    </g>
  </g>
</svg>
