<svg xmlns="http://www.w3.org/2000/svg" width="26.7" height="25.841" viewBox="0 0 26.7 25.841">
  <g id="black-race-flag-icon" transform="translate(356 -22)">
    <g id="Group_359" data-name="Group 359" transform="translate(-356 22)">
      <path id="Path_432" data-name="Path 432" d="M22.5,10.415a17.607,17.607,0,0,0-4.7.1,14.322,14.322,0,0,1-4.687-.024,5.688,5.688,0,0,1-3.782-3.21l-.7,1.88L4.09,21.464,0,32.541l1.58.584,3.683-9.965a5.093,5.093,0,0,0,2.612,1.516,14.329,14.329,0,0,0,4.687.024,17.593,17.593,0,0,1,4.7-.1,5.689,5.689,0,0,1,4.2,3.29L26.7,13.7a5.69,5.69,0,0,0-4.2-3.286Zm.195,8.419a5.609,5.609,0,0,0-2.624-1.291l-1.011,2.731a5.612,5.612,0,0,1,2.625,1.291l-.927,2.5a5.607,5.607,0,0,0-2.625-1.291l.927-2.5a13.732,13.732,0,0,0-3.067-.1l-.927,2.5c-1.072.084-2.141.21-3.213.3l.927-2.5a13.719,13.719,0,0,1-3.067-.1l-.927,2.5A5.607,5.607,0,0,1,6.161,21.58l.927-2.5a5.609,5.609,0,0,0,2.625,1.291l1.011-2.731A5.608,5.608,0,0,1,8.1,16.345l1.011-2.731A5.611,5.611,0,0,0,11.734,14.9l.927-2.5a13.719,13.719,0,0,0,3.067.1l-.927,2.5c1.072-.084,2.141-.21,3.213-.3l.927-2.5a13.723,13.723,0,0,1,3.067.1l-.927,2.5A5.611,5.611,0,0,1,23.706,16.1Z" transform="translate(0 -7.284)"/>
      <path id="Path_433" data-name="Path 433" d="M218.036,179.994l-1.011,2.731c1.072-.084,2.141-.21,3.213-.3l1.011-2.731C220.177,179.784,219.11,179.908,218.036,179.994Z" transform="translate(-204.247 -169.545)"/>
      <path id="Path_434" data-name="Path 434" d="M185.16,139.465l1.011-2.731a13.744,13.744,0,0,1-3.067-.1l-1.011,2.731A13.707,13.707,0,0,0,185.16,139.465Z" transform="translate(-171.37 -129.016)"/>
      <path id="Path_435" data-name="Path 435" d="M289.743,132.692l-1.011,2.731a13.732,13.732,0,0,1,3.067.1l1.011-2.731a13.714,13.714,0,0,0-3.067-.1Z" transform="translate(-271.731 -125.267)"/>
    </g>
  </g>
</svg>
