<svg id="black-tel-icon" xmlns="http://www.w3.org/2000/svg" width="26.958" height="26.997" viewBox="0 0 26.958 26.997">
  <g id="Group_270" data-name="Group 270">
    <path id="Path_277" data-name="Path 277" d="M21.661,42.568a2.655,2.655,0,0,0-1.926-.883,2.746,2.746,0,0,0-1.949.877l-1.8,1.795c-.148-.08-.3-.154-.439-.228-.205-.1-.4-.2-.564-.3a19.569,19.569,0,0,1-4.689-4.273,11.545,11.545,0,0,1-1.538-2.427c.467-.427.9-.872,1.322-1.3.16-.16.319-.325.479-.484a2.614,2.614,0,0,0,0-3.943L9,29.845c-.177-.177-.359-.359-.53-.541-.342-.353-.7-.718-1.071-1.06a2.7,2.7,0,0,0-1.909-.838,2.791,2.791,0,0,0-1.937.838l-.011.011L1.6,30.209a4.169,4.169,0,0,0-1.236,2.65A9.988,9.988,0,0,0,1.1,37.087a24.533,24.533,0,0,0,4.359,7.271,26.814,26.814,0,0,0,8.929,6.991A13.911,13.911,0,0,0,19.4,52.83c.12.006.245.011.359.011a4.293,4.293,0,0,0,3.288-1.413c.006-.011.017-.017.023-.028a12.953,12.953,0,0,1,1-1.031c.245-.234.5-.479.741-.735a2.842,2.842,0,0,0,.86-1.971,2.738,2.738,0,0,0-.877-1.954Zm2.04,6c-.006,0-.006.006,0,0-.222.239-.45.456-.7.7a14.981,14.981,0,0,0-1.1,1.14,2.747,2.747,0,0,1-2.142.906c-.085,0-.177,0-.262-.006a12.358,12.358,0,0,1-4.444-1.333,25.311,25.311,0,0,1-8.41-6.587,23.132,23.132,0,0,1-4.1-6.832,8.136,8.136,0,0,1-.638-3.567,2.616,2.616,0,0,1,.786-1.692l1.943-1.943a1.3,1.3,0,0,1,.866-.4,1.219,1.219,0,0,1,.832.4l.017.017c.348.325.678.661,1.026,1.02.177.182.359.365.541.553l1.556,1.556a1.087,1.087,0,0,1,0,1.766c-.165.165-.325.33-.49.49-.479.49-.934.946-1.43,1.39-.011.011-.023.017-.028.028a1.162,1.162,0,0,0-.3,1.293l.017.051a12.488,12.488,0,0,0,1.84,3l.006.006a20.913,20.913,0,0,0,5.06,4.6,7.781,7.781,0,0,0,.7.382c.205.1.4.2.564.3.023.011.046.028.068.04a1.235,1.235,0,0,0,.564.142,1.218,1.218,0,0,0,.866-.393l1.949-1.949a1.289,1.289,0,0,1,.86-.427,1.16,1.16,0,0,1,.82.416l.011.011,3.14,3.14A1.127,1.127,0,0,1,23.7,48.568Z" transform="translate(-0.344 -25.844)"/>
    <path id="Path_278" data-name="Path 278" d="M245.577,87.451a7.333,7.333,0,0,1,5.971,5.971.765.765,0,0,0,.758.638,1.017,1.017,0,0,0,.131-.011.77.77,0,0,0,.632-.889,8.867,8.867,0,0,0-7.225-7.225.773.773,0,0,0-.889.627A.761.761,0,0,0,245.577,87.451Z" transform="translate(-231.007 -81.029)"/>
    <path id="Path_279" data-name="Path 279" d="M261.566,11.909a14.6,14.6,0,0,0-11.9-11.9.768.768,0,1,0-.251,1.516A13.041,13.041,0,0,1,260.05,12.16a.764.764,0,0,0,.758.638,1.018,1.018,0,0,0,.131-.011A.755.755,0,0,0,261.566,11.909Z" transform="translate(-234.62 0)"/>
  </g>
</svg>
