<svg id="idea" xmlns="http://www.w3.org/2000/svg" width="60" height="60" viewBox="0 0 60 60">
  <path id="Path_668" data-name="Path 668" d="M30,0A30,30,0,1,0,60,30,30,30,0,0,0,30,0Zm0,58A28,28,0,1,1,58,30,28,28,0,0,1,30,58Zm0,0"/>
  <path id="Path_669" data-name="Path 669" d="M232,104.664h2v2.917h-2Zm0,0" transform="translate(-203 -91.581)"/>
  <path id="Path_670" data-name="Path 670" d="M169.414,118.727l1.732-1,1.458,2.525-1.732,1Zm0,0" transform="translate(-148.237 -103.011)"/>
  <path id="Path_671" data-name="Path 671" d="M125.734,163.141l1-1.731,2.525,1.458-1,1.731Zm0,0" transform="translate(-110.017 -141.234)"/>
  <path id="Path_672" data-name="Path 672" d="M112.664,224h2.917v2h-2.917Zm0,0" transform="translate(-98.581 -196)"/>
  <path id="Path_673" data-name="Path 673" d="M125.723,278.533l2.525-1.459,1,1.731-2.525,1.459Zm0,0" transform="translate(-110.008 -242.44)"/>
  <path id="Path_674" data-name="Path 674" d="M326.074,278.809l1-1.731,2.525,1.458-1,1.731Zm0,0" transform="translate(-285.315 -242.444)"/>
  <path id="Path_675" data-name="Path 675" d="M344,224h2.917v2H344Zm0,0" transform="translate(-301 -196)"/>
  <path id="Path_676" data-name="Path 676" d="M326.07,162.865l2.525-1.458,1,1.731L327.07,164.6Zm0,0" transform="translate(-285.311 -141.23)"/>
  <path id="Path_677" data-name="Path 677" d="M285.078,120.256l1.458-2.525,1.732,1-1.458,2.525Zm0,0" transform="translate(-249.443 -103.015)"/>
  <path id="Path_678" data-name="Path 678" d="M174,154.823a11,11,0,1,0-18,8.461v4.539a7,7,0,0,0,14,0v-4.539a10.906,10.906,0,0,0,4-8.461Zm-20,0a9,9,0,1,1,14.656,7H166v-6a1,1,0,1,1,1,1v2a3,3,0,1,0-3-3v6h-2v-6a3,3,0,1,0-3,3v-2a1,1,0,1,1,1-1v6H157.34a8.94,8.94,0,0,1-3.344-7Zm4,9h10v3H158Zm5,9a5.009,5.009,0,0,1-4.9-4h9.8A5.009,5.009,0,0,1,163,172.823Zm0,0" transform="translate(-132.996 -125.823)"/>
</svg>
