<svg xmlns="http://www.w3.org/2000/svg" width="481.743" height="385.165" viewBox="0 0 481.743 385.165">
  <g id="Group_831" data-name="Group 831" transform="matrix(0.809, -0.588, 0.588, 0.809, -53.7, 284.567)" opacity="0.09">
    <path id="Path_16130" data-name="Path 16130" d="M11.008,61.331Q8.333,56.117,5.556,51.194,2.829,46.36,0,41.806q3.973-5.592,7.843-11.045,3.822-5.383,7.548-10.634Q19.072,14.94,22.663,9.88q3.549-5,7.011-9.88,3.611,3.5,7.175,7.241,3.623,3.8,7.2,7.845,3.64,4.114,7.232,8.479,3.657,4.446,7.265,9.152-4.287,5.951-8.689,12.059L40.814,57.327,31.393,70.4q-4.842,6.719-9.82,13.63-2.557-6.043-5.224-11.77Q13.733,66.645,11.008,61.331Z" transform="translate(354.836 144.573)"/>
    <path id="Path_16131" data-name="Path 16131" d="M10.448,14.176q2.517-3.636,4.982-7.2L20.26,0Q23.425,1.819,26.6,3.752q3.21,1.956,6.427,4.035,3.258,2.106,6.529,4.344Q42.866,14.4,46.2,16.812L40.42,25.055l-5.971,8.524Q31.4,37.936,28.273,42.4q-3.16,4.512-6.394,9.129-2.755-3.167-5.527-6.158-2.734-2.952-5.486-5.741-2.716-2.752-5.449-5.358Q2.719,31.7,0,29.261L5.307,21.6Z" transform="translate(310.858 104.361)"/>
    <path id="Path_16132" data-name="Path 16132" d="M16.771,21.11q-4.281-.666-8.492-1.26Q4.109,19.262,0,18.742l3.367-4.863L6.65,9.138l3.2-4.625L12.977,0q4.332.213,8.739.482,4.449.273,8.983.6,4.58.335,9.256.734,4.725.4,9.561.876-1.789,2.551-3.607,5.147l-3.7,5.285q-1.883,2.69-3.8,5.428L34.5,24.131q-4.545-.841-9-1.6Q21.1,21.782,16.771,21.11Z" transform="translate(379.459 15.798)"/>
    <path id="Path_16133" data-name="Path 16133" d="M33.673,21.027q-2.252,3.254-4.55,6.572-2.32,3.351-4.688,6.77-3.142-1.735-6.263-3.36-3.086-1.608-6.154-3.115Q8.984,26.4,5.964,25.008,2.976,23.626,0,22.331l3.982-5.813,3.874-5.653L11.627,5.36Q13.48,2.658,15.3,0q3.271.884,6.57,1.839,3.332.967,6.7,2.012,3.4,1.055,6.833,2.2,3.472,1.153,6.987,2.4l-4.294,6.2Z" transform="translate(306.683 69.992)"/>
    <path id="Path_16134" data-name="Path 16134" d="M13.537,41.274q-3.4-2.892-6.811-5.618Q3.366,32.967,0,30.428l5.585-7.976,5.409-7.723,5.24-7.481L21.31,0q3.848,1.891,7.716,3.9,3.921,2.042,7.867,4.217,4,2.205,8.035,4.56,4.092,2.389,8.227,4.938l-6.1,8.589Q43.942,30.6,40.752,35.1l-6.531,9.2-6.765,9.53q-3.509-3.354-7.014-6.51Q16.99,44.206,13.537,41.274Z" transform="translate(357.053 90.746)"/>
    <path id="Path_16135" data-name="Path 16135" d="M38.993,21.6l-4.776,6.817-4.922,7.028q-3.805-1.793-7.566-3.464-3.715-1.652-7.392-3.193Q10.7,27.262,7.1,25.842q-3.563-1.4-7.1-2.71Q2.107,20.091,4.172,17.1l4.057-5.86q1.992-2.876,3.945-5.7,1.938-2.8,3.84-5.546,3.849.881,7.741,1.842,3.933.971,7.917,2.029Q35.7,4.942,39.788,6.1q4.135,1.177,8.339,2.452l-4.5,6.424Z" transform="translate(349.068 55.305)"/>
    <path id="Path_16136" data-name="Path 16136" d="M17.1,43.17q-4.307-3.1-8.615-6Q4.243,34.321,0,31.664q2.982-4.2,5.9-8.307l5.7-8.037,5.522-7.782Q19.825,3.73,22.471,0q4.734,2,9.509,4.14,4.848,2.172,9.748,4.494,4.977,2.359,10.022,4.884,5.125,2.565,10.331,5.313l-6.474,8.986-6.7,9.3-6.942,9.634q-3.554,4.932-7.2,9.984-4.456-3.636-8.909-7.055Q21.477,46.321,17.1,43.17Z" transform="translate(410.208 76.702)"/>
    <path id="Path_16137" data-name="Path 16137" d="M45.7,22.387q-2.487,3.507-5.026,7.082l-5.186,7.3q-4.655-1.887-9.234-3.641-4.518-1.731-8.973-3.337-4.4-1.585-8.741-3.059Q4.245,25.281,0,23.931l4.371-6.24,4.248-6.065,4.128-5.894Q14.774,2.838,16.764,0q4.579.9,9.222,1.886,4.7,1,9.475,2.091,4.835,1.106,9.76,2.315Q50.209,7.517,55.3,8.851q-2.341,3.3-4.73,6.668Q48.158,18.918,45.7,22.387Z" transform="translate(397.195 39.929)"/>
    <path id="Path_16138" data-name="Path 16138" d="M36.7,12.947q-1.8,2.606-3.639,5.257l-3.738,5.4q-3.83-.83-7.6-1.585-3.732-.747-7.408-1.422-3.643-.669-7.236-1.273Q3.519,18.725,0,18.19l3.231-4.716,3.154-4.6q1.55-2.265,3.077-4.491l3-4.383q3.73.238,7.517.531,3.818.295,7.7.644,3.915.354,7.9.767,4.021.417,8.121.9-1.714,2.473-3.456,4.99Z" transform="translate(335.759 31.702)"/>
    <path id="Path_16139" data-name="Path 16139" d="M25.9,3.914q2.89,1.065,5.8,2.209,2.94,1.154,5.9,2.391-2.028,2.961-4.094,5.975L29.3,20.635,24.968,26.96q-2.21,3.223-4.461,6.509-2.613-1.712-5.219-3.325-2.58-1.6-5.154-3.1Q7.584,25.558,5.04,24.157,2.519,22.771,0,21.465q1.911-2.814,3.788-5.579l3.689-5.433Q9.29,7.784,11.072,5.16L14.578,0q2.8.9,5.618,1.877Q23.039,2.861,25.9,3.914Z" transform="translate(269.075 83.809)"/>
    <path id="Path_16140" data-name="Path 16140" d="M29.768,7.609q2.672,2.047,5.342,4.215,2.7,2.194,5.4,4.52-2.709,3.914-5.477,7.914l-5.661,8.177-5.852,8.452-6.054,8.744Q15.3,46.585,13.108,43.7q-2.168-2.849-4.363-5.552-2.17-2.669-4.37-5.2Q2.2,30.443,0,28.067q2.543-3.708,5.031-7.341L9.91,13.608,14.642,6.7q2.32-3.384,4.593-6.7,2.624,1.786,5.242,3.676Q27.125,5.585,29.768,7.609Z" transform="translate(270.347 117.279)"/>
    <path id="Path_16141" data-name="Path 16141" d="M39.125,14.121q2.783,3.83,5.508,7.889Q47.4,26.135,50.1,30.493L41.957,41.976,33.48,53.921,24.655,66.356l-9.2,12.957q-1.753-5.6-3.625-10.91-1.839-5.22-3.791-10.165Q6.123,53.373,4.1,48.776q-2-4.524-4.1-8.795L7.392,29.428l7.122-10.166,6.866-9.8L28.006,0q2.817,3.291,5.576,6.793Q36.383,10.347,39.125,14.121Z" transform="translate(304.731 155.887)"/>
    <path id="Path_16142" data-name="Path 16142" d="M13.94,15.894q-3.553-.114-7.047-.183-3.472-.07-6.893-.1Q1.3,13.7,2.577,11.818L5.1,8.107,7.563,4.475Q8.778,2.684,9.977.92h0q3.573-.185,7.2-.336Q20.837.433,24.559.316,28.3.2,32.124.12,35.971.042,39.9,0q-1.359,1.982-2.737,3.993l-2.8,4.085-2.865,4.181-2.933,4.28q-3.736-.211-7.4-.371Q17.517,16.008,13.94,15.894Z" transform="translate(319.663 15.163)"/>
    <path id="Path_16143" data-name="Path 16143" d="M32.23,12.865l-3.486,5.088-3.58,5.22q-3.261-.837-6.482-1.606-3.192-.763-6.347-1.457-3.13-.692-6.224-1.32Q3.04,18.166,0,17.6l3.094-4.557Q4.616,10.8,6.115,8.593,7.6,6.4,9.066,4.247L11.951,0Q15.2.278,18.482.6q3.31.33,6.666.709,3.382.382,6.815.821,3.461.44,6.977.94L35.627,7.906Q33.943,10.365,32.23,12.865Z" transform="translate(296.819 46.82)"/>
    <path id="Path_16144" data-name="Path 16144" d="M21.119,31.01q-5.4-1.684-10.712-3.242Q5.167,26.231,0,24.809l4.6-6.472q2.253-3.173,4.463-6.288,2.189-3.083,4.337-6.11,2.128-3,4.217-5.939,5.533.936,11.161,1.966,5.7,1.046,11.522,2.195,5.9,1.166,11.934,2.444,6.123,1.3,12.4,2.722L59.62,16.28q-2.555,3.549-5.165,7.169-2.635,3.658-5.327,7.392-2.718,3.774-5.5,7.627-5.789-2.026-11.454-3.9Q26.6,32.719,21.119,31.01Z" transform="translate(452.497 23.972)"/>
    <path id="Path_16145" data-name="Path 16145" d="M12.31,16l5.858-8.131L23.84,0q5.954,2.117,11.982,4.421Q41.949,6.765,48.158,9.3q6.316,2.579,12.719,5.36,6.521,2.83,13.135,5.866Q70.576,25.211,67.063,30l-7.192,9.811L52.42,49.981,44.694,60.518q-5.815-4-11.589-7.763-5.667-3.687-11.3-7.137-5.53-3.385-11.028-6.544Q5.376,35.974,0,33.093l6.258-8.687Q9.318,20.158,12.31,16Z" transform="translate(472.289 62.439)"/>
    <path id="Path_16146" data-name="Path 16146" d="M4.169,96.144q-.782-9.417-1.834-18.331Q1.3,69.1,0,60.863L11.709,44.609,22.9,29.079,33.6,14.223,43.847,0q2.706,6.388,5.246,13.165,2.594,6.919,5.017,14.248,2.476,7.49,4.773,15.409,2.35,8.1,4.51,16.65L50.147,77.536q-6.836,9.325-13.9,18.958-7.179,9.793-14.6,19.917L6.293,137.361q-.265-10.984-.8-21.405Q4.965,105.783,4.169,96.144Z" transform="translate(332.561 228.605)"/>
    <path id="Path_16147" data-name="Path 16147" d="M16.392,21.1l7.741-10.746L31.591,0q4.673,3.807,9.318,7.879,4.732,4.149,9.439,8.572,4.8,4.511,9.574,9.308,4.871,4.892,9.72,10.087L60.3,48.595q-4.8,6.549-9.731,13.275-5,6.822-10.142,13.834L29.844,90.131q-3.657-6.67-7.412-12.976-3.677-6.174-7.446-12-3.694-5.709-7.478-11.083Q3.8,48.8,0,43.851L8.353,32.256Q12.423,26.605,16.392,21.1Z" transform="translate(413.383 133.439)"/>
    <path id="Path_16148" data-name="Path 16148" d="M25.243,12.95q-1.57,2.331-3.164,4.7l-3.242,4.813q-2.407-.913-4.8-1.766-2.374-.847-4.737-1.638-2.345-.785-4.678-1.515Q2.306,16.815,0,16.138l2.787-4.166L5.514,7.9q1.343-2.01,2.668-3.99L10.794,0q2.5.392,5.023.826,2.538.435,5.1.918,2.576.485,5.176,1.017,2.618.535,5.26,1.122L28.333,8.364Z" transform="translate(221.112 72.328)"/>
    <path id="Path_16149" data-name="Path 16149" d="M22.01,8.091Q20.84,9.85,19.656,11.634l-2.4,3.614q-2.2-.456-4.39-.873t-4.339-.8q-2.149-.378-4.287-.724T0,12.2q1.041-1.577,2.07-3.131L4.1,5.993l2-3.023L8.066,0Q10.325.094,12.6.216t4.6.273q2.32.149,4.659.329t4.726.39L24.319,4.616Q23.172,6.342,22.01,8.091Z" transform="translate(168.775 92.038)"/>
    <path id="Path_16150" data-name="Path 16150" d="M25.04,5.156,23.282,7.8q-.888,1.337-1.788,2.689-2.771.352-5.507.724t-5.415.756q-2.68.386-5.328.789T0,13.581l1.584-2.4,1.56-2.361Q3.917,7.656,4.681,6.5T6.193,4.211q2.7-.552,5.429-1.091t5.519-1.066q2.786-.527,5.612-1.04T28.466,0l-1.7,2.556Z" transform="translate(217.379 7.366)"/>
    <path id="Path_16151" data-name="Path 16151" d="M11.1.785q2.3-.159,4.625-.3T20.416.225Q22.781.1,25.169,0q-.912,1.378-1.834,2.774L21.471,5.6c-.061.091-.122.183-.182.275h-.135l-.737-.008-.881-.006.881.006.737.008h.135L19.573,8.466q-.96,1.45-1.929,2.919l-.552-.02-.552-.021-.551-.02-.549-.019q-1.056-.035-2.108-.066t-2.1-.055q-1.043-.024-2.083-.046T7.083,11.1H6.854l-.888-.01-.886-.01H4.932L4.2,11.071l-.881-.006-.832,0-.829,0H0Q.842,9.779,1.672,8.514t1.647-2.5L4.942,3.545q.8-1.219,1.6-2.428Q8.811.942,11.1.785Z" transform="translate(169.482 64.3)"/>
    <path id="Path_16152" data-name="Path 16152" d="M0,0,.881.006l.737.008L.881.006Z" transform="translate(189.018 70.157)"/>
    <path id="Path_16153" data-name="Path 16153" d="M.926.011.038,0h0Z" transform="translate(191.632 70.181)"/>
    <path id="Path_16154" data-name="Path 16154" d="M.012,0,.861.01.012,0h0Z" transform="translate(190.771 70.171)"/>
    <path id="Path_16155" data-name="Path 16155" d="M.135,0Z" transform="translate(190.636 70.17)"/>
    <path id="Path_16156" data-name="Path 16156" d="M4.4,6.377,6.542,3.158,8.642,0q2.52.008,5.067.044t5.146.1q2.6.066,5.23.163,2.645.1,5.319.227Q28.21,2.321,27,4.131T24.55,7.8l-2.5,3.743L19.49,15.363q-2.5-.372-4.982-.705-2.463-.333-4.906-.627-2.427-.293-4.835-.551Q2.374,13.221,0,13L2.223,9.655Z" transform="translate(196.17 75.484)"/>
    <path id="Path_16157" data-name="Path 16157" d="M19.047,12.071h-.785q-1.792.007-3.57.025t-3.531.052q-1.753.033-3.494.074t-3.457.1c-.352.01-.706.023-1.058.035L2.1,12.4c-.35.013-.7.025-1.051.04s-.7.026-1.048.041Q.906,11.1,1.8,9.748L3.577,7.065,5.321,4.426l1.716-2.6q2.5-.265,5.036-.512T17.185.84Q19.766.61,22.379.4T27.658,0L25.707,2.936,23.72,5.926Q22.713,7.438,21.7,8.969l-2.06,3.1h-.588Z" transform="translate(210.872 46.616)"/>
    <path id="Path_16158" data-name="Path 16158" d="M6.951,0Q5.2.033,3.457.074T0,.174Q1.722.119,3.456.074T6.951,0Z" transform="translate(215.084 58.767)"/>
    <path id="Path_16159" data-name="Path 16159" d="M0,0H0Z" transform="translate(229.92 58.687)"/>
    <path id="Path_16160" data-name="Path 16160" d="M27.376,7.686,24.74,11.6l-2.695,4q-2.847-.3-5.659-.567-2.795-.261-5.556-.483-2.745-.22-5.461-.4-2.7-.182-5.37-.326L2.355,10.3Q3.518,8.56,4.664,6.847L6.925,3.465Q8.041,1.795,9.142.149L9.476.142,9.81.134l.334-.008.335-.007H10.7q2.008-.044,4.033-.07T18.818.007Q20.876,0,22.955,0T27.15.028l1.324.015q.662.008,1.328.019l1.335.022L32.479.11,29.955,3.857Q28.675,5.759,27.376,7.686Z" transform="translate(245.093 43.406)"/>
    <path id="Path_16161" data-name="Path 16161" d="M26.192,6.2Q25.131,7.783,24.057,9.39t-2.174,3.252q-2.828.08-5.616.191t-5.515.241q-2.727.132-5.42.29T0,13.7q.964-1.453,1.917-2.886T3.8,7.982L5.651,5.2,7.47,2.46q2.763-.345,5.564-.673T18.7,1.152q2.862-.309,5.766-.6T30.338,0L28.285,3.069Z" transform="translate(231.068 26.065)"/>
    <path id="Path_16162" data-name="Path 16162" d="M24.5,2.435,22.861,4.908Q22.035,6.159,21.2,7.422L19.512,9.978q-2.507.271-4.984.559t-4.911.588q-2.434.3-4.841.616T0,12.384l1.484-2.255L2.945,7.907,4.387,5.716Q5.1,4.63,5.807,3.556q2.468-.47,4.964-.925t5.036-.9q2.54-.447,5.111-.878T26.106,0Q25.306,1.211,24.5,2.435Z" transform="translate(197.122 21.672)"/>
    <path id="Path_16163" data-name="Path 16163" d="M10.119.2Q12.2.143,14.308.1T18.543.031Q20.679.006,22.83,0l-1.7,2.582q-.857,1.3-1.725,2.623T17.654,7.869l-1.781,2.707q-2.021-.184-4.029-.348t-3.987-.3q-1.979-.138-3.947-.254T0,9.466Q.768,8.3,1.526,7.137t1.5-2.3Q3.775,3.7,4.513,2.576T5.976.343Q8.04.264,10.119.2Z" transform="translate(148.394 79.765)"/>
    <path id="Path_16164" data-name="Path 16164" d="M19.7,8.392q-1.086,1.643-2.187,3.307l-2.226,3.368q-1.941-.544-3.875-1.057t-3.839-.982q-1.9-.471-3.8-.909T0,11.277Q.954,9.826,1.9,8.39L3.769,5.548q.923-1.406,1.839-2.8L7.417,0q2.028.19,4.066.405t4.11.458q2.072.244,4.157.516t4.2.574l-2.108,3.19Q20.777,6.758,19.7,8.392Z" transform="translate(121.382 114.742)"/>
    <path id="Path_16165" data-name="Path 16165" d="M22.371,13.082q-1.48,2.211-2.98,4.457Q17.877,19.8,16.342,22.1q-2.074-.978-4.144-1.9-2.053-.915-4.1-1.777T4.029,16.76Q2.013,15.959,0,15.208q1.31-1.975,2.6-3.92T5.156,7.449q1.258-1.9,2.5-3.763L10.106,0q2.207.469,4.426.978t4.477,1.067Q21.268,2.6,23.541,3.2q2.289.607,4.592,1.26l-2.849,4.26Z" transform="translate(174.769 112.086)"/>
    <path id="Path_16166" data-name="Path 16166" d="M22.037,4.112l-1.381,2.1-1.4,2.129q-2.469.468-4.91.947T9.5,10.251q-2.4.488-4.781.983T0,12.232q.619-.944,1.233-1.88T2.448,8.5l1.2-1.833L4.837,4.851Q7.262,4.232,9.716,3.62T14.657,2.4q2.489-.606,5.008-1.206T24.742,0L23.4,2.042Q22.721,3.071,22.037,4.112Z" transform="translate(173.333 8.04)"/>
    <path id="Path_16167" data-name="Path 16167" d="M2.714,6.865l1.33-2.032,1.314-2q2.193-.364,4.4-.717t4.457-.7q2.243-.344,4.511-.676T23.3.084c.05-.007.1-.015.148-.021L23.6.041c.05-.007.1-.014.148-.02L23.893,0,22.388,2.288,20.861,4.609q-.772,1.173-1.55,2.357c-.231.35-.464.706-.7,1.058q-1.829.272-3.647.547-2.239.343-4.457.7t-4.4.717q2.193-.364,4.4-.717t4.457-.7q1.814-.277,3.647-.547c-.292.445-.585.888-.878,1.335q-2.268.176-4.515.37t-4.46.4q-2.213.207-4.406.428T0,11.01Q.685,9.963,1.365,8.923Z" transform="translate(173.757 43.694)"/>
    <path id="Path_16168" data-name="Path 16168" d="M4.4,1.243Q2.192,1.6,0,1.96,2.191,1.6,4.4,1.243t4.457-.7Q10.676.269,12.508,0h0Q10.679.272,8.861.547,6.622.889,4.4,1.243Z" transform="translate(179.864 51.718)"/>
    <path id="Path_16169" data-name="Path 16169" d="M28.966,6.424l-2.23,3.309q-1.128,1.677-2.274,3.377-3.176.149-6.3.327-3.111.176-6.173.38t-6.05.432q-2.989.228-5.937.482,1.015-1.515,2.015-3.012T3.993,8.761q.977-1.46,1.941-2.9L7.84,3.008q3.059-.424,6.168-.823T20.3,1.409Q23.49,1.033,26.728.68,29.984.328,33.292,0L31.151,3.18Z" transform="translate(267.102 0)"/>
    <path id="Path_16170" data-name="Path 16170" d="M9.582.52,9.9.507l.318-.013.319-.012.319-.013h.038l.037,0,.037,0h.038q2.879-.113,5.8-.2Q19.737.179,22.712.119,25.7.06,28.739.03,31.791,0,34.893,0h1.022q-1.307,1.924-2.633,3.877T30.591,7.843L27.838,11.9l-2.817,4.149q-3.251-.251-6.452-.455-3.18-.2-6.315-.365-3.114-.161-6.187-.281-3.052-.121-6.067-.2Q1.244,12.9,2.471,11.076t2.42-3.591Q6.083,5.714,7.261,3.968Z" transform="translate(278.861 24.716)"/>
    <path id="Path_16171" data-name="Path 16171" d="M25.58,20.385q-2.037,3-4.109,6.053-2.094,3.082-4.226,6.223-2.176-1.719-4.358-3.347-2.16-1.611-4.325-3.136-2.145-1.511-4.3-2.94Q2.137,21.822,0,20.483,1.805,17.8,3.58,15.169L7.07,9.986q1.715-2.55,3.4-5.055L13.794,0q2.411.947,4.829,1.957,2.44,1.02,4.887,2.106,2.469,1.1,4.947,2.265,2.5,1.18,5.014,2.435Q31.543,11.6,29.579,14.5Z" transform="translate(224.153 102.735)"/>
    <path id="Path_16172" data-name="Path 16172" d="M28.484,12.868l-3.331,4.906L21.74,22.8q-2.8-.865-5.571-1.668-2.749-.794-5.475-1.529-2.7-.729-5.387-1.4Q2.643,17.539,0,16.928q1.486-2.207,2.949-4.379L5.831,8.271Q7.25,6.165,8.648,4.09T11.4,0q2.844.327,5.716.7,2.892.375,5.816.8,2.946.426,5.927.9,3,.481,6.044,1.015-1.574,2.315-3.172,4.668Z" transform="translate(261.913 61.005)"/>
    <path id="Path_16173" data-name="Path 16173" d="M3.642,7.818Q1.818,7.843,0,7.884.549,7.038,1.1,6.2T2.178,4.536L3.251,2.89,4.31,1.261Q6.223,1.079,8.143.909T12.007.581q1.944-.158,3.9-.3T19.837,0q-.622.956-1.251,1.918T17.319,3.859L16.037,5.823q-.646.989-1.3,1.987-1.867-.023-3.729-.029t-3.7,0Q5.473,7.793,3.642,7.818Z" transform="translate(121.833 75.282)"/>
    <path id="Path_16174" data-name="Path 16174" d="M1.494,4.154l.739-1.14q.368-.566.733-1.131,1.8-.258,3.606-.5T10.2.9Q12.015.662,13.84.439T17.507,0l-.89,1.369q-.446.689-.9,1.38t-.9,1.392L13.9,5.549q-1.753.085-3.5.185t-3.483.213q-1.735.113-3.467.24T0,6.457L.749,5.3Z" transform="translate(72.597 106.6)"/>
    <path id="Path_16175" data-name="Path 16175" d="M17.807,2.391q-.392.6-.786,1.21t-.793,1.221q-2.055.547-4.1,1.1T8.062,7.031Q6.036,7.588,4.019,8.15T0,9.28q.334-.515.666-1.027l.662-1.02L1.984,6.22l.653-1.005Q4.7,4.558,6.776,3.9T10.943,2.6q2.091-.651,4.194-1.3T19.359,0c-.258.4-.514.793-.772,1.189S18.067,1.989,17.807,2.391Z" transform="translate(109.142 44.295)"/>
    <path id="Path_16176" data-name="Path 16176" d="M16.36,1.1Q16,1.648,15.643,2.2l-.722,1.113q-.363.561-.727,1.122-1.788.251-3.571.51t-3.553.533Q5.3,5.752,3.53,6.036T0,6.616L.59,5.7l.586-.9q.292-.451.582-.9l.579-.893Q4.167,2.612,6,2.227t3.674-.761q1.842-.375,3.689-.741T17.071,0Z" transform="translate(84.92 74.595)"/>
    <path id="Path_16177" data-name="Path 16177" d="M15.164.623Q17.136.306,19.121,0,18.616.779,18.1,1.563T17.075,3.143q-.518.8-1.039,1.6T14.985,6.353q-1.9.174-3.787.363T7.439,7.1q-1.87.2-3.732.41T0,7.942q.441-.681.88-1.356t.872-1.345q.434-.668.864-1.331t.858-1.32Q5.4,2.248,7.341,1.918t3.9-.656Q13.195.937,15.164.623Z" transform="translate(122.191 66.258)"/>
    <path id="Path_16178" data-name="Path 16178" d="M17.668,1.274,16.834,2.56l-.844,1.3-.851,1.31q-1.914.331-3.819.672t-3.794.69q-1.889.35-3.772.707T0,7.961q.356-.545.708-1.089l.7-1.082.7-1.073L2.8,3.653q1.941-.47,3.89-.933T10.6,1.8q1.963-.458,3.935-.906T18.5,0Z" transform="translate(92.97 81.178)"/>
    <path id="Path_16179" data-name="Path 16179" d="M2,6.369l.986-1.516q.491-.753.977-1.5,2.078-.433,4.169-.858t4.208-.846q2.115-.42,4.248-.831T20.881,0L19.742,1.743,18.591,3.507,17.425,5.291q-.586.9-1.179,1.806-2.065.274-4.118.56t-4.079.578q-2.027.293-4.042.6T0,9.446Q.5,8.671,1.005,7.9T2,6.369Z" transform="translate(138.929 50.581)"/>
    <path id="Path_16180" data-name="Path 16180" d="M15.807,1.085Q17.928.54,20.066,0l-.938,1.442L18.181,2.9q-.477.733-.957,1.47l-.967,1.486q-2.065.426-4.115.861t-4.079.871q-2.029.439-4.046.886T0,9.37L.82,8.105q.409-.627.814-1.252t.807-1.241l.8-1.232q2.071-.554,4.155-1.1t4.187-1.1Q13.689,1.629,15.807,1.085Z" transform="translate(133.357 39.974)"/>
    <path id="Path_16181" data-name="Path 16181" d="M16.614,2.077c-.226.35-.454.7-.681,1.051l-.685,1.057q-1.924.461-3.84.927t-3.819.94q-1.9.473-3.8.955T0,7.979l.562-.867.558-.861.554-.857q.277-.427.553-.852,1.95-.581,3.906-1.153t3.922-1.141Q12.022,1.682,14,1.119T17.96,0q-.334.517-.671,1.035Z" transform="translate(100.832 56.839)"/>
    <path id="Path_16182" data-name="Path 16182" d="M.949,3.955l.436-.673c.152-.236.316-.49.5-.779q1.742-.342,3.48-.667T8.853,1.2Q10.6.885,12.343.586T15.846,0l-.594.916-.6.922-.6.928q-.3.465-.6.933-1.687.183-3.373.382T6.715,4.5q-1.679.214-3.358.445T0,5.421c.191-.293.357-.552.511-.789Z" transform="translate(63.278 87.404)"/>
    <path id="Path_16183" data-name="Path 16183" d="M6.5,4.835q-1.624.048-3.25.113T0,5.1l.621-.957q.308-.476.615-.951l.613-.945q.3-.472.608-.94,1.7-.193,3.391-.37t3.4-.339q1.7-.162,3.41-.31T16.082,0l-.756,1.167q-.382.586-.763,1.175L13.8,3.527,13.021,4.72q-1.635.011-3.268.039T6.5,4.835Z" transform="translate(82.579 92.792)"/>
    <path id="Path_16184" data-name="Path 16184" d="M16.911,1.7q-.558.857-1.119,1.72T14.661,5.158L13.517,6.915q-1.05-.072-2.1-.138T9.327,6.652q-1.043-.058-2.085-.109t-2.076-.1c-.432-.018-.864-.036-1.3-.052s-.862-.033-1.293-.048L1.288,6.3Q.644,6.285,0,6.268L.948,4.809q.472-.724.939-1.445l.929-1.432L3.738.514Q5.5.421,7.275.341T10.833.2Q12.62.134,14.412.085T18.017,0Z" transform="translate(109.812 94.431)"/>
    <path id="Path_16185" data-name="Path 16185" d="M16.446,1.668c-.18.28-.362.561-.544.841s-.365.564-.548.847Q13.421,3.923,11.5,4.5T7.655,5.654q-1.916.582-3.83,1.171T0,8.013c.177-.272.33-.509.473-.73l.4-.626.4-.622.466-.72q1.965-.679,3.93-1.348T9.613,2.633q1.971-.664,3.95-1.322T17.527,0q-.27.414-.538.831Z" transform="translate(84.691 49.199)"/>
    <path id="Path_16186" data-name="Path 16186" d="M12.979.968Q14.849.479,16.724,0l-.565.873q-.284.438-.569.878t-.572.883l-.576.889q-1.815.385-3.627.78t-3.613.8q-1.8.4-3.6.823T0,6.776c.183-.284.343-.53.491-.758l.421-.651.419-.647.485-.749q1.856-.514,3.713-1.02t3.72-1Q11.112,1.453,12.979.968Z" transform="translate(66.443 60.912)"/>
    <path id="Path_16187" data-name="Path 16187" d="M19.667,3.2q-.529.812-1.063,1.628L17.529,6.477Q15.3,7,13.082,7.533T8.679,8.6q-2.188.535-4.359,1.075T0,10.755L.93,9.327q.462-.709.92-1.414l.912-1.4.9-1.386q2.219-.647,4.458-1.29t4.5-1.286q2.263-.641,4.545-1.279T21.758,0l-1.04,1.593Q20.194,2.394,19.667,3.2Z" transform="translate(128.049 15.57)"/>
    <path id="Path_16188" data-name="Path 16188" d="M21.512,1.9q-.628.96-1.264,1.928l-1.28,1.953-1.3,1.98q-2.258.375-4.494.758T8.738,9.3q-2.207.39-4.393.791T0,10.9q.564-.865,1.125-1.724l1.112-1.7,1.1-1.685L4.423,4.121Q6.667,3.593,8.93,3.074t4.556-1.037q2.294-.516,4.608-1.025T22.758,0Z" transform="translate(161.954 27.29)"/>
    <path id="Path_16189" data-name="Path 16189" d="M17.513,5.212,15.921,7.643q-.8,1.227-1.614,2.466-1.812-.286-3.62-.547t-3.59-.5q-1.783-.237-3.562-.451T0,8.209L1.366,6.118,2.714,4.053l1.33-2.04Q4.705,1,5.359,0l1,.012c.334,0,.667.01,1,.015l1,.018c.334.006.67.011,1.006.019l.9.021.906.022.908.023L13,.156h.174l.876.028.877.029.88.031.882.034.983.039.984.042.987.044.989.047L19.082,2.817Q18.3,4.009,17.513,5.212Z" transform="translate(124.695 97.574)"/>
    <path id="Path_16190" data-name="Path 16190" d="M3.664,3.876q.6-.918,1.192-1.827Q6.934,1.77,9.026,1.5T13.239.979Q15.36.723,17.5.477T21.8,0L20.419,2.113q-.7,1.067-1.4,2.143T17.591,6.429q-.719,1.095-1.443,2.2-2.057.078-4.1.17T7.992,9q-2.014.107-4.016.229T0,9.489Q.621,8.538,1.236,7.6t1.221-1.87Q3.063,4.8,3.664,3.876Z" transform="translate(142.523 62.917)"/>
    <path id="Path_16191" data-name="Path 16191" d="M.526,4.218C.6,4.1.682,3.975.768,3.844l.28-.433Q2.793,2.943,4.53,2.5T8,1.628Q9.735,1.2,11.464.8T14.927,0L14.92.01l-.006.01-.006.01L14.9.04l-.375.58-.327.5c-.107.164-.214.33-.329.509s-.241.372-.383.593q-1.681.306-3.363.635t-3.365.678q-1.683.348-3.373.722T0,5.029l.283-.437Z" transform="translate(47.389 90.311)"/>
    <path id="Path_16192" data-name="Path 16192" d="M.353,5.123l.164-.251.189-.291q1.817-.62,3.625-1.214T7.934,2.2q1.8-.571,3.593-1.121T15.114,0l-.278.428c-.083.13-.162.249-.24.368s-.156.241-.241.371l-.28.432q-1.75.462-3.5.947t-3.508.989q-1.756.508-3.522,1.04T0,5.666l.19-.292C.248,5.287.3,5.2.353,5.123Z" transform="translate(7.229 81.41)"/>
    <path id="Path_16193" data-name="Path 16193" d="M4.694,3.385Q6.525,2.8,8.35,2.227T12,1.1Q13.83.543,15.658,0c-.139.213-.26.4-.374.576s-.218.337-.323.5l-.323.5c-.114.176-.237.365-.377.583q-1.782.467-3.56.949t-3.56.982q-1.78.5-3.564,1.016T0,6.16l.277-.428.238-.366C.592,5.247.668,5.129.752,5s.172-.266.273-.423Q2.864,3.972,4.694,3.385Z" transform="translate(44.982 73.576)"/>
    <path id="Path_16194" data-name="Path 16194" d="M.195,4.351c.058-.09.112-.174.166-.255l.165-.255.191-.295q1.737-.5,3.46-.969t3.439-.91q1.716-.444,3.423-.858T14.456,0l-.284.438-.245.377-.245.38-.287.442q-1.66.32-3.327.666t-3.337.724Q5.06,3.4,3.377,3.806T0,4.648Z" transform="translate(0 101.826)"/>
    <path id="Path_16195" data-name="Path 16195" d="M15.673,1.043l-.313.484-.365.565q-1.876.618-3.747,1.245T7.5,4.607q-1.872.641-3.746,1.3T0,7.231l.27-.418L.5,6.455.735,6.1C.816,5.973.9,5.837,1,5.684q1.926-.737,3.845-1.461T8.683,2.792q1.917-.71,3.832-1.406T16.348,0l-.362.559C15.876.729,15.775.886,15.673,1.043Z" transform="translate(28.634 53.597)"/>
    <path id="Path_16196" data-name="Path 16196" d="M15.592,1.368,15.179,2,14.7,2.75q-1.844.506-3.683,1.02T7.342,4.812q-1.835.527-3.67,1.065T0,6.969c.139-.213.26-.4.371-.574L.691,5.9c.1-.16.206-.319.318-.491l.368-.568Q3.265,4.217,5.149,3.6T8.919,2.383q1.887-.606,3.774-1.2T16.478,0L16,.734Z" transform="translate(61.939 45.715)"/>
    <path id="Path_16197" data-name="Path 16197" d="M11.512.5q1.676-.26,3.349-.5c-.191.3-.359.554-.515.795l-.445.687-.446.69-.522.806q-1.615.144-3.231.308t-3.229.35q-1.614.185-3.233.394T0,4.468c.148-.227.276-.426.4-.611l.339-.522.338-.521.391-.6q1.681-.316,3.354-.61T8.166,1.03Q9.84.755,11.512.5Z" transform="translate(62.747 93.559)"/>
    <path id="Path_16198" data-name="Path 16198" d="M15.7,0c-.184.283-.345.533-.495.764s-.289.444-.428.659-.278.43-.429.662l-.5.774q-1.734.333-3.465.678t-3.46.709q-1.728.362-3.458.741T0,5.763c.142-.221.268-.413.383-.592l.329-.507c.106-.165.212-.327.328-.506l.378-.585Q3.205,3.1,4.987,2.637t3.565-.906q1.786-.445,3.569-.878T15.7,0Z" transform="translate(65.653 77.903)"/>
  </g>
</svg>
