<svg xmlns="http://www.w3.org/2000/svg" width="20.53" height="22.11" viewBox="0 0 20.53 22.11">
  <g id="black-calendar-icon" transform="translate(-18.276)">
    <path id="Path_73" data-name="Path 73" d="M38.337,3.627a1.517,1.517,0,0,0-1.11-.469H35.648V1.974A1.9,1.9,0,0,0,35.068.58,1.9,1.9,0,0,0,33.674,0h-.789A1.9,1.9,0,0,0,31.49.58a1.9,1.9,0,0,0-.58,1.394V3.159H26.173V1.974A1.9,1.9,0,0,0,25.593.58,1.9,1.9,0,0,0,24.2,0h-.79a1.9,1.9,0,0,0-1.394.58,1.9,1.9,0,0,0-.58,1.394V3.159H19.855a1.518,1.518,0,0,0-1.11.469,1.518,1.518,0,0,0-.469,1.11V20.531a1.6,1.6,0,0,0,1.579,1.579H37.227a1.6,1.6,0,0,0,1.579-1.579V4.738A1.518,1.518,0,0,0,38.337,3.627ZM32.49,1.974a.379.379,0,0,1,.395-.395h.789a.38.38,0,0,1,.395.395V5.527a.38.38,0,0,1-.395.395h-.789a.379.379,0,0,1-.395-.395Zm-9.476,0a.38.38,0,0,1,.395-.395h.79a.38.38,0,0,1,.395.395V5.527a.38.38,0,0,1-.395.395h-.79a.38.38,0,0,1-.395-.395ZM37.227,20.53H19.855V7.9H37.227Z"/>
  </g>
</svg>
