<svg xmlns="http://www.w3.org/2000/svg" width="62.025" height="54.514" viewBox="0 0 62.025 54.514">
  <g id="conversation" transform="translate(0 -31)">
    <path id="Path_1225" data-name="Path 1225" d="M56.573,31H19.988a5.458,5.458,0,0,0-5.451,5.451v1.817H12.72A5.458,5.458,0,0,0,7.269,43.72v1.817H5.451A5.458,5.458,0,0,0,0,50.988V72.794a5.458,5.458,0,0,0,5.451,5.451H7.269V83.7a1.817,1.817,0,0,0,2.825,1.512l10.445-6.963h21.5a5.458,5.458,0,0,0,5.451-5.451V70.977H49.3a5.458,5.458,0,0,0,5.451-5.451V63.708h1.817a5.458,5.458,0,0,0,5.451-5.451V36.451A5.458,5.458,0,0,0,56.573,31ZM43.853,72.794a1.819,1.819,0,0,1-1.817,1.817H19.988a1.817,1.817,0,0,0-1.008.305L10.9,80.3V76.428a1.817,1.817,0,0,0-1.817-1.817H5.451a1.819,1.819,0,0,1-1.817-1.817V50.988a1.819,1.819,0,0,1,1.817-1.817H42.036a1.819,1.819,0,0,1,1.817,1.817Zm7.269-7.269A1.819,1.819,0,0,1,49.3,67.343H47.488V50.988a5.458,5.458,0,0,0-5.451-5.451H10.9V43.72A1.819,1.819,0,0,1,12.72,41.9H49.3a1.819,1.819,0,0,1,1.817,1.817Zm7.269-7.269a1.819,1.819,0,0,1-1.817,1.817H54.756V43.72A5.458,5.458,0,0,0,49.3,38.269H18.171V36.451a1.819,1.819,0,0,1,1.817-1.817H56.573a1.819,1.819,0,0,1,1.817,1.817Z"/>
    <path id="Path_1226" data-name="Path 1226" d="M113.865,241H91.817a1.817,1.817,0,1,0,0,3.634h22.048a1.817,1.817,0,1,0,0-3.634Z" transform="translate(-79.097 -184.56)"/>
    <path id="Path_1227" data-name="Path 1227" d="M113.865,301H91.817a1.817,1.817,0,1,0,0,3.634h22.048a1.817,1.817,0,1,0,0-3.634Z" transform="translate(-79.097 -237.292)"/>
  </g>
</svg>
