<svg xmlns="http://www.w3.org/2000/svg" width="93.866" height="48.777" viewBox="0 0 93.866 48.777">
  <path id="Path_16250" data-name="Path 16250" d="M416.466,559.779c-10.117-.883-19.524-.389-25.512,2.117a12.149,12.149,0,0,0-5.081,3.606,2.436,2.436,0,0,0-1.038.651,2.26,2.26,0,0,0-.6,1.37l-1.966,8.563c-.557,2.391-3.548,3.991-3.548,6.528v12.524c0,.218-.189,1.08-.421,1.118l-.146.02c-.847.117-.742,1.086-.742,1.86v3.79c0,1.884-.044,3.058,1.907,3.058h1.306c.932-.145,1.031-.41.744-1.643a8.231,8.231,0,1,1,16.036-.008c-.28,1.212-.3,1.664.948,1.664h29.7c1.715-.069,2.063.269,1.741-1.952a8.232,8.232,0,1,1,16.377-1.193,7.369,7.369,0,0,1-.193,1.888c-.272,1.143-.342,1.156.536,1.257h.882c.8-.125.8-.235.561-1.292a8.231,8.231,0,1,1,16.07-.12c-.291,1.357-.156,1.412.812,1.412H470.1c1.022,0,1.175-.334,1.175-1.369v-6.307c0-.843-.446-1.088-1.163-1.088h-5.459c-1.919-3.7-5.846-4.594-8.512-4.681a12.091,12.091,0,0,0-9.189,4.053c-2.249-1.952-4.66-4.084-7.877-4.152-4.111-.087-7.951,1.766-9.781,4.78h-7.849c-1.476,0-1.436-.625-1.46-1.967v-32.2c0-2.041-1.831-2.14-3.517-2.287ZM386.347,568.1h6.837a1.15,1.15,0,0,1,1.306,1.3v7.748c0,.761-.284,1.143-1.067,1.131-2.918-.046-5.892.024-8.827.024-.907,0-.878-.163-.723-.983q.8-4.22,1.6-8.44c.117-.618.246-.777.87-.777Zm11.144-.214,4.579.046a.717.717,0,0,1,.624.885,16.182,16.182,0,0,1-5.294,8.211c-.588.5-1.323,1.27-1.323-.246V569.36a1.494,1.494,0,0,1,1.415-1.477Zm-8.107,27.292a6.3,6.3,0,1,1-6.3,6.3,6.3,6.3,0,0,1,6.3-6.3Zm48.551.384a6.3,6.3,0,1,1-6.3,6.3,6.3,6.3,0,0,1,6.3-6.3Zm18.038,0a6.3,6.3,0,1,1-6.3,6.3,6.3,6.3,0,0,1,6.3-6.3Z" transform="translate(-377.407 -559.374)" fill-rule="evenodd"/>
</svg>
