<svg xmlns="http://www.w3.org/2000/svg" width="87" height="45.208" viewBox="0 0 87 45.208">
  <path id="black-ps-tbr-icon" d="M428.2,559.75c9.377-.819,18.1-.36,23.646,1.962a11.26,11.26,0,0,1,4.71,3.343,2.258,2.258,0,0,1,.962.6,2.1,2.1,0,0,1,.557,1.27l1.822,7.936c.517,2.216,3.288,3.7,3.288,6.051v11.608c0,.2.175,1,.391,1.036l.135.018c.785.109.688,1.007.688,1.724v3.513c0,1.746.041,2.835-1.767,2.835h-1.21c-.864-.134-.955-.38-.69-1.523a7.629,7.629,0,1,0-14.863-.008c.26,1.123.278,1.543-.879,1.543H417.469c-1.59-.064-1.912.249-1.613-1.809a7.63,7.63,0,1,0-15.179-1.106,6.83,6.83,0,0,0,.179,1.749c.252,1.059.317,1.071-.5,1.165h-.817c-.74-.116-.745-.218-.52-1.2a7.629,7.629,0,1,0-14.894-.112c.269,1.258.145,1.309-.753,1.309H378.5c-.947,0-1.089-.309-1.089-1.269v-5.845c0-.781.413-1.008,1.078-1.008h5.06c1.779-3.427,5.419-4.258,7.889-4.339a11.207,11.207,0,0,1,8.517,3.757c2.084-1.809,4.319-3.785,7.3-3.848,3.81-.081,7.37,1.637,9.066,4.43h7.275c1.368,0,1.331-.579,1.354-1.823V561.869c0-1.891,1.7-1.984,3.259-2.12Zm27.916,7.709h-6.337a1.066,1.066,0,0,0-1.211,1.2v7.181c0,.706.263,1.06.989,1.049,2.7-.042,5.461.022,8.181.022.841,0,.814-.151.67-.911q-.743-3.911-1.486-7.823c-.108-.573-.228-.72-.807-.72Zm-10.329-.2-4.244.042a.665.665,0,0,0-.578.82,15,15,0,0,0,4.907,7.611c.545.463,1.226,1.177,1.226-.228v-6.876a1.385,1.385,0,0,0-1.311-1.369Zm7.514,25.3a5.835,5.835,0,1,0,5.835,5.835,5.835,5.835,0,0,0-5.835-5.835Zm-45,.356a5.835,5.835,0,1,0,5.836,5.835,5.835,5.835,0,0,0-5.836-5.835Zm-16.719,0a5.835,5.835,0,1,0,5.835,5.835,5.835,5.835,0,0,0-5.835-5.835Z" transform="translate(-377.407 -559.373)" fill-rule="evenodd"/>
</svg>
