<svg xmlns="http://www.w3.org/2000/svg" width="93.055" height="34.331" viewBox="0 0 93.055 34.331">
  <path id="Path_16249" data-name="Path 16249" d="M347.469,360.645a26.246,26.246,0,0,0,.493-6.238c0-.766-.16-1.27-.915-1.428-.459-.1-.925-.193-.936-.389-.137-2.358-.3-4.1-.559-6.524-.155-1.5-2.783-2.824-4.364-4.251-1.4-1.267-4.308-3.423-5.535-4.428-1.033-.846.51-1.8-.451-2.2-1.537-.7-4.421-.985-7.522-1.082-7.612-.237-17.931-.329-25.366.216a33.573,33.573,0,0,0-7.3,1.2c-5.6,1.78-10.4,6.173-15.712,8.681-6.429.682-12.9,1.273-19.417,2.888a4.06,4.06,0,0,0-3.213,2.6c-.705,1.366-.427,2.647-.75,3.423-.516.042-.535-.088-.7.213a3.51,3.51,0,0,0-.113,1.258c-.172,2.376-.7,5.915,1.276,7.392a2.918,2.918,0,0,0,.31.165h2.986c1.493,0,1.394-.285,1.556-1.854a9.116,9.116,0,0,1,9.067-8.17,9.265,9.265,0,0,1,9.011,7.77c.3,1.945-.166,2.295,1.826,2.295h39.028c1.393,0,1.3-.137,1.391-1.534a9.116,9.116,0,0,1,18.184-.14c.156,1.665-.026,1.674,1.538,1.674h3.787c1.183,0,2.012-.265,2.405-1.525Zm-16.817-6.422a7.011,7.011,0,1,1-7.012,7.011,7.011,7.011,0,0,1,7.012-7.011Zm-60.353,0a7.011,7.011,0,1,1-7.011,7.011,7.011,7.011,0,0,1,7.011-7.011Zm18.827-8.514a7.342,7.342,0,0,0,.33-1.585c.073-1.217-2.151-1.307-3.529-1.218a39.716,39.716,0,0,1,9.888-5.642,37.614,37.614,0,0,1,7.3-.7l3.02-.064c.546-.007.618.247.458.676-.538,1.442-.754,4.559-1.077,6.652-.156,1.01-.395,1.249-1.428,1.258-4.077.034-15.007.817-14.958.622Zm32.629-1.237a24.168,24.168,0,0,0-1.163-6.59c-3.821-1.672-6.682-1.332-10.7-1.38a.891.891,0,0,0-.748.353c-.431,1.117-.533,2.64-1.094,7.237-.154,1.258-.072.917,1.324.9,3.439-.041,8.485-.305,12.383-.52Zm.641-6.168a30.961,30.961,0,0,1,1.269,6.113c1.374-.073.963-.136,2.194-.177,1.788-.059,1.733-.774.6-2.32A12.239,12.239,0,0,0,322.4,338.3Zm8.925-.841,2.337.154c2.3,1.891,4.6,3.563,6.9,5.386,1.223.969.037.873-.936.694-3.6-.662-6.088-3.465-8.3-6.234Z" transform="translate(-254.91 -333.916)" fill-rule="evenodd"/>
</svg>
