<svg xmlns="http://www.w3.org/2000/svg" width="66.277" height="41" viewBox="0 0 66.277 41">
  <g id="black-pcr-select-icon" transform="translate(-136.516 -211.773)">
    <path id="Path_17095" data-name="Path 17095" d="M137.892,218.738v3.456A2.606,2.606,0,0,0,140.5,224.8h7.087a2.609,2.609,0,0,0,2.608-2.608v-2.448c-3.431-.1-6.862-.221-10.268-.381A4.264,4.264,0,0,1,137.892,218.738Z" transform="translate(5.527 27.971)"/>
    <path id="Path_17096" data-name="Path 17096" d="M145.9,219.746v2.448a2.605,2.605,0,0,0,2.6,2.608H155.6a2.609,2.609,0,0,0,2.608-2.608v-3.456a4.264,4.264,0,0,1-2.036.627C152.762,219.526,149.331,219.651,145.9,219.746Z" transform="translate(37.686 27.971)"/>
    <path id="Path_17097" data-name="Path 17097" d="M199.7,223.079l-3.04.266a4.227,4.227,0,0,0-3.035,1.72l-3.847-7.489a8.4,8.4,0,0,0-5.833-4.394,73.119,73.119,0,0,0-14.29-1.41H169.3a73.114,73.114,0,0,0-13.944,1.41,8.385,8.385,0,0,0-5.818,4.394q-1.926,3.74-3.852,7.489a4.207,4.207,0,0,0-3.03-1.72l-3.045-.266a2.842,2.842,0,1,0-.5,5.663l4.574.406a16.241,16.241,0,0,0-1.119,5.924v7.975a3.089,3.089,0,0,0,2.944,3.09c7.659.366,15.655.572,23.966.572h.175c8.372,0,16.432-.206,24.147-.572a3.089,3.089,0,0,0,2.944-3.09v-7.975a16.241,16.241,0,0,0-1.118-5.924l4.574-.406a2.843,2.843,0,1,0-.5-5.663Zm-47.606-4.188a5.478,5.478,0,0,1,3.822-2.884,70.691,70.691,0,0,1,13.4-1.359h.341A70.507,70.507,0,0,1,183.381,216a5.492,5.492,0,0,1,3.837,2.889l3.451,6.225c-6.691-.622-14.009-1.023-21.874-1.038a182.912,182.912,0,0,0-19.953,1.038C149.554,223.736,152.092,218.891,152.092,218.891Zm5.422,18.609v.015a1.453,1.453,0,0,1-1.078,1.094l-.07.015a17.229,17.229,0,0,1-5.477.151,7.543,7.543,0,0,1-3.205-1.209,2.077,2.077,0,0,1-.923-1.725v-2.247a1.031,1.031,0,0,1,.793-1l.135-.025,1.806-.181a3.306,3.306,0,0,1,1.986.411c.351.2.747.416,1.184.657,1.264.692,1.766.938,2.694,1.47.426.241,1,.582,1.69,1a1.156,1.156,0,0,1,.542,1.053A3.523,3.523,0,0,1,157.514,237.5Zm21.373,6.912a1.019,1.019,0,0,1-1.018,1.018H161.677a1.019,1.019,0,0,1-1.018-1.018v-1.129a1.019,1.019,0,0,1,1.018-1.018h16.191a1.019,1.019,0,0,1,1.018,1.018Zm13.538-6.847a7.519,7.519,0,0,1-3.205,1.209,17.228,17.228,0,0,1-5.477-.151l-.07-.015a1.439,1.439,0,0,1-1.073-1.094l-.005-.015a3.478,3.478,0,0,1-.07-.522,1.152,1.152,0,0,1,.537-1.053c.687-.421,1.264-.762,1.69-1,.928-.532,1.43-.777,2.694-1.47.436-.241.838-.461,1.184-.657a3.307,3.307,0,0,1,1.986-.411l1.806.181.14.025a1.032,1.032,0,0,1,.787,1v2.247A2.077,2.077,0,0,1,192.424,237.565Z" transform="translate(0 0)"/>
  </g>
</svg>
