<svg xmlns="http://www.w3.org/2000/svg" width="44.859" height="44.859" viewBox="0 0 44.859 44.859">
  <g id="investors-company-icon-2" transform="translate(-1543.138 -2537.311)">
    <g id="Group_820" data-name="Group 820">
      <path id="Path_16106" data-name="Path 16106" d="M1587.5,2562.6v-5.725l-5.809-.506a16.886,16.886,0,0,0-2.291-5.707l3.7-4.407-4.047-4.048-4.285,3.6a16.924,16.924,0,0,0-5.867-2.626l-.469-5.37H1562.7l-.449,5.145a16.9,16.9,0,0,0-6.378,2.439l-3.793-3.185-4.048,4.048,3.083,3.673a16.909,16.909,0,0,0-2.8,6.539l-4.682.408v5.725l4.682.408a16.9,16.9,0,0,0,2.8,6.539l-3.083,3.673,4.048,4.048,3.793-3.184a16.9,16.9,0,0,0,6.378,2.438l.449,5.145h5.724l.469-5.37a16.924,16.924,0,0,0,5.867-2.626l4.285,3.6,4.047-4.048-3.7-4.407a16.888,16.888,0,0,0,2.291-5.706Z" fill="none" stroke="#1a1a1a" stroke-linecap="round" stroke-linejoin="round" stroke-width="1"/>
      <circle id="Ellipse_290" data-name="Ellipse 290" cx="11.594" cy="11.594" r="11.594" transform="translate(1553.973 2548.146)" stroke-width="1" stroke="#1a1a1a" stroke-linecap="round" stroke-linejoin="round" fill="none"/>
    </g>
    <g id="Group_823" data-name="Group 823">
      <g id="Group_821" data-name="Group 821">
        <path id="Path_16107" data-name="Path 16107" d="M1562.668,2553.77a1.45,1.45,0,0,1-.059-.413,1.467,1.467,0,1,1,2.934,0v13.694c-2.965,1.711-3.842-1.188-3.842-1.188" fill="none" stroke="#1a1a1a" stroke-linecap="round" stroke-linejoin="round" stroke-width="1"/>
        <path id="Path_16108" data-name="Path 16108" d="M1561.98,2556.68a1.711,1.711,0,1,1,.622-3.306" fill="none" stroke="#1a1a1a" stroke-linecap="round" stroke-linejoin="round" stroke-width="1"/>
        <path id="Path_16109" data-name="Path 16109" d="M1560.443,2558.911a1.887,1.887,0,0,1-1.747-1.746,1.572,1.572,0,0,1,1.572-1.572" fill="none" stroke="#1a1a1a" stroke-linecap="round" stroke-linejoin="round" stroke-width="1"/>
        <path id="Path_16110" data-name="Path 16110" d="M1559.21,2558.326a1.607,1.607,0,0,0-.933,1.459,1.87,1.87,0,0,0,1.607,1.886s1.122.15,1.551-.28" fill="none" stroke="#1a1a1a" stroke-linecap="round" stroke-linejoin="round" stroke-width="1"/>
        <path id="Path_16111" data-name="Path 16111" d="M1559.029,2561.342a1.916,1.916,0,0,0,.827,2.949" fill="none" stroke="#1a1a1a" stroke-linecap="round" stroke-linejoin="round" stroke-width="1"/>
        <path id="Path_16112" data-name="Path 16112" d="M1560.268,2563.173s-1.746,2.969,1.887,3.773" fill="none" stroke="#1a1a1a" stroke-linecap="round" stroke-linejoin="round" stroke-width="1"/>
        <path id="Path_16113" data-name="Path 16113" d="M1563.622,2559.75s-2.585.1-1.921,2.585" fill="none" stroke="#1a1a1a" stroke-linecap="round" stroke-linejoin="round" stroke-width="1"/>
        <path id="Path_16114" data-name="Path 16114" d="M1565.543,2558.073s-.718-.917-2.3,0" fill="none" stroke="#1a1a1a" stroke-linecap="round" stroke-linejoin="round" stroke-width="1"/>
        <path id="Path_16115" data-name="Path 16115" d="M1565.543,2564.291s-1.956,1.013-2.655-.245" fill="none" stroke="#1a1a1a" stroke-linecap="round" stroke-linejoin="round" stroke-width="1"/>
        <path id="Path_16116" data-name="Path 16116" d="M1565.543,2555.418s-1.572.769-1.921,0" fill="none" stroke="#1a1a1a" stroke-linecap="round" stroke-linejoin="round" stroke-width="1"/>
        <path id="Path_16117" data-name="Path 16117" d="M1565.543,2561.915a2.317,2.317,0,0,1-1.747,0" fill="none" stroke="#1a1a1a" stroke-linecap="round" stroke-linejoin="round" stroke-width="1"/>
      </g>
      <g id="Group_822" data-name="Group 822">
        <path id="Path_16118" data-name="Path 16118" d="M1568.466,2553.77a1.445,1.445,0,0,0,.059-.413,1.467,1.467,0,0,0-2.934,0v13.694c2.965,1.711,3.843-1.188,3.843-1.188" fill="none" stroke="#1a1a1a" stroke-linecap="round" stroke-linejoin="round" stroke-width="1"/>
        <path id="Path_16119" data-name="Path 16119" d="M1569.154,2556.68a1.711,1.711,0,1,0-.622-3.306" fill="none" stroke="#1a1a1a" stroke-linecap="round" stroke-linejoin="round" stroke-width="1"/>
        <path id="Path_16120" data-name="Path 16120" d="M1570.691,2558.911a1.887,1.887,0,0,0,1.747-1.746,1.572,1.572,0,0,0-1.572-1.572" fill="none" stroke="#1a1a1a" stroke-linecap="round" stroke-linejoin="round" stroke-width="1"/>
        <path id="Path_16121" data-name="Path 16121" d="M1571.924,2558.326a1.607,1.607,0,0,1,.933,1.459,1.87,1.87,0,0,1-1.607,1.886s-1.122.15-1.551-.28" fill="none" stroke="#1a1a1a" stroke-linecap="round" stroke-linejoin="round" stroke-width="1"/>
        <path id="Path_16122" data-name="Path 16122" d="M1572.1,2561.342a1.916,1.916,0,0,1-.827,2.949" fill="none" stroke="#1a1a1a" stroke-linecap="round" stroke-linejoin="round" stroke-width="1"/>
        <path id="Path_16123" data-name="Path 16123" d="M1570.866,2563.173s1.746,2.969-1.886,3.773" fill="none" stroke="#1a1a1a" stroke-linecap="round" stroke-linejoin="round" stroke-width="1"/>
        <path id="Path_16124" data-name="Path 16124" d="M1567.512,2559.75s2.585.1,1.922,2.585" fill="none" stroke="#1a1a1a" stroke-linecap="round" stroke-linejoin="round" stroke-width="1"/>
        <path id="Path_16125" data-name="Path 16125" d="M1565.591,2558.073s.718-.917,2.306,0" fill="none" stroke="#1a1a1a" stroke-linecap="round" stroke-linejoin="round" stroke-width="1"/>
        <path id="Path_16126" data-name="Path 16126" d="M1565.591,2564.291s1.956,1.013,2.655-.245" fill="none" stroke="#1a1a1a" stroke-linecap="round" stroke-linejoin="round" stroke-width="1"/>
        <path id="Path_16127" data-name="Path 16127" d="M1565.591,2555.418s1.572.769,1.921,0" fill="none" stroke="#1a1a1a" stroke-linecap="round" stroke-linejoin="round" stroke-width="1"/>
        <path id="Path_16128" data-name="Path 16128" d="M1565.591,2561.915a2.318,2.318,0,0,0,1.747,0" fill="none" stroke="#1a1a1a" stroke-linecap="round" stroke-linejoin="round" stroke-width="1"/>
      </g>
    </g>
  </g>
</svg>
