<svg xmlns="http://www.w3.org/2000/svg" width="42.819" height="42.819" viewBox="0 0 42.819 42.819">
  <g id="investors-company-icon-3" transform="translate(-2720.701 -1413.992)">
    <g id="Group_816" data-name="Group 816">
      <circle id="Ellipse_289" data-name="Ellipse 289" cx="18.161" cy="18.161" r="18.161" transform="matrix(0.16, -0.987, 0.987, 0.16, 2721.275, 1450.419)" stroke-width="1" stroke="#1a1a1a" stroke-linecap="round" stroke-linejoin="round" fill="none"/>
      <path id="Path_16093" data-name="Path 16093" d="M2732.669,1430.27c1.2-7.532,4.973-13.03,9.442-13.03,2.384,0,4.57,1.565,6.273,4.168" fill="none" stroke="#1a1a1a" stroke-linecap="round" stroke-linejoin="round" stroke-width="1"/>
      <path id="Path_16094" data-name="Path 16094" d="M2751.679,1431.137a33.1,33.1,0,0,1,.272,4.264c0,10.031-4.405,18.162-9.84,18.162-4.47,0-8.244-5.5-9.443-13.034" fill="none" stroke="#1a1a1a" stroke-linecap="round" stroke-linejoin="round" stroke-width="1"/>
      <path id="Path_16095" data-name="Path 16095" d="M2746.782,1443.5a18.328,18.328,0,0,1,8.811,4.074" fill="none" stroke="#1a1a1a" stroke-linecap="round" stroke-linejoin="round" stroke-width="1"/>
      <path id="Path_16096" data-name="Path 16096" d="M2728.629,1447.57a18.321,18.321,0,0,1,8.815-4.075" fill="none" stroke="#1a1a1a" stroke-linecap="round" stroke-linejoin="round" stroke-width="1"/>
      <path id="Path_16097" data-name="Path 16097" d="M2754.562,1424.073a13.249,13.249,0,0,0,1.031-.841" fill="none" stroke="#1a1a1a" stroke-linecap="round" stroke-linejoin="round" stroke-width="1"/>
      <path id="Path_16098" data-name="Path 16098" d="M2728.629,1423.233c3.024,2.732,7.936,4.509,13.482,4.509a25.185,25.185,0,0,0,3.836-.291" fill="none" stroke="#1a1a1a" stroke-linecap="round" stroke-linejoin="round" stroke-width="1"/>
      <line id="Line_238" data-name="Line 238" x2="23.379" transform="translate(2736.893 1435.401)" fill="none" stroke="#1a1a1a" stroke-linecap="round" stroke-linejoin="round" stroke-width="1"/>
      <line id="Line_239" data-name="Line 239" x2="3.869" transform="translate(2723.949 1435.401)" fill="none" stroke="#1a1a1a" stroke-linecap="round" stroke-linejoin="round" stroke-width="1"/>
      <line id="Line_240" data-name="Line 240" y1="20.875" transform="translate(2742.111 1417.24)" fill="none" stroke="#1a1a1a" stroke-linecap="round" stroke-linejoin="round" stroke-width="1"/>
      <line id="Line_241" data-name="Line 241" y1="5.602" transform="translate(2742.111 1447.96)" fill="none" stroke="#1a1a1a" stroke-linecap="round" stroke-linejoin="round" stroke-width="1"/>
    </g>
    <path id="Path_16099" data-name="Path 16099" d="M2753.743,1426.218a3.142,3.142,0,1,1-3.143-3.142A3.143,3.143,0,0,1,2753.743,1426.218Z" fill="none" stroke="#1a1a1a" stroke-linecap="round" stroke-linejoin="round" stroke-width="1"/>
    <path id="Path_16100" data-name="Path 16100" d="M2735.413,1435.4a3.143,3.143,0,1,1-3.143-3.142A3.143,3.143,0,0,1,2735.413,1435.4Z" fill="none" stroke="#1a1a1a" stroke-linecap="round" stroke-linejoin="round" stroke-width="1"/>
    <path id="Path_16101" data-name="Path 16101" d="M2745.253,1443.061a3.142,3.142,0,1,1-3.142-3.143A3.142,3.142,0,0,1,2745.253,1443.061Z" fill="none" stroke="#1a1a1a" stroke-linecap="round" stroke-linejoin="round" stroke-width="1"/>
  </g>
</svg>
