<svg xmlns="http://www.w3.org/2000/svg" width="62.8" height="58.058" viewBox="0 0 62.8 58.058">
  <g id="jg-black-vendor-icon" transform="translate(0 0)">
    <path id="Path_298" data-name="Path 298" d="M2035.315-2456.854H2031.8v-23.962H2012.75v23.938h-1.4v-25.359h5.607v-25.4h-20.444v31.018h-3.541v-.394q0-16.932,0-33.864c0-.106-.007-.212-.011-.319h27.555a.557.557,0,0,0-.007.064q0,13.222,0,26.445c0,.1.012.2.021.323H2034.9c.138,0,.276.012.415.017Z" transform="translate(-1972.515 2511.195)"/>
    <path id="Path_299" data-name="Path 299" d="M1673.957-1922.51h.7v-14.083H1693v14.068h.7V-1938h1.391v17.6h-9.6a3.858,3.858,0,0,1-1.827,2.99,3.591,3.591,0,0,1-2.357.534,3.823,3.823,0,0,1-3.391-3.509h-3.95Zm10.013,1.826a2.265,2.265,0,0,0-2.3-2.276,2.287,2.287,0,0,0-2.266,2.289,2.273,2.273,0,0,0,2.31,2.272A2.257,2.257,0,0,0,1683.97-1920.684Z" transform="translate(-1673.957 1974.736)"/>
    <path id="Path_300" data-name="Path 300" d="M2043.86-1917.109a9.2,9.2,0,0,1-1.537-.575,3.732,3.732,0,0,1-1.865-2.9c-.007-.053-.016-.105-.028-.157a.409.409,0,0,0-.044-.079h-2.694v-17.623c.106-.006.218-.018.329-.018,1.964,0,3.929,0,5.893-.006a.528.528,0,0,1,.494.259q3.248,4.637,6.508,9.267a.819.819,0,0,1,.159.432c.009,2.488.007,4.975.006,7.462,0,.062-.011.124-.019.216h-3.025a3.772,3.772,0,0,1-.643,2.068,3.7,3.7,0,0,1-2.592,1.592.965.965,0,0,0-.173.061Zm-4.065-12.2h8.2c-.036-.067-.053-.105-.076-.14q-2.283-3.36-4.573-6.715a.472.472,0,0,0-.336-.165c-.662-.016-1.324-.008-1.986-.008h-1.224Zm6.7,8.23a2.265,2.265,0,0,0-2.235-2.309,2.273,2.273,0,0,0-2.325,2.224,2.263,2.263,0,0,0,2.239,2.336A2.254,2.254,0,0,0,2046.5-1921.083Z" transform="translate(-2014.382 1975.168)"/>
    <path id="Path_301" data-name="Path 301" d="M2224.927-2384.789v-4.9h7.012v4.9Zm1.418-3.492v2.067h4.187v-2.067Z" transform="translate(-2189.619 2397.474)"/>
    <path id="Path_302" data-name="Path 302" d="M2081.593-2385.181v-4.892c.113-.007.206-.018.3-.018q3.2,0,6.405,0c.146,0,.336-.064.335.206,0,1.559,0,3.116,0,4.7Zm1.408-1.4h4.2v-2.08H2083Z" transform="translate(-2055.471 2397.858)"/>
    <path id="Path_303" data-name="Path 303" d="M2081.571-2098.289v-4.9h7.014v4.9Zm5.614-1.4v-2.095h-4.223c0,.657,0,1.294.008,1.931a.244.244,0,0,0,.177.156C2084.478-2099.685,2085.812-2099.687,2087.185-2099.687Z" transform="translate(-2055.45 2129.338)"/>
    <path id="Path_304" data-name="Path 304" d="M2224.929-2241.627v-4.9h7.021v4.9Zm5.614-3.48h-4.206v2.074h4.206Z" transform="translate(-2189.622 2263.487)"/>
    <path id="Path_305" data-name="Path 305" d="M2088.182-2242.043c-.122.006-.236.016-.35.016-2.1,0-4.206,0-6.308.007-.291,0-.38-.073-.376-.373.016-1.42.013-2.84,0-4.259,0-.253.07-.326.324-.325,2.145.009,4.291.006,6.437,0,.173,0,.31,0,.308.24-.009,1.515-.006,3.031-.008,4.547A.857.857,0,0,1,2088.182-2242.043Zm-5.606-1.419h4.206v-2.06h-4.206Z" transform="translate(-2055.054 2263.909)"/>
    <path id="Path_306" data-name="Path 306" d="M2341.514-1971.008v4.888H2335.2v-4.888Zm-4.919,3.472h3.495v-2.058H2336.6Z" transform="translate(-2292.827 2005.624)"/>
    <path id="Path_307" data-name="Path 307" d="M2473.591-1970.993v4.9h-6.3v-4.9Zm-1.409,1.408H2468.7v2.075h3.483Z" transform="translate(-2416.449 2005.61)"/>
    <path id="Path_308" data-name="Path 308" d="M2341.5-1827.942v4.888h-6.315v-4.888Zm-1.423,3.489v-2.076H2336.6v2.076Z" transform="translate(-2292.816 1871.726)"/>
    <path id="Path_309" data-name="Path 309" d="M2473.577-1827.93v4.9h-6.3v-4.9Zm-4.9,1.4v2.082h3.488v-2.082Z" transform="translate(-2416.436 1871.715)"/>
  </g>
</svg>
