<svg xmlns="http://www.w3.org/2000/svg" width="58.417" height="58.422" viewBox="0 0 58.417 58.422">
  <g id="jg-black-brand-icon" transform="translate(0)">
    <path id="Path_310" data-name="Path 310" d="M3380-2393.31c.024-.6.058-1.208.069-1.812a4.794,4.794,0,0,1,1.867-3.791,6.556,6.556,0,0,1,2.207-1.135,16.409,16.409,0,0,1,3.844-.571c.194-.014.222.076.247.238a40.893,40.893,0,0,0,2.136,8.021,4.33,4.33,0,0,0,.4.814c.045-.778.072-1.558.141-2.334q.17-1.927.386-3.848a1.8,1.8,0,0,0-.29-1.4,5.154,5.154,0,0,1-.527-1.118c-.07-.167,0-.32.191-.32,1.229,0,2.459.019,3.688.031a.678.678,0,0,1,.147.044,1.837,1.837,0,0,1-.112.392c-.254.458-.533.9-.781,1.363a.92.92,0,0,0-.122.488c.184,1.9.383,3.808.578,5.71a8.777,8.777,0,0,0,.117.907,38.508,38.508,0,0,0,2.5-8.9,12.2,12.2,0,0,1,5.041.851,4.988,4.988,0,0,1,2.471,2.275c.231.426.437.867.644,1.307a.753.753,0,0,1,.066.315q.037,7.822.066,15.646a.2.2,0,0,1-.072.15,5.741,5.741,0,0,1-.442-.732q-1.181-2.773-2.334-5.559c-.376-.9-.731-1.818-1.1-2.728a.531.531,0,0,0-.173-.244c0,.114,0,.228,0,.342-.042,9.368-.1,18.736-.116,28.1a3.938,3.938,0,0,1-1.613,3.151,3.754,3.754,0,0,1-1.969.841.363.363,0,0,0-.1.05h-.775c-.075-.021-.147-.046-.223-.061a4.052,4.052,0,0,1-3.261-2.621c-.137-.354-.208-.731-.333-1.181-.075.273-.126.478-.187.68a4.132,4.132,0,0,1-3.228,3.09l-.4.092h-.834a.6.6,0,0,0-.134-.052,4,4,0,0,1-1.724-.681,4.6,4.6,0,0,1-1.586-2.038,1.963,1.963,0,0,1-.181-.76q-.015-9.5-.007-19v-.387c-.364-.106-.723-.183-1.061-.313a4.8,4.8,0,0,1-2.989-4.141c-.089-.565-.088-1.145-.128-1.717Z" transform="translate(-3380 2415.187)"/>
    <path id="Path_311" data-name="Path 311" d="M3836.3-2487.721a4.382,4.382,0,0,1-.865-.357,1.879,1.879,0,0,1-.933-1.638q0-20.86-.021-41.721c0-2.086.042-4.171.046-6.258a2.177,2.177,0,0,1,.661-1.655,2.03,2.03,0,0,1,3.116.511,1.479,1.479,0,0,1,.137.66c.044,2,.1,3.992.106,5.988q.018,21.383.006,42.765a1.678,1.678,0,0,1-.887,1.33,4.655,4.655,0,0,1-.89.376Z" transform="translate(-3807.386 2546.143)"/>
    <path id="Path_312" data-name="Path 312" d="M3964.117-2501.712v.553q.006,9.133.006,18.269a.367.367,0,0,1-.126.285,12.864,12.864,0,0,1-3.276,1.212,10.281,10.281,0,0,1-5.086-.289c-2.059-.675-4.11-1.375-6.167-2.057a12.2,12.2,0,0,0-3.845-.7,7.9,7.9,0,0,0-5.159,2c-.473.393-.921.813-1.408,1.244-.009-.094-.022-.166-.022-.238q0-9.268,0-18.536a.4.4,0,0,1,.135-.309,11.333,11.333,0,0,1,3.618-1.2,11.21,11.21,0,0,1,5.19.548c1.64.588,3.266,1.214,4.906,1.8a11.849,11.849,0,0,0,3.552.8,8.98,8.98,0,0,0,5.3-1.588c.664-.432,1.276-.942,1.911-1.418C3963.782-2501.441,3963.912-2501.548,3964.117-2501.712Z" transform="translate(-3905.707 2510.252)"/>
    <path id="Path_313" data-name="Path 313" d="M3491.108-2644.966a6.248,6.248,0,0,1,6.263,6.263,6.244,6.244,0,0,1-6.264,6.133,6.2,6.2,0,0,1-6.136-6.214A6.213,6.213,0,0,1,3491.108-2644.966Z" transform="translate(-3478.713 2644.966)"/>
  </g>
</svg>
