<svg xmlns="http://www.w3.org/2000/svg" width="67.753" height="67.5" viewBox="0 0 67.753 67.5">
  <g id="noun_Tire_Pressure_137009" data-name="noun_Tire Pressure_137009" transform="translate(-10 -10)">
    <circle id="Ellipse_47" data-name="Ellipse 47" cx="4.134" cy="4.134" r="4.134" transform="translate(39.616 39.616)"/>
    <g id="Group_410" data-name="Group 410" transform="translate(54.634 54.55)">
      <path id="Path_452" data-name="Path 452" d="M76.416,74.138a1.607,1.607,0,0,0-1.6-.422L68.4,68.4l5.316,6.5a1.509,1.509,0,0,0,.422,1.519,1.393,1.393,0,0,0,1.266.422l1.688,2.025,1.772-1.772-1.941-1.6A1.916,1.916,0,0,0,76.416,74.138Z" transform="translate(-63.759 -63.675)" fill="none"/>
      <path id="Path_453" data-name="Path 453" d="M86.019,74.359a11.559,11.559,0,0,0-23.119,0,11.812,11.812,0,0,0,3.206,8.016H82.9A12.149,12.149,0,0,0,86.019,74.359Zm-9.872,3.628-1.687-2.025a1.775,1.775,0,0,1-1.266-.422,1.509,1.509,0,0,1-.422-1.519l-5.316-6.5,6.412,5.316a1.655,1.655,0,0,1,1.6.422,1.469,1.469,0,0,1,.422,1.266l1.941,1.6Z" transform="translate(-62.9 -62.8)" fill="#3d553e"/>
    </g>
    <path id="Path_454" data-name="Path 454" d="M52.272,66.109v-.675a21.892,21.892,0,0,1-8.522,1.6A23.288,23.288,0,1,1,67.037,43.75a23.55,23.55,0,0,1-1.6,8.522h.675a14.071,14.071,0,0,1,9.2,3.459A33.2,33.2,0,0,0,77.5,43.75,33.75,33.75,0,1,0,43.75,77.5a33.2,33.2,0,0,0,11.981-2.194A13.646,13.646,0,0,1,52.272,66.109Z" transform="translate(0 0)"/>
    <path id="Path_455" data-name="Path 455" d="M59.188,58.159c-3.375-2.362-5.147-5.906-4.05-9.112,1.35-4.05,6.581-5.991,11.981-4.472A20.6,20.6,0,0,0,64,35.041c-3.544,4.388-8.944,5.906-12.319,3.459-3.459-2.531-3.628-8.1-.591-12.825A19.672,19.672,0,0,0,46.109,25a24.338,24.338,0,0,0-4.978.591c3.038,4.725,2.869,10.294-.591,12.825s-8.859.928-12.319-3.459A20.6,20.6,0,0,0,25.1,44.491c5.4-1.434,10.716.506,11.981,4.472,1.35,4.05-1.856,8.691-7.087,10.716a21.638,21.638,0,0,0,8.1,5.906c.253-5.569,3.713-10.041,8.016-10.041s7.678,4.472,8.016,10.041a4.523,4.523,0,0,0,.928-.422A13.559,13.559,0,0,1,59.188,58.159ZM46.109,52.844a6.75,6.75,0,1,1,6.75-6.75A6.77,6.77,0,0,1,46.109,52.844Z" transform="translate(-2.359 -2.344)"/>
  </g>
</svg>
