<svg id="checkered-flag" xmlns="http://www.w3.org/2000/svg" width="24.347" height="23.565" viewBox="0 0 24.347 23.565">
  <g id="Group_359" data-name="Group 359" transform="translate(0 0)">
    <path id="Path_432" data-name="Path 432" d="M20.517,10.136a16.055,16.055,0,0,0-4.283.094,13.063,13.063,0,0,1-4.274-.021A5.187,5.187,0,0,1,8.512,7.284L7.878,9,3.732,20.219,0,30.316l1.441.533L4.8,21.762A4.644,4.644,0,0,0,7.18,23.143a13.067,13.067,0,0,0,4.273.021,16.042,16.042,0,0,1,4.283-.094,5.188,5.188,0,0,1,3.83,3l4.78-12.935A5.188,5.188,0,0,0,20.517,10.136Zm.177,7.676A5.115,5.115,0,0,0,18.3,16.635l-.92,2.49A5.117,5.117,0,0,1,19.774,20.3l-.844,2.284a5.113,5.113,0,0,0-2.393-1.178l.844-2.284a12.52,12.52,0,0,0-2.8-.092l-.844,2.284c-.978.079-1.952.191-2.93.27l.844-2.284a12.51,12.51,0,0,1-2.8-.092l-.844,2.284A5.113,5.113,0,0,1,5.62,20.316l.844-2.284A5.115,5.115,0,0,0,8.858,19.21l.92-2.49a5.114,5.114,0,0,1-2.393-1.178l.92-2.49A5.116,5.116,0,0,0,10.7,14.23l.844-2.284a12.511,12.511,0,0,0,2.8.092l-.844,2.284c.978-.079,1.952-.191,2.93-.27l.844-2.284a12.513,12.513,0,0,1,2.8.092l-.844,2.284a5.116,5.116,0,0,1,2.393,1.178Z" transform="translate(0 -7.284)"/>
    <path id="Path_433" data-name="Path 433" d="M217.947,179.968l-.92,2.49c.978-.079,1.952-.191,2.93-.27l.92-2.49C219.9,179.777,218.925,179.889,217.947,179.968Z" transform="translate(-205.373 -170.44)"/>
    <path id="Path_434" data-name="Path 434" d="M184.889,139.215l.92-2.49a12.532,12.532,0,0,1-2.8-.092l-.92,2.49A12.5,12.5,0,0,0,184.889,139.215Z" transform="translate(-172.315 -129.687)"/>
    <path id="Path_435" data-name="Path 435" d="M289.654,132.686l-.92,2.49a12.524,12.524,0,0,1,2.8.092l.92-2.49A12.507,12.507,0,0,0,289.654,132.686Z" transform="translate(-273.23 -125.918)"/>
  </g>
</svg>
