<svg xmlns="http://www.w3.org/2000/svg" width="39" height="39" viewBox="0 0 39 39">
  <g id="ms-hero-technology-icon" transform="translate(-116.721 -182.392)">
    <path id="Path_460" data-name="Path 460" d="M136.221,182.392a19.5,19.5,0,1,0,19.5,19.5A19.5,19.5,0,0,0,136.221,182.392Zm0,36.592a17.093,17.093,0,1,1,17.092-17.092A17.092,17.092,0,0,1,136.221,218.984Z" transform="translate(0 0)" fill="#fccf00"/>
    <path id="Path_461" data-name="Path 461" d="M132.606,187.682a.64.64,0,0,0-.821.381l-2.629,7.222a2.651,2.651,0,0,0-1.762,4.835l-.787,2.161a.64.64,0,1,0,1.2.44l.787-2.163a2.651,2.651,0,0,0,1.762-4.835l2.631-7.22A.64.64,0,0,0,132.606,187.682Z" transform="translate(7.346 4.059)" fill="#fccf00"/>
    <path id="Path_462" data-name="Path 462" d="M145.64,189.188a15.685,15.685,0,0,0-26,15.931.782.782,0,0,0,.982.5l.005,0,0,0,2.332-.757a.368.368,0,0,0,.232-.473c-.092-.25-.174-.505-.248-.762a.366.366,0,0,0-.465-.248l-1.576.512a14.209,14.209,0,0,1-.466-3.615c0-.234.007-.466.018-.7l1.645.174a.367.367,0,0,0,.4-.339c.018-.269.046-.535.082-.8a.364.364,0,0,0-.323-.413l-1.645-.174a13.946,13.946,0,0,1,1.342-4.121l1.429.824a.364.364,0,0,0,.505-.144q.189-.356.4-.7a.366.366,0,0,0-.128-.511l-1.427-.823a14.216,14.216,0,0,1,2.9-3.22l.968,1.333a.366.366,0,0,0,.521.073q.316-.245.649-.472a.366.366,0,0,0,.092-.518l-.97-1.335a14.1,14.1,0,0,1,3.957-1.768l.344,1.617a.365.365,0,0,0,.445.278c.259-.064.521-.119.785-.165a.366.366,0,0,0,.294-.436l-.344-1.619a14.188,14.188,0,0,1,4.337,0l-.344,1.619a.366.366,0,0,0,.294.436c.264.046.527.1.785.165a.365.365,0,0,0,.445-.278l.344-1.617a14.1,14.1,0,0,1,3.957,1.768l-.968,1.335a.364.364,0,0,0,.09.518q.332.226.649.472a.367.367,0,0,0,.521-.073l.968-1.333a14.216,14.216,0,0,1,2.9,3.22l-1.427.823a.366.366,0,0,0-.128.511q.213.34.4.7a.364.364,0,0,0,.505.144l1.429-.824a13.946,13.946,0,0,1,1.342,4.121l-1.645.174a.364.364,0,0,0-.323.413c.035.264.064.53.082.8a.368.368,0,0,0,.4.339l1.645-.174c.011.232.018.465.018.7a14.21,14.21,0,0,1-.466,3.615l-1.576-.512a.366.366,0,0,0-.465.248c-.074.257-.156.512-.246.762a.366.366,0,0,0,.23.473l2.332.757h0l.007,0a.752.752,0,0,0,.239.039.782.782,0,0,0,.743-.539,15.723,15.723,0,0,0-3.828-15.932Z" transform="translate(1.667 1.706)" fill="#fccf00"/>
    <path id="Path_463" data-name="Path 463" d="M134.959,197.731H125.2a.529.529,0,0,0-.528.528V200.5a.527.527,0,0,0,.528.528h9.762a.527.527,0,0,0,.528-.528v-2.241A.529.529,0,0,0,134.959,197.731Zm-8.007,1.447c0,.076-.092.138-.206.138h-.826c-.113,0-.206-.062-.206-.138v-.762c0-.076.092-.14.206-.14h.826c.113,0,.206.064.206.14Zm1.872,0c0,.076-.092.138-.206.138h-.826c-.113,0-.206-.062-.206-.138v-.762c0-.076.092-.14.206-.14h.826c.113,0,.206.064.206.14Zm1.872,0c0,.076-.092.138-.206.138h-.826c-.113,0-.206-.062-.206-.138v-.762c0-.076.092-.14.206-.14h.826c.113,0,.206.064.206.14Zm1.872,0c0,.076-.092.138-.206.138h-.826c-.114,0-.206-.062-.206-.138v-.762c0-.076.092-.14.206-.14h.826c.113,0,.206.064.206.14Zm1.872,0c0,.076-.092.138-.206.138h-.826c-.113,0-.206-.062-.206-.138v-.762c0-.076.092-.14.206-.14h.826c.113,0,.206.064.206.14Z" transform="translate(6.143 11.858)" fill="#fccf00"/>
  </g>
</svg>
