<svg xmlns="http://www.w3.org/2000/svg" width="33.355" height="35.921" viewBox="0 0 33.355 35.921">
  <g id="calendar-page-empty" transform="translate(-18.276)">
    <path id="Path_73" data-name="Path 73" d="M50.869,5.893a2.465,2.465,0,0,0-1.8-.762H46.5V3.207A3.089,3.089,0,0,0,45.558.942,3.089,3.089,0,0,0,43.292,0H42.01a3.088,3.088,0,0,0-2.265.942A3.088,3.088,0,0,0,38.8,3.207V5.132h-7.7V3.207A3.088,3.088,0,0,0,30.163.942,3.088,3.088,0,0,0,27.9,0H26.615A3.089,3.089,0,0,0,24.35.942a3.089,3.089,0,0,0-.942,2.265V5.132H20.842a2.466,2.466,0,0,0-1.8.762,2.466,2.466,0,0,0-.762,1.8V33.356a2.6,2.6,0,0,0,2.566,2.566H49.065a2.6,2.6,0,0,0,2.566-2.566V7.7A2.466,2.466,0,0,0,50.869,5.893Zm-9.5-2.686a.616.616,0,0,1,.641-.641h1.283a.617.617,0,0,1,.641.641V8.98a.617.617,0,0,1-.641.641H42.009a.616.616,0,0,1-.641-.641Zm-15.395,0a.617.617,0,0,1,.641-.641H27.9a.617.617,0,0,1,.641.641V8.98a.617.617,0,0,1-.641.641H26.615a.617.617,0,0,1-.641-.641ZM49.065,33.355H20.842V12.829H49.065Z" fill="#fccf00"/>
  </g>
</svg>
