<svg xmlns="http://www.w3.org/2000/svg" width="13.411" height="36.411" viewBox="0 0 13.411 36.411">
  <g id="top-gallery-icons" transform="translate(2049 -2589)">
    <path id="play-button" d="M6.706,0a6.706,6.706,0,1,0,6.706,6.706A6.713,6.713,0,0,0,6.706,0Zm3.479,6.89L5.267,10.243a.224.224,0,0,1-.126.039.224.224,0,0,1-.224-.224V3.353a.224.224,0,0,1,.35-.185l4.917,3.353a.223.223,0,0,1,0,.369Z" transform="translate(-2049 2589)" fill="#fccf00"/>
    <path id="play-button-2" data-name="play-button" d="M6.706,0a6.706,6.706,0,1,0,6.706,6.706A6.713,6.713,0,0,0,6.706,0Zm3.479,6.89L5.267,10.243a.224.224,0,0,1-.126.039.224.224,0,0,1-.224-.224V3.353a.224.224,0,0,1,.35-.185l4.917,3.353a.223.223,0,0,1,0,.369Z" transform="translate(-2049 2612)" fill="#fff"/>
  </g>
</svg>
