<svg xmlns="http://www.w3.org/2000/svg" width="12.691" height="36.844" viewBox="0 0 12.691 36.844">
  <g id="top-social-icons" transform="translate(1961.917 -2588)">
    <g id="share" transform="translate(-1961.917 2588)">
      <path id="Path_468" data-name="Path 468" d="M318.417,17.875A1.875,1.875,0,1,1,316.543,16,1.875,1.875,0,0,1,318.417,17.875Zm0,0" transform="translate(-306.159 -15.567)" fill="#fccf00"/>
      <path id="Path_469" data-name="Path 469" d="M300.975,4.615a2.307,2.307,0,1,1,2.307-2.307A2.31,2.31,0,0,1,300.975,4.615Zm0-3.75a1.442,1.442,0,1,0,1.442,1.442A1.444,1.444,0,0,0,300.975.865Zm0,0" transform="translate(-290.592)" fill="#fccf00"/>
      <path id="Path_470" data-name="Path 470" d="M318.417,359.207a1.875,1.875,0,1,1-1.875-1.875A1.875,1.875,0,0,1,318.417,359.207Zm0,0" transform="translate(-306.159 -347.67)" fill="#fccf00"/>
      <path id="Path_471" data-name="Path 471" d="M300.975,345.947a2.307,2.307,0,1,1,2.307-2.307A2.31,2.31,0,0,1,300.975,345.947Zm0-3.75a1.442,1.442,0,1,0,1.442,1.442A1.444,1.444,0,0,0,300.975,342.2Zm0,0" transform="translate(-290.592 -332.102)" fill="#fccf00"/>
      <path id="Path_472" data-name="Path 472" d="M19.75,188.543a1.875,1.875,0,1,1-1.875-1.875A1.875,1.875,0,0,1,19.75,188.543Zm0,0" transform="translate(-15.567 -181.62)" fill="#fccf00"/>
      <path id="Path_473" data-name="Path 473" d="M2.307,175.283a2.307,2.307,0,1,1,2.307-2.307,2.31,2.31,0,0,1-2.307,2.307Zm0-3.749a1.442,1.442,0,1,0,1.442,1.442,1.444,1.444,0,0,0-1.442-1.442Zm0,0" transform="translate(0 -166.053)" fill="#fccf00"/>
      <path id="Path_474" data-name="Path 474" d="M114.926,94.42a.577.577,0,0,1-.286-1.078l5.352-3.051a.577.577,0,1,1,.571,1l-5.353,3.051A.573.573,0,0,1,114.926,94.42Zm0,0" transform="translate(-111.256 -87.775)" fill="#fccf00"/>
      <path id="Path_475" data-name="Path 475" d="M120.3,270.424a.573.573,0,0,1-.285-.076l-5.353-3.052a.577.577,0,0,1,.571-1l5.353,3.051a.577.577,0,0,1-.286,1.078Zm0,0" transform="translate(-111.279 -259.02)" fill="#fccf00"/>
    </g>
    <g id="share-2" data-name="share" transform="translate(-1961.917 2611)">
      <path id="Path_468-2" data-name="Path 468" d="M318.417,17.875A1.875,1.875,0,1,1,316.543,16,1.875,1.875,0,0,1,318.417,17.875Zm0,0" transform="translate(-306.159 -15.567)" fill="#fff"/>
      <path id="Path_469-2" data-name="Path 469" d="M300.975,4.615a2.307,2.307,0,1,1,2.307-2.307A2.31,2.31,0,0,1,300.975,4.615Zm0-3.75a1.442,1.442,0,1,0,1.442,1.442A1.444,1.444,0,0,0,300.975.865Zm0,0" transform="translate(-290.592)" fill="#fff"/>
      <path id="Path_470-2" data-name="Path 470" d="M318.417,359.207a1.875,1.875,0,1,1-1.875-1.875A1.875,1.875,0,0,1,318.417,359.207Zm0,0" transform="translate(-306.159 -347.67)" fill="#fff"/>
      <path id="Path_471-2" data-name="Path 471" d="M300.975,345.947a2.307,2.307,0,1,1,2.307-2.307A2.31,2.31,0,0,1,300.975,345.947Zm0-3.75a1.442,1.442,0,1,0,1.442,1.442A1.444,1.444,0,0,0,300.975,342.2Zm0,0" transform="translate(-290.592 -332.102)" fill="#fff"/>
      <path id="Path_472-2" data-name="Path 472" d="M19.75,188.543a1.875,1.875,0,1,1-1.875-1.875A1.875,1.875,0,0,1,19.75,188.543Zm0,0" transform="translate(-15.567 -181.62)" fill="#fff"/>
      <path id="Path_473-2" data-name="Path 473" d="M2.307,175.283a2.307,2.307,0,1,1,2.307-2.307,2.31,2.31,0,0,1-2.307,2.307Zm0-3.749a1.442,1.442,0,1,0,1.442,1.442,1.444,1.444,0,0,0-1.442-1.442Zm0,0" transform="translate(0 -166.053)" fill="#fff"/>
      <path id="Path_474-2" data-name="Path 474" d="M114.926,94.42a.577.577,0,0,1-.286-1.078l5.352-3.051a.577.577,0,1,1,.571,1l-5.353,3.051A.573.573,0,0,1,114.926,94.42Zm0,0" transform="translate(-111.256 -87.775)" fill="#fff"/>
      <path id="Path_475-2" data-name="Path 475" d="M120.3,270.424a.573.573,0,0,1-.285-.076l-5.353-3.052a.577.577,0,0,1,.571-1l5.353,3.051a.577.577,0,0,1-.286,1.078Zm0,0" transform="translate(-111.279 -259.02)" fill="#fff"/>
    </g>
  </g>
</svg>
