<svg xmlns="http://www.w3.org/2000/svg" width="21" height="11.625" viewBox="0 0 21 11.625">
  <g id="truck" transform="translate(0)">
    <path id="Path_581" data-name="Path 581" d="M3599.945,3192.758V3183.5h-13.826v8.149l-.438-.343V3188a.094.094,0,0,0-.073-.091l-.338-.08v-.718a.506.506,0,0,0-.461-.5h.079c.168,0,.3-.284.3-.284a7.15,7.15,0,0,0,.063-1.911c-4.1-.01-4.548,2.195-4.548,2.195h.01l-.062.1a4.564,4.564,0,0,0-1.392,3.272l0,.01-.006,1.061a.112.112,0,0,0-.036.078v1.627a.124.124,0,0,0,.032.078l0,.386h-.021c-.108,0-.233.077-.233.184v.017c0,.107.125.178.233.178h2.64a.179.179,0,0,0,.193-.178v-.017a.118.118,0,0,0,0-.031c.027,0,.055.009.082.009h3.863v.163h2.135v-.163h2.218v.163h1.78v-.163h2.738v-.895h1.889v.521a.248.248,0,0,0-.137.231v.032a.277.277,0,0,0,.284.246h1.55a.222.222,0,0,0,.22-.246v-.032a.238.238,0,0,0-.22-.264h0v-.488h.43l.092.315c0,.011-.029.008-.029.02v.584c0,.046.08.083.127.083h.875c.046,0,.039-.037.039-.083v-.584A.087.087,0,0,0,3599.945,3192.758Zm-15.192-6.133,0,0h.026Zm.736,4.63h-.219v-3.229l.219.052Z" transform="translate(-3579 -3183.5)"/>
    <g id="Group_373" data-name="Group 373" transform="translate(3.272 8.431)">
      <path id="Path_582" data-name="Path 582" d="M3707.494,3502.187a1.425,1.425,0,1,1-1.425-1.425A1.425,1.425,0,0,1,3707.494,3502.187Z" transform="translate(-3704.472 -3500.59)" fill="#333"/>
      <path id="Path_583" data-name="Path 583" d="M3699.9,3497.61a1.6,1.6,0,1,1,1.6-1.6A1.6,1.6,0,0,1,3699.9,3497.61Zm0-2.85a1.253,1.253,0,1,0,1.253,1.253A1.255,1.255,0,0,0,3699.9,3494.76Z" transform="translate(-3698.298 -3494.416)" fill="#fff"/>
    </g>
    <path id="Path_584" data-name="Path 584" d="M3707.494,3502.187a1.425,1.425,0,1,1-1.425-1.425A1.425,1.425,0,0,1,3707.494,3502.187Z" transform="translate(-3701.198 -3492.159)"/>
    <path id="Path_585" data-name="Path 585" d="M3724.911,3520.1a.926.926,0,1,1-.926-.926A.926.926,0,0,1,3724.911,3520.1Z" transform="translate(-3719.111 -3510.075)" fill="#fff"/>
    <path id="Path_586" data-name="Path 586" d="M3747.77,3543.618a.271.271,0,1,1-.271-.271A.271.271,0,0,1,3747.77,3543.618Z" transform="translate(-3742.622 -3533.591)" fill="#333"/>
    <g id="Group_374" data-name="Group 374" transform="translate(14.299 8.431)">
      <path id="Path_587" data-name="Path 587" d="M4109.556,3502.187a1.425,1.425,0,1,1-1.425-1.425A1.425,1.425,0,0,1,4109.556,3502.187Z" transform="translate(-4106.533 -3500.59)" fill="#333"/>
      <path id="Path_588" data-name="Path 588" d="M4101.956,3497.61a1.6,1.6,0,1,1,1.6-1.6A1.6,1.6,0,0,1,4101.956,3497.61Zm0-2.85a1.253,1.253,0,1,0,1.253,1.253A1.254,1.254,0,0,0,4101.956,3494.76Z" transform="translate(-4100.359 -3494.416)" fill="#fff"/>
    </g>
    <path id="Path_589" data-name="Path 589" d="M4109.556,3502.187a1.425,1.425,0,1,1-1.425-1.425A1.425,1.425,0,0,1,4109.556,3502.187Z" transform="translate(-4092.235 -3492.159)"/>
    <path id="Path_590" data-name="Path 590" d="M4126.975,3520.1a.926.926,0,1,1-.926-.926A.926.926,0,0,1,4126.975,3520.1Z" transform="translate(-4110.157 -3510.075)" fill="#fff"/>
    <path id="Path_591" data-name="Path 591" d="M4149.829,3543.618a.271.271,0,1,1-.271-.271A.27.27,0,0,1,4149.829,3543.618Z" transform="translate(-4133.67 -3533.591)" fill="#333"/>
    <path id="Path_592" data-name="Path 592" d="M3633.58,3313.5v1.978s-.391.62-4.025,1.078c0,0,.164-2.242,1.356-3.055Z" transform="translate(-3628.184 -3309.975)" fill="#fff"/>
    <rect id="Rectangle_265" data-name="Rectangle 265" width="0.678" height="0.352" transform="translate(4.711 7.538)" fill="#fff"/>
    <rect id="Rectangle_266" data-name="Rectangle 266" width="1.166" height="0.407" rx="0.203" transform="translate(0.895 9.138)" fill="#fff"/>
    <rect id="Rectangle_267" data-name="Rectangle 267" width="0.597" height="0.217" rx="0.108" transform="translate(7.34 0.136)" fill="#fff"/>
    <rect id="Rectangle_268" data-name="Rectangle 268" width="0.597" height="0.217" rx="0.108" transform="translate(20.159 0.136)" fill="#fff"/>
  </g>
</svg>
