<svg xmlns="http://www.w3.org/2000/svg" width="85.466" height="64.345" viewBox="0 0 85.466 64.345">
  <g id="white-smarttech-icon" transform="translate(-2691.539 -253.737)">
    <path id="Path_306" data-name="Path 306" d="M2741.412,254.042a26.681,26.681,0,0,1,5.33,1.37,25.232,25.232,0,0,1,2.859,1.269,30.81,30.81,0,0,1,6.977,5.089c1.458,1.383,1.644,3.5.5,4.59-1.335,1.277-3.2,1.155-4.7-.359a21.1,21.1,0,0,0-18.59-5.834,21.328,21.328,0,0,0-11.461,6.077,19.612,19.612,0,0,0-5.348,10.018,25.414,25.414,0,0,0-.465,5.591,2.811,2.811,0,0,1-1.578,2.747c-1.438.549-3.438.172-4.958.321a13.861,13.861,0,0,0-12.486,13.1q-.01.241-.012.482a13.648,13.648,0,0,0,9.67,13.228,20.675,20.675,0,0,0,6.82.64c1.619-.068,3.66-.222,4.471,1.528a2.722,2.722,0,0,1-.411,2.868c-1.653,1.889-4.654,1.214-6.83,1.127a20.709,20.709,0,0,1-11.807-3.923,19.658,19.658,0,0,1-7.541-19.208,19.109,19.109,0,0,1,.75-2.868,19.626,19.626,0,0,1,8.464-10.357,18.321,18.321,0,0,1,7.7-2.594,2.851,2.851,0,0,0,1.268-.3,2.213,2.213,0,0,0,.846-1.679,25.927,25.927,0,0,1,8.274-16.035,30.7,30.7,0,0,1,6-4.2A26.208,26.208,0,0,1,2741.412,254.042Z" transform="translate(0 0)" fill="#fff"/>
    <path id="Path_307" data-name="Path 307" d="M2832.4,394.591c4.154.25,8.312.042,12.467.109.607.01.873-.37,1.2-.781a4.709,4.709,0,0,1,6.115-1.28,4.66,4.66,0,0,1-1.743,8.706,5.076,5.076,0,0,1-3.753-1.045,2.133,2.133,0,0,0-.521-.351,1.761,1.761,0,0,0-.647-.081c-3.812,0-7.626.014-11.438-.024a3.3,3.3,0,0,0-2.516,1.177q-2.952,3.028-5.921,6.04l-2.967,3.013c-.859.872-1.451,1.7-2.722,1.887a58.962,58.962,0,0,1-6.525.148,4.918,4.918,0,0,0-2.275.513,10.123,10.123,0,0,1-1.979,1.212,4.7,4.7,0,0,1-4.521-1.011,4.735,4.735,0,0,1,3.993-8.209,6.228,6.228,0,0,1,1.963.772c.413.241.919,1.209,1.338,1.206,2.585-.026,5.43.678,7.6-1.146a12.877,12.877,0,0,0,1.237-1.277c.646-.716,1.33-1.4,2.012-2.08l5.536-5.525a6.192,6.192,0,0,1,3.143-1.969Z" transform="translate(-77.557 -96.143)" fill="#fff"/>
    <path id="Path_308" data-name="Path 308" d="M2820.808,315.288a3.176,3.176,0,0,0,.489.382,3.826,3.826,0,0,0,1.9.147c.9,0,1.793.013,2.69.018,1.793.01,3.586.011,5.378-.041a4.9,4.9,0,0,1,3.8,1.561c2.452,2.428,4.943,4.817,7.415,7.225a3.744,3.744,0,0,0,5.259.173,4.862,4.862,0,0,1,6.513.22,5.035,5.035,0,0,1,.44,6.167,4.64,4.64,0,0,1-5.826,1.528c-.649-.342-1.214-.84-1.893-1.117-1.407-.574-2.949-.118-4.412-.223a5.181,5.181,0,0,1-3.446-1.812l-6.2-6.33a4.366,4.366,0,0,0-4.022-1.923l-3.851.025a9.56,9.56,0,0,0-3.483.306c-.888.354-1.589,1.054-2.457,1.45a4.432,4.432,0,0,1-4.738-.884,4.712,4.712,0,1,1,6.151-7.14C2820.614,315.108,2820.71,315.2,2820.808,315.288Z" transform="translate(-84.31 -41.821)" fill="#fff"/>
    <path id="Path_309" data-name="Path 309" d="M2826.066,375.216a4.739,4.739,0,0,1-1.75,1.637,4.91,4.91,0,0,1-3.613.368c-1.59-.5-2.291-1.95-4.125-1.925-.618.008-1.235.1-1.854.08-.547-.015-1.09-.113-1.637-.1-1.117.023-1.68.719-2.512,1.341a4.287,4.287,0,0,1-3.445.66,4.777,4.777,0,1,1,2.95-9.005c1.1.508,1.587,1.5,2.877,1.5l3.948-.01a4.189,4.189,0,0,0,1.176-.115c.92-.271,1.521-1.089,2.379-1.472a4.665,4.665,0,0,1,3.332.033,4.877,4.877,0,0,1,3.04,4.156A4.812,4.812,0,0,1,2826.066,375.216Z" transform="translate(-77.688 -79.312)" fill="#fff"/>
    <path id="Path_310" data-name="Path 310" d="M2926.014,438.077a4.668,4.668,0,1,1-9.332-.229,4.567,4.567,0,0,1,4.759-4.612A4.487,4.487,0,0,1,2926.014,438.077Z" transform="translate(-156.534 -124.8)" fill="#fff"/>
  </g>
</svg>
