<svg xmlns="http://www.w3.org/2000/svg" width="196.528" height="136.269" viewBox="0 0 196.528 136.269">
  <path id="giti-elephant-graphic" d="M393.861,80.972a4.449,4.449,0,0,1-6.21,1.623,4.773,4.773,0,0,1-2.578-6.046,4.46,4.46,0,0,1,6.2-1.623,4.773,4.773,0,0,1,2.583,6.046m-.652-29.761a47.012,47.012,0,0,0-9.413-1.877A83.651,83.651,0,0,0,353.743,38.9c-3.633.106-3.579,7.679-3.579,10.606s2.413,28.966,5.945,35.987a6.73,6.73,0,0,0,4.317,3.606,25.921,25.921,0,0,0,6.523.721s4.874.573,8.639.636,6.507.08,6.523.08h.456l.488,1.93c2.736,11.306,6.719,43.327,6.788,44.239a2.927,2.927,0,0,1-2.429,3.267h-3.367l-.292-1.442c-1.591-9.09-2.9-28.191-6.141-41.757-2.89,0-14.377-.573-14.377-.573a19.2,19.2,0,0,1-7.387-1.549,11.237,11.237,0,0,1-6.024-6.894,143.471,143.471,0,0,1-5.68-38.236,154.514,154.514,0,0,0-34.5,4.842c-3.516,1.1-6.21,2.084-6.21,2.084a109.016,109.016,0,0,0-51.9,38.8c-21.3,27.258-29.135,47.007-28.9,47.315a9.463,9.463,0,0,0,2.466.18H228.2c-7.684,15.087-14.849,31.071-15.262,32.349h4.561c3.033,0,33.76.08,36.321.08h1.7c.62-1.034.737-1.347,1.294-2.3,12.685-21.213,34.2-39.386,53.153-39.386,24.257,0,43.226,11.248,43.889,39.673.042,1.676.042,1.925.042,1.925h33.023s46.222-111.838,6.295-123.913" transform="translate(-212.934 -38.902)" fill="#231916"/>
</svg>
