<svg xmlns="http://www.w3.org/2000/svg" width="37.059" height="25.706" viewBox="0 0 37.059 25.706">
  <g id="Group_18" data-name="Group 18" transform="translate(-212.933 -38.902)">
    <path id="Path_10" data-name="Path 10" d="M247.051,46.835a.839.839,0,0,1-1.171.306.9.9,0,0,1-.486-1.14.841.841,0,0,1,1.17-.306.9.9,0,0,1,.487,1.14m-.123-5.612a8.866,8.866,0,0,0-1.775-.354,15.774,15.774,0,0,0-5.667-1.967c-.685.02-.675,1.448-.675,2s.455,5.462,1.121,6.786a1.269,1.269,0,0,0,.814.68,4.888,4.888,0,0,0,1.23.136s.919.108,1.629.12,1.227.015,1.23.015h.086l.092.364c.516,2.132,1.267,8.17,1.28,8.342a.552.552,0,0,1-.458.616H245.2l-.055-.272c-.3-1.714-.547-5.316-1.158-7.874-.545,0-2.711-.108-2.711-.108a3.621,3.621,0,0,1-1.393-.292,2.119,2.119,0,0,1-1.136-1.3,27.055,27.055,0,0,1-1.071-7.21,29.137,29.137,0,0,0-6.505.913c-.663.208-1.171.393-1.171.393a20.557,20.557,0,0,0-9.786,7.316c-4.017,5.14-5.494,8.864-5.449,8.922a1.785,1.785,0,0,0,.465.034h.582c-1.449,2.845-2.8,5.859-2.878,6.1h.86c.572,0,6.366.015,6.849.015h.321c.117-.195.139-.254.244-.433,2.392-4,6.449-7.427,10.023-7.427,4.574,0,8.151,2.121,8.276,7.481.008.316.008.363.008.363l6.227,0s8.716-21.089,1.187-23.366" transform="translate(0)" fill="#231916"/>
  </g>
</svg>
