<svg xmlns="http://www.w3.org/2000/svg" width="158.388" height="50.501" viewBox="0 0 158.388 50.501">
  <g id="Group_326" data-name="Group 326" transform="translate(-437.516 -1120.5)">
    <g id="Group_325" data-name="Group 325" transform="translate(437.516 1135.653)">
      <path id="Path_397" data-name="Path 397" d="M20,289.163v-.026a4.859,4.859,0,0,1,4.989-4.937,4.985,4.985,0,0,1,3.775,1.478l-1.346,1.531a3.549,3.549,0,0,0-2.429-1.082,2.839,2.839,0,0,0-2.772,2.983v.026a2.846,2.846,0,0,0,2.772,3.009,3.515,3.515,0,0,0,2.508-1.109l1.346,1.346a4.875,4.875,0,0,1-3.907,1.716A4.863,4.863,0,0,1,20,289.163" transform="translate(-20 -284.2)" fill="#6a747b"/>
      <path id="Path_398" data-name="Path 398" d="M55.3,289.163v-.026a5.084,5.084,0,0,1,10.163-.026v.026a5.084,5.084,0,0,1-10.163.026m7.946,0v-.026a2.892,2.892,0,1,0-5.781-.026v.026a2.919,2.919,0,0,0,2.9,3.009,2.875,2.875,0,0,0,2.877-2.983" transform="translate(-45.981 -284.2)" fill="#6a747b"/>
      <path id="Path_399" data-name="Path 399" d="M99,284.8h1.927l4.488,5.887V284.8h2.059v9.556h-1.769l-4.646-6.072v6.072H99Z" transform="translate(-78.146 -284.642)" fill="#6a747b"/>
      <path id="Path_400" data-name="Path 400" d="M137.5,292.589l1.241-1.478a4.408,4.408,0,0,0,2.851,1.162c.871,0,1.373-.343,1.373-.9v-.026c0-.528-.317-.792-1.927-1.214-1.927-.5-3.168-1.03-3.168-2.93v-.026c0-1.742,1.4-2.878,3.353-2.878a5.373,5.373,0,0,1,3.537,1.214l-1.082,1.584a4.571,4.571,0,0,0-2.481-.95c-.792,0-1.241.37-1.241.818v.026c0,.634.4.845,2.059,1.267,1.927.5,3.036,1.214,3.036,2.878v.026c0,1.9-1.452,2.957-3.511,2.957a6.034,6.034,0,0,1-4.039-1.531" transform="translate(-106.482 -284.274)" fill="#6a747b"/>
      <path id="Path_401" data-name="Path 401" d="M173.1,284.8h7.207v1.874h-5.121v1.953h4.488v1.848h-4.488v2.006h5.174v1.874H173.1Z" transform="translate(-132.685 -284.642)" fill="#6a747b"/>
      <path id="Path_402" data-name="Path 402" d="M208.8,284.8h4.356a3.723,3.723,0,0,1,2.772.977,3.033,3.033,0,0,1,.818,2.191v.026a2.989,2.989,0,0,1-2.033,2.957l2.323,3.405h-2.455l-2.033-3.062h-1.637v3.062H208.8Zm4.25,4.646c1.029,0,1.61-.554,1.61-1.346v-.026c0-.9-.634-1.373-1.663-1.373h-2.085v2.745h2.138Z" transform="translate(-158.961 -284.642)" fill="#6a747b"/>
      <path id="Path_403" data-name="Path 403" d="M241.9,284.8h2.323l2.508,6.732,2.481-6.732h2.27l-3.854,9.636h-1.874Z" transform="translate(-183.323 -284.642)" fill="#6a747b"/>
      <path id="Path_404" data-name="Path 404" d="M278.992,284.6h1.927l4.092,9.609h-2.191l-.871-2.138h-4.039l-.871,2.138H274.9Zm2.191,5.623-1.267-3.089-1.267,3.089Z" transform="translate(-207.611 -284.494)" fill="#6a747b"/>
      <path id="Path_405" data-name="Path 405" d="M313.9,286.754H311V284.8h7.919v1.954h-2.9v7.6H313.9Z" transform="translate(-234.182 -284.642)" fill="#6a747b"/>
      <rect id="Rectangle_275" data-name="Rectangle 275" width="2.112" height="9.556" transform="translate(86.321 0.158)" fill="#6a747b"/>
      <path id="Path_406" data-name="Path 406" d="M361.3,289.163v-.026a5.084,5.084,0,0,1,10.163-.026v.026a5.084,5.084,0,0,1-10.163.026m7.972,0v-.026a2.919,2.919,0,0,0-2.9-3.01,2.875,2.875,0,0,0-2.877,2.983v.026a2.892,2.892,0,1,0,5.781.026" transform="translate(-271.204 -284.2)" fill="#6a747b"/>
      <path id="Path_407" data-name="Path 407" d="M406.3,284.8h1.953l4.461,5.887V284.8H414.8v9.556h-1.8l-4.62-6.072v6.072H406.3Z" transform="translate(-304.325 -284.642)" fill="#6a747b"/>
      <rect id="Rectangle_276" data-name="Rectangle 276" width="1.056" height="9.292" transform="translate(1.32 13.516)" fill="#6a747b"/>
      <path id="Path_408" data-name="Path 408" d="M38.6,335.4h1l5.834,7.445V335.4h1.03v9.292h-.845l-5.992-7.629v7.629H38.6Z" transform="translate(-33.69 -321.884)" fill="#6a747b"/>
      <path id="Path_409" data-name="Path 409" d="M78.315,336.377H75.2V335.4h7.312v.977H79.4v8.316H78.315Z" transform="translate(-60.628 -321.884)" fill="#6a747b"/>
      <path id="Path_410" data-name="Path 410" d="M109.7,335.4h6.705v.95h-5.649v3.168h5.068v.977h-5.068v3.247h5.728v.95H109.7Z" transform="translate(-86.021 -321.884)" fill="#6a747b"/>
      <path id="Path_411" data-name="Path 411" d="M142.7,335.4h3.986a3.676,3.676,0,0,1,2.64.924,2.575,2.575,0,0,1,.713,1.822v.026a2.732,2.732,0,0,1-2.534,2.719l2.851,3.8h-1.241l-2.693-3.617h-2.666v3.617H142.7Zm3.907,4.752c1.4,0,2.4-.713,2.4-1.927V338.2c0-1.135-.871-1.822-2.376-1.822h-2.877v3.775Z" transform="translate(-110.31 -321.884)" fill="#6a747b"/>
      <path id="Path_412" data-name="Path 412" d="M178.5,335.4h.977l5.86,7.445V335.4h1.03v9.292h-.845l-6.019-7.629v7.629h-1Z" transform="translate(-136.659 -321.884)" fill="#6a747b"/>
      <path id="Path_413" data-name="Path 413" d="M218.676,335.1h.977l4.224,9.372h-1.135l-1.082-2.455h-5.068l-1.109,2.455H214.4Zm2.587,5.966-2.112-4.752-2.112,4.752Z" transform="translate(-163.082 -321.663)" fill="#6a747b"/>
      <path id="Path_414" data-name="Path 414" d="M252.715,336.377H249.6V335.4h7.312v.977H253.8v8.316h-1.082Z" transform="translate(-188.99 -321.884)" fill="#6a747b"/>
      <rect id="Rectangle_277" data-name="Rectangle 277" width="1.056" height="9.292" transform="translate(69.796 13.516)" fill="#6a747b"/>
      <path id="Path_415" data-name="Path 415" d="M296.5,339.631V339.6a4.739,4.739,0,1,1,9.477-.026v.026a4.739,4.739,0,1,1-9.477.026m8.395,0V339.6a3.682,3.682,0,0,0-3.669-3.828,3.638,3.638,0,0,0-3.643,3.8v.026a3.682,3.682,0,0,0,3.669,3.828,3.638,3.638,0,0,0,3.643-3.8" transform="translate(-223.51 -321.442)" fill="#6a747b"/>
      <path id="Path_416" data-name="Path 416" d="M340.2,335.4h.977l5.86,7.445V335.4h1.03v9.292h-.845l-5.992-7.629v7.629H340.2Z" transform="translate(-255.674 -321.884)" fill="#6a747b"/>
      <path id="Path_417" data-name="Path 417" d="M380.45,335.1h.977l4.25,9.372h-1.135l-1.082-2.455h-5.068l-1.109,2.455H376.2Zm2.613,5.966-2.112-4.752-2.138,4.752Z" transform="translate(-282.17 -321.663)" fill="#6a747b"/>
      <path id="Path_418" data-name="Path 418" d="M418.4,335.4h1.056v8.316h5.227v.977H418.4Z" transform="translate(-313.23 -321.884)" fill="#6a747b"/>
    </g>
    <path id="Path_419" data-name="Path 419" d="M473.687,261.092a20.075,20.075,0,1,1,14.2,5.887h0a20.074,20.074,0,0,1-14.2-5.887m5.491-22.941a12.363,12.363,0,1,0,8.738-3.617,12.264,12.264,0,0,0-8.738,3.617" transform="translate(87.927 893.7)" fill="#0096d6"/>
    <rect id="Rectangle_278" data-name="Rectangle 278" width="29.751" height="7.735" transform="translate(560.953 1163.267)" fill="#49aa42"/>
  </g>
</svg>
