<svg xmlns="http://www.w3.org/2000/svg" width="78" height="103.774" viewBox="0 0 78 103.774">
  <g id="leaf" transform="translate(-62.605)">
    <path id="Path_383" data-name="Path 383" d="M119.66,0s9.168,22.428-30.124,37.493c-21.35,8.184-37.748,29.159-18.169,61.561,1.621-14.483,8.574-46.416,38.471-53.7,0,0-27.826,10.4-30.284,57.5,14.3,2.007,47.832,3.356,57.788-25.744C150.489,38.662,119.66,0,119.66,0Z" transform="translate(0 0)" fill="#3a7f0d"/>
    <path id="Path_384" data-name="Path 384" d="M79.568,102.659a88.772,88.772,0,0,0,55.488-74.37A113.255,113.255,0,0,0,119.66,0s9.168,22.428-30.124,37.493c-21.35,8.184-37.748,29.159-18.169,61.561,1.621-14.483,8.574-46.416,38.471-53.7C109.837,45.351,82.094,55.73,79.568,102.659Z" transform="translate(0 0)" fill="#49a010"/>
    <circle id="Ellipse_231" data-name="Ellipse 231" cx="2.838" cy="2.838" r="2.838" transform="translate(65.501 32.566)" fill="#3a7f0d"/>
    <g id="Group_322" data-name="Group 322" transform="translate(70.366 8.244)">
      <circle id="Ellipse_232" data-name="Ellipse 232" cx="2.027" cy="2.027" r="2.027" transform="translate(4.864 22.295)" fill="#49a010"/>
      <circle id="Ellipse_233" data-name="Ellipse 233" cx="5.067" cy="5.067" r="5.067" fill="#49a010"/>
      <circle id="Ellipse_234" data-name="Ellipse 234" cx="1.621" cy="1.621" r="1.621" transform="translate(19.052 14.999)" fill="#49a010"/>
      <circle id="Ellipse_235" data-name="Ellipse 235" cx="4.662" cy="4.662" r="4.662" transform="translate(29.593 2.837)" fill="#49a010"/>
    </g>
  </g>
</svg>
