<svg xmlns="http://www.w3.org/2000/svg" width="247.03" height="169.455" viewBox="0 0 247.03 169.455">
  <g id="Group_453" data-name="Group 453" transform="translate(2.427 1.5)">
    <path id="Path_3" data-name="Path 3" d="M331.08,18.312C321.911,15.49,320.5,16.2,319.795,16.2,301.457,5.616,284.529,3.5,283.118,3.5c-4.232,0-4.232,9.169-4.232,13.4,0,3.527,2.821,35.971,7.053,44.435a8.76,8.76,0,0,0,5.643,4.232c2.116.705,4.937.705,7.758.705,0,0,6.348.705,10.58.705h8.464l.705,2.116c3.527,14.106,8.464,53.6,8.464,54.309,0,2.821-2.116,4.232-2.821,4.232H320.5l-.705-2.116c-2.116-11.285-3.527-34.561-7.758-51.488-3.527,0-17.633-.705-17.633-.705-3.527-.705-6.348-.705-9.169-2.116a15.412,15.412,0,0,1-7.759-8.464c-4.232-14.106-7.758-41.614-7.053-47.256-11.285,1.411-26.8.705-42.319,5.643-4.232,1.411-7.758,2.821-7.758,2.821-18.338,7.053-40.2,16.928-64.184,47.962-26.1,33.855-35.971,57.836-35.266,58.541h6.348c-9.169,18.338-18.338,38.087-19.044,39.5h52.194l1.411-2.821c15.517-26.1,42.319-48.667,65.594-48.667,29.623,0,52.9,14.106,54.309,48.667v2.116h40.908c.705,1.411,57.836-136.126,8.464-150.938" transform="translate(-108.2 -3.5)" fill="#dcdcdc" stroke="#000" stroke-linecap="square" stroke-width="3" stroke-dasharray="20 10"/>
  </g>
</svg>
