<svg xmlns="http://www.w3.org/2000/svg" width="54.128" height="56.332" viewBox="0 0 54.128 56.332">
  <g id="employee-health-icon" transform="translate(-1737.226 -209.213)">
    <rect id="Rectangle_175" data-name="Rectangle 175" width="16.672" height="6.47" transform="translate(1769.392 259.075)" fill="#76c208"/>
    <g id="Group_498" data-name="Group 498" transform="translate(1769.705 217.414)">
      <path id="Path_789" data-name="Path 789" d="M1805.352,267.379a.524.524,0,0,1-.068,0l-12.22-1.506a.56.56,0,0,1-.486-.476l-1.535-10.6a.554.554,0,0,1,.071-.365l8.569-14.547a.561.561,0,0,1,.4-.269l3.279-.505.666-11.366a3.962,3.962,0,0,1,3.832-4.938,3.928,3.928,0,0,1,1.529.309,4,4,0,0,1,2.43,4.332l.867,18.282a.561.561,0,0,1-.092.336l-8.723,13.208,2.021,7.4a.56.56,0,0,1-.54.707Zm-11.727-2.57,10.967,1.352-1.869-6.844a.56.56,0,0,1,.074-.456l8.761-13.267-.862-18.164a.5.5,0,0,1,.01-.134,2.87,2.87,0,0,0-1.752-3.153,2.838,2.838,0,0,0-3.824,3.387.555.555,0,0,1,.019.185l-.7,11.908a.561.561,0,0,1-.474.521l-3.464.534-8.335,14.148Z" transform="translate(-1791.037 -222.801)" fill="#76c208"/>
    </g>
    <g id="Group_499" data-name="Group 499" transform="translate(1776.78 233.642)">
      <path id="Path_790" data-name="Path 790" d="M1803.319,265.041a.551.551,0,0,1-.287-.08.559.559,0,0,1-.192-.768l5.152-8.6-.011-5.348a.559.559,0,0,1,.559-.561h0a.56.56,0,0,1,.561.559l.011,5.5a.557.557,0,0,1-.08.289l-5.232,8.729A.559.559,0,0,1,1803.319,265.041Z" transform="translate(-1802.76 -249.688)" fill="#76c208"/>
    </g>
    <rect id="Rectangle_176" data-name="Rectangle 176" width="16.672" height="6.47" transform="translate(1742.515 259.075)" fill="#76c208"/>
    <g id="Group_500" data-name="Group 500" transform="translate(1737.226 217.414)">
      <path id="Path_791" data-name="Path 791" d="M1744.56,267.379a.561.561,0,0,1-.541-.707l2.023-7.4-8.723-13.208a.565.565,0,0,1-.092-.336l.867-18.282a4,4,0,0,1,2.43-4.332,3.947,3.947,0,0,1,5.174,2.117,3.971,3.971,0,0,1,.188,2.511l.666,11.366,3.279.505a.56.56,0,0,1,.4.269l8.57,14.547a.554.554,0,0,1,.071.365l-1.536,10.6a.56.56,0,0,1-.485.476l-12.22,1.506A.524.524,0,0,1,1744.56,267.379Zm-6.205-21.785,8.761,13.267a.557.557,0,0,1,.073.456l-1.869,6.844,10.968-1.352,1.445-9.985-8.335-14.148-3.464-.534a.561.561,0,0,1-.474-.521l-.7-11.908a.564.564,0,0,1,.02-.185,2.833,2.833,0,0,0-3.825-3.386,2.87,2.87,0,0,0-1.752,3.153.5.5,0,0,1,.01.134Z" transform="translate(-1737.226 -222.801)" fill="#76c208"/>
    </g>
    <g id="Group_501" data-name="Group 501" transform="translate(1745.447 233.642)">
      <path id="Path_792" data-name="Path 792" d="M1756.639,265.041a.56.56,0,0,1-.481-.272l-5.232-8.729a.554.554,0,0,1-.08-.289l.011-5.5a.57.57,0,0,1,.561-.559.559.559,0,0,1,.559.561l-.011,5.348,5.152,8.6a.56.56,0,0,1-.479.848Z" transform="translate(-1750.846 -249.688)" fill="#76c208"/>
    </g>
    <path id="Path_793" data-name="Path 793" d="M1778.528,215.66a3.393,3.393,0,1,0-2.913,0c-3.573.872-6.281,4.835-6.281,8.605h2.823v11.61h4.382v-7.638h1.055v7.638h4.392v-11.61h2.825C1784.811,220.495,1782.105,216.534,1778.528,215.66Z" transform="translate(-12.729 0)" fill="#76c208"/>
  </g>
</svg>
