<svg xmlns="http://www.w3.org/2000/svg" width="94.667" height="94.166" viewBox="0 0 94.667 94.166">
  <g id="world-class-manufacturing-icon" transform="translate(-635.666 -2298.056)">
    <path id="Path_917" data-name="Path 917" d="M-4064.985,2331.313l-19.392,20.469L-4100,2369.289l6.733,14.274,7,4.309,27.2-2.155,6.733-13.736V2352.86l-6.733-20.2Z" transform="translate(4775)" fill="#76c208"/>
    <path id="Path_910" data-name="Path 910" d="M1493.032,146.867v4.166h-94.667v-4.166h3.9v-80l12.369-10v46.5h6.5V79.617l12.369-10v33.75h20.131V84.617h35.5v62.25Zm-23.853-26.437c-12.807,3.691-15.557,22.431-15.41,22.431,18.594,3.184,24.817-7.019,25.251-7.525,11.795-17.728-5.862-41.718-5.934-41.718,1.52,12.187-9.694,15.6-18.668,19.938-15.479,9.625-5.137,27.278-5.137,27.278C1455.432,122.167,1469.179,120.43,1469.179,120.43Z" transform="translate(-762.699 2241.189)" fill="#fff"/>
  </g>
</svg>
