<svg xmlns="http://www.w3.org/2000/svg" width="147.636" height="21.883" viewBox="0 0 147.636 21.883">
  <g id="logo-gtradial" transform="translate(-192.618 -82.403)">
    <path id="Path_427" data-name="Path 427" d="M871.259,236.861,869.768,241H932.11l1.443-4.137Z" transform="translate(-599.546 -136.757)" fill="#00267f"/>
    <path id="Path_428" data-name="Path 428" d="M628.107,88h12.964l-5.617,16.246h16.452L657.618,88h66.24l1.976-5.592h-95.67Z" transform="translate(-385.581)" fill="#dc0017"/>
    <path id="Path_429" data-name="Path 429" d="M892.435,165.95l2.045-5.892h8.2a5.52,5.52,0,0,1,.553.024,1.573,1.573,0,0,1,1.443,1.492c0,1.711-2.442,1.756-2.863,1.875-.047.013,1.083,2.5,1.083,2.5h-3.656l-1.311-2.935h1.961s1.166-.094,1.179-.914c.011-.733-.854-.625-1.07-.625h-2.539l-1.394,4.473Z" transform="translate(-619.616 -68.755)" fill="#1a1311"/>
    <path id="Path_430" data-name="Path 430" d="M1207.357,159.961l-1.808,5.886h3.011l1.746-5.909Z" transform="translate(-896.846 -68.649)" fill="#1a1311"/>
    <path id="Path_431" data-name="Path 431" d="M1366.036,160l-1.841,5.9h7.725l.459-1.546h-4.5L1369.25,160Z" transform="translate(-1037.309 -68.706)" fill="#1a1311"/>
    <path id="Path_432" data-name="Path 432" d="M986.252,165.9l5.292-5.9h5.627s2.682,5.913,2.682,5.9-3.6,0-3.6,0l-.721-1.516-4.221-.023L989.9,165.9Zm6.3-2.934h2.381l-.793-1.756Z" transform="translate(-702.681 -68.706)" fill="#1a1311"/>
    <path id="Path_433" data-name="Path 433" d="M1238.547,165.967l5.312-5.888h5.628s2.693,5.9,2.693,5.892-3.607,0-3.607,0l-.721-1.541-4.221-.023-1.44,1.559Zm6.322-2.954h2.382l-.794-1.756Z" transform="translate(-926.062 -68.774)" fill="#1a1311"/>
    <path id="Path_434" data-name="Path 434" d="M1110.215,160.06s6.674-.008,6.721,0a2.354,2.354,0,0,1,2.141,3.054,3.475,3.475,0,0,1-2.814,2.741c-.438.069-1.15.1-1.15.1h-7.095Zm2.489,1.418-1.01,2.959h1.948s1.827,0,2.212-1.395c.295-1.071-.939-1.6-1.3-1.6-.481,0-1.852.035-1.852.035" transform="translate(-810.492 -68.754)" fill="#1a1311"/>
    <path id="Path_435" data-name="Path 435" d="M244.614,82.4H214.687A46.832,46.832,0,0,0,204.469,83.9a26.228,26.228,0,0,0-8.1,3.9c-1.88,1.446-4.1,4.145-3.712,7.47.37,3.183,2.817,4.676,4.1,5.591a21.631,21.631,0,0,0,6.114,2.507,40.2,40.2,0,0,0,7.753.915h26.229l4.458-12.963H220.589l-2.168,5.926h4.1l-.988,2.843h-4.544c-.468,0-3.527-.029-4.851-2.718a4.925,4.925,0,0,1,.19-4.654,8.111,8.111,0,0,1,3.7-3.368,16.9,16.9,0,0,1,5.508-1.307C222.6,87.983,224.1,88,224.1,88h18.486Z" transform="translate(0)" fill="#00267f"/>
  </g>
</svg>
