<svg xmlns="http://www.w3.org/2000/svg" width="195.256" height="22.019" viewBox="0 0 195.256 22.019">
  <g id="logo-dextero" transform="translate(338 34)">
    <path id="Path_436" data-name="Path 436" d="M-144.517-33.663H-165.39l-2.549,4.466h20.572l2.849-4.466Z" transform="translate(-122.314 -0.242)" fill="#1a1818"/>
    <path id="Path_437" data-name="Path 437" d="M-176.412-1.927l3.246-5.234H-189.7l-.009.015-3.6,0-7.956,12.9h20.053l2.719-4.289h-9.826l2.229-3.4Z" transform="translate(-98.345 -19.304)" fill="#1a1818"/>
    <path id="Path_438" data-name="Path 438" d="M-299.67-33.664l-35.712-.036L-338-29.3h30.619c2.757-.053,3.969,1.01,2.234,3.525l-3.35,4.884c-1.559,2.217-2.7,3.327-6.124,3.327h-3.831L-313-26.238h-11.958l-8.161,12.859h20.025c5.652,0,8.36.734,12.612-5.3l4.99-8.27c1.882-3.649.738-6.7-4.181-6.714Z" transform="translate(0 -0.216)" fill="#1a1818"/>
    <path id="Path_439" data-name="Path 439" d="M167.258-31.315H147.552l-2.778,4.407h13.532L148.23-10.839h8.822l12.881-20.476Z" transform="translate(-347.228 -1.931)" fill="#1a1818"/>
    <path id="Path_440" data-name="Path 440" d="M34.057-18.623H47l3.42-5.174H37.153l4.712-7.519H7.578l-3.79,4.407h9.1L2.807-10.839h8.822l10.076-16.07h8.536L20.167-10.839H42.532l2.784-4.4H31.791l2.265-3.38Z" transform="translate(-245.12 -1.931)" fill="#1a1818"/>
    <path id="Path_441" data-name="Path 441" d="M230.845-31.307l-2.819,4.485h2.1c4.556,0,3.007,3.506-1.167,4.8-3.309,1.026-3.99,2.612-3.1,4.74s2.838,6.317,2.838,6.317h7.015A41.057,41.057,0,0,1,232.7-16.95c-1.167-2.461,3.624-2.461,5.933-6.011,2.307-4.26-.178-8.354-4.793-8.354l-2.995.008Z" transform="translate(-405.287 -1.931)" fill="#1a1818"/>
    <path id="Path_442" data-name="Path 442" d="M293.711-22.991a5.313,5.313,0,0,1-5.261,4.872,4.544,4.544,0,0,1-4.632-4.872,5.308,5.308,0,0,1,5.261-4.866,4.539,4.539,0,0,1,4.632,4.866ZM289.479-34a12.023,12.023,0,0,0-11.907,11.009,10.275,10.275,0,0,0,10.477,11.01,12.023,12.023,0,0,0,11.909-11.01A10.278,10.278,0,0,0,289.479-34Z" transform="translate(-442.724)" fill="#1a1818"/>
    <path id="Path_443" data-name="Path 443" d="M-86.384-12.108h-10.98l19.689-20.425H-66.7L-86.384-12.108Z" transform="translate(-173.074 -1.055)" fill="#a71522"/>
    <path id="Path_444" data-name="Path 444" d="M-66.8-11.884h7.224L-72.865-32.533H-80.09L-66.8-11.884Z" transform="translate(-185.498 -1.055)" fill="#a71522"/>
  </g>
</svg>
